<?xml version="1.0" standalone="no"?>
<!DOCTYPE svg PUBLIC "-//W3C//DTD SVG 20010904//EN"
 "http://www.w3.org/TR/2001/REC-SVG-20010904/DTD/svg10.dtd">
<svg version="1.0" xmlns="http://www.w3.org/2000/svg"
 width="700.000000pt" height="700.000000pt" viewBox="0 0 700.000000 700.000000"
 preserveAspectRatio="xMidYMid meet">
<metadata>
Created by potrace 1.11, written by Peter Selinger 2001-2013
</metadata>
<g transform="translate(0.000000,700.000000) scale(0.100000,-0.100000)"
fill="#000000" stroke="none">
<path d="M1839 6378 c-95 -117 -178 -216 -183 -220 -6 -4 -8 -9 -5 -12 2 -3
250 -6 549 -7 300 -1 549 -4 553 -6 4 -3 -384 -397 -862 -876 -1712 -1716
-1674 -1677 -1659 -1694 49 -60 205 -191 311 -262 304 -204 574 -238 827 -105
128 67 191 123 465 415 102 108 323 343 366 390 40 42 273 290 309 329 14 15
56 60 94 101 38 41 108 115 155 165 103 108 306 325 351 374 18 19 90 96 161
170 70 75 149 159 175 188 26 29 50 52 53 52 3 0 6 -243 6 -540 0 -297 3 -540
6 -540 4 0 17 11 30 23 13 13 94 86 179 162 85 77 174 156 196 178 23 21 49
44 58 50 16 11 17 83 17 883 1 944 3 899 -53 951 -12 12 -34 26 -48 31 -15 5
-412 10 -951 11 l-927 2 -173 -213z"/>
<path d="M4666 5541 c-1 -3 -2 -107 -2 -231 l1 -225 840 0 840 -1 0 -1959 c0
-1821 -1 -1964 -17 -2015 -39 -124 -98 -181 -238 -229 l-75 -26 -2672 -3
-2673 -2 0 534 0 535 -157 123 c-87 68 -175 137 -196 153 -22 17 -51 38 -66
48 l-28 17 1 -827 1 -828 28 -47 c31 -54 72 -88 143 -119 l49 -22 2745 0
c1510 0 2777 3 2815 6 161 13 272 39 375 85 179 81 311 235 379 444 51 155 50
86 51 2304 0 2276 5 2112 -60 2194 -18 22 -55 51 -88 67 l-57 28 -968 1 c-532
0 -969 -2 -971 -5z"/>
<path d="M4650 3462 c-773 -776 -896 -889 -1036 -958 -154 -74 -254 -48 -469
125 -82 65 -256 238 -370 365 -89 100 -163 181 -246 271 -126 137 -148 161
-166 183 l-18 23 -75 -67 c-41 -37 -109 -98 -150 -135 -41 -37 -85 -76 -98
-87 l-23 -20 28 -29 c15 -15 71 -76 123 -133 52 -58 110 -121 128 -140 l32
-35 -565 -560 -566 -560 163 -163 164 -163 30 33 c71 77 1075 1063 1083 1063
5 0 46 -34 92 -77 248 -226 455 -351 639 -385 66 -13 224 -7 290 11 36 9 115
41 175 71 152 76 288 179 504 384 l55 52 180 -180 c100 -100 360 -358 579
-575 l398 -394 161 159 c145 143 159 160 147 176 -8 9 -268 270 -577 578
l-564 561 515 517 514 518 -159 157 c-88 86 -162 158 -166 159 -4 1 -342 -334
-752 -745z"/>
</g>
</svg>
