<svg xmlns="http://www.w3.org/2000/svg" xmlns:xlink="http://www.w3.org/1999/xlink" viewBox="0 0 320 220"><defs><style>.a,.l{fill:none;}.b{clip-path:url(#a);}.c{fill:#b6d4ec;}.d{fill:#d6e6f2;}.e{fill:#04b8b5;}.f{fill:#155992;}.g,.k{fill:#fff;}.h{fill:#e11e19;}.i{fill:#0e3c62;}.j{fill:#248bd1;}.k{font-size:11.58px;font-family:SegoeUI, Segoe UI;}.l{stroke:#77addb;stroke-linecap:round;stroke-miterlimit:10;stroke-width:3px;}.m{fill:#77addb;}.n{isolation:isolate;}.o{fill:#e95653;}.p{fill:#f08e8c;}.q{fill:#c60006;}</style><clipPath id="a"><rect class="a" width="320" height="220"/></clipPath></defs><g class="b"><path class="c" d="M255.54,49.88,14.24,21.82,64.75,192.41l93.71,1.12,156.65,4.59C314.88,187.85,255.54,49.88,255.54,49.88Z"/><path class="d" d="M287.62,154l-.19,49.77a4.58,4.58,0,0,1-4.6,4.55l-36.12-.14a4.57,4.57,0,0,1-4.55-4.58l.15-40.65a.89.89,0,0,1,.27-.63l12.84-12.75a.94.94,0,0,1,.63-.26l27,.11A4.59,4.59,0,0,1,287.62,154Z"/><path class="e" d="M243.2,163l9.11,0a3.68,3.68,0,0,0,3.7-3.67l0-9.11Z"/><path class="e" d="M252.31,163.89l-9.12,0a.89.89,0,0,1-.81-.55.86.86,0,0,1,.2-1l12.84-12.75a.9.9,0,0,1,1-.19.88.88,0,0,1,.54.82l0,9.11A4.58,4.58,0,0,1,252.31,163.89Zm-7-1.8,7,0a2.82,2.82,0,0,0,2.82-2.79l0-7Z"/><path class="f" d="M278.51,189.57l-26.07-.1a.88.88,0,0,1-.88-.89l.07-16.69a.88.88,0,0,1,1.76,0l-.06,15.82,24.3.09.09-21.59-20-.08a.89.89,0,0,1,0-1.77l20.86.08a.9.9,0,0,1,.88.89l-.09,23.36A.89.89,0,0,1,278.51,189.57Z"/><path class="f" d="M257.37,189.49a.88.88,0,0,1-.88-.89l.09-23.36a.88.88,0,1,1,1.76,0l-.09,23.36A.88.88,0,0,1,257.37,189.49Z"/><path class="f" d="M278.57,172.5l-26.06-.1a.89.89,0,1,1,0-1.77l26.06.1a.89.89,0,0,1,0,1.77Z"/><path class="f" d="M278.54,181.12l-26.06-.1a.89.89,0,0,1,0-1.77l26.07.1a.89.89,0,0,1,0,1.77Z"/><rect class="e" x="279.63" y="179.6" width="12.73" height="38.17" rx="2.12" transform="matrix(0, -1, 1, 0, 86.22, 483.92)"/><path class="g" d="M281.44,203.17l-1.09-1.9c-.44-.72-.72-1.2-1-1.69h0c-.24.49-.48.95-.93,1.7l-1,1.88H276.1l2.63-4.33-2.5-4.24h1.29l1.12,2c.32.56.56,1,.78,1.45h0c.25-.51.46-.9.78-1.45l1.18-2h1.28l-2.63,4.17,2.66,4.41Z"/><path class="g" d="M284.05,194.61h1.11l0,7.65h3.66v.93l-4.77,0Z"/><path class="g" d="M289.88,201.86a4,4,0,0,0,2,.57c1.13,0,1.8-.6,1.8-1.46s-.45-1.26-1.61-1.71c-1.4-.5-2.26-1.23-2.26-2.44s1.12-2.33,2.79-2.32a3.8,3.8,0,0,1,1.89.43l-.31.9a3.42,3.42,0,0,0-1.62-.41c-1.17,0-1.62.69-1.62,1.27,0,.81.51,1.2,1.69,1.67,1.45.56,2.19,1.26,2.18,2.52s-1,2.47-3,2.46a4.49,4.49,0,0,1-2.19-.55Z"/><path class="d" d="M23.53,101.19a4.2,4.2,0,0,0,4.27,4.15l41.33-.57a4.22,4.22,0,0,0,4.16-4.28l-.8-56.92a4.22,4.22,0,0,0-4.27-4.16l-30.9.43L22.88,54.68Z"/><path class="d" d="M26.77,106.27a5.27,5.27,0,0,1-2.67-1.39,5.21,5.21,0,0,1-1.58-3.68l-.65-46.5a1,1,0,0,1,.28-.72L36.59,39.14a1,1,0,0,1,.71-.31l30.9-.43a5.23,5.23,0,0,1,5.3,5.15l.8,56.93a5.22,5.22,0,0,1-5.16,5.3l-41.32.58A6,6,0,0,1,26.77,106.27ZM23.9,55.09l.64,46.08h0a3.2,3.2,0,0,0,3.25,3.16l41.32-.57a3.21,3.21,0,0,0,3.17-3.25l-.8-56.93a3.21,3.21,0,0,0-3.25-3.16l-30.48.42Z"/><path class="h" d="M22.88,54.68l10.42-.14a4.22,4.22,0,0,0,4.16-4.28l-.14-10.42Z"/><path class="h" d="M22.69,55.68a1,1,0,0,1-.54-1.7L36.59,39.14a1,1,0,0,1,1.1-.24,1,1,0,0,1,.64.93l.14,10.42a5.23,5.23,0,0,1-5.15,5.3l-10.43.15ZM36.34,42.29l-11,11.35,8-.11a3.21,3.21,0,0,0,3.16-3.25Z"/><path class="i" d="M33.91,64.68a1,1,0,0,1,.17-2l12.61-.17a1,1,0,1,1,0,2l-12.61.17Z"/><path class="i" d="M34.05,74.56a1,1,0,0,1,.17-2l12.61-.17a1,1,0,0,1,0,2l-12.61.18Z"/><path class="i" d="M51.62,74.31a1,1,0,0,1-.82-1l-.14-9.89a1,1,0,0,1,.29-.72,1,1,0,0,1,.71-.3l10.84-.15a1,1,0,0,1,1,1l.13,9.88a1,1,0,0,1-1,1l-10.85.15A.68.68,0,0,1,51.62,74.31Zm1.08-9.87.11,7.86,8.82-.13-.11-7.86Z"/><rect class="h" x="33.73" y="82.05" width="46.94" height="15.66" rx="2.61" transform="translate(-1.25 0.81) rotate(-0.8)"/><path class="g" d="M44.6,85.18a15.08,15.08,0,0,1,2.61-.24,4.34,4.34,0,0,1,3,.83,2.81,2.81,0,0,1,1,2.19,3.07,3.07,0,0,1-.78,2.27,4.37,4.37,0,0,1-3.21,1.2,4.14,4.14,0,0,1-1.09-.08l.06,4.23-1.36,0ZM46,90.24a4.59,4.59,0,0,0,1.13.1c1.64,0,2.63-.84,2.61-2.29s-1-2.06-2.51-2a6.07,6.07,0,0,0-1.28.13Z"/><path class="g" d="M52.93,85.08a18.44,18.44,0,0,1,2.89-.26,6,6,0,0,1,4.29,1.25,4.85,4.85,0,0,1,1.54,3.77A5.57,5.57,0,0,1,60.19,94a6.49,6.49,0,0,1-4.64,1.58,22.64,22.64,0,0,1-2.48-.09Zm1.49,9.3a8.12,8.12,0,0,0,1.38.06c2.91,0,4.47-1.69,4.43-4.54,0-2.48-1.45-4.05-4.33-4a7.8,7.8,0,0,0-1.59.17Z"/><path class="g" d="M63.36,84.79,69,84.71v1.14l-4.32.06,0,3.51,4-.06,0,1.13-4,.05.06,4.78-1.36,0Z"/><path class="d" d="M135.87,64.32a4,4,0,0,0,4,3.91l38.91-.54a4,4,0,0,0,3.91-4L182,10.06a4,4,0,0,0-4-3.91l-29.1.41-13.59,14Z"/><path class="d" d="M138.92,69.1a4.93,4.93,0,0,1-4-4.77l-.61-43.78a.94.94,0,0,1,.27-.68l13.59-14a1,1,0,0,1,.67-.29l29.1-.4a4.94,4.94,0,0,1,5,4.85l.74,53.6a4.85,4.85,0,0,1-1.39,3.5,4.9,4.9,0,0,1-3.46,1.49l-38.91.55A5.36,5.36,0,0,1,138.92,69.1Zm-2.7-48.19.6,43.4h0a3,3,0,0,0,3.06,3l38.91-.54a3,3,0,0,0,2.13-.91,3,3,0,0,0,.85-2.15L181,10.08a3,3,0,0,0-3.06-3l-28.7.4Z"/><path class="h" d="M135.26,20.53l9.81-.13a4,4,0,0,0,3.92-4l-.14-9.81Z"/><path class="h" d="M135.08,21.47a1,1,0,0,1-.69-.56.94.94,0,0,1,.19-1l13.59-14a1,1,0,0,1,1-.22.94.94,0,0,1,.6.87l.14,9.82a4.93,4.93,0,0,1-4.85,5l-9.82.13ZM147.93,8.86,137.54,19.55l7.52-.11a3,3,0,0,0,3-3.06Z"/><path class="i" d="M145.65,34.15a.95.95,0,0,1,.16-1.88l11.87-.17a1,1,0,0,1,0,1.91l-11.87.16A.58.58,0,0,1,145.65,34.15Z"/><path class="i" d="M145.78,43.46a1,1,0,0,1,.16-1.89l11.87-.16a1,1,0,1,1,0,1.9L146,43.48Z"/><path class="i" d="M162.32,43.23a1,1,0,0,1-.77-.92L161.42,33a1,1,0,0,1,.94-1l10.21-.14a.94.94,0,0,1,1,.93l.13,9.31a.9.9,0,0,1-.27.67.88.88,0,0,1-.66.29l-10.22.15Zm1-9.3.11,7.4,8.31-.12-.11-7.4Z"/><rect class="h" x="150.61" y="50.92" width="54.2" height="15.04" rx="2.5"/><path class="g" d="M153.08,53.73a15.46,15.46,0,0,1,2.54-.23,4.21,4.21,0,0,1,2.89.81,2.74,2.74,0,0,1,.92,2.13,3,3,0,0,1-.76,2.21,4.27,4.27,0,0,1-3.12,1.17,4.92,4.92,0,0,1-1.06-.08l0,4.11-1.32,0Zm1.39,4.93a4.39,4.39,0,0,0,1.1.09c1.6,0,2.56-.81,2.54-2.22s-1-2-2.45-2a5.87,5.87,0,0,0-1.24.12Z"/><path class="g" d="M161.18,53.64a18.7,18.7,0,0,1,2.81-.26,5.94,5.94,0,0,1,4.18,1.22,4.75,4.75,0,0,1,1.49,3.67,5.36,5.36,0,0,1-1.42,4,6.24,6.24,0,0,1-4.51,1.54,21.57,21.57,0,0,1-2.41-.08Zm1.45,9a10.25,10.25,0,0,0,1.34.06c2.83,0,4.35-1.65,4.31-4.42,0-2.42-1.41-3.94-4.21-3.9a7.57,7.57,0,0,0-1.55.16Z"/><path class="g" d="M171.32,53.36l5.53-.08v1.11l-4.2.06.05,3.41,3.88-.06v1.1l-3.88.05.07,4.65-1.33,0Z"/><path class="g" d="M191.91,59.37q0,4.16-3.73,4.15t-3.58-4v-6h1.15v5.94c0,2,.85,3,2.55,3s2.46-1,2.46-2.92v-6h1.15Z"/><path class="g" d="M183.48,52.24l-4.72,11.47h-1l4.71-11.47Z"/><path class="g" d="M202.54,63.35h-1.27l-1.05-2.75h-4.16l-1,2.75h-1.28l3.77-9.83h1.2Zm-2.69-3.79-1.55-4.19a4.18,4.18,0,0,1-.15-.66h0a4,4,0,0,1-.16.66l-1.53,4.19Z"/><path class="i" d="M174.51,20.75a6,6,0,0,0-5.15-8.8,6.09,6.09,0,0,0-5.07,2.94c-.31.49-1,1.74-.5,2.68a1,1,0,0,0,1.84-.78,3.51,3.51,0,0,1,1-1.6,3.7,3.7,0,0,1,6,.7,4,4,0,0,1,.13,3.95c-1.07,2.09-1.52,2.89-1.88,3.53-.26.47-.49.88-.88,1.64a2.14,2.14,0,0,1-2,1.08c-.25,0-.53-.15-.63-.71a1,1,0,0,0-2,.34,2.71,2.71,0,0,0,2.3,2.35,4,4,0,0,0,.49,0,4.21,4.21,0,0,0,3.6-2.18c.37-.73.59-1.13.84-1.58C173,23.69,173.43,22.87,174.51,20.75Z"/><path class="i" d="M169.43,23.24a.66.66,0,0,0,.92-.22c1.36-2.23,2.91-4.77,1.44-6.9a3,3,0,0,0-2.94-1.26,3.22,3.22,0,0,0-2.59,2.2,3,3,0,0,0,1,3c.12.15.31.36.38.47-.18.44-1.05,2.68-.54,3.53a.66.66,0,0,0,.57.32.73.73,0,0,0,.35-.09.68.68,0,0,0,.25-.87,7,7,0,0,1,.62-2.41c.33-.75-.21-1.35-.64-1.84s-.88-1.05-.69-1.69a1.88,1.88,0,0,1,1.52-1.26,1.61,1.61,0,0,1,1.63.7c.91,1.32,0,3-1.48,5.45A.66.66,0,0,0,169.43,23.24Z"/><circle class="i" cx="159.81" cy="25.3" r="1"/><circle class="i" cx="162.39" cy="23.34" r="1"/><circle class="i" cx="164.98" cy="21.38" r="1"/><path class="i" d="M176.8,18.91h0a.33.33,0,0,0,.33-.3,7.67,7.67,0,0,0,.05-.82,7.77,7.77,0,0,0-6.55-7.63.34.34,0,0,0-.38.28.34.34,0,0,0,.28.38,7.1,7.1,0,0,1,6,7c0,.25,0,.5,0,.75A.34.34,0,0,0,176.8,18.91Z"/><path class="i" d="M171.78,8.41a.34.34,0,0,0-.38.28.34.34,0,0,0,.28.38,8.4,8.4,0,0,1,7.08,8.25,8.65,8.65,0,0,1,0,.88.33.33,0,0,0,.3.37h0a.32.32,0,0,0,.33-.3,7.66,7.66,0,0,0,0-.95,9,9,0,0,0-7.64-8.91Z"/><path class="d" d="M68.13,206.48H31a4.69,4.69,0,0,1-4.69-4.69V160a.9.9,0,0,1,.26-.64l13.15-13.15a.9.9,0,0,1,.64-.26H68.13a4.69,4.69,0,0,1,4.69,4.69v51.12A4.69,4.69,0,0,1,68.13,206.48Z"/><path class="j" d="M41.29,146.89v9.36a4.71,4.71,0,0,1-4.7,4.69H27.23a.91.91,0,0,1-.64-1.55l13.15-13.15a.92.92,0,0,1,1-.2A1,1,0,0,1,41.29,146.89Z"/><path class="i" d="M62.33,169.07H36.81a.91.91,0,0,1,0-1.82H62.33a.91.91,0,1,1,0,1.82Z"/><path class="i" d="M62.33,177.94H36.81a.91.91,0,0,1,0-1.82H62.33a.91.91,0,1,1,0,1.82Z"/><rect class="j" x="36.81" y="184.87" width="40.75" height="13.59" rx="2.27"/><path class="g" d="M44.61,187.44a16.82,16.82,0,0,1,2.52-.19,5.31,5.31,0,0,1,3.71,1.14,4.25,4.25,0,0,1,1.29,3.29,4.86,4.86,0,0,1-1.32,3.56,5.63,5.63,0,0,1-4.05,1.32,18.69,18.69,0,0,1-2.15-.11Zm1.19,8.1a7.83,7.83,0,0,0,1.19.07,3.52,3.52,0,0,0,3.9-3.89c0-2.16-1.21-3.53-3.71-3.53a6.53,6.53,0,0,0-1.38.12Z"/><path class="g" d="M61.49,191.8c0,3.16-1.91,4.83-4.25,4.83s-4.12-1.88-4.12-4.65,1.81-4.81,4.25-4.81S61.49,189.09,61.49,191.8Zm-7.1.15c0,2,1.06,3.71,2.92,3.71s2.93-1.72,2.93-3.8c0-1.82-1-3.72-2.92-3.72S54.39,189.94,54.39,192Z"/><path class="g" d="M69.43,196.18a5.81,5.81,0,0,1-2.42.43A4.28,4.28,0,0,1,62.49,192a4.55,4.55,0,0,1,4.78-4.81,4.77,4.77,0,0,1,2.17.41l-.28,1a4.44,4.44,0,0,0-1.85-.38c-2.15,0-3.57,1.37-3.57,3.78a3.33,3.33,0,0,0,3.52,3.68,4.77,4.77,0,0,0,1.93-.38Z"/><path class="d" d="M281.89,105.18H246.62a4.46,4.46,0,0,1-4.46-4.46V61a.86.86,0,0,1,.25-.61l12.5-12.49a.86.86,0,0,1,.61-.25h26.37a4.46,4.46,0,0,1,4.46,4.46v48.58A4.46,4.46,0,0,1,281.89,105.18Z"/><path class="j" d="M256.38,48.54v8.9a4.47,4.47,0,0,1-4.46,4.45H243a.87.87,0,0,1-.79-.52.86.86,0,0,1,.18-.94l12.5-12.5a.86.86,0,0,1,.94-.19A.87.87,0,0,1,256.38,48.54Z"/><rect class="j" x="252.13" y="84.63" width="38.73" height="12.92" rx="2.15"/><path class="i" d="M258.81,77.56a.87.87,0,0,1-.61-.26l-5.95-5.94a.9.9,0,0,1-.25-.62.86.86,0,0,1,.25-.61l5.95-5.95a.87.87,0,0,1,1.23,1.23l-5.34,5.33,5.34,5.34a.86.86,0,0,1,0,1.22A.89.89,0,0,1,258.81,77.56Z"/><path class="i" d="M272.74,77.56a.87.87,0,0,1-.61-1.48l5.33-5.34-5.33-5.33a.87.87,0,1,1,1.23-1.23l5.94,5.95a.83.83,0,0,1,.26.61.87.87,0,0,1-.26.62l-5.94,5.94A.89.89,0,0,1,272.74,77.56Z"/><path class="i" d="M263.6,79.89a.83.83,0,0,1-.22,0,.87.87,0,0,1-.62-1.06l4.4-17.09a.87.87,0,0,1,1.69.43l-4.41,17.09A.87.87,0,0,1,263.6,79.89Z"/><text class="k" transform="translate(257.25 94.96)">HTML</text><line class="l" x1="159.08" y1="77.52" x2="158.65" y2="99.87"/><polygon class="m" points="155.32 78.54 159.18 72.14 162.8 78.68 155.32 78.54"/><path class="l" d="M90.87,92.68c8.34-.53,24.72.28,37,13.68"/><polygon class="m" points="92.31 96.38 85.52 93.24 91.64 88.93 92.31 96.38"/><path class="l" d="M230.74,90.82c-10.28-.64-33-.6-47.75,12.3"/><polygon class="m" points="229.92 87.04 236.1 91.25 229.36 94.5 229.92 87.04"/><path class="l" d="M84,161.09c5.22-7.86,15.77-24.59,38.31-23.66"/><polygon class="m" points="87.4 162.71 80.29 165.01 81.85 157.7 87.4 162.71"/><path class="l" d="M231.25,147.17c-4.51-6.76-14.52-18.76-30.42-20.53"/><polygon class="m" points="233.78 144.29 234.04 151.77 227.44 148.26 233.78 144.29"/><g class="n"><polygon class="o" points="152.97 126.09 152.95 135.86 152.9 167.56 132.82 156.46 132.88 124.76 132.9 114.98 152.97 126.09"/><polygon class="p" points="190.78 120.68 152.97 126.09 132.9 114.98 170.71 109.58 190.78 120.68"/><polygon class="q" points="190.46 121.22 157.6 125.53 138.78 116.14 171.81 111.1 190.46 121.22"/><polygon class="p" points="190.47 121.02 206.26 103.23 186.18 92.12 170.62 109.92 190.47 121.02"/></g><path class="h" d="M190.41,120.72l0,30.45c0,6.09-4.52,11.67-10.07,12.46l-27.76,4,.06-31.7,0-9.77Z"/><g class="n"><path class="p" d="M166.58,147.82h.29l.18,0h.09l.22,0h0l.25.08.07,0,.18.08.14.07-1-.53-.1,0,0,0-.18-.08-.07,0-.25-.08h0l-.22,0h-.09l-.18,0h-.1a.61.61,0,0,0-.19,0h-.09l-.28,0h0l-.31.07-.09,0-.25.08-.06,0-.25.11h0l-.12.06-.18.1-.12.08-.11.07,0,0a3.37,3.37,0,0,0-.37.29h0l0,0a2.37,2.37,0,0,0-.27.28l-.05,0,0,.06-.22.27-.05.06v0c-.09.13-.17.26-.25.4s0,0,0,0a1.42,1.42,0,0,0-.08.18l-.05.08c0,.11-.09.21-.13.31h0l-.06.21a.88.88,0,0,0-.05.15,1.89,1.89,0,0,0,0,.23s0,.09,0,.14l0,.26s0,.08,0,.12a2.42,2.42,0,0,0,0,.38,3.23,3.23,0,0,0,1.59,2.87l1,.52a3.18,3.18,0,0,1-1.59-2.86c0-.13,0-.26,0-.38s0-.09,0-.13l0-.25s0-.1,0-.15a1.74,1.74,0,0,1,0-.22s0-.1,0-.15,0-.14.07-.21a3.05,3.05,0,0,1,.13-.32.59.59,0,0,1,0-.08l.11-.22c.08-.13.16-.27.25-.4l.06-.08a3,3,0,0,1,.22-.28l.08-.1.28-.27,0,0a3.37,3.37,0,0,1,.37-.29l.15-.1.11-.08.19-.1.12-.06a1.39,1.39,0,0,1,.28-.12l.06,0,.25-.07.08,0c.11,0,.21,0,.32-.06h0l.28,0Z"/><path class="g" d="M166.21,147.85a3,3,0,0,1,3.42,3.18,4.26,4.26,0,0,1-3.4,4.22h0a3,3,0,0,1-3.42-3.18,4.26,4.26,0,0,1,3.4-4.22Z"/></g><g class="n"><path class="o" d="M182.11,149.32l0-.07h0l.06-.18a.58.58,0,0,1,.05-.14c0-.07,0-.14,0-.21s0-.09,0-.14l0-.23s0-.08,0-.12a2.17,2.17,0,0,0,0-.36,3,3,0,0,0-1.51-2.76l-1-.53a3,3,0,0,1,1.51,2.76c0,.12,0,.24,0,.36s0,.08,0,.12l0,.23,0,.14c0,.07,0,.14-.05.21s0,.1-.05.14l-.06.2,0,.07a1.6,1.6,0,0,1-.1.23l0,.11-.09.16c-.07.14-.15.26-.23.39l0,0a3.25,3.25,0,0,1-.23.29l-.08.1-.24.23a.23.23,0,0,1-.07.07c-.11.1-.23.19-.35.28l-.15.1-.11.07-.2.11-.08,0-.28.11-.08,0-.22.07-.08,0c-.1,0-.2.05-.3.06l-.27,0h-.36l-.17,0h-.09l-.2,0h0l-.24-.07-.07,0-.16-.07-.14-.07,1,.53.1.05h0l.17.08.07,0,.24.08h0l.2,0h.09l.17,0h.36l.27,0,.29-.06.09,0,.22-.07.08,0,.27-.11h0l.07-.05.21-.11.1-.06.13-.08,0,0A3,3,0,0,0,181,151l0,0,.05-.05a2.72,2.72,0,0,0,.24-.24l0,0,0,0a3.25,3.25,0,0,0,.23-.29l0,0h0a3,3,0,0,0,.24-.38.08.08,0,0,0,0,0,.54.54,0,0,0,.07-.13.47.47,0,0,1,0-.1Z"/><path class="p" d="M174.4,148.28c0-.11,0-.22,0-.34a1.46,1.46,0,0,0,.05-.2,2.64,2.64,0,0,1,.07-.3c0-.08.05-.15.07-.22l.09-.28,0-.1.15-.35a1.09,1.09,0,0,1,.08-.15,1.59,1.59,0,0,1,.15-.29l.06-.12.21-.33.05-.06a2.42,2.42,0,0,1,.27-.36l.07-.09c.08-.1.17-.19.26-.29l.05-.06.32-.3.1-.08.27-.21.1-.08.26-.17.15-.1.31-.16.11-.06.41-.17.11,0,.33-.1.12,0a3.43,3.43,0,0,1,.44-.09l.4,0h.52l.26,0h.12l.31.07h.05l.35.11.1,0,.25.1.2.1-1-.53-.15-.07-.05,0-.24-.11-.1,0-.36-.11h-.05a2.84,2.84,0,0,0-.31-.06l-.12,0-.25,0h-.53l-.4,0-.44.08-.12,0-.32.1-.12,0-.39.17h0l-.11.06-.31.17-.15.09-.19.12a.18.18,0,0,1-.07,0l-.1.08-.27.21-.09.08-.05,0-.28.27,0,.06a1.29,1.29,0,0,0-.16.17l-.1.11-.07.09-.26.34v0l0,.06a3,3,0,0,0-.21.33.75.75,0,0,0-.07.12l-.06.11-.09.18-.08.16-.15.34a.3.3,0,0,1,0,.1v0l-.09.27-.07.21c0,.1,0,.2-.07.3s0,.14,0,.21,0,.22,0,.34l0,.18c0,.17,0,.35,0,.52a4.49,4.49,0,0,0,2.22,4.06l1,.52a4.45,4.45,0,0,1-2.22-4c0-.18,0-.35,0-.53Z"/><path class="g" d="M179.14,143.15c2.65-.37,4.78,1.64,4.78,4.5a5.93,5.93,0,0,1-4.8,5.83,4.22,4.22,0,0,1-4.77-4.49A5.94,5.94,0,0,1,179.14,143.15Zm0,8.69a4.06,4.06,0,0,0,3.26-4,2.87,2.87,0,0,0-3.25-3.06,4.05,4.05,0,0,0-3.27,4,2.88,2.88,0,0,0,3.26,3.06"/></g><g class="n"><polygon class="o" points="180.02 141.98 179.05 141.46 179.06 138.57 180.03 139.1 180.02 141.98"/><polygon class="p" points="180.03 139.1 179.06 138.57 180.2 138.41 181.17 138.94 180.03 139.1"/><polygon class="g" points="181.17 138.94 181.17 141.82 180.02 141.98 180.03 139.1 181.17 138.94"/></g><g class="n"><path class="p" d="M181.08,130.51h.1l.18,0h.09l.22,0h0l.25.08.07,0,.18.08.14.07h0l-1-.53-.1-.05,0,0-.18-.08-.07,0-.25-.08h0l-.22,0h-.09l-.18,0h-.1a.6.6,0,0,0-.19,0h-.09l-.28,0h0l-.31.07-.09,0-.25.08-.06,0-.25.11h0l-.12.06-.18.1-.12.08-.11.07,0,0a3.37,3.37,0,0,0-.37.29h0l0,0a2.37,2.37,0,0,0-.27.28l-.05,0,0,.06a2.88,2.88,0,0,0-.22.27l0,.06,0,0c-.09.13-.17.27-.25.41s0,0,0,0a1,1,0,0,0-.09.18l-.05.08-.12.31h0l-.06.21a.88.88,0,0,0-.05.15c0,.07,0,.15,0,.22l0,.15a2.17,2.17,0,0,0,0,.25s0,.09,0,.13,0,.25,0,.38a3.23,3.23,0,0,0,1.59,2.87l1,.52a3.18,3.18,0,0,1-1.59-2.86,2.36,2.36,0,0,1,0-.38s0-.09,0-.13l0-.25s0-.1,0-.15a1.74,1.74,0,0,1,0-.22,1.42,1.42,0,0,1,.05-.16l.06-.2a3.05,3.05,0,0,1,.13-.32.36.36,0,0,0,0-.09l.11-.21c.08-.14.16-.27.25-.4l.06-.08a3,3,0,0,1,.22-.28l.09-.1.26-.27a.12.12,0,0,0,.05-.05l.37-.28.15-.11.11-.07.19-.1.12-.06.28-.13.06,0,.25-.08.09,0a2.84,2.84,0,0,1,.31-.06h0l.28,0h.28Z"/><path class="g" d="M180.52,130.54a3,3,0,0,1,3.42,3.18,4.26,4.26,0,0,1-3.39,4.22h-.05a3,3,0,0,1-3.42-3.18,4.26,4.26,0,0,1,3.4-4.22Z"/></g><g class="n"><polygon class="o" points="173.16 143.58 172.2 143.05 170.31 141.28 171.28 141.81 173.16 143.58"/><polygon class="p" points="171.28 141.81 170.31 141.28 171.12 140.29 172.09 140.82 171.28 141.81"/><polygon class="g" points="172.09 140.82 173.98 142.59 173.16 143.58 171.28 141.81 172.09 140.82"/></g><g class="n"><path class="p" d="M167.7,133.47H168l.19,0h.09l.22,0h0l.26.08.07,0,.17.07.15.07-1-.52-.11-.06h0l-.17-.08-.07,0-.25-.07h0l-.22-.05h-.09l-.18,0h-.38l-.28,0h0c-.11,0-.21,0-.32.06l-.08,0-.25.08-.06,0-.26.1,0,0-.11.06-.19.1-.12.08-.1.06s0,0,0,0a3.37,3.37,0,0,0-.37.29h0a.08.08,0,0,1,0,0l-.27.27,0,.05,0,.05a3,3,0,0,0-.22.28l-.05.06v0c-.09.13-.17.27-.25.4l0,0-.09.19,0,.08c-.05.1-.09.21-.13.31h0a1.72,1.72,0,0,0-.07.21.88.88,0,0,1-.05.15c0,.07,0,.15-.05.22l0,.15,0,.25s0,.08,0,.13,0,.25,0,.38a3.18,3.18,0,0,0,1.59,2.86l1,.53a3.18,3.18,0,0,1-1.59-2.86,2.54,2.54,0,0,1,0-.39.59.59,0,0,1,0-.13l0-.24,0-.16c0-.07,0-.14.05-.21a1.42,1.42,0,0,0,.05-.16,1.18,1.18,0,0,1,.07-.2,3.05,3.05,0,0,1,.13-.32l0-.09a2.12,2.12,0,0,1,.11-.21c.07-.14.16-.27.24-.4l.07-.09.21-.27.09-.1c.09-.09.18-.19.27-.27l.05-.05c.11-.1.24-.2.36-.29l.15-.1L166,134l.19-.1a.6.6,0,0,1,.11-.06l.29-.13.06,0,.25-.08.08,0a1.7,1.7,0,0,1,.31-.06h0l.29,0Z"/><path class="g" d="M167.32,133.5a3,3,0,0,1,3.43,3.18,4.26,4.26,0,0,1-3.4,4.22h0a3,3,0,0,1-3.42-3.18,4.25,4.25,0,0,1,3.39-4.22Z"/></g><g class="n"><polygon class="o" points="170.7 151.54 169.73 151.01 169.73 149.78 170.7 150.31 170.7 151.54"/><polygon class="p" points="170.7 150.31 169.73 149.78 172.4 149.4 173.37 149.93 170.7 150.31"/><polygon class="g" points="173.37 149.93 173.37 151.17 170.7 151.54 170.7 150.31 173.37 149.93"/></g></g></svg>