<?xml version="1.0" encoding="utf-8"?>
<!-- Generator: Adobe Illustrator 24.1.3, SVG Export Plug-In . SVG Version: 6.00 Build 0)  -->
<svg version="1.1" id="Wortbildmarke" xmlns="http://www.w3.org/2000/svg" xmlns:xlink="http://www.w3.org/1999/xlink" x="0px"
	 y="0px" viewBox="0 0 158 38" style="enable-background:new 0 0 158 38;" xml:space="preserve">
<style type="text/css">
	.st0{fill:#212934;}
	.st1{fill:#E11E19;}
</style>
<g>
	<g>
		<path class="st0" d="M49.3,25.9c-1.5,0.8-3.3,1.2-5.5,1.2c-2.9,0-5.1-0.9-6.9-2.8c-1.7-1.8-2.6-4.3-2.6-7.2c0-3.2,1-5.8,2.9-7.8
			s4.4-3,7.4-3c1.9,0,3.5,0.3,4.7,0.8v2.5c-1.4-0.8-3-1.2-4.8-1.2c-2.3,0-4.2,0.8-5.6,2.3s-2.1,3.6-2.1,6.2c0,2.4,0.7,4.4,2,5.8
			c1.3,1.5,3.1,2.2,5.3,2.2c2,0,3.8-0.4,5.2-1.3V25.9z"/>
		<path class="st0" d="M56.5,26.7h-2.4V6.6h2.4V26.7z"/>
		<path class="st0" d="M62.5,26.7V6.6h5.7c1.7,0,3.1,0.4,4.1,1.3c1,0.8,1.5,2,1.5,3.3c0,1.1-0.3,2.1-0.9,3c-0.6,0.8-1.5,1.4-2.5,1.8
			v0.1c1.4,0.2,2.4,0.7,3.2,1.5s1.2,2,1.2,3.4c0,1.7-0.6,3.1-1.8,4.2c-1.2,1.1-2.8,1.6-4.7,1.6H62.5z M64.8,8.8v6.5h2.4
			c1.3,0,2.3-0.3,3-0.9s1.1-1.5,1.1-2.6c0-2-1.3-2.9-3.8-2.9H64.8z M64.8,17.4v7.2H68c1.4,0,2.5-0.3,3.2-1s1.1-1.5,1.1-2.7
			c0-2.4-1.6-3.6-4.8-3.6H64.8z"/>
	</g>
	<g>
		<path class="st0" d="M96.1,26.2c-1.1,0.7-2.4,1-3.9,1c-2,0-3.7-0.7-4.9-2c-1.3-1.3-1.9-3.1-1.9-5.2c0-2.4,0.7-4.3,2-5.7
			c1.4-1.4,3.2-2.1,5.4-2.1c1.3,0,2.4,0.2,3.3,0.7v2.4c-1.1-0.7-2.2-1.1-3.4-1.1c-1.5,0-2.7,0.5-3.6,1.6c-0.9,1.1-1.4,2.4-1.4,4.1
			c0,1.7,0.4,3,1.3,4c0.9,1,2.1,1.5,3.5,1.5c1.3,0,2.4-0.4,3.5-1.2V26.2z"/>
		<path class="st0" d="M106.2,27.2c-2.1,0-3.8-0.7-5.1-2c-1.3-1.3-1.9-3.1-1.9-5.3c0-2.4,0.7-4.3,2-5.6s3.1-2,5.3-2
			c2.1,0,3.8,0.7,5,2c1.2,1.3,1.8,3.1,1.8,5.5c0,2.3-0.6,4.1-1.9,5.5C110.1,26.6,108.4,27.2,106.2,27.2z M106.4,14.2
			c-1.5,0-2.6,0.5-3.5,1.5c-0.9,1-1.3,2.4-1.3,4.2c0,1.7,0.4,3,1.3,4c0.9,1,2,1.5,3.5,1.5c1.5,0,2.6-0.5,3.4-1.4
			c0.8-1,1.2-2.3,1.2-4.1c0-1.8-0.4-3.2-1.2-4.1C109,14.7,107.9,14.2,106.4,14.2z"/>
		<path class="st0" d="M117.1,26.1v-2.8c0.3,0.3,0.7,0.5,1.1,0.8c0.4,0.2,0.9,0.4,1.4,0.6c0.5,0.2,1,0.3,1.5,0.4s1,0.1,1.4,0.1
			c1.4,0,2.5-0.3,3.2-0.8c0.7-0.5,1.1-1.3,1.1-2.3c0-0.5-0.1-1-0.4-1.4c-0.2-0.4-0.6-0.8-1-1.1c-0.4-0.3-0.9-0.6-1.5-1
			c-0.6-0.3-1.2-0.6-1.9-1c-0.7-0.4-1.4-0.7-2-1.1c-0.6-0.4-1.1-0.8-1.6-1.2c-0.4-0.4-0.8-0.9-1.1-1.5c-0.3-0.6-0.4-1.2-0.4-2
			c0-0.9,0.2-1.7,0.6-2.4s0.9-1.2,1.6-1.7c0.7-0.4,1.4-0.8,2.2-1c0.8-0.2,1.7-0.3,2.6-0.3c2,0,3.4,0.2,4.3,0.7v2.6
			c-1.2-0.8-2.7-1.2-4.6-1.2c-0.5,0-1,0.1-1.5,0.2c-0.5,0.1-1,0.3-1.4,0.5c-0.4,0.2-0.7,0.6-1,0.9s-0.4,0.8-0.4,1.4
			c0,0.5,0.1,1,0.3,1.3c0.2,0.4,0.5,0.7,0.8,1c0.4,0.3,0.8,0.6,1.4,0.9c0.5,0.3,1.2,0.6,1.9,1c0.7,0.4,1.4,0.7,2,1.1
			c0.6,0.4,1.2,0.8,1.7,1.3c0.5,0.5,0.9,1,1.2,1.6c0.3,0.6,0.4,1.2,0.4,2c0,1-0.2,1.8-0.6,2.5s-0.9,1.2-1.6,1.7
			c-0.7,0.4-1.4,0.7-2.3,0.9c-0.9,0.2-1.8,0.3-2.7,0.3c-0.3,0-0.7,0-1.2-0.1c-0.5-0.1-0.9-0.1-1.4-0.2s-0.9-0.2-1.4-0.4
			C117.7,26.4,117.4,26.3,117.1,26.1z"/>
		<path class="st0" d="M144.3,12.6l-6.6,16.6c-1.2,3-2.8,4.5-5,4.5c-0.6,0-1.1-0.1-1.5-0.2v-2.1c0.5,0.2,0.9,0.3,1.4,0.3
			c1.2,0,2-0.7,2.6-2.1l1.1-2.7l-5.6-14.3h2.5l3.9,11c0,0.1,0.1,0.5,0.3,1.1h0.1c0-0.2,0.1-0.6,0.3-1.1l4.1-11.1H144.3z"/>
		<path class="st0" d="M146.6,26.4v-2.5c1.3,0.9,2.6,1.4,4.1,1.4c2,0,3-0.7,3-2c0-0.4-0.1-0.7-0.3-1c-0.2-0.3-0.4-0.5-0.7-0.7
			c-0.3-0.2-0.6-0.4-1-0.6c-0.4-0.2-0.8-0.3-1.3-0.5c-0.6-0.3-1.2-0.5-1.7-0.8c-0.5-0.3-0.9-0.5-1.2-0.9c-0.3-0.3-0.6-0.7-0.7-1.1
			c-0.2-0.4-0.2-0.9-0.2-1.4c0-0.7,0.2-1.3,0.5-1.8c0.3-0.5,0.7-1,1.2-1.3c0.5-0.4,1.1-0.6,1.8-0.8c0.7-0.2,1.3-0.3,2-0.3
			c1.2,0,2.4,0.2,3.3,0.6v2.3c-1.1-0.7-2.3-1-3.6-1c-0.4,0-0.8,0-1.2,0.1c-0.3,0.1-0.6,0.2-0.9,0.4c-0.2,0.2-0.4,0.4-0.6,0.6
			c-0.1,0.2-0.2,0.5-0.2,0.8c0,0.4,0.1,0.7,0.2,0.9c0.1,0.3,0.3,0.5,0.6,0.7c0.3,0.2,0.6,0.4,1,0.5c0.4,0.2,0.8,0.3,1.3,0.5
			c0.6,0.2,1.2,0.5,1.7,0.7c0.5,0.3,0.9,0.5,1.3,0.9c0.4,0.3,0.6,0.7,0.8,1.1s0.3,0.9,0.3,1.5c0,0.7-0.2,1.3-0.5,1.8
			c-0.3,0.5-0.7,1-1.3,1.3c-0.5,0.3-1.1,0.6-1.8,0.8c-0.7,0.2-1.4,0.3-2.1,0.3C149,27.2,147.7,27,146.6,26.4z"/>
	</g>
	<g>
		<path class="st1" d="M5.5,20.5c-2,0-3.6,1.7-3.6,3.7c0,2,1.7,3.6,3.7,3.6c2,0,3.6-1.7,3.6-3.7C9.2,22.1,7.5,20.4,5.5,20.5z"/>
		<path class="st1" d="M20.8,12.7c2,0,3.6-1.7,3.6-3.7c0-2-1.7-3.6-3.7-3.6c-2,0-3.6,1.7-3.6,3.7C17.1,11.1,18.7,12.7,20.8,12.7z"/>
		<path class="st1" d="M6.7,6.5c-2,0-3.6,1.7-3.6,3.7c0,2,1.7,3.6,3.7,3.6c2,0,3.6-1.7,3.6-3.7C10.3,8.1,8.7,6.5,6.7,6.5z"/>
		<rect x="10.3" y="23.5" class="st1" width="2.8" height="1.2"/>
		<rect x="20.2" y="13.8" class="st1" width="1.2" height="2.8"/>
		<rect x="11.8" y="14.4" transform="matrix(0.7071 -0.7071 0.7071 0.7071 -7.55 13.3721)" class="st1" width="1.2" height="2.8"/>
		<path class="st1" d="M19.3,17.6c-2.8,0-5.1,2.3-5.1,5.1c0,2.8,2.3,5.1,5.1,5.1c2.8,0,5.1-2.3,5.1-5.1
			C24.4,19.9,22.1,17.6,19.3,17.6z M19.3,26.2c-1.9,0-3.5-1.6-3.5-3.5s1.6-3.5,3.5-3.5c1.9,0,3.5,1.6,3.5,3.5S21.2,26.2,19.3,26.2z"
			/>
	</g>
</g>
</svg>
