<?xml version="1.0" standalone="no"?>
<!DOCTYPE svg PUBLIC "-//W3C//DTD SVG 20010904//EN"
 "http://www.w3.org/TR/2001/REC-SVG-20010904/DTD/svg10.dtd">
<svg version="1.0" xmlns="http://www.w3.org/2000/svg"
 width="700.000000pt" height="700.000000pt" viewBox="0 0 700.000000 700.000000"
 preserveAspectRatio="xMidYMid meet">
<metadata>
Created by potrace 1.11, written by Peter Selinger 2001-2013
</metadata>
<g transform="translate(0.000000,700.000000) scale(0.100000,-0.100000)"
fill="#E11E19" stroke="none">
<path d="M3468 6086 c-1 -2 -61 -6 -133 -10 -71 -3 -141 -8 -155 -10 -14 -2
-59 -10 -100 -16 -174 -27 -396 -88 -575 -157 -311 -121 -704 -340 -1035 -578
-72 -52 -330 -247 -361 -272 -13 -12 -91 -77 -174 -146 -222 -185 -454 -394
-670 -602 -133 -128 -205 -292 -210 -480 -6 -199 72 -379 225 -525 84 -79 264
-248 286 -267 18 -15 166 -149 198 -178 18 -17 158 -137 216 -185 29 -25 58
-49 64 -55 173 -158 743 -567 961 -690 161 -91 215 -119 307 -164 130 -62 198
-92 273 -120 33 -13 69 -27 80 -32 46 -20 257 -82 355 -104 94 -20 136 -28
285 -50 67 -10 456 -14 520 -5 33 4 83 11 110 14 168 19 428 89 640 173 279
110 549 260 905 500 106 72 507 381 558 430 7 7 34 29 60 50 26 21 49 40 52
43 3 3 39 34 80 70 41 36 81 72 90 80 9 8 39 35 66 59 82 72 264 242 325 302
117 117 193 263 218 424 9 56 7 206 -3 250 -35 164 -108 298 -221 409 -81 80
-213 203 -315 296 -52 47 -101 92 -110 101 -15 14 -208 181 -276 239 -313 264
-473 385 -790 596 -95 63 -174 114 -177 114 -3 0 -41 22 -84 48 -105 66 -381
200 -523 256 -275 107 -549 167 -823 182 -61 3 -117 7 -124 9 -6 2 -13 2 -15
1z m227 -479 c11 -3 45 -8 75 -12 157 -20 394 -87 570 -161 72 -30 367 -180
430 -218 252 -152 642 -436 860 -625 14 -12 34 -30 45 -39 101 -84 193 -164
280 -243 27 -25 70 -63 94 -85 386 -348 424 -395 424 -525 -1 -104 -28 -151
-170 -291 -65 -64 -131 -128 -148 -143 -16 -15 -55 -50 -85 -78 -30 -29 -91
-84 -135 -122 -44 -39 -85 -74 -91 -80 -30 -27 -74 -64 -124 -105 -30 -25 -57
-47 -60 -50 -8 -9 -177 -139 -260 -201 -561 -415 -1127 -665 -1625 -717 -91
-9 -391 -9 -475 0 -536 61 -1069 313 -1657 784 -78 63 -147 119 -155 126 -7 7
-33 31 -58 52 -259 227 -741 712 -779 784 -45 85 -47 204 -6 287 62 126 581
643 810 807 6 4 26 20 45 36 234 189 616 422 935 569 268 123 610 227 825 250
30 3 57 7 59 10 6 5 350 -4 376 -10z"/>
<path d="M3378 5175 c-1 -1 -28 -5 -58 -9 -148 -15 -322 -67 -465 -139 -642
-320 -951 -1065 -723 -1742 53 -156 166 -360 255 -461 16 -17 42 -46 58 -65
55 -62 179 -166 260 -218 308 -201 665 -274 1045 -215 130 20 420 128 420 156
0 10 -161 512 -240 748 -22 63 -37 116 -35 118 2 2 88 -40 192 -94 607 -313
601 -310 617 -289 30 40 106 194 135 273 58 156 80 269 88 450 19 415 -145
812 -454 1102 -204 191 -442 310 -746 370 -53 11 -340 23 -349 15z"/>
</g>
</svg>
