<?xml version="1.0" standalone="no"?>
<!DOCTYPE svg PUBLIC "-//W3C//DTD SVG 20010904//EN"
 "http://www.w3.org/TR/2001/REC-SVG-20010904/DTD/svg10.dtd">
<svg version="1.0" xmlns="http://www.w3.org/2000/svg"
 width="700.000000pt" height="700.000000pt" viewBox="0 0 700.000000 700.000000"
 preserveAspectRatio="xMidYMid meet">
<metadata>
Created by potrace 1.11, written by Peter Selinger 2001-2013
</metadata>
<g transform="translate(0.000000,700.000000) scale(0.100000,-0.100000)"
fill="#E11E19" stroke="none">
<path d="M1490 6747 c-65 -31 -205 -176 -282 -292 -135 -204 -224 -418 -244
-587 -5 -42 -3 -48 13 -49 24 -1 5783 -1 5805 0 17 1 17 31 15 473 l-2 472
-2630 2 -2631 1 -44 -20z"/>
<path d="M154 5421 c-2 -2 -4 -701 -4 -1553 l0 -1549 1008 3 1007 3 72 26
c176 64 318 194 412 378 27 52 69 179 76 227 3 22 9 46 12 54 12 28 10 2410
-1 2411 -37 3 -2578 3 -2582 0z m2176 -430 l55 -1 -1 -952 c0 -731 -3 -963
-13 -998 -34 -122 -104 -213 -201 -259 l-55 -26 -802 -3 -803 -3 0 1120 0
1120 43 3 c33 2 1530 1 1777 -1z"/>
<path d="M4389 5225 c-1 0 -3 -147 -4 -326 l-1 -327 47 14 c26 8 181 57 346
110 164 53 332 106 373 119 41 13 140 44 220 70 195 63 422 135 440 140 53 14
586 188 592 193 5 5 -1962 11 -2013 7z"/>
<path d="M6289 4757 c-75 -34 -156 -71 -180 -81 -24 -11 -78 -35 -119 -54 -74
-33 -122 -55 -210 -94 -25 -12 -74 -34 -110 -50 -61 -28 -90 -41 -165 -73 -16
-8 -111 -50 -210 -95 -99 -45 -193 -88 -210 -95 -49 -22 -285 -127 -500 -223
l-200 -90 -1 -348 c-1 -192 1 -352 3 -356 2 -4 12 -3 21 2 9 6 132 55 272 111
436 172 784 310 805 319 11 5 90 37 175 70 85 34 164 65 175 70 11 5 133 54
270 109 138 54 269 107 292 117 l42 18 0 403 c0 222 -3 403 -7 403 -4 -1 -68
-29 -143 -63z"/>
<path d="M6400 3240 c-14 -4 -128 -39 -255 -78 -126 -39 -327 -100 -445 -136
-118 -37 -260 -80 -315 -97 -55 -17 -111 -34 -125 -39 -14 -4 -70 -22 -125
-38 -84 -26 -170 -52 -400 -123 -16 -5 -75 -23 -130 -40 -245 -75 -336 -67
810 -66 l1020 2 2 313 c2 171 -1 312 -5 311 -4 0 -18 -4 -32 -9z"/>
<path d="M1099 2018 c-2 -18 -2 -15 5 -103 30 -385 239 -726 497 -811 51 -17
144 -18 1701 -19 1458 0 1648 -2 1648 -15 1 -8 1 -228 1 -488 l0 -474 690 3
c379 2 689 6 690 9 1 3 2 252 3 555 l1 550 40 2 c22 0 126 2 232 3 l192 3 1
398 0 399 -2850 0 c-2273 0 -2850 -3 -2851 -12z"/>
</g>
</svg>
