<?xml version="1.0" standalone="no"?>
<!DOCTYPE svg PUBLIC "-//W3C//DTD SVG 20010904//EN"
 "http://www.w3.org/TR/2001/REC-SVG-20010904/DTD/svg10.dtd">
<svg version="1.0" xmlns="http://www.w3.org/2000/svg"
 width="700.000000pt" height="700.000000pt" viewBox="0 0 700.000000 700.000000"
 preserveAspectRatio="xMidYMid meet">
<metadata>
Created by potrace 1.11, written by Peter Selinger 2001-2013
</metadata>
<g transform="translate(0.000000,700.000000) scale(0.100000,-0.100000)"
fill="#E11E19" stroke="none">
<path d="M2369 6780 c-20 -6 -226 -150 -309 -217 -8 -7 -94 -69 -190 -140 -96
-70 -180 -132 -187 -138 -6 -5 -39 -30 -73 -55 -34 -24 -137 -99 -229 -167
-91 -67 -199 -146 -239 -175 -40 -29 -78 -58 -85 -63 -7 -6 -37 -28 -67 -50
-30 -22 -62 -45 -70 -52 -8 -6 -69 -51 -135 -100 -66 -48 -124 -91 -130 -96
-5 -4 -91 -67 -190 -141 -99 -73 -185 -142 -192 -153 -35 -60 -22 -162 26
-206 14 -13 172 -131 351 -262 179 -132 336 -247 350 -258 130 -97 214 -159
545 -402 209 -154 382 -282 385 -285 3 -3 46 -34 95 -70 50 -35 92 -67 95 -70
3 -3 56 -42 118 -88 72 -53 125 -84 145 -86 43 -5 83 20 106 67 18 36 20 64
21 305 1 248 2 268 21 302 11 20 30 43 42 51 19 12 307 14 2097 15 2156 1
2097 -1 2136 38 38 39 39 49 40 491 2 438 -3 526 -37 660 -63 250 -199 426
-404 525 -55 26 -111 50 -125 53 -14 3 -35 8 -47 10 -71 17 -319 20 -1893 20
-1467 -1 -1739 2 -1762 13 -15 8 -37 32 -48 54 -18 36 -20 59 -20 292 0 139
-5 269 -10 289 -11 38 -53 84 -85 92 -11 3 -32 2 -46 -3z m-161 -905 c0 -157
1 -288 4 -290 2 -3 888 -6 1969 -7 l1964 -3 47 -22 c98 -45 153 -134 184 -298
4 -22 8 -154 9 -292 l2 -253 -96 0 c-53 0 -993 0 -2088 -1 l-1993 0 0 -72 c0
-40 -1 -181 -1 -314 0 -134 -2 -243 -3 -243 -2 0 -172 127 -377 281 -206 155
-524 394 -707 531 l-333 251 65 46 c35 25 84 60 107 77 86 62 634 455 654 470
63 47 589 424 591 424 2 0 2 -128 2 -285z"/>
<path d="M4644 3448 c-18 -16 -38 -46 -44 -66 -5 -21 -10 -149 -10 -287 0
-224 -2 -254 -19 -292 -37 -80 166 -73 -2150 -73 -1431 0 -2077 -3 -2093 -11
-13 -5 -35 -26 -48 -46 l-25 -37 0 -435 c0 -240 3 -465 7 -501 49 -425 298
-707 668 -756 30 -4 847 -8 1815 -8 1957 -2 1788 5 1825 -72 18 -37 20 -62 20
-299 0 -244 1 -261 21 -303 24 -49 74 -78 116 -67 24 6 72 36 101 63 7 6 35
26 60 44 26 17 49 34 52 38 3 3 91 68 195 145 105 76 251 184 325 239 74 54
167 122 205 151 81 60 323 238 410 302 33 24 101 74 150 111 50 38 199 148
332 246 133 97 252 191 264 208 28 39 31 128 6 174 -10 20 -83 81 -199 166
-381 281 -624 460 -648 478 -81 60 -549 405 -569 418 -13 10 -28 22 -35 27 -6
6 -112 85 -235 175 -206 151 -258 189 -361 264 -54 39 -95 40 -136 4z"/>
</g>
</svg>
