<?xml version="1.0" encoding="utf-8"?>
<!-- Generator: Adobe Illustrator 24.1.3, SVG Export Plug-In . SVG Version: 6.00 Build 0)  -->
<svg version="1.1" id="Layer_1" xmlns="http://www.w3.org/2000/svg" xmlns:xlink="http://www.w3.org/1999/xlink" x="0px" y="0px"
	 viewBox="0 0 700 700" style="enable-background:new 0 0 700 700;" xml:space="preserve" fill="#E11E19">
<g>
	<g>
		<path d="M53.6,650.5c39,94.3,131.2-1.4,174-25.4c11.8-9.5,20.4-6.2,26.2,2.3c53.3,78.3,210.2,75.5,301.2,43.6
			c7.5-7.5,7.3-14.2,2.5-18.3c-63.5-12.4-108.6,15.8-164.6,7.1c-61-8.6-60.7-37-101-62.7c-0.6-0.4-4.4-4.7-4.9-5.1
			c-29.5-22.6-70-21.5-99.5,13c-17.1,20-37.3,37.5-52.2,39.3c-14.9,0-21.9-20.5-27.2-27.6c-4.8-6.5-10.7-12.5-17.6-19.8
			c-12.8-13.4-71.9-10.4-57.3,4.9C48.2,617.7,47.5,634,53.6,650.5z"/>
	</g>
	<g>
		<path d="M609.6,170.8c27.8-27.8,27.8-73,0-100.8l-36.2-36.2C559.5,20,541.3,13,523,13c-18.2,0-36.5,7-50.4,20.9l-116.2,115
			l-196.3,195l138,138l198.6-197.2L609.6,170.8z M507.9,69.1c5.4-5.4,11.8-6.3,15.1-6.3c3.3,0,9.7,0.8,15.1,6.3l36.2,36.2
			c8.3,8.3,8.3,21.9,0,30.2l-114,114l-67.4-65.3L507.9,69.1z"/>
		<path d="M76.8,549.6c0,8.5,6.9,15.3,15.3,15.3l160.4-62.7L140.9,390.6L76.8,549.6z"/>
		<path d="M595,230.6l-150,150c-2.5,2.5-2.5,6.4,0,8.9l36.2,36.2l154.4-154.4L595,230.6z"/>
	</g>
</g>
</svg>
