<?xml version="1.0" standalone="no"?>
<!DOCTYPE svg PUBLIC "-//W3C//DTD SVG 20010904//EN"
 "http://www.w3.org/TR/2001/REC-SVG-20010904/DTD/svg10.dtd">
<svg version="1.0" xmlns="http://www.w3.org/2000/svg"
 width="700.000000pt" height="700.000000pt" viewBox="0 0 700.000000 700.000000"
 preserveAspectRatio="xMidYMid meet">
<metadata>
Created by potrace 1.11, written by Peter Selinger 2001-2013
</metadata>
<g transform="translate(0.000000,700.000000) scale(0.100000,-0.100000)"
fill="#E11E19" stroke="none">
<path d="M1090 6321 l0 -491 234 0 235 0 0 248 c0 136 0 252 0 257 1 7 151 9
433 8 238 0 1119 -3 1956 -5 1344 -3 1525 -5 1531 -18 4 -8 7 -152 7 -320 l-1
-305 -2657 -3 -2657 -2 2 -1808 2 -1807 458 0 457 0 0 -970 0 -970 1888 1
c1038 0 1901 3 1917 7 17 3 50 8 75 12 76 12 227 64 321 112 389 196 648 599
659 1025 1 51 3 248 4 438 l1 345 445 0 445 0 3 1808 2 1807 -449 0 -449 0 1
550 c0 303 -3 553 -6 557 -4 3 -1098 8 -2432 10 l-2425 4 0 -490z m495 -1406
c28 -4 68 -11 90 -17 22 -6 49 -12 60 -14 43 -8 146 -54 199 -89 116 -77 211
-220 242 -366 19 -88 14 -252 -10 -344 -23 -84 -78 -191 -128 -249 -103 -118
-282 -206 -478 -234 -25 -4 -113 -7 -195 -7 l-151 0 -1 -245 c-1 -135 -2 -298
-2 -362 l-1 -118 -220 0 -220 0 5 1007 c4 554 7 1008 8 1009 5 5 170 25 255
30 53 4 99 8 100 10 7 5 396 -4 447 -11z m2065 -15 c261 -37 448 -121 597
-269 194 -192 284 -489 252 -826 -12 -126 -18 -161 -45 -252 -77 -266 -232
-457 -469 -575 -62 -31 -174 -74 -215 -83 -8 -2 -35 -8 -60 -13 -43 -10 -79
-16 -152 -27 -181 -25 -536 -20 -756 11 l-43 6 5 882 c3 484 5 936 5 1002 l1
121 38 6 c20 4 66 9 102 12 36 4 101 10 145 14 120 10 498 5 595 -9z m2646
-202 l1 -188 -379 0 -378 0 -1 -192 c-2 -255 -2 -259 6 -266 4 -4 156 -8 338
-9 183 -1 339 -2 347 -2 13 -1 15 -28 15 -183 0 -101 -3 -185 -7 -188 -4 -3
-162 -4 -352 -3 -190 2 -346 -1 -347 -5 -1 -4 -3 -187 -5 -406 -2 -220 -6
-401 -9 -404 -4 -5 -53 -5 -315 -3 l-126 1 2 338 c1 185 3 644 5 1020 l4 683
600 -3 600 -3 1 -187z m-816 -2627 c8 -2 4 -788 -4 -841 -46 -306 -300 -565
-606 -616 -25 -4 -780 -8 -1677 -9 l-1633 -1 0 21 c-1 26 -1 1368 0 1415 l0
35 1958 -1 c1076 -1 1959 -2 1962 -3z"/>
<path d="M1267 4570 c-20 -4 -39 -9 -42 -11 -9 -10 -9 -589 1 -599 15 -15 159
-18 239 -5 124 21 205 77 252 173 23 49 27 70 28 147 0 74 -4 98 -23 137 -30
61 -100 122 -164 144 -55 18 -228 27 -291 14z"/>
<path d="M3290 4555 l-75 -10 -2 -145 c-4 -411 -3 -1183 2 -1188 9 -10 35 -12
130 -12 127 0 186 7 274 35 193 61 323 204 383 422 29 106 32 383 5 482 -57
207 -193 346 -387 396 -59 15 -104 21 -215 28 -22 2 -74 -2 -115 -8z"/>
</g>
</svg>
