<?xml version="1.0" standalone="no"?>
<!DOCTYPE svg PUBLIC "-//W3C//DTD SVG 20010904//EN"
 "http://www.w3.org/TR/2001/REC-SVG-20010904/DTD/svg10.dtd">
<svg version="1.0" xmlns="http://www.w3.org/2000/svg"
 width="700.000000pt" height="700.000000pt" viewBox="0 0 700.000000 700.000000"
 preserveAspectRatio="xMidYMid meet">
<metadata>
Created by potrace 1.11, written by Peter Selinger 2001-2013
</metadata>
<g transform="translate(0.000000,700.000000) scale(0.100000,-0.100000)"
fill="#E11E19" stroke="none">
<path d="M1389 6812 l-107 -3 0 -1512 -1 -1512 52 -50 c45 -42 195 -182 288
-266 15 -13 75 -69 135 -125 60 -56 136 -125 168 -155 33 -30 69 -63 80 -74
12 -11 102 -94 201 -185 99 -91 189 -174 201 -185 55 -52 256 -238 314 -290
36 -33 81 -74 100 -92 19 -18 37 -33 40 -33 3 0 134 129 292 288 158 158 783
783 1390 1389 l1103 1102 -1 845 c0 465 -3 848 -6 851 -5 6 -4055 12 -4249 7z
m3811 -431 l25 -1 -1 -520 c-1 -504 -1 -521 -21 -543 -16 -19 -100 -99 -373
-357 -186 -175 -376 -356 -440 -417 -41 -39 -93 -88 -115 -109 -22 -20 -112
-105 -199 -188 -88 -83 -171 -162 -186 -176 -15 -14 -96 -91 -181 -172 -85
-80 -172 -163 -194 -183 -38 -36 -272 -259 -468 -445 -49 -47 -114 -108 -144
-136 l-56 -51 -27 26 c-28 28 -254 239 -299 281 -28 26 -225 209 -366 339 -44
41 -87 82 -96 90 -9 9 -70 65 -135 126 -65 60 -138 128 -161 151 l-43 41 1
297 0 296 22 1 c12 0 342 1 732 2 638 2 713 4 740 18 116 64 120 220 8 285
l-44 26 -729 0 -729 1 0 233 0 233 1010 1 c1099 0 1043 -2 1093 54 46 52 51
137 12 196 -53 80 33 74 -1101 75 l-1010 1 -2 261 c-3 238 -1 262 14 265 14 2
3381 1 3463 -1z"/>
<path d="M6510 4910 c-8 -10 -76 -82 -150 -160 -74 -79 -150 -159 -169 -179
-18 -20 -68 -72 -109 -116 -42 -44 -112 -118 -156 -165 -45 -47 -149 -158
-232 -245 -84 -88 -166 -176 -184 -195 -18 -19 -94 -100 -169 -179 -75 -79
-154 -162 -176 -185 -184 -195 -306 -324 -335 -355 -19 -21 -100 -106 -180
-191 -80 -84 -160 -169 -179 -189 -79 -84 -309 -327 -346 -366 -22 -23 -101
-106 -175 -185 -74 -79 -155 -165 -180 -191 -43 -44 -261 -275 -344 -363 -21
-23 -97 -104 -170 -180 -72 -76 -147 -156 -166 -176 -139 -147 -171 -180 -178
-180 -4 0 -29 21 -57 47 -112 103 -273 251 -325 299 -30 27 -77 71 -105 96
-27 26 -59 55 -71 65 -12 10 -67 61 -124 113 -139 129 -143 132 -261 240 -121
111 -195 178 -264 242 -27 26 -63 59 -80 74 -34 30 -215 197 -286 261 -25 24
-49 43 -53 43 -3 0 -6 -219 -6 -487 l0 -487 42 -39 c41 -38 259 -243 338 -317
20 -19 97 -91 170 -160 73 -69 149 -141 169 -160 21 -19 97 -91 171 -160 73
-69 159 -149 189 -178 31 -30 81 -77 111 -104 30 -28 120 -112 199 -187 80
-75 168 -157 195 -183 l51 -47 45 48 c25 27 100 106 166 177 67 71 136 145
154 164 18 19 86 91 150 160 65 69 130 139 146 155 15 17 88 95 163 174 75 80
166 176 203 215 36 39 81 87 98 106 18 19 92 98 165 175 74 77 143 151 155
165 12 14 54 59 93 100 40 42 137 145 217 230 80 85 175 186 211 225 37 38 81
86 99 105 18 19 87 93 154 164 66 71 135 143 151 161 17 17 86 92 155 165 69
73 140 149 158 169 19 20 89 95 156 166 68 72 138 146 157 166 44 48 267 285
299 319 14 15 84 89 155 165 72 76 139 147 150 157 19 18 20 34 20 514 0 273
-2 497 -5 499 -3 2 -12 -5 -20 -15z"/>
</g>
</svg>
