<svg id="Layer_1" data-name="Layer 1" xmlns="http://www.w3.org/2000/svg" viewBox="0 0 260 260"><defs><style>.cls-1{fill:#e11e19;}</style></defs><path class="cls-1" d="M46.15,173.3a39.88,39.88,0,1,0,40.2,39.41A39.83,39.83,0,0,0,46.15,173.3Z"/><path class="cls-1" d="M212.56,88.26a39.88,39.88,0,1,0-40.22-39.42A39.8,39.8,0,0,0,212.56,88.26Z"/><path class="cls-1" d="M58.78,20.39A39.88,39.88,0,1,0,99,59.8,39.82,39.82,0,0,0,58.78,20.39Z"/><rect class="cls-1" x="98.74" y="206.54" width="30.92" height="13.29"/><rect class="cls-1" x="206.59" y="99.98" width="13.25" height="31.02"/><polygon class="cls-1" points="105.29 115.87 127.15 137.8 136.52 128.4 114.66 106.47 105.29 115.87"/><path class="cls-1" d="M196.41,142.26a55.62,55.62,0,1,0,55.44,55.62A55.53,55.53,0,0,0,196.41,142.26Zm0,93.51a37.89,37.89,0,1,1,37.77-37.89A37.87,37.87,0,0,1,196.41,235.77Z"/></svg>