<svg id="Layer_1" data-name="Layer 1" xmlns="http://www.w3.org/2000/svg" viewBox="0 0 260 260"><defs><style>.cls-1{fill:#e01e1b;}</style></defs><path class="cls-1" d="M45.29,126.58a39,39,0,1,1,39-39A39,39,0,0,1,45.29,126.58Zm0-60.69A21.73,21.73,0,1,0,67,87.62,21.76,21.76,0,0,0,45.29,65.89Z"/><path class="cls-1" d="M186,208.17A35.13,35.13,0,1,1,221.14,173,35.18,35.18,0,0,1,186,208.17Zm0-54.72A19.59,19.59,0,1,0,205.59,173,19.62,19.62,0,0,0,186,153.45Z"/><path class="cls-1" d="M183.4,81.91A32.54,32.54,0,1,1,216,49.38,32.57,32.57,0,0,1,183.4,81.91Zm0-47.83a15.3,15.3,0,1,0,15.31,15.3A15.31,15.31,0,0,0,183.4,34.08Z"/><ellipse class="cls-1" cx="111.72" cy="30.4" rx="21.79" ry="21.78"/><ellipse class="cls-1" cx="234.63" cy="114.59" rx="18.68" ry="18.67"/><ellipse class="cls-1" cx="84.27" cy="145.92" rx="13.86" ry="13.86"/><circle class="cls-1" cx="124.75" cy="73.42" r="8.5"/><circle class="cls-1" cx="106.03" cy="114.59" r="5.69"/><ellipse class="cls-1" cx="144.19" cy="116.82" rx="15.33" ry="15.32"/><ellipse class="cls-1" cx="180.02" cy="244.09" rx="11.53" ry="11.52"/><ellipse class="cls-1" cx="116.25" cy="165.18" rx="10.22" ry="10.22"/><circle class="cls-1" cx="73.23" cy="34.08" r="6.21"/><circle class="cls-1" cx="188.94" cy="109.34" r="7.48"/><circle class="cls-1" cx="230.4" cy="72.16" r="7.48"/><circle class="cls-1" cx="237.88" cy="157.7" r="7.48"/><circle class="cls-1" cx="150.85" cy="220.09" r="7.48"/><circle class="cls-1" cx="133.44" cy="195.51" r="7.48"/></svg>