<?xml version="1.0" standalone="no"?>
<!DOCTYPE svg PUBLIC "-//W3C//DTD SVG 20010904//EN"
 "http://www.w3.org/TR/2001/REC-SVG-20010904/DTD/svg10.dtd">
<svg version="1.0" xmlns="http://www.w3.org/2000/svg"
 width="700.000000pt" height="700.000000pt" viewBox="0 0 700.000000 700.000000"
 preserveAspectRatio="xMidYMid meet">
<metadata>
Created by potrace 1.11, written by Peter Selinger 2001-2013
</metadata>
<g transform="translate(0.000000,700.000000) scale(0.100000,-0.100000)"
fill="#E11E19" stroke="none">
<path d="M3377 6844 c-1 -1 -46 -4 -100 -8 -54 -3 -128 -10 -165 -16 -37 -5
-85 -11 -107 -14 -121 -16 -346 -70 -536 -130 -143 -45 -213 -124 -212 -241 0
-104 56 -180 152 -209 59 -17 112 -13 204 18 190 62 434 113 652 134 144 14
519 6 611 -12 12 -2 45 -7 75 -11 71 -9 227 -41 314 -66 104 -30 259 -81 270
-89 6 -4 28 -13 50 -20 109 -35 382 -180 540 -288 582 -397 1022 -1042 1161
-1702 21 -102 46 -152 96 -194 115 -99 297 -61 354 73 23 53 20 133 -10 248
-25 101 -89 310 -106 348 -5 11 -25 63 -46 115 -160 409 -427 810 -744 1115
-121 117 -130 125 -206 186 -391 316 -812 531 -1289 659 -89 24 -305 67 -371
75 -28 3 -61 7 -74 10 -57 11 -502 28 -513 19z"/>
<path d="M3320 5846 c-3 -2 -32 -7 -65 -10 -52 -6 -92 -12 -200 -31 -47 -8
-196 -48 -265 -72 -124 -42 -156 -60 -182 -100 -59 -96 -1 -255 103 -283 39
-11 55 -8 184 30 39 11 79 22 90 24 352 73 625 67 953 -20 170 -45 462 -171
577 -250 20 -13 38 -24 42 -24 18 0 247 -185 330 -267 172 -171 292 -337 399
-553 76 -152 119 -275 174 -497 22 -90 97 -138 197 -127 157 16 180 82 124
354 -121 584 -527 1159 -1051 1487 -216 135 -520 257 -743 297 -115 21 -147
26 -182 32 -48 7 -479 17 -485 10z"/>
<path d="M3485 4844 c-127 -31 -182 -145 -120 -249 36 -62 77 -78 205 -80 123
-2 202 -21 318 -75 180 -85 347 -232 432 -383 46 -82 82 -115 134 -122 58 -9
100 1 137 32 96 81 79 186 -60 369 -190 252 -489 441 -786 499 -42 8 -236 15
-260 9z"/>
<path d="M2460 4328 c-202 -14 -422 -74 -602 -163 -350 -176 -624 -475 -767
-840 -51 -129 -77 -230 -101 -387 -8 -59 -8 -377 1 -406 3 -9 -33 -33 -97 -66
-136 -70 -222 -133 -324 -236 -239 -239 -363 -554 -355 -900 2 -74 6 -146 9
-160 4 -14 9 -38 12 -54 15 -87 57 -208 104 -306 21 -42 98 -169 110 -180 3
-3 21 -25 40 -50 19 -25 56 -65 81 -91 48 -48 182 -159 192 -159 3 0 25 -13
49 -28 24 -16 68 -41 98 -56 l56 -26 2419 2 2420 3 80 29 c504 179 831 577
911 1106 10 63 10 251 0 335 -9 82 -45 224 -79 315 -134 353 -431 646 -787
775 -82 29 -164 53 -218 61 -19 3 -44 8 -56 10 -11 3 -82 7 -156 9 -126 4
-242 -8 -382 -41 -25 -6 -29 -2 -63 69 -108 230 -291 407 -515 500 -142 59
-245 77 -420 73 l-136 -3 -36 67 c-76 139 -248 343 -383 453 -61 50 -236 159
-309 192 -188 87 -391 141 -567 151 -57 3 -108 6 -114 8 -5 1 -57 -2 -115 -6z
m236 -432 c186 -20 398 -105 555 -223 201 -151 358 -385 419 -622 11 -43 22
-95 25 -117 3 -21 8 -52 11 -67 6 -28 6 -29 27 -10 104 91 265 148 427 152
324 8 608 -209 691 -528 21 -78 29 -223 15 -275 l-7 -29 38 32 c60 51 169 120
231 148 187 83 434 96 626 32 242 -80 437 -258 536 -490 17 -41 33 -81 35 -89
2 -8 8 -33 13 -55 17 -63 22 -110 23 -198 3 -424 -298 -786 -721 -867 -37 -7
-445 -11 -1240 -10 -3384 2 -3133 -2 -3285 61 -322 134 -507 469 -450 814 10
61 53 182 82 234 141 246 413 396 687 377 50 -3 103 -9 118 -12 l26 -6 -39 75
c-37 72 -92 219 -103 283 -28 145 -34 307 -16 406 5 24 11 59 14 78 27 176
159 420 307 570 186 189 442 313 691 336 35 3 64 7 65 8 4 4 136 -2 199 -8z"/>
</g>
</svg>
