<?xml version="1.0" encoding="utf-8"?>
<!-- Generator: Adobe Illustrator 21.1.0, SVG Export Plug-In . SVG Version: 6.00 Build 0)  -->
<svg version="1.1" id="Ebene_1" xmlns="http://www.w3.org/2000/svg" xmlns:xlink="http://www.w3.org/1999/xlink" x="0px" y="0px"
	 viewBox="0 0 283.5 128.4" style="enable-background:new 0 0 283.5 128.4;" xml:space="preserve">
<style type="text/css">
	.st0{fill:#E1211C;}
</style>
<g>
	<path class="st0" d="M113.8,115.7c0,5.8-6.9,12.3-12.8,12.3c-3.7,0-10.3,0-10.3,0l0-102.7h23.2V115.7z"/>
	<path class="st0" d="M146.1,25.4 M141.1,25.4c2.3,0,29.7,0,29.7,0c11.2,0,19.6,2.3,25.1,7c5.6,4.7,8.3,11.1,8.3,19.3
		c0,5.8-1.3,10.4-3.8,14c-2.5,3.6-5.8,6.3-9.9,8V74c11.5,3.2,17.3,11.3,17.3,24.2c0,4.6-0.7,8.8-2.1,12.4c-1.4,3.6-3.6,6.8-6.5,9.4
		c-3,2.6-6.7,4.6-11.3,6c-4.6,1.4-10.1,2-16.6,2h-42.2c0,0,0-90.6,0-90.5C129.2,32.8,136.3,25.4,141.1,25.4z M184.9,96.4
		c0-4.4-1-7.5-3.1-9.3c-2.1-1.9-5.6-2.8-10.7-2.8h-19.8v24.8h20.4c4.6,0,8-0.9,10.1-2.7C183.9,104.7,184.9,101.3,184.9,96.4z
		 M182.4,55.8c0-4.1-1-7-2.9-8.6c-1.9-1.6-5.1-2.4-9.4-2.4h-18.6v22.3h19.1c4.1,0,7.1-0.9,9-2.6C181.5,62.8,182.4,59.9,182.4,55.8z"
		/>
	<path class="st0" d="M60,45.2C31.5,41,24.5,50.7,24.5,76.8c0,25.2,7,34.6,37.8,31.4c9.7-1,12,2.1,13.8,17.2
		c-3.2,1.8-18.1,4.3-28.5,4c-15.5-0.5-28.4-4.3-35.8-13C4.3,107.8,0.6,94.3,0.6,76.1c0-36.8,16.5-51.9,48.6-51.9
		c15.7,0,26.2,4.7,26.2,4.7C72.7,45.6,69.9,46.7,60,45.2z"/>
	<path class="st0" d="M265,84.2c7.5,0,19-12.2,19-18.8c0,0,0-64.3,0-64.3h-58.9v83.1H265z"/>
</g>
</svg>
