<svg id="Layer_1" data-name="Layer 1" xmlns="http://www.w3.org/2000/svg" viewBox="0 0 260 260"><defs><style>.cls-1{fill:#e11e19;}</style></defs><path class="cls-1" d="M250.15,101.44a127.42,127.42,0,0,0-7-19.74L240.85,77l-2.48-4.62c-.8-1.56-1.78-3-2.68-4.51s-1.85-3-2.8-4.46A129.59,129.59,0,0,0,203.77,32.7a130.74,130.74,0,0,0-37.89-19.55,133.07,133.07,0,0,0-42.56-6.06l3.14,61.68a70.22,70.22,0,0,1,44.28,10.6,73.49,73.49,0,0,1,17.53,15.81L190,97.61c.58.82,1.24,1.59,1.75,2.46l1.64,2.55,1.5,2.62a77.45,77.45,0,0,1,4.94,11A74.12,74.12,0,0,1,204,140.34a75.74,75.74,0,0,1-35.24,64,78.55,78.55,0,0,1-24,10.28,80,80,0,0,1-26.49,1.85A81.63,81.63,0,0,1,69.5,194a87.7,87.7,0,0,1-9.19-10.49l-2.05-2.87-1.86-3c-.6-1-1.32-2-1.83-3l-1.64-3.12-.84-1.56-.7-1.62L50,165c-.52-1.07-.81-2.22-1.24-3.32s-.81-2.23-1.18-3.35l-.94-3.44a31.66,31.66,0,0,1-.87-3.45c-.44-2.34-1-4.67-1.24-7L44,140.86l-.2-3.59c-.23-2.4-.09-4.8-.08-7.22a33.61,33.61,0,0,1,.21-3.61l.29-3.62.55-3.59a35.92,35.92,0,0,1,.63-3.59c.55-2.37,1-4.78,1.76-7.09l1-3.53c.28-.72.52-1.47.77-2.21l23.43,13.53V39.89L6.22,78.12,29.84,91.76c-.18.33-.42.63-.59,1-.7,1.37-1.39,2.75-2.05,4.14l-1.69,4.28c-1.2,2.84-2,5.81-3,8.75-.5,1.47-.81,3-1.18,4.48l-1.06,4.51-.77,4.58c-.24,1.53-.54,3.06-.65,4.6-.28,3.09-.67,6.19-.67,9.3l-.11,4.68.2,4.68c.06,3.13.52,6.23.86,9.35.15,1.56.47,3.09.76,4.64l.88,4.63c.36,1.53.78,3.05,1.18,4.57s.74,3.07,1.29,4.55L24.81,179l.78,2.24.92,2.18,1.87,4.36c.58,1.48,1.4,2.83,2.09,4.26l2.19,4.22,2.43,4.08a119.21,119.21,0,0,0,11.35,15.37A116.24,116.24,0,0,0,76.3,239.91,117.76,117.76,0,0,0,189.87,241a121.06,121.06,0,0,0,31.82-24.5,123.34,123.34,0,0,0,22.23-34,124,124,0,0,0,6.23-81.08Z"/></svg>