<svg id="Layer_1" data-name="Layer 1" xmlns="http://www.w3.org/2000/svg" viewBox="0 0 163 38"><defs><style>.cls-1{fill:#e11e19;}.cls-2{fill:#fff;}.cls-3{fill:#212934;}</style></defs><rect class="cls-1" x="1" y="2.91" width="32.67" height="32.67" rx="5.03"/><g id="g6082"><g id="path6084"><path class="cls-2" d="M22,8.13a.6.6,0,0,0-.54.34.57.57,0,0,0,.13.61l4.84,4.79A.6.6,0,0,0,27,14a.56.56,0,0,0,.35-.51V8.68a.57.57,0,0,0-.56-.55Z"/></g><g id="path6088"><path class="cls-2" d="M8.65,8.13a.57.57,0,0,0-.57.57V30.59a.58.58,0,0,0,.57.57H21.39c1.88,0,6-4,6-6V16.5a.56.56,0,0,0-.16-.41L19.35,8.31a.55.55,0,0,0-.4-.18ZM9.22,9.3h9.49l7.54,7.46v8.07c0,1.51-3.53,5.24-5.38,5.24H9.22Z"/></g></g><path class="cls-3" d="M51.13,21.71H42.29v-17h2V19.91h6.84Z"/><path class="cls-3" d="M55.08,6.47a1.25,1.25,0,0,1-.89-.36,1.19,1.19,0,0,1-.36-.9,1.23,1.23,0,0,1,1.25-1.27A1.26,1.26,0,0,1,56,4.3a1.22,1.22,0,0,1,.38.91A1.19,1.19,0,0,1,56,6.1,1.23,1.23,0,0,1,55.08,6.47Zm1,15.24H54.09V9.56H56Z"/><path class="cls-3" d="M62.58,20h0v1.75h-2v-18h2v8h0a4.61,4.61,0,0,1,4.2-2.42,4.45,4.45,0,0,1,3.66,1.64,6.67,6.67,0,0,1,1.33,4.37,7.57,7.57,0,0,1-1.49,4.89A4.94,4.94,0,0,1,66.22,22,4,4,0,0,1,62.58,20Zm0-4.91v1.7a3.62,3.62,0,0,0,1,2.56,3.5,3.5,0,0,0,5.26-.3,6.21,6.21,0,0,0,1-3.77,4.88,4.88,0,0,0-.94-3.18,3.09,3.09,0,0,0-2.54-1.15,3.44,3.44,0,0,0-2.73,1.18A4.39,4.39,0,0,0,62.53,15.05Z"/><path class="cls-3" d="M81.83,11.53a2.42,2.42,0,0,0-1.48-.39,2.49,2.49,0,0,0-2.08,1.17,5.43,5.43,0,0,0-.84,3.21v6.19H75.49V9.56h1.94v2.5h0a4.3,4.3,0,0,1,1.27-2,2.9,2.9,0,0,1,1.91-.72,3.21,3.21,0,0,1,1.17.17Z"/><path class="cls-3" d="M94.32,16.12H85.73a4.58,4.58,0,0,0,1.1,3.14,3.77,3.77,0,0,0,2.87,1.1A6,6,0,0,0,93.48,19v1.83A7.12,7.12,0,0,1,89.24,22a5.12,5.12,0,0,1-4-1.66,6.77,6.77,0,0,1-1.47-4.66,6.64,6.64,0,0,1,1.6-4.62,5.19,5.19,0,0,1,4-1.79A4.57,4.57,0,0,1,93,10.82a6.4,6.4,0,0,1,1.31,4.28Zm-2-1.65a3.93,3.93,0,0,0-.81-2.62,2.76,2.76,0,0,0-2.23-.94,3.13,3.13,0,0,0-2.33,1,4.38,4.38,0,0,0-1.19,2.57Z"/><path class="cls-3" d="M105,22a7.83,7.83,0,0,1-3.31-.67,7.43,7.43,0,0,1-2.5-1.83,8.17,8.17,0,0,1-1.58-2.74,10.07,10.07,0,0,1-.55-3.38,11.46,11.46,0,0,1,.55-3.65A8,8,0,0,1,99.26,6.9a7.36,7.36,0,0,1,2.59-1.84,8.72,8.72,0,0,1,3.49-.66,7.84,7.84,0,0,1,3.24.65A7.19,7.19,0,0,1,111,6.84a8.06,8.06,0,0,1,1.54,2.72,10.36,10.36,0,0,1,.54,3.4,11.91,11.91,0,0,1-.52,3.6A8.24,8.24,0,0,1,111,19.42a7.16,7.16,0,0,1-2.53,1.9A8.19,8.19,0,0,1,105,22Zm.13-16.17a6.09,6.09,0,0,0-2.73.59,6,6,0,0,0-2,1.59,7,7,0,0,0-1.24,2.35,9.91,9.91,0,0,0-.43,2.87A9.75,9.75,0,0,0,99.12,16a7.14,7.14,0,0,0,1.17,2.34,5.54,5.54,0,0,0,2,1.62,6.09,6.09,0,0,0,2.78.61,6.66,6.66,0,0,0,2.8-.56,5.55,5.55,0,0,0,2-1.53,6.54,6.54,0,0,0,1.21-2.33,10,10,0,0,0,.41-3,11,11,0,0,0-.36-2.84A6.53,6.53,0,0,0,110,8a5.43,5.43,0,0,0-2-1.59A6.38,6.38,0,0,0,105.17,5.84Z"/><path class="cls-3" d="M122.54,5.15a2.38,2.38,0,0,0-1.31-.33c-1.43,0-2.14.93-2.14,2.79v2h3v1.33h-3V21.71h-1.52V10.89h-2.13V9.56h2.13v-2a5.69,5.69,0,0,1,.23-1.66,3.59,3.59,0,0,1,.68-1.27,3,3,0,0,1,1.14-.81,4,4,0,0,1,1.57-.29,3.31,3.31,0,0,1,1.35.23Z"/><path class="cls-3" d="M130.31,5.15A2.39,2.39,0,0,0,129,4.82q-2.13,0-2.13,2.79v2h3v1.33h-3V21.71h-1.52V10.89h-2.13V9.56h2.13v-2a5.37,5.37,0,0,1,.23-1.66,3.44,3.44,0,0,1,.68-1.27,3,3,0,0,1,1.13-.81A4.08,4.08,0,0,1,129,3.49a3.31,3.31,0,0,1,1.35.23Z"/><path class="cls-3" d="M133.16,6.48a1.06,1.06,0,0,1-.76-.31,1.1,1.1,0,0,1,0-1.55,1.09,1.09,0,0,1,.76-.3,1.22,1.22,0,0,1,.43.08,1,1,0,0,1,.35.22,1,1,0,0,1,.24.34,1,1,0,0,1,.09.43,1.07,1.07,0,0,1-.09.43,1,1,0,0,1-.23.35,1.32,1.32,0,0,1-.35.23A1.08,1.08,0,0,1,133.16,6.48Zm-.75,15.23V9.56h1.52V21.71Z"/><path class="cls-3" d="M146.54,21.17a6.35,6.35,0,0,1-3.27.84,5.54,5.54,0,0,1-2.35-.45,5.13,5.13,0,0,1-1.78-1.29A5.76,5.76,0,0,1,138,18.33a7.43,7.43,0,0,1-.39-2.44,8,8,0,0,1,.41-2.57,6.2,6.2,0,0,1,1.21-2.11,5.85,5.85,0,0,1,1.95-1.42,6.48,6.48,0,0,1,2.64-.52,6.54,6.54,0,0,1,2.75.58v1.62a5.08,5.08,0,0,0-2.87-.88,4.45,4.45,0,0,0-1.93.41,4.07,4.07,0,0,0-1.41,1.12,4.84,4.84,0,0,0-.88,1.65,6.54,6.54,0,0,0-.31,2,6.69,6.69,0,0,0,.26,1.86,4.62,4.62,0,0,0,.78,1.57,3.86,3.86,0,0,0,1.34,1.09,4.19,4.19,0,0,0,1.9.4,5,5,0,0,0,3.08-1Z"/><path class="cls-3" d="M150.8,15.91a7,7,0,0,0,.29,2,4.33,4.33,0,0,0,.82,1.5,3.62,3.62,0,0,0,1.3.95,4.52,4.52,0,0,0,1.73.32,6.21,6.21,0,0,0,3.88-1.43v1.49A7.07,7.07,0,0,1,154.6,22a5.46,5.46,0,0,1-2.22-.43,4.56,4.56,0,0,1-1.7-1.24,5.56,5.56,0,0,1-1.08-2,8.66,8.66,0,0,1-.38-2.71,7.57,7.57,0,0,1,.41-2.52,6.18,6.18,0,0,1,1.16-2,5.39,5.39,0,0,1,1.74-1.33,5.4,5.4,0,0,1,4.29-.07,4.14,4.14,0,0,1,1.51,1.17,5.28,5.28,0,0,1,.93,1.85,8.5,8.5,0,0,1,.32,2.45v.76ZM158,14.58a4.67,4.67,0,0,0-.91-2.95,3,3,0,0,0-2.41-1,3.75,3.75,0,0,0-1.43.27,3.52,3.52,0,0,0-1.15.79,4.31,4.31,0,0,0-.83,1.26,6.38,6.38,0,0,0-.46,1.67Z"/><path class="cls-3" d="M43.6,32V35.6H42.47V25.94h2.65a3.49,3.49,0,0,1,2.4.75,2.71,2.71,0,0,1,.86,2.13,2.92,2.92,0,0,1-1,2.25,3.63,3.63,0,0,1-2.56.88Zm0-5v4h1.19a2.66,2.66,0,0,0,1.78-.53,1.87,1.87,0,0,0,.62-1.51c0-1.28-.75-1.92-2.26-1.92Z"/><path class="cls-3" d="M55.12,35.76a4.23,4.23,0,0,1-3.29-1.36,5,5,0,0,1-1.23-3.52,5.3,5.3,0,0,1,1.26-3.71,4.36,4.36,0,0,1,3.42-1.39,4.14,4.14,0,0,1,3.22,1.34,5,5,0,0,1,1.23,3.53,5.3,5.3,0,0,1-1.26,3.73A4.29,4.29,0,0,1,55.12,35.76Zm.08-9a3.12,3.12,0,0,0-2.47,1.1,4.26,4.26,0,0,0-.95,2.88,4.25,4.25,0,0,0,.93,2.87,3,3,0,0,0,2.41,1.09,3.19,3.19,0,0,0,2.51-1,4.24,4.24,0,0,0,.91-2.9,4.42,4.42,0,0,0-.89-3A3.06,3.06,0,0,0,55.2,26.8Z"/><path class="cls-3" d="M73.77,25.94,71,35.6H69.72l-2-7.06a4.28,4.28,0,0,1-.15-1h0a5.09,5.09,0,0,1-.18,1l-2,7.08H64.06l-2.83-9.66h1.25l2.05,7.41a4.37,4.37,0,0,1,.16,1h0a5.06,5.06,0,0,1,.21-1l2.13-7.41h1.09l2,7.46a5.21,5.21,0,0,1,.16.9h0a6.11,6.11,0,0,1,.18-.93l2-7.43Z"/><path class="cls-3" d="M81.36,35.6H76.24V25.94h4.9v1H77.37v3.21h3.49v1H77.37v3.38h4Z"/><path class="cls-3" d="M91.17,35.6H89.83l-1.62-2.71a5.44,5.44,0,0,0-.43-.64,2.25,2.25,0,0,0-.43-.44,1.4,1.4,0,0,0-.47-.24,1.71,1.71,0,0,0-.57-.08h-.93V35.6H84.25V25.94h2.88a3.9,3.9,0,0,1,1.17.16,2.42,2.42,0,0,1,.93.48,2.24,2.24,0,0,1,.62.8,2.65,2.65,0,0,1,.22,1.13,2.75,2.75,0,0,1-.15.93,2.53,2.53,0,0,1-.43.75,2.49,2.49,0,0,1-.68.56,3,3,0,0,1-.88.36v0a2.1,2.1,0,0,1,.42.24,2.63,2.63,0,0,1,.34.33,5.34,5.34,0,0,1,.32.43l.35.55ZM85.38,27v3.5h1.54a2.45,2.45,0,0,0,.78-.12,2,2,0,0,0,.63-.37,1.69,1.69,0,0,0,.41-.59,2.11,2.11,0,0,0,.14-.77,1.49,1.49,0,0,0-.5-1.21A2.15,2.15,0,0,0,86.93,27Z"/><path class="cls-3" d="M98.65,35.6H93.53V25.94h4.91v1H94.67v3.21h3.48v1H94.67v3.38h4Z"/><path class="cls-3" d="M101.54,35.6V25.94h2.67q5.12,0,5.11,4.71a4.77,4.77,0,0,1-1.42,3.59,5.29,5.29,0,0,1-3.8,1.36ZM102.68,27v7.61h1.44a4.11,4.11,0,0,0,2.95-1,3.81,3.81,0,0,0,1.06-2.89q0-3.71-3.94-3.71Z"/><path class="cls-3" d="M117.06,35.6V25.94h2.75a3,3,0,0,1,2,.61,2,2,0,0,1,.73,1.6,2.4,2.4,0,0,1-.44,1.43,2.44,2.44,0,0,1-1.23.86v0a2.5,2.5,0,0,1,1.56.74,2.29,2.29,0,0,1,.59,1.62,2.53,2.53,0,0,1-.89,2,3.31,3.31,0,0,1-2.24.77ZM118.19,27v3.12h1.16a2.18,2.18,0,0,0,1.46-.45,1.55,1.55,0,0,0,.54-1.26q0-1.41-1.86-1.41Zm0,4.14v3.47h1.54a2.3,2.3,0,0,0,1.55-.47,1.61,1.61,0,0,0,.54-1.29c0-1.14-.77-1.71-2.33-1.71Z"/><path class="cls-3" d="M131.83,25.94,128.65,32V35.6h-1.13V32.05l-3.11-6.11h1.29l2.16,4.36c0,.06.11.25.24.6h0a3.23,3.23,0,0,1,.25-.6l2.27-4.36Z"/><path class="cls-3" d="M145.6,35.19a5.61,5.61,0,0,1-2.67.57,4.3,4.3,0,0,1-3.3-1.33A4.91,4.91,0,0,1,138.39,31a5.13,5.13,0,0,1,1.4-3.74,4.7,4.7,0,0,1,3.53-1.43,5.76,5.76,0,0,1,2.28.39v1.21a4.56,4.56,0,0,0-2.29-.58,3.52,3.52,0,0,0-2.7,1.11,4.18,4.18,0,0,0-1,3,3.94,3.94,0,0,0,1,2.81,3.27,3.27,0,0,0,2.53,1.05,4.68,4.68,0,0,0,2.52-.65Z"/><path class="cls-3" d="M149.73,35.6H148.6V25.94h1.13Z"/><path class="cls-3" d="M153.3,35.6V25.94h2.75a3,3,0,0,1,2,.61,2,2,0,0,1,.73,1.6,2.34,2.34,0,0,1-.44,1.43,2.44,2.44,0,0,1-1.23.86v0a2.55,2.55,0,0,1,1.57.74,2.28,2.28,0,0,1,.58,1.62,2.5,2.5,0,0,1-.89,2,3.31,3.31,0,0,1-2.24.77ZM154.44,27v3.12h1.15a2.23,2.23,0,0,0,1.47-.45,1.57,1.57,0,0,0,.53-1.26c0-.94-.62-1.41-1.85-1.41Zm0,4.14v3.47H156a2.28,2.28,0,0,0,1.55-.47,1.62,1.62,0,0,0,.55-1.29c0-1.14-.78-1.71-2.33-1.71Z"/></svg>