<svg xmlns="http://www.w3.org/2000/svg" xmlns:xlink="http://www.w3.org/1999/xlink" viewBox="0 0 80 80"><defs><style>.a{fill:none;}.b{clip-path:url(#a);}.c{fill:#6588ab;}</style><clipPath id="a"><rect class="a" width="80" height="80"/></clipPath></defs><g class="b"><path class="c" d="M22.34,30.05V62.51H11.52V30.05H22.34M33.16,62.51a5.41,5.41,0,0,1-5.41-5.41v-27a5.32,5.32,0,0,1,1.6-3.82L47.15,8.41,50,11.28a4,4,0,0,1,1.19,2.84l-.08.86L48.55,27.34H65.62A5.41,5.41,0,0,1,71,32.75v5.41a5.21,5.21,0,0,1-.38,2L62.48,59.21a5.36,5.36,0,0,1-5,3.3H33.16m0-5.41H57.59l8-18.94V32.75H41.84L44.9,18.36,33.16,30.13Z"/></g></svg>