<svg xmlns="http://www.w3.org/2000/svg" xmlns:xlink="http://www.w3.org/1999/xlink" viewBox="0 0 320 220"><defs><style>.a{fill:url(#a);}.b{fill:url(#b);}.c{fill:url(#c);}.d{fill:url(#d);}.e{fill:url(#e);}.f{fill:url(#f);}.g{fill:url(#g);}.h{fill:url(#h);}.i{fill:url(#i);}.j{fill:url(#j);}.k{fill:url(#k);}.l{fill:url(#l);}.m{fill:url(#m);}.n{fill:url(#n);}.aa,.ab,.ac,.ad,.ae,.o,.p,.v,.w,.x,.y,.z{fill:none;}.p{clip-rule:evenodd;}.q{clip-path:url(#o);}.r{fill:#b6d4ec;}.ck,.s{fill:#124e77;}.s{opacity:0.21;}.ao,.ci,.t{fill:#fff;}.t{stroke:#dce2f2;}.aa,.ab,.ac,.ad,.ae,.t,.v,.w,.x,.y,.z{stroke-miterlimit:10;}.u{fill:#dce2f2;}.aa,.ab,.ac,.ad,.ae,.v,.w,.x,.y,.z{stroke:#bec8d2;}.aa,.ab,.ac,.ad,.v,.w,.x,.y,.z{stroke-width:0.25px;}.w{stroke-dasharray:5.02 3.01;}.x{stroke-dasharray:4.74 2.85;}.y{stroke-dasharray:4.9 2.94;}.z{stroke-dasharray:2.5 1.5;}.aa{stroke-dasharray:5.03 3.02;}.ab{stroke-dasharray:3.75 2.25;}.ac{stroke-dasharray:4.91 2.95;}.ad{stroke-dasharray:5.01 3;}.ae{stroke-width:0.5px;}.af{fill:#009ee2;}.af,.ag,.ah,.ai,.aj,.ak,.am,.ao,.ap,.aq,.ar,.as,.ax,.az,.bd,.bi,.bo,.br,.bu,.by{fill-rule:evenodd;}.ag{fill:#474646;}.ah{fill:#fc0;}.ai{fill:#146aae;}.aj{fill:#e8ce95;}.ak,.al{fill:#d1a900;}.am{fill:#ae9153;}.an{fill:#bb9c58;}.ap{fill:#575756;}.aq{fill:#a28950;}.ar{fill:#fff0cc;}.as{fill:#e2b700;}.at{fill:#3c4a59;}.au{clip-path:url(#p);}.av{fill:url(#q);}.aw{mask:url(#r);}.ax{fill:#ff98ff;}.ay{mask:url(#s);}.az{fill:#3b0075;}.ba{clip-path:url(#t);}.bb{fill:url(#u);}.bc{mask:url(#v);}.bd{fill:#3e0878;}.be{mask:url(#w);}.bf{clip-path:url(#x);}.bg{fill:url(#y);}.bh{mask:url(#z);}.bi{fill:#d0f7ff;}.bj{mask:url(#aa);}.bk{mask:url(#ab);}.bl{clip-path:url(#ac);}.bm{fill:url(#ad);}.bn{mask:url(#ae);}.bo{fill:#cb0680;}.bp{mask:url(#af);}.bq{mask:url(#ag);}.br{fill:#fdf063;}.bs{mask:url(#ah);}.bt{mask:url(#ai);}.bu{fill:#ffbbfd;}.bv{clip-path:url(#aj);}.bw{fill:url(#ak);}.bx{mask:url(#al);}.by{fill:#ffcb00;}.bz{mask:url(#am);}.ca{fill:#a4c9e7;}.cb{fill:#c8dff1;}.cc{clip-path:url(#an);}.cd{fill:#0e3c62;}.ce{fill:#176695;}.cf{fill:#6588ab;}.cg{fill:#071e2d;opacity:0.29;}.ch{fill:#f0c8b2;}.cj{fill:#e5b7a3;}.cl{fill:#66aede;}</style><linearGradient id="a" x1="-8368.72" y1="1535.02" x2="-8369.98" y2="1538.24" gradientTransform="translate(8610.7 -1505.74)" gradientUnits="userSpaceOnUse"><stop offset="0" stop-color="#fff"/><stop offset="1"/></linearGradient><linearGradient id="b" x1="-8259.7" y1="1116.67" x2="-8258.18" y2="1108.37" gradientTransform="translate(8500.13 -1077.53)" xlink:href="#a"/><linearGradient id="c" x1="-8244.34" y1="2802.6" x2="-8249.33" y2="2812.7" gradientTransform="translate(8493.28 -2789.43)" xlink:href="#a"/><linearGradient id="d" x1="-7665.94" y1="603.51" x2="-7649.26" y2="588.07" gradientTransform="translate(7890.76 -555.6)" xlink:href="#a"/><linearGradient id="e" x1="-7675.76" y1="2810.39" x2="-7679.41" y2="2811.53" gradientTransform="translate(7913.82 -2789.55)" xlink:href="#a"/><linearGradient id="f" x1="-7413.74" y1="2332.68" x2="-7409.02" y2="2329.65" gradientTransform="translate(7645.61 -2307.98)" xlink:href="#a"/><linearGradient id="g" x1="-8562.54" y1="416.94" x2="-8571.99" y2="414.5" gradientTransform="translate(8815.55 -381.59)" xlink:href="#a"/><linearGradient id="h" x1="-7515.42" y1="1640.39" x2="-7511.02" y2="1647.04" gradientTransform="translate(7748.77 -1616.09)" xlink:href="#a"/><linearGradient id="i" x1="-9255.18" y1="1380.15" x2="-9249.02" y2="1385.14" gradientTransform="translate(9499.49 -1353.77)" xlink:href="#a"/><linearGradient id="j" x1="-9270.57" y1="1310.47" x2="-9271.78" y2="1324.99" gradientTransform="translate(9521.27 -1291.36)" xlink:href="#a"/><linearGradient id="k" x1="-8550.6" y1="394.27" x2="-8574.07" y2="420.9" gradientTransform="translate(8815.55 -381.59)" xlink:href="#a"/><linearGradient id="l" x1="-7513.64" y1="1678.76" x2="-7507.43" y2="1668.02" gradientTransform="translate(7748.74 -1644.8)" xlink:href="#a"/><linearGradient id="m" x1="-7515.61" y1="1673.93" x2="-7508.68" y2="1668.06" gradientTransform="translate(7748.74 -1644.8)" xlink:href="#a"/><linearGradient id="n" x1="-8778.37" y1="2519.92" x2="-8790.42" y2="2518.97" gradientTransform="translate(9033.96 -2497.76)" xlink:href="#a"/><clipPath id="o"><rect class="o" width="320" height="220"/></clipPath><clipPath id="p"><path class="p" d="M243.45,35.09a6.12,6.12,0,0,1-3.38-2.23c-1.13-1.73.24-3.06,1.45-2.1s.39,2.8,1.93,4.33"/></clipPath><linearGradient id="q" x1="240.49" y1="38.44" x2="241.53" y2="29.61" gradientUnits="userSpaceOnUse"><stop offset="0" stop-color="#120095"/><stop offset="0.6" stop-color="#9c15f7"/><stop offset="1" stop-color="#ff4cf8"/></linearGradient><mask id="r" x="240.45" y="30.44" width="1.56" height="1.53" maskUnits="userSpaceOnUse"><rect class="a" x="240.45" y="30.44" width="1.56" height="1.53"/></mask><mask id="s" x="239.65" y="31.05" width="3.8" height="4.04" maskUnits="userSpaceOnUse"><rect class="b" x="239.65" y="31.05" width="3.8" height="4.04"/></mask><clipPath id="t"><path class="p" d="M234.56,28.29a9.37,9.37,0,0,0-.39,2.67,9.2,9.2,0,0,0,9.21,9.2,9.32,9.32,0,0,0,8.7-6.18,6,6,0,0,0-.27-4.7c-1.61-3.4-6.67-2.62-4.21,1.44,1.11,1.84.25,5.47-4.23,5.54-4.71.07-7.63-5.55-4.85-9.8a20.63,20.63,0,0,0-4,1.83"/></clipPath><linearGradient id="u" x1="248.03" y1="27.87" x2="236.61" y2="40.74" gradientUnits="userSpaceOnUse"><stop offset="0" stop-color="#0049e6"/><stop offset="0.51" stop-color="#9c15f7"/><stop offset="1" stop-color="#ff4cf8"/></linearGradient><mask id="v" x="241.95" y="27.17" width="9.11" height="12.99" maskUnits="userSpaceOnUse"><rect class="g" x="241.95" y="27.17" width="9.11" height="12.99"/></mask><mask id="w" x="234.17" y="26.46" width="4.34" height="4.7" maskUnits="userSpaceOnUse"><rect class="h" x="234.17" y="26.46" width="4.34" height="4.7"/></mask><clipPath id="x"><path class="p" d="M242,40.05a8.37,8.37,0,0,0,1.43.11,9.32,9.32,0,0,0,8.7-6.18,6,6,0,0,0-.27-4.7c-1.61-3.4-6.67-2.62-4.21,1.44,1.86,4.14-.18,8.81-5.65,9.33"/></clipPath><linearGradient id="y" x1="251.24" y1="50.17" x2="246.11" y2="27.6" gradientUnits="userSpaceOnUse"><stop offset="0" stop-color="#7909e7"/><stop offset="0.54" stop-color="#0276da"/><stop offset="1" stop-color="#2dd9ff"/></linearGradient><mask id="z" x="246.93" y="27.14" width="3.97" height="5.93" maskUnits="userSpaceOnUse"><rect class="i" x="246.93" y="27.14" width="3.97" height="5.93"/></mask><mask id="aa" x="247.09" y="27.14" width="5.35" height="6.39" maskUnits="userSpaceOnUse"><rect class="j" x="247.09" y="27.14" width="5.35" height="6.39"/></mask><mask id="ab" x="241.95" y="29.8" width="6.68" height="10.36" maskUnits="userSpaceOnUse"><rect class="k" x="241.95" y="29.8" width="6.68" height="10.36"/></mask><clipPath id="ac"><path class="p" d="M234.17,31s-.2-9.54,10.52-12.41c7.46-2,9.53,5.17.33,6-6.82.61-10.84,4.81-10.85,6.42"/></clipPath><linearGradient id="ad" x1="241.78" y1="31.97" x2="245.7" y2="18.06" gradientUnits="userSpaceOnUse"><stop offset="0" stop-color="#ff057e"/><stop offset="1" stop-color="#ffcb00"/></linearGradient><mask id="ae" x="234.17" y="24.83" width="8.87" height="6.12" maskUnits="userSpaceOnUse"><rect class="l" x="234.17" y="24.83" width="8.87" height="6.12"/></mask><mask id="af" x="234.17" y="21.6" width="4.63" height="9.35" maskUnits="userSpaceOnUse"><rect class="m" x="234.17" y="21.6" width="4.63" height="9.35"/></mask><mask id="ag" x="243.54" y="18.29" width="7.59" height="6.44" maskUnits="userSpaceOnUse"><rect class="n" x="243.54" y="18.29" width="7.59" height="6.44"/></mask><mask id="ah" x="239.6" y="18.2" width="11.53" height="4.42" maskUnits="userSpaceOnUse"><rect class="c" x="239.6" y="18.2" width="11.53" height="4.42"/></mask><mask id="ai" x="235.21" y="31.93" width="6.22" height="6.97" maskUnits="userSpaceOnUse"><rect class="d" x="235.21" y="31.93" width="6.22" height="6.97"/></mask><clipPath id="aj"><path class="p" d="M234.05,26.12a6.79,6.79,0,0,1-.4-4.46c.71-2.17,2.8-1.91,2.81-.19s-2.15,2.26-2.41,4.65"/></clipPath><linearGradient id="ak" x1="231.78" y1="24.81" x2="241.06" y2="18.46" xlink:href="#ad"/><mask id="al" x="235.37" y="20.4" width="1.05" height="2.21" maskUnits="userSpaceOnUse"><rect class="e" x="235.37" y="20.4" width="1.05" height="2.21"/></mask><mask id="am" x="233.42" y="20.14" width="1.76" height="5.98" maskUnits="userSpaceOnUse"><rect class="f" x="233.42" y="20.14" width="1.76" height="5.98"/></mask><clipPath id="an"><circle class="o" cx="63.36" cy="35.9" r="28.75"/></clipPath></defs><g class="q"><polygon class="r" points="125.46 212.53 304.39 175.74 209.07 6.84 15.1 83.76 125.46 212.53"/><path class="s" d="M229,28.07l-3.87-4.84-128.42.2L97,201.05l3.87,4.85,115.53-.18c7,0,12.64-6.46,12.63-14.39Z"/><path class="t" d="M97.48,202.88H208.31A15.74,15.74,0,0,0,224,187.15V23.27H97.48Z"/><rect class="u" x="181.73" y="61.65" width="28.15" height="2.59" rx="1.29"/><path class="u" d="M127.13,182.29H104.47a.44.44,0,0,1-.46-.41h0a.44.44,0,0,1,.46-.41h22.66a.44.44,0,0,1,.46.41h0A.44.44,0,0,1,127.13,182.29Z"/><path class="u" d="M127.13,184.52H104.47a.44.44,0,0,1-.46-.41h0a.44.44,0,0,1,.46-.41h22.66a.44.44,0,0,1,.46.41h0A.44.44,0,0,1,127.13,184.52Z"/><path class="u" d="M151.25,85.89H128.59a.43.43,0,0,1-.46-.4h0a.43.43,0,0,1,.46-.41h22.66a.44.44,0,0,1,.46.41h0A.44.44,0,0,1,151.25,85.89Z"/><path class="u" d="M125.4,86.06H102.73a.43.43,0,0,1-.45-.4h0a.43.43,0,0,1,.45-.41H125.4a.43.43,0,0,1,.45.41h0A.43.43,0,0,1,125.4,86.06Z"/><path class="u" d="M151.25,88.12H128.59a.43.43,0,0,1-.46-.4h0a.43.43,0,0,1,.46-.41h22.66a.44.44,0,0,1,.46.41h0A.44.44,0,0,1,151.25,88.12Z"/><path class="u" d="M125.57,88H102.9a.43.43,0,0,1-.45-.41h0a.43.43,0,0,1,.45-.4h22.67a.43.43,0,0,1,.45.4h0A.43.43,0,0,1,125.57,88Z"/><path class="u" d="M176.76,85.89H154.1a.43.43,0,0,1-.46-.4h0a.43.43,0,0,1,.46-.41h22.66a.44.44,0,0,1,.46.41h0A.44.44,0,0,1,176.76,85.89Z"/><path class="u" d="M176.76,88.12H154.1a.43.43,0,0,1-.46-.4h0a.43.43,0,0,1,.46-.41h22.66a.44.44,0,0,1,.46.41h0A.44.44,0,0,1,176.76,88.12Z"/><path class="u" d="M212.73,85.2H182c-.35,0-.62-.21-.62-.46h0c0-.26.27-.47.62-.47h30.73a.56.56,0,0,1,.62.47h0C213.35,85,213.07,85.2,212.73,85.2Z"/><path class="u" d="M212.73,87.68H182c-.35,0-.62-.21-.62-.47h0c0-.25.27-.46.62-.46h30.73c.34,0,.62.21.62.46h0A.56.56,0,0,1,212.73,87.68Z"/><path class="u" d="M212.73,90.16H182c-.35,0-.62-.21-.62-.47h0c0-.25.27-.46.62-.46h30.73c.34,0,.62.21.62.46h0A.56.56,0,0,1,212.73,90.16Z"/><path class="u" d="M154.77,182.08H132.1a.43.43,0,0,1-.45-.4h0a.43.43,0,0,1,.45-.41h22.67a.43.43,0,0,1,.45.41h0A.43.43,0,0,1,154.77,182.08Z"/><path class="u" d="M154.77,184.11H132.1a.43.43,0,0,1-.45-.4h0a.43.43,0,0,1,.45-.41h22.67a.43.43,0,0,1,.45.41h0A.43.43,0,0,1,154.77,184.11Z"/><path class="u" d="M180.12,181.68H157.45a.43.43,0,0,1-.45-.41h0a.43.43,0,0,1,.45-.4h22.67a.43.43,0,0,1,.45.4h0A.43.43,0,0,1,180.12,181.68Z"/><path class="u" d="M215.44,180.61H185c-.34,0-.61-.18-.61-.41h0c0-.22.27-.4.61-.4h30.4c.34,0,.61.18.61.4h0C216.05,180.43,215.78,180.61,215.44,180.61Z"/><path class="u" d="M215.44,182.57H185c-.34,0-.61-.18-.61-.4h0c0-.23.27-.41.61-.41h30.4c.34,0,.61.18.61.41h0C216.05,182.39,215.78,182.57,215.44,182.57Z"/><path class="u" d="M215.44,184.53H185c-.34,0-.61-.18-.61-.4h0c0-.23.27-.41.61-.41h30.4c.34,0,.61.18.61.41h0C216.05,184.35,215.78,184.53,215.44,184.53Z"/><path class="u" d="M215.44,186.49H185c-.34,0-.61-.18-.61-.4h0c0-.23.27-.41.61-.41h30.4c.34,0,.61.18.61.41h0C216.05,186.31,215.78,186.49,215.44,186.49Z"/><path class="u" d="M179.91,183.71H157.25a.44.44,0,0,1-.46-.41h0a.44.44,0,0,1,.46-.41h22.66a.44.44,0,0,1,.46.41h0A.44.44,0,0,1,179.91,183.71Z"/><path class="u" d="M179.91,185.73H157.25a.44.44,0,0,1-.46-.4h0a.44.44,0,0,1,.46-.41h22.66a.43.43,0,0,1,.46.41h0A.43.43,0,0,1,179.91,185.73Z"/><rect class="u" x="181.73" y="56.99" width="23.72" height="2.59" rx="1.29"/><path class="u" d="M202.25,37.42h-9a.56.56,0,0,1-.55-.58h0a.56.56,0,0,1,.55-.57h9a.57.57,0,0,1,.55.57h0A.57.57,0,0,1,202.25,37.42Z"/><path class="u" d="M214.4,37.42h-9a.56.56,0,0,1-.55-.58h0a.56.56,0,0,1,.55-.57h9a.56.56,0,0,1,.55.57h0A.56.56,0,0,1,214.4,37.42Z"/><rect class="u" x="181.73" y="52.34" width="20.62" height="2.59" rx="1.29"/><rect class="u" x="104.4" y="124.6" width="108.58" height="2.59" rx="1.29"/><rect class="u" x="104.4" y="129.25" width="108.95" height="2.59" rx="1.29"/><rect class="u" x="104.4" y="105.98" width="108.58" height="2.59" rx="1.29"/><rect class="u" x="104.4" y="101.33" width="108.58" height="2.59" rx="1.29"/><rect class="u" x="104.4" y="110.64" width="108.58" height="2.59" rx="1.29"/><rect class="u" x="104.4" y="115.29" width="108.58" height="2.59" rx="1.29"/><rect class="u" x="104.4" y="119.94" width="31.77" height="2.59" rx="1.29"/><rect class="u" x="104.4" y="143.21" width="108.58" height="2.59" rx="1.29"/><rect class="u" x="104.4" y="147.86" width="71.73" height="2.59" rx="1.29"/><rect class="u" x="104.4" y="133.9" width="108.58" height="2.59" rx="1.29"/><rect class="u" x="104.4" y="138.56" width="100.02" height="2.59" rx="1.29"/><rect class="u" x="182.88" y="167.02" width="29.27" height="2.59" rx="1.29"/><rect class="u" x="182.88" y="162.37" width="21.91" height="2.59"/><polyline class="v" points="218.32 74.84 218.32 77.34 215.82 77.34"/><line class="w" x1="212.8" y1="77.34" x2="182.17" y2="77.34"/><polyline class="v" points="180.66 77.34 178.16 77.34 178.16 74.84"/><line class="x" x1="178.16" y1="71.99" x2="178.16" y2="50.65"/><polyline class="v" points="178.16 49.23 178.16 46.73 180.66 46.73"/><line class="w" x1="183.67" y1="46.73" x2="214.31" y2="46.73"/><polyline class="v" points="215.82 46.73 218.32 46.73 218.32 49.23"/><line class="x" x1="218.32" y1="52.07" x2="218.32" y2="73.42"/><rect class="u" x="106.24" y="59.58" width="28.15" height="2.59" rx="1.29"/><rect class="u" x="106.24" y="54.93" width="23.72" height="2.59" rx="1.29"/><rect class="u" x="106.24" y="50.27" width="20.62" height="2.59" rx="1.29"/><polyline class="v" points="142.82 72.77 142.82 75.27 140.32 75.27"/><line class="w" x1="137.31" y1="75.27" x2="106.67" y2="75.27"/><polyline class="v" points="105.16 75.27 102.66 75.27 102.66 72.77"/><line class="x" x1="102.66" y1="69.93" x2="102.66" y2="48.58"/><polyline class="v" points="102.66 47.16 102.66 44.66 105.16 44.66"/><line class="w" x1="108.18" y1="44.66" x2="138.81" y2="44.66"/><polyline class="v" points="140.32 44.66 142.82 44.66 142.82 47.16"/><line class="x" x1="142.82" y1="50" x2="142.82" y2="71.35"/><polyline class="v" points="218.7 89.82 218.7 92.32 216.2 92.32"/><line class="y" x1="213.26" y1="92.32" x2="105.04" y2="92.32"/><polyline class="v" points="103.57 92.32 101.07 92.32 101.07 89.82"/><line class="z" x1="101.07" y1="88.32" x2="101.07" y2="85.06"/><polyline class="v" points="101.07 84.31 101.07 81.81 103.57 81.81"/><line class="y" x1="106.51" y1="81.81" x2="214.73" y2="81.81"/><polyline class="v" points="216.2 81.81 218.7 81.81 218.7 84.31"/><line class="z" x1="218.7" y1="85.81" x2="218.7" y2="89.07"/><polyline class="v" points="218.7 185.95 218.7 188.45 216.2 188.45"/><line class="y" x1="213.26" y1="188.45" x2="105.04" y2="188.45"/><polyline class="v" points="103.57 188.45 101.07 188.45 101.07 185.95"/><line class="z" x1="101.07" y1="184.45" x2="101.07" y2="181.19"/><polyline class="v" points="101.07 180.44 101.07 177.94 103.57 177.94"/><line class="y" x1="106.51" y1="177.94" x2="214.73" y2="177.94"/><polyline class="v" points="216.2 177.94 218.7 177.94 218.7 180.44"/><line class="z" x1="218.7" y1="181.94" x2="218.7" y2="185.2"/><polyline class="v" points="218.56 40.95 218.56 43.45 216.06 43.45"/><line class="aa" x1="213.04" y1="43.45" x2="182.35" y2="43.45"/><polyline class="v" points="180.84 43.45 178.34 43.45 178.34 40.95"/><line class="ab" x1="178.34" y1="38.69" x2="178.34" y2="33.81"/><polyline class="v" points="178.34 32.69 178.34 30.19 180.84 30.19"/><line class="aa" x1="183.86" y1="30.19" x2="214.55" y2="30.19"/><polyline class="v" points="216.06 30.19 218.56 30.19 218.56 32.69"/><line class="ab" x1="218.56" y1="34.94" x2="218.56" y2="39.82"/><polyline class="v" points="218.9 172.36 218.9 174.86 216.4 174.86"/><line class="ac" x1="213.45" y1="174.86" x2="104.84" y2="174.86"/><polyline class="v" points="103.37 174.86 100.87 174.86 100.87 172.36"/><line class="ad" x1="100.87" y1="169.36" x2="100.87" y2="98.76"/><polyline class="v" points="100.87 97.25 100.87 94.75 103.37 94.75"/><line class="ac" x1="106.32" y1="94.75" x2="214.93" y2="94.75"/><polyline class="v" points="216.4 94.75 218.9 94.75 218.9 97.25"/><line class="ad" x1="218.9" y1="100.26" x2="218.9" y2="170.86"/><line class="ae" x1="126.88" y1="81.61" x2="126.91" y2="92.15"/><line class="ae" x1="152.71" y1="81.54" x2="152.73" y2="92.08"/><line class="ae" x1="178.54" y1="81.78" x2="178.54" y2="92.32"/><line class="ae" x1="130.33" y1="177.74" x2="130.36" y2="188.28"/><line class="ae" x1="156.16" y1="177.67" x2="156.18" y2="188.21"/><line class="ae" x1="181.99" y1="177.91" x2="181.99" y2="188.45"/><path class="af" d="M62.68,71.2a3.13,3.13,0,0,1,1.88-.07,1.62,1.62,0,0,0,1.53,0v2.08a1.61,1.61,0,0,1-1.81.15,1.45,1.45,0,0,0-1.6.07Z"/><path class="ag" d="M62,76V73.73l.12-.12V71.14A.3.3,0,0,1,62,70.9a.28.28,0,0,1,.56,0,.27.27,0,0,1-.12.24v2.47l.12.12V76Z"/><path class="ah" d="M79.54,82.17,79.3,83h-.21v9.32h1.07v1.44H44.49V92.35h1.06V83h-.21l-.24-.86Z"/><polygon class="ai" points="44.68 82.17 79.97 82.17 78.07 77.15 65.16 77.15 62.32 75.76 59.48 77.15 46.57 77.15 44.68 82.17"/><path class="aj" d="M70.83,83.39V82.17h.55V80.64l-9.06-4.43-9,4.43v1.53h.55v1.22Z"/><polygon class="ak" points="62.32 77.42 69.22 80.79 55.43 80.79 62.32 77.42"/><rect class="al" x="55.43" y="81.1" width="13.78" height="0.35"/><path class="ak" d="M53.36,83.39V83h-8l-.05-.2h8.07v-.14H45.25l-.15-.52H79.54l-.14.52H71.29v.14h8.07l-.06.2h-8v.36h-.46v-.86h-17v.86Z"/><path class="aj" d="M70,92.35H54.63v-8.5H70Z"/><polygon class="am" points="62.32 77.42 62.77 77.64 56.31 80.79 55.43 80.79 62.32 77.42"/><rect class="an" x="53.36" y="92.35" width="17.93" height="0.89"/><path class="ao" d="M46.93,86.75h.18V84.64a.57.57,0,0,1,.57-.57h.63a.57.57,0,0,1,.57.57v2.11h.18V87H46.93Z"/><path class="ap" d="M47.39,86.54h.53v-.45h-.53v.45Zm.68,0h.53v-.45h-.53v.45ZM48.6,86v-.44h-.53V86Zm0-.59v-.44h-.53v.44Zm0-.58v-.13a.29.29,0,0,0-.29-.29h-.24v.42Zm-.68-.42h-.24a.29.29,0,0,0-.29.29v.13h.53v-.42Zm-.53.56v.44h.53v-.44Zm0,.59V86h.53v-.44Z"/><polygon class="aq" points="49.06 86.75 49.24 86.75 49.24 87.15 46.92 87.15 46.92 86.98 49.06 86.98 49.06 86.75"/><path class="ao" d="M50.46,86.75h.19V84.64a.57.57,0,0,1,.56-.57h.64a.58.58,0,0,1,.57.57v2.11h.18V87H50.46Z"/><path class="ap" d="M50.93,86.54h.53v-.45h-.53v.45Zm.67,0h.54v-.45H51.6v.45Zm.54-.59v-.44H51.6V86Zm0-.59v-.44H51.6v.44Zm0-.58v-.13a.29.29,0,0,0-.29-.29H51.6v.42Zm-.68-.42h-.25a.29.29,0,0,0-.28.29v.13h.53v-.42Zm-.53.56v.44h.53v-.44Zm0,.59V86h.53v-.44Z"/><polygon class="aq" points="52.6 86.75 52.77 86.75 52.77 87.15 50.46 87.15 50.46 86.98 52.6 86.98 52.6 86.75"/><path class="ao" d="M46.93,90.69h.18v-2.1a.56.56,0,0,1,.57-.57h.63a.56.56,0,0,1,.57.57v2.1h.18v.23H46.93Z"/><path class="ap" d="M47.39,90.48h.53V90h-.53v.44Zm.68,0h.53V90h-.53v.44Zm.53-.59v-.44h-.53v.44Zm0-.58v-.45h-.53v.45Zm0-.59v-.13a.29.29,0,0,0-.29-.28h-.24v.41Zm-.68-.41h-.24a.29.29,0,0,0-.29.28v.13h.53v-.41Zm-.53.55v.45h.53v-.45Zm0,.59v.44h.53v-.44Z"/><polygon class="aq" points="49.06 90.69 49.24 90.69 49.24 91.09 46.92 91.09 46.92 90.92 49.06 90.92 49.06 90.69"/><path class="ao" d="M50.46,90.69h.19v-2.1a.56.56,0,0,1,.56-.57h.64a.57.57,0,0,1,.57.57v2.1h.18v.23H50.46Z"/><path class="ap" d="M50.93,90.48h.53V90h-.53v.44Zm.67,0h.54V90H51.6v.44Zm.54-.59v-.44H51.6v.44Zm0-.58v-.45H51.6v.45Zm0-.59v-.13a.29.29,0,0,0-.29-.28H51.6v.41Zm-.68-.41h-.25a.29.29,0,0,0-.28.28v.13h.53v-.41Zm-.53.55v.45h.53v-.45Zm0,.59v.44h.53v-.44Z"/><polygon class="aq" points="52.6 90.69 52.77 90.69 52.77 91.09 50.46 91.09 50.46 90.92 52.6 90.92 52.6 90.69"/><path class="ao" d="M71.87,86.75h.19V84.64a.57.57,0,0,1,.56-.57h.64a.57.57,0,0,1,.57.57v2.11H74V87H71.87Z"/><path class="ap" d="M72.34,86.54h.53v-.45h-.53v.45Zm.67,0h.54v-.45H73v.45Zm.54-.59v-.44H73V86Zm0-.59v-.44H73v.44Zm0-.58v-.13a.29.29,0,0,0-.29-.29H73v.42Zm-.68-.42h-.25a.29.29,0,0,0-.28.29v.13h.53v-.42Zm-.53.56v.44h.53v-.44Zm0,.59V86h.53v-.44Z"/><polygon class="aq" points="74.01 86.75 74.19 86.75 74.19 87.15 71.87 87.15 71.87 86.98 74.01 86.98 74.01 86.75"/><path class="ao" d="M75.41,86.75h.18V84.64a.58.58,0,0,1,.57-.57h.64a.58.58,0,0,1,.57.57v2.11h.18V87H75.41Z"/><path class="ap" d="M75.88,86.54h.53v-.45h-.53v.45Zm.67,0h.54v-.45h-.54v.45Zm.54-.59v-.44h-.54V86Zm0-.59v-.44h-.54v.44Zm0-.58v-.13a.29.29,0,0,0-.29-.29h-.25v.42Zm-.68-.42h-.25a.29.29,0,0,0-.28.29v.13h.53v-.42Zm-.53.56v.44h.53v-.44Zm0,.59V86h.53v-.44Z"/><polygon class="aq" points="77.55 86.75 77.72 86.75 77.72 87.15 75.41 87.15 75.41 86.98 77.55 86.98 77.55 86.75"/><path class="ao" d="M71.87,90.69h.19v-2.1a.56.56,0,0,1,.56-.57h.64a.56.56,0,0,1,.57.57v2.1H74v.23H71.87Z"/><path class="ap" d="M72.34,90.48h.53V90h-.53v.44Zm.67,0h.54V90H73v.44Zm.54-.59v-.44H73v.44Zm0-.58v-.45H73v.45Zm0-.59v-.13a.29.29,0,0,0-.29-.28H73v.41Zm-.68-.41h-.25a.29.29,0,0,0-.28.28v.13h.53v-.41Zm-.53.55v.45h.53v-.45Zm0,.59v.44h.53v-.44Z"/><polygon class="aq" points="74.01 90.69 74.19 90.69 74.19 91.09 71.87 91.09 71.87 90.92 74.01 90.92 74.01 90.69"/><path class="ao" d="M75.41,90.69h.18v-2.1a.57.57,0,0,1,.57-.57h.64a.57.57,0,0,1,.57.57v2.1h.18v.23H75.41Z"/><path class="ap" d="M75.88,90.48h.53V90h-.53v.44Zm.67,0h.54V90h-.54v.44Zm.54-.59v-.44h-.54v.44Zm0-.58v-.45h-.54v.45Zm0-.59v-.13a.29.29,0,0,0-.29-.28h-.25v.41Zm-.68-.41h-.25a.29.29,0,0,0-.28.28v.13h.53v-.41Zm-.53.55v.45h.53v-.45Zm0,.59v.44h.53v-.44Z"/><polygon class="aq" points="77.55 90.69 77.72 90.69 77.72 91.09 75.41 91.09 75.41 90.92 77.55 90.92 77.55 90.69"/><path class="ar" d="M67.51,91.5l.26-7.45h-.16l-.21-.66h2l-.21.66H69l.26,7.45h.23l.12.85H67.16l.12-.85Zm-12.14,0,.26-7.45h-.16l-.21-.66h2l-.21.66h-.16l.26,7.45h.23l.12.85H55l.12-.85Zm4,0,.26-7.45h-.15l-.21-.66h2l-.2.66h-.16l.26,7.45h.23l.12.85H59.06l.12-.85Zm4.05,0,.26-7.45h-.16l-.21-.66h2l-.21.66H65l.26,7.45h.23l.12.85H63.11l.12-.85Z"/><path class="ak" d="M67.51,91.5v-.21h.88v-7h-.63v-.21h.62v-.66h1l-.21.66H69v.21l.25,7.24h.23l.12.85H68.39V91.5Zm-12.14,0v-.21h.88v-7h-.63v-.21h.62v-.66h1l-.21.66h-.16v.21l.25,7.24h.23l.12.85H56.25V91.5Zm4,0v-.21h.88v-7h-.63v-.21h.63v-.66h1l-.2.66h-.16v.21l.26,7.24h.23l.12.85H60.3V91.5Zm4.05,0v-.21h.88v-7h-.64v-.21h.63v-.66h1l-.21.66H65v.21l.25,7.24h.23l.12.85H64.35V91.5Z"/><rect class="al" x="52.54" y="93.25" width="19.57" height="0.99"/><path class="as" d="M80.16,92.35H71.29v.9h.82v.54h8V92.35Zm-26.8,0H44.49v1.44h8v-.54h.82Z"/><path class="at" d="M255.73,45.08v-2.6h1.92v.44h-1.39v.58h1.29v.44h-1.29v.7h1.44v.44Zm-3,0v-2.6h.79l.46,1.77.46-1.77h.79v2.6h-.48V43l-.52,2h-.5l-.51-2v2Zm-1.23-1-.36-1-.36,1Zm1,1h-.57l-.22-.59h-1l-.21.59h-.56l1-2.6h.56Zm-5,0v-2.6H248l1.07,1.74V42.48h.48v2.6H249L248,43.37v1.71Zm-2.68,0V44l-.95-1.51h.61l.61,1,.6-1h.61l-1,1.51v1.09Zm-3.3,0v-2.6H242l1.06,1.74V42.48h.49v2.6H243L242,43.37v1.71Zm-1.25-1-.36-1-.35,1Zm1,1h-.57l-.22-.59h-1l-.21.59h-.56l1-2.6h.56Zm-4-2.16v.74h.29a1.27,1.27,0,0,0,.41,0,.34.34,0,0,0,.16-.13.34.34,0,0,0,.06-.2.31.31,0,0,0-.08-.23.35.35,0,0,0-.21-.12l-.38,0Zm-.52,2.16v-2.6h.84a3.52,3.52,0,0,1,.62,0,.68.68,0,0,1,.37.26.8.8,0,0,1,.15.5.92.92,0,0,1-.08.4.71.71,0,0,1-.22.26.8.8,0,0,1-.27.12,2.62,2.62,0,0,1-.55,0h-.34v1Zm-3,0v-2.6h.78l.47,1.77.46-1.77h.79v2.6h-.49V43l-.51,2h-.51l-.51-2v2Zm-2.39-1.3a1,1,0,0,0,.21.67.67.67,0,0,0,.52.23.65.65,0,0,0,.51-.23,1,1,0,0,0,.2-.68,1,1,0,0,0-.19-.66.66.66,0,0,0-.52-.22.68.68,0,0,0-.53.22A1,1,0,0,0,231.3,43.78Zm-.54,0a1.64,1.64,0,0,1,.12-.67,1.41,1.41,0,0,1,.24-.36,1.2,1.2,0,0,1,.34-.23,1.4,1.4,0,0,1,.56-.1,1.25,1.25,0,0,1,.92.35,1.38,1.38,0,0,1,.34,1,1.34,1.34,0,0,1-.34,1,1.34,1.34,0,0,1-1.83,0A1.32,1.32,0,0,1,230.76,43.8Zm-.85.32.51.16a1.21,1.21,0,0,1-.39.64,1.15,1.15,0,0,1-.69.2,1.1,1.1,0,0,1-.85-.35,1.37,1.37,0,0,1-.33-1,1.4,1.4,0,0,1,.33-1,1.16,1.16,0,0,1,.88-.36,1.08,1.08,0,0,1,.78.28.93.93,0,0,1,.26.48l-.51.12a.57.57,0,0,0-.2-.32.51.51,0,0,0-.35-.11.59.59,0,0,0-.47.2,1,1,0,0,0-.18.67,1.1,1.1,0,0,0,.18.71.58.58,0,0,0,.46.2.52.52,0,0,0,.36-.13A.76.76,0,0,0,229.91,44.12Z"/><path class="at" d="M249.65,47.49V46.23h.24l.52.84v-.84h.23v1.26h-.25l-.51-.83v.83Zm-2.23-.5-.17-.46-.17.46Zm.47.5h-.28l-.11-.29H247l-.1.29h-.27l.48-1.26h.27ZM244.35,47v-.22h.54v.5a.56.56,0,0,1-.23.14.8.8,0,0,1-.3.06.71.71,0,0,1-.34-.08.56.56,0,0,1-.22-.24.76.76,0,0,1,0-.68.62.62,0,0,1,.24-.24.7.7,0,0,1,.3-.06.58.58,0,0,1,.37.1.42.42,0,0,1,.17.27l-.25.05a.33.33,0,0,0-.1-.15.29.29,0,0,0-.19,0,.34.34,0,0,0-.26.1.48.48,0,0,0-.1.31.53.53,0,0,0,.1.34.35.35,0,0,0,.26.11.45.45,0,0,0,.16,0l.14-.08V47ZM241,46.86a.49.49,0,0,0,.1.32.34.34,0,0,0,.25.11.3.3,0,0,0,.25-.11.45.45,0,0,0,.1-.33.44.44,0,0,0-.1-.32.3.3,0,0,0-.25-.1.32.32,0,0,0-.25.1A.52.52,0,0,0,241,46.86Zm-.26,0a.81.81,0,0,1,.06-.33.66.66,0,0,1,.12-.17.42.42,0,0,1,.16-.11.76.76,0,0,1,.27,0,.59.59,0,0,1,.44.17.78.78,0,0,1,0,1,.61.61,0,0,1-.45.17.6.6,0,0,1-.44-.17A.66.66,0,0,1,240.72,46.87Zm-2.63.62V46.24h.25v1H239v.22Zm-2.87-.41.24,0a.38.38,0,0,0,.09.18.29.29,0,0,0,.19.06.24.24,0,0,0,.18-.06.14.14,0,0,0,.06-.12.14.14,0,0,0,0-.07l-.1-.06-.2-.05a.73.73,0,0,1-.28-.13.32.32,0,0,1-.12-.25.32.32,0,0,1,.06-.18.38.38,0,0,1,.15-.13.62.62,0,0,1,.25,0,.5.5,0,0,1,.35.1.41.41,0,0,1,.13.28h-.26a.26.26,0,0,0-.06-.14.25.25,0,0,0-.16,0,.26.26,0,0,0-.17,0,.08.08,0,0,0,0,.07.11.11,0,0,0,0,.08.63.63,0,0,0,.23.08,1.31,1.31,0,0,1,.28.09.58.58,0,0,1,.14.13.42.42,0,0,1,0,.2.35.35,0,0,1,0,.2.33.33,0,0,1-.17.14.78.78,0,0,1-.28,0,.53.53,0,0,1-.36-.11A.43.43,0,0,1,235.22,47.08Z"/><g class="au"><rect class="av" x="238.94" y="29.8" width="4.51" height="5.29"/></g><g class="aw"><path class="ax" d="M240.55,30.45a1.11,1.11,0,0,1,.65.12,1.58,1.58,0,0,1,.36.29c.39.39.56.86.38,1s-.65,0-1-.39-.55-.86-.37-1l0,0"/></g><g class="ay"><path class="az" d="M243.45,35.09a6.12,6.12,0,0,1-3.38-2.23,1.91,1.91,0,0,1-.31-1.81,2.34,2.34,0,0,0,1.18,2.08c.54.4,1.36.91,1.46-.18h0a3.85,3.85,0,0,0,1,2.14"/></g><g class="ba"><rect class="bb" x="234.17" y="25.88" width="18.56" height="14.28"/></g><g class="bc"><path class="bd" d="M242,40.05a8.37,8.37,0,0,0,1.43.11,9.12,9.12,0,0,0,5.32-1.71A11.74,11.74,0,0,0,250,36.57c1.18-2.21,1.72-2.47-.05-6.8a9.31,9.31,0,0,0-1.59-2.6c-1.25.21-2,1.44-.73,3.55a3.58,3.58,0,0,1-.81,4.41c-.78,3.8-4.84,4.92-4.84,4.92"/></g><g class="be"><path class="bd" d="M234.56,28.29a9.37,9.37,0,0,0-.39,2.67v.2a12,12,0,0,1,3.47-2.74,6.58,6.58,0,0,1,.88-2,20.63,20.63,0,0,0-4,1.83"/></g><g class="bf"><rect class="bg" x="241.95" y="25.88" width="10.78" height="14.28"/></g><g class="bh"><path class="bi" d="M250.91,28c-2-1.85-5.41-.78-3.31,2.68a7.6,7.6,0,0,1,.63,2.36h0a7.1,7.1,0,0,1,2.68-5"/></g><g class="bj"><path class="bi" d="M252.23,33.53a6.06,6.06,0,0,0-.42-4.25c-1.14-2.41-4-2.72-4.72-1.25,3.68.82,5.23,3,5.14,5.5"/></g><g class="bk"><path class="bi" d="M242,40.05a9.42,9.42,0,0,0,2.66,0,6.8,6.8,0,0,0,4-6.71,6.65,6.65,0,0,0-1.47-3.57,5.63,5.63,0,0,0,.46.92c1.86,4.14-.18,8.81-5.65,9.33"/></g><g class="bl"><rect class="bm" x="233.97" y="16.55" width="20.24" height="14.41"/></g><g class="bn"><path class="bo" d="M234.17,31a12,12,0,0,1,.45-3A15.87,15.87,0,0,1,243,24.83h0c-5.61,1.15-8.86,4.69-8.87,6.13"/></g><g class="bp"><path class="bo" d="M234.17,31a13,13,0,0,1,4.46-9.36c-.11.13-1.69,1.95-.53,2.82s.76,1.61-.63,2.66h0c-2.13,1.4-3.29,3-3.3,3.87"/></g><g class="bq"><path class="br" d="M248.32,18.29c4.21.75,4.15,5.59-3.3,6.25-.51.05-1,.11-1.48.2h0a8.5,8.5,0,0,0,4.78-6.45"/></g><g class="bs"><path class="br" d="M239.6,20.86a15.5,15.5,0,0,1,5.09-2.31c5.3-1.43,7.88,1.79,5.62,4.06-4.37-4.79-10.47-1.87-10.71-1.75"/></g><g class="bt"><path class="bu" d="M236.31,36.64c2.7,3.44,6.78,2.2,4.39,1.11a6.78,6.78,0,0,1-4.1-4.51c-1.08-3.47-2.36.76-.29,3.4"/></g><g class="bv"><rect class="bw" x="232.95" y="19.49" width="3.52" height="6.64"/></g><g class="bx"><path class="by" d="M236.06,20.41a1.21,1.21,0,0,1,.35.64,2.26,2.26,0,0,1,0,.52c-.07.61-.36,1.07-.64,1s-.45-.56-.38-1.16.36-1.08.64-1.05h0"/></g><g class="bz"><path class="bo" d="M234.05,26.12a6.79,6.79,0,0,1-.4-4.46A2.14,2.14,0,0,1,235,20.14a2.6,2.6,0,0,0-1,2.46c0,.75.16,1.81,1.17,1.14h0a4.29,4.29,0,0,0-1.13,2.38"/></g><path class="ca" d="M118.46,129.7a41.62,41.62,0,0,0-35,64.07H30.32v19h84.86c1.08.09,2.17.13,3.28.13s2.19,0,3.27-.13a41.61,41.61,0,0,0-3.27-83.09Zm0,19.41a22.2,22.2,0,1,1-22.21,22.2A22.2,22.2,0,0,1,118.46,149.11Z"/><path class="r" d="M83.42,193.76H30.32v19.15h196.4v-19H153.4l.09-.13a41.67,41.67,0,0,0,1.12-43.06,181.6,181.6,0,0,0-16.17,10.91,22.21,22.21,0,0,1-17.75,31.78"/><path class="cb" d="M237.59,203.41,220.81,189v4.88H153.42A41.58,41.58,0,0,1,122.23,213h98.58v4.89Z"/><polygon class="cb" points="72.78 167.1 87.11 184.92 101.44 167.1 72.78 167.1"/><path class="cb" d="M118.45,129.31a41.62,41.62,0,0,0-41.39,37.41H96.65a22.2,22.2,0,0,1,37.48-11.52,34.47,34.47,0,0,1,3.7-3.65,57.81,57.81,0,0,1,5.34-4c1.85-1.24,3.74-2.41,5.63-3.6l.88-.55A41.53,41.53,0,0,0,118.45,129.31Z"/><path class="cb" d="M77.06,166.72H72.78l4.08,5.06,10.25,12.75L96.35,173h0l5.09-6.32H77.06Zm19.34,1.59c-.05.44-.09.88-.11,1.33C96.31,169.19,96.35,168.75,96.4,168.31Zm-.14,3.33c0,.37,0,.74.07,1.1C96.3,172.38,96.28,172,96.26,171.64Z"/><g class="cc"><path class="cd" d="M68.31,39.71v24H58.19v-24c0,1.8,2.59,3.54,5.14,3.5S68.3,41.4,68.31,39.71Z"/><path class="ce" d="M82.84,65H43.47s1-13.61,2.19-15.33c2.14-3,9.05-5.26,12.51-6,0,3,2.57,18.77,5.06,18.77l.26-.26c2.5,0,4.73-15.51,4.77-18.51,0,0,9.83,2.81,12.46,6.48C82,51.84,82.84,65,82.84,65Z"/><path class="cf" d="M58.26,40.65l-1.59,2.46a17.43,17.43,0,0,0-1.62,7.38l2.81-1.23-1.38,1.12a1.81,1.81,0,0,0-.37,2.41l7.08,10.84V62.51C60.21,56.67,58.26,46.29,58.26,40.65Z"/><path class="cf" d="M68.16,40.65l1.58,2.46c1.4,1.87,1.62,4.9,1.58,7.48l-2.77-1.33,1.34,1.09a1.88,1.88,0,0,1,.38,2.49L63.19,63.63V62.51C66.18,56.67,68,47.49,68.16,40.65Z"/><path class="cg" d="M68.57,38.37a9.82,9.82,0,0,1-.13,1.55c-.89,1.84-2.13,6.26-5.1,6.17-3.3-.11-6.17-5.93-5.89-6.65.21-.54.12,1.49-.61-1.38.45,1.76,12.11-3.64,11.89-1.45C68.63,37.57,69,36.94,68.57,38.37Z"/><path class="ch" d="M70.49,31.36a12.55,12.55,0,0,0,0-2.89c.06-10.89-16-10.21-14.95.9a11.47,11.47,0,0,0,0,2.27c-.71-.36-1.94-.26-.21,3.83.12.69-.67,1.5,1.15,1.88,0,1.69,1.13,3.48,2.55,5s3.14,2.8,4.86,2.45c2.13-.25,5.41-3.94,5.79-7.79.3-.21,1.17.33,1.23-1.61C71.39,32.64,71.72,29.87,70.49,31.36Z"/><path class="cd" d="M55.72,32.48c-.48-3-2.21-4.91-.72-8.14,2.35-5.1,12.22-6.85,13.71-1.18,3.89,1.13,1.54,8.38,1.13,10.55-.17-1.25-1.2-5.63-2.38-5.65.23-.78,1.42-2.51.15-2.12-5.43,1.85-5.66-1.19-9.09,1.11-.91.24-1.81,0-1.71.68.3,2.07-1,3.33-.61,4.19C56,33.82,56,34.63,55.72,32.48Z"/><path class="ci" d="M60.33,38.92c-.16,0-.13.19,0,.28a3.86,3.86,0,0,0,1.29.44,4.08,4.08,0,0,0,2,.11,6.94,6.94,0,0,0,1.89-.86c.12-.2.24-.36.12-.32S61.6,38.85,60.33,38.92Z"/><path class="cj" d="M61.07,36.55c0-.6,1.19-.22,1.59-.2s1.28-.19,1.37-.14c.57.35-.61,1.07-1.39,1.07C62.43,37.28,61.09,36.91,61.07,36.55Z"/><path class="cj" d="M61.67,41.11c0-.15,1.18-.15,1.58-.18s1.27-.15,1.36-.15c.57,0-.58.32-1.36.38A7.85,7.85,0,0,1,61.67,41.11Z"/></g><path class="ck" d="M226.62,23.35s3.7,1,5.47,6.48a9.77,9.77,0,0,1-.22,6.72,13.93,13.93,0,0,0-2.59-7.78,11.57,11.57,0,0,0-6.52-4.83C223.47,23.1,226.62,23.35,226.62,23.35Z"/><path class="cl" d="M209.5,33.21c.15-.59,2.31-8.66,8.58-10.14,0,0,5.33-.59,8.54.28a14.49,14.49,0,0,0-6.69,2.24c-3.77,2.72-5,7.79-5.08,8.38l1.91.27-5.21,5.94a22.44,22.44,0,0,1-2-3.12,43,43,0,0,1-1.91-4.1Z"/><path class="ck" d="M87.88,41.05s-3.7,1-5.47,6.48a9.72,9.72,0,0,0,.21,6.72,14,14,0,0,1,2.59-7.78,11.68,11.68,0,0,1,6.52-4.83C91,40.8,87.88,41.05,87.88,41.05Z"/><path class="cl" d="M105,50.92c-.15-.6-2.31-8.66-8.58-10.15,0,0-5.33-.58-8.54.28a14.49,14.49,0,0,1,6.69,2.24c3.77,2.72,5,7.79,5.08,8.38l-1.91.27L103,57.88a22.44,22.44,0,0,0,2-3.12,41.77,41.77,0,0,0,1.91-4.1Z"/></g></svg>