<svg xmlns="http://www.w3.org/2000/svg" xmlns:xlink="http://www.w3.org/1999/xlink" viewBox="0 0 80 80"><defs><style>.a{fill:none;}.b{clip-path:url(#a);}.c{fill:#6588ab;}</style><clipPath id="a"><rect class="a" width="80" height="80"/></clipPath></defs><g class="b"><path class="c" d="M41.27,62.58a3.8,3.8,0,0,0,2.51,1.06h0a3.8,3.8,0,0,0,2.51-1.06l9.37,5.28-8.31-6.28,3.74-3.43H50c-5.66,4.23-5.42,4.15-6.23,4.15h0c-.81,0-.57.08-6.24-4.15H36.47l3.74,3.43L31.9,67.86Z"/><path class="c" d="M56.12,58.15v10H31.44v-10H29.86v1.72H15.65v0a1.25,1.25,0,0,0,1.17,1.25l13,.36v3H21.4v0a1.27,1.27,0,0,0,1.17,1.26l7.29.34V69a.79.79,0,0,0,.79.79H56.91A.79.79,0,0,0,57.7,69V58.15Z"/><path class="c" d="M51.4,19.43c-.88,0-.33.11-10.25-7.19l7.17,6.57-2,1.49h1.77l1.11-.63a9,9,0,0,0,1,.63H52.6a9,9,0,0,0,1-.63l1.11.63h1.77l-2-1.49,7.16-6.57C51.73,19.54,52.28,19.43,51.4,19.43Z"/><path class="c" d="M62.72,10.59H40.08a.69.69,0,0,0-.69.69v1.86l-5.27.32A1.26,1.26,0,0,0,33,14.71v0h6.44v2.53l-9.58.34a1.26,1.26,0,0,0-1.17,1.25v0H39.39V20.3h1.37V12H62V20.3H63.4v-9A.68.68,0,0,0,62.72,10.59Z"/><path class="c" d="M69.41,23.17H21.82a1.44,1.44,0,0,0-1.43,1.44v5H5A2.35,2.35,0,0,0,7.35,31.9l10.16.46,2.88.13V37.7H5.89a1.85,1.85,0,0,0,.09.58A2.38,2.38,0,0,0,8.16,40l9.35.47,2.88.15V46H9.87v0a2.35,2.35,0,0,0,2.28,2.29l5.36.34,2.88.19v5a1.43,1.43,0,0,0,1.43,1.43H69.41a1.43,1.43,0,0,0,1.43-1.43V24.61A1.44,1.44,0,0,0,69.41,23.17ZM68,52.4H23.26V26.05H68Z"/><path class="c" d="M41.06,42.25c1.87,1.32,2.71,1.92,4.55,1.92h0c1.84,0,2.68-.6,4.55-1.92l17,9.57L52.08,40.43l15.07-13.8C46.31,42,47.46,41.75,45.62,41.75h0c-1.84,0-.68.23-21.53-15.12l15.07,13.8L24.08,51.82Z"/></g></svg>