<svg xmlns="http://www.w3.org/2000/svg" viewBox="0 0 41.81 41.81"><defs><style>.cls-1{fill:#e11e19;}</style></defs><g id="Layer_1" data-name="Layer 1"><path class="cls-1" d="M22.09,14.49A12.25,12.25,0,0,0,10,26.87a12.46,12.46,0,0,0,4.45,9.59,10.94,10.94,0,0,1-1-2.47,1.8,1.8,0,0,1,0-1,10.85,10.85,0,0,1-1.87-6.09A10.57,10.57,0,0,1,22.09,16.2a10.7,10.7,0,0,1,2.85,20.93,3.62,3.62,0,0,1-.13.47,3.33,3.33,0,0,1-1.91,1.61,12.39,12.39,0,0,0-.81-24.72Z"/><path class="cls-1" d="M23.55,15.78C22.67,11.1,27.08-.88,32.3,3.28a.62.62,0,0,1,0,1c-2.9,2.11-5.13,3.67-6.46,7.06C25.22,12.87,24.73,15.92,23.55,15.78Z"/><path class="cls-1" d="M17.81,16.51c-1.33-6-4.06-8.07-8.08-10.76a.67.67,0,0,1-.17-1c1.34-1.52,5.21-.5,6.15,1.39C17.23,8.87,19.22,14.34,17.81,16.51Z"/><ellipse class="cls-1" cx="17.11" cy="23.61" rx="1.33" ry="1.36"/><ellipse class="cls-1" cx="25.26" cy="23.64" rx="1.44" ry="1.48"/><path class="cls-1" d="M20,40.22a7.12,7.12,0,1,1,6.94-7.11A7,7,0,0,1,20,40.22Zm0-13.37a6.26,6.26,0,1,0,6.11,6.26A6.2,6.2,0,0,0,20,26.85Z"/></g></svg>