<svg xmlns="http://www.w3.org/2000/svg" xmlns:xlink="http://www.w3.org/1999/xlink" viewBox="0 0 320 220"><defs><style>.a{fill:none;}.b{isolation:isolate;}.c{clip-path:url(#a);}.d{fill:#b6d4ec;}.e,.p{fill:#124e77;}.e{opacity:0.21;}.f{clip-path:url(#b);}.g{fill:#0e3c62;}.h{fill:#176695;}.i{fill:#6588ab;}.j{fill:#071e2d;opacity:0.29;}.k{fill:#f0c8b2;}.aa,.l,.n{fill:#fff;}.m{fill:#e5b7a3;}.n{stroke:#dce2f2;stroke-miterlimit:10;}.o{fill:#dce2f2;}.q{fill:#36c6c4;}.r{fill:#cce4f2;}.s{fill:#77addb;}.t{clip-path:url(#c);}.u{fill:#341f1e;}.v{fill:#e9bbb1;}.w{fill:#f0c6bd;}.x{fill:#c49c80;opacity:0.7;}.y{fill:#d09289;}.z{fill:#f6a71c;}.aa{opacity:0.49;mix-blend-mode:screen;}.ab{fill:#254e6d;}.ac{fill:#e5ebec;}.ad{fill:#1c77c3;}.ae{fill:#f9f9f9;}</style><clipPath id="a"><rect class="a" width="320" height="220"/></clipPath><clipPath id="b"><circle class="a" cx="256.82" cy="126.6" r="33.4"/></clipPath><clipPath id="c"><circle class="a" cx="76.77" cy="89.9" r="29.49"/></clipPath></defs><g class="b"><g class="c"><polygon class="d" points="32.31 172.12 280.23 213.93 272.29 82.65 35.65 21.61 32.31 172.12"/><path class="e" d="M230,28.27l-3.75-4.69-124.32.2.24,171.94,3.75,4.69,111.83-.18c6.76,0,12.23-6.25,12.22-13.93Z"/><g class="f"><path class="g" d="M262.57,131v27.91H250.81V131c0,2.08,3,4.11,6,4.07S262.56,133,262.57,131Z"/><path class="h" d="M279.45,160.42H233.72s1.1-15.82,2.54-17.81c2.48-3.44,10.51-6.11,14.53-7,.06,3.49,3,21.8,5.88,21.81l.3-.3c2.9,0,5.49-18,5.54-21.51,0,0,11.42,3.27,14.48,7.53C278.42,145.11,279.45,160.42,279.45,160.42Z"/><path class="i" d="M250.89,132.12,249.05,135a20.23,20.23,0,0,0-1.89,8.58l3.27-1.43-1.6,1.31a2.11,2.11,0,0,0-.44,2.79l8.24,12.59v-1.29C253.16,150.73,250.89,138.67,250.89,132.12Z"/><path class="i" d="M262.4,132.12l1.84,2.85c1.62,2.18,1.87,5.69,1.82,8.7l-3.21-1.55,1.55,1.26a2.19,2.19,0,0,1,.45,2.9l-8.22,12.53v-1.29C260.09,150.73,262.16,140.07,262.4,132.12Z"/><path class="j" d="M262.87,129.47a12.37,12.37,0,0,1-.15,1.8c-1,2.14-2.48,7.27-5.93,7.16-3.83-.12-7.16-6.88-6.83-7.72.24-.63.14,1.73-.71-1.6.52,2,14.06-4.23,13.81-1.68C262.94,128.54,263.34,127.81,262.87,129.47Z"/><path class="k" d="M265.1,121.33A15,15,0,0,0,265,118c.08-12.65-18.55-11.85-17.36,1.06a12.83,12.83,0,0,0,0,2.63c-.83-.42-2.26-.31-.25,4.45.14.8-.78,1.75,1.34,2.18,0,2,1.31,4,3,5.82s3.65,3.26,5.64,2.85c2.48-.28,6.29-4.57,6.73-9,.35-.26,1.36.38,1.43-1.88C266.15,122.82,266.53,119.6,265.1,121.33Z"/><path class="g" d="M247.94,122.63c-.56-3.54-2.56-5.71-.84-9.46,2.73-5.93,14.21-8,15.93-1.36,4.52,1.3,1.8,9.72,1.32,12.25-.2-1.45-1.4-6.54-2.77-6.57.26-.9,1.65-2.91.17-2.46-6.3,2.15-6.57-1.38-10.55,1.29-1.06.27-2.1.05-2,.79.35,2.41-1.11,3.87-.71,4.87C248.23,124.19,248.3,125.13,247.94,122.63Z"/><path class="l" d="M253.3,130.11c-.19,0-.15.22,0,.32a4.43,4.43,0,0,0,1.49.52,4.81,4.81,0,0,0,2.35.12,8.09,8.09,0,0,0,2.2-1c.14-.23.28-.42.14-.37S254.77,130,253.3,130.11Z"/><path class="m" d="M254.16,127.35c0-.69,1.38-.25,1.85-.23s1.49-.22,1.58-.16c.66.41-.7,1.24-1.6,1.24C255.74,128.2,254.19,127.77,254.16,127.35Z"/><path class="m" d="M254.85,132.65c0-.17,1.37-.18,1.84-.21s1.48-.17,1.57-.16c.67,0-.67.36-1.57.43A8.84,8.84,0,0,1,254.85,132.65Z"/></g><path class="n" d="M99.32,196.23H209.57a15.64,15.64,0,0,0,15.64-15.65v-163H99.32Z"/><rect class="o" x="183.13" y="55.74" width="28" height="2.57" rx="1.29"/><path class="o" d="M128.82,175.75H106.27a.43.43,0,0,1-.45-.4h0a.43.43,0,0,1,.45-.41h22.55a.43.43,0,0,1,.45.41h0A.43.43,0,0,1,128.82,175.75Z"/><path class="o" d="M128.82,178H106.27a.43.43,0,0,1-.45-.41h0a.43.43,0,0,1,.45-.4h22.55a.43.43,0,0,1,.45.4h0A.43.43,0,0,1,128.82,178Z"/><path class="o" d="M152.81,79.86H130.26a.43.43,0,0,1-.45-.4h0a.43.43,0,0,1,.45-.41h22.55a.43.43,0,0,1,.45.41h0A.43.43,0,0,1,152.81,79.86Z"/><path class="o" d="M127.09,80H104.54a.43.43,0,0,1-.45-.4h0a.43.43,0,0,1,.45-.41h22.55a.43.43,0,0,1,.45.41h0A.43.43,0,0,1,127.09,80Z"/><path class="o" d="M152.81,82.08H130.26a.43.43,0,0,1-.45-.4h0a.43.43,0,0,1,.45-.41h22.55a.43.43,0,0,1,.45.41h0A.43.43,0,0,1,152.81,82.08Z"/><path class="o" d="M127.26,81.91H104.72a.43.43,0,0,1-.46-.4h0a.43.43,0,0,1,.46-.41h22.54a.43.43,0,0,1,.45.41h0A.43.43,0,0,1,127.26,81.91Z"/><path class="o" d="M178.18,79.86H155.64a.43.43,0,0,1-.45-.4h0a.43.43,0,0,1,.45-.41h22.54a.44.44,0,0,1,.46.41h0A.44.44,0,0,1,178.18,79.86Z"/><path class="o" d="M178.18,82.08H155.64a.43.43,0,0,1-.45-.4h0a.43.43,0,0,1,.45-.41h22.54a.44.44,0,0,1,.46.41h0A.44.44,0,0,1,178.18,82.08Z"/><path class="o" d="M214,79.18H183.39a.55.55,0,0,1-.61-.47h0a.55.55,0,0,1,.61-.46H214a.55.55,0,0,1,.61.46h0A.55.55,0,0,1,214,79.18Z"/><path class="o" d="M214,81.64H183.39a.55.55,0,0,1-.61-.46h0a.55.55,0,0,1,.61-.47H214a.55.55,0,0,1,.61.47h0A.55.55,0,0,1,214,81.64Z"/><path class="o" d="M214,84.11H183.39a.55.55,0,0,1-.61-.47h0a.55.55,0,0,1,.61-.46H214a.55.55,0,0,1,.61.46h0A.55.55,0,0,1,214,84.11Z"/><path class="o" d="M156.3,175.55H133.76a.43.43,0,0,1-.45-.41h0a.43.43,0,0,1,.45-.4H156.3a.43.43,0,0,1,.46.4h0A.43.43,0,0,1,156.3,175.55Z"/><path class="o" d="M156.3,177.57H133.76a.43.43,0,0,1-.45-.41h0a.43.43,0,0,1,.45-.4H156.3a.43.43,0,0,1,.46.4h0A.44.44,0,0,1,156.3,177.57Z"/><path class="o" d="M181.52,175.14H159a.44.44,0,0,1-.46-.4h0a.44.44,0,0,1,.46-.4h22.54a.44.44,0,0,1,.46.4h0A.44.44,0,0,1,181.52,175.14Z"/><path class="o" d="M216.66,174.08H186.42c-.34,0-.61-.18-.61-.4h0c0-.22.27-.41.61-.41h30.24c.34,0,.61.19.61.41h0C217.27,173.9,217,174.08,216.66,174.08Z"/><path class="o" d="M216.66,176H186.42c-.34,0-.61-.18-.61-.4h0c0-.22.27-.41.61-.41h30.24c.34,0,.61.19.61.41h0C217.27,175.85,217,176,216.66,176Z"/><path class="o" d="M216.66,178H186.42c-.34,0-.61-.18-.61-.4h0c0-.22.27-.41.61-.41h30.24c.34,0,.61.19.61.41h0C217.27,177.8,217,178,216.66,178Z"/><path class="o" d="M216.66,179.93H186.42c-.34,0-.61-.18-.61-.4h0c0-.22.27-.41.61-.41h30.24c.34,0,.61.19.61.41h0C217.27,179.75,217,179.93,216.66,179.93Z"/><path class="o" d="M181.32,177.16H158.78a.44.44,0,0,1-.46-.4h0a.44.44,0,0,1,.46-.41h22.54a.43.43,0,0,1,.45.41h0A.43.43,0,0,1,181.32,177.16Z"/><path class="o" d="M181.32,179.18H158.78a.44.44,0,0,1-.46-.41h0a.44.44,0,0,1,.46-.4h22.54a.43.43,0,0,1,.45.4h0A.43.43,0,0,1,181.32,179.18Z"/><rect class="o" x="183.13" y="51.12" width="23.6" height="2.57" rx="1.29"/><path class="o" d="M203.54,31.64h-9a.55.55,0,0,1-.54-.57h0a.56.56,0,0,1,.54-.57h9a.57.57,0,0,1,.55.57h0A.56.56,0,0,1,203.54,31.64Z"/><path class="o" d="M215.63,31.64h-9a.56.56,0,0,1-.55-.57h0a.57.57,0,0,1,.55-.57h9a.57.57,0,0,1,.55.57h0A.56.56,0,0,1,215.63,31.64Z"/><rect class="o" x="183.13" y="46.49" width="20.51" height="2.57" rx="1.29"/><rect class="o" x="106.21" y="118.36" width="108.01" height="2.57" rx="1.29"/><rect class="o" x="106.21" y="122.99" width="108.38" height="2.57" rx="1.29"/><rect class="o" x="106.21" y="99.85" width="108.01" height="2.57" rx="1.29"/><rect class="o" x="106.21" y="95.22" width="108.01" height="2.57" rx="1.29"/><rect class="o" x="106.21" y="104.48" width="108.01" height="2.57" rx="1.29"/><rect class="o" x="106.21" y="109.1" width="108.01" height="2.57" rx="1.29"/><rect class="o" x="106.21" y="113.73" width="31.6" height="2.57" rx="1.29"/><rect class="o" x="106.21" y="136.88" width="108.01" height="2.57" rx="1.29"/><rect class="o" x="106.21" y="141.51" width="71.35" height="2.57" rx="1.29"/><rect class="o" x="106.21" y="127.62" width="108.01" height="2.57" rx="1.29"/><rect class="o" x="106.21" y="132.25" width="99.49" height="2.57" rx="1.29"/><rect class="o" x="184.27" y="160.57" width="29.12" height="2.57" rx="1.29"/><rect class="o" x="184.27" y="155.94" width="21.8" height="2.57"/><rect class="o" x="108.03" y="53.69" width="28" height="2.57" rx="1.29"/><rect class="o" x="108.03" y="49.06" width="23.6" height="2.57" rx="1.29"/><rect class="o" x="108.03" y="44.43" width="20.51" height="2.57" rx="1.29"/><path class="p" d="M111.4,164c2.07-1.23,4.08-2.58,6-4,1-.71,1.9-1.43,2.78-2.21a12.22,12.22,0,0,0,2.3-2.5,2.72,2.72,0,0,0,.31-.68,1,1,0,0,0,0-.6.85.85,0,0,0-.36-.43,1,1,0,0,0-.55-.16,2.62,2.62,0,0,0-1.35.59,8.2,8.2,0,0,0-1.23,1.13,16.42,16.42,0,0,0-2,2.77A12.23,12.23,0,0,0,116,161a3.63,3.63,0,0,0-.1.78,1.29,1.29,0,0,0,.14.64c.05.06.05.06.09.07a.61.61,0,0,0,.27,0,3.49,3.49,0,0,0,.71-.41c1-.67,1.8-1.52,2.9-2.16a2.53,2.53,0,0,1,.94-.36,1.28,1.28,0,0,1,.58.06,1,1,0,0,1,.27.15.55.55,0,0,1,.2.29.75.75,0,0,1-.11.54,3.77,3.77,0,0,1-.26.39,7.16,7.16,0,0,0-.51.69c-.07.11-.08.22-.06.23s.14.08.28.09a4.43,4.43,0,0,0,.89,0l.46-.06.44-.08c.29-.07.59-.16.88-.25a24.7,24.7,0,0,0,3.35-1.41,20.4,20.4,0,0,0,3-1.87,9.54,9.54,0,0,0,1.3-1.15,5,5,0,0,0,.95-1.33,2.17,2.17,0,0,0,.18-1.45,2.69,2.69,0,0,0-.8-1.27l.39.14s-.06,0-.13.08l-.28.21c-.18.16-.36.34-.54.52-.35.37-.69.77-1,1.18-.65.81-1.28,1.65-1.88,2.51a48.84,48.84,0,0,0-3.29,5.29,13.59,13.59,0,0,0-.63,1.36c0,.11-.07.22-.09.31a.44.44,0,0,0,0,.19s0,0,0-.08a.46.46,0,0,0-.17-.19h0a.69.69,0,0,0-.39-.1l-.24.06h0l0,0,.09,0,.36-.19c1-.5,1.94-1,2.92-1.52l2.94-1.49,1.48-.75.75-.36.38-.18.2-.09.11-.05.16-.06h0a.61.61,0,0,1,.74.34.32.32,0,0,1,0,.09,1.39,1.39,0,0,1-.13.89,2.76,2.76,0,0,1-.37.6,11.23,11.23,0,0,1-.83,1c-.29.29-.58.58-.84.86s-.25.29-.36.43a1.66,1.66,0,0,0-.23.38l-.55-.58A17.73,17.73,0,0,0,134,163c1.1-.33,2.19-.73,3.26-1.16s2.13-.88,3.18-1.35l3.16-1.44s.06,0,.08,0a.05.05,0,0,1,0,.08c-1,.57-2,1.13-3,1.67s-2,1.07-3.1,1.56-2.13.94-3.24,1.34a16,16,0,0,1-3.5.89.51.51,0,0,1-.57-.38.59.59,0,0,1,0-.19h0a2.21,2.21,0,0,1,.33-.67c.12-.18.26-.35.39-.51.27-.32.55-.62.81-.92a8.09,8.09,0,0,0,.73-.88,2.38,2.38,0,0,0,.24-.43.44.44,0,0,0,.05-.26l.78.42h0l-.08,0-.17.09-.36.18-.73.38-1.46.75-2.91,1.54-2.92,1.52-.37.19-.1.05,0,0h-.05s0,0-.25.06a.7.7,0,0,1-.41-.1h0a.78.78,0,0,1-.3-.35.92.92,0,0,1-.08-.26,1.65,1.65,0,0,1,0-.59,3.62,3.62,0,0,1,.14-.43,10.76,10.76,0,0,1,.7-1.49,50.16,50.16,0,0,1,3.48-5.36c.63-.86,1.28-1.71,2-2.53.35-.41.71-.81,1.11-1.21.2-.19.4-.38.63-.57l.39-.27a1.32,1.32,0,0,1,.64-.21.48.48,0,0,1,.38.13h0a3.45,3.45,0,0,1,1,1.76,2.91,2.91,0,0,1-.33,1.91,5.72,5.72,0,0,1-1.15,1.47,12.1,12.1,0,0,1-1.44,1.15,20.71,20.71,0,0,1-3.22,1.8,27.27,27.27,0,0,1-3.46,1.35c-.29.09-.6.18-.91.25a3.55,3.55,0,0,1-.47.09l-.48.05a4.57,4.57,0,0,1-1,0,1.28,1.28,0,0,1-.27,0,.56.56,0,0,1-.29-.19.44.44,0,0,1-.06-.34.81.81,0,0,1,.09-.25c.16-.28.36-.5.52-.74a1.85,1.85,0,0,0,.23-.34.5.5,0,0,0,.06-.29.11.11,0,0,0-.06-.06.47.47,0,0,0-.14-.08.8.8,0,0,0-.35,0,2.13,2.13,0,0,0-.75.32c-1,.63-1.76,1.52-2.73,2.28a4,4,0,0,1-.84.53,1.33,1.33,0,0,1-.64.12.93.93,0,0,1-.68-.38,1.9,1.9,0,0,1-.32-1,4.13,4.13,0,0,1,.06-.94,11.6,11.6,0,0,1,1.24-3.36,15.19,15.19,0,0,1,2.06-3,8.46,8.46,0,0,1,1.39-1.27,5.06,5.06,0,0,1,.88-.51,2.84,2.84,0,0,1,1.12-.26,2.08,2.08,0,0,1,1.22.36,1.89,1.89,0,0,1,.75,1,1.92,1.92,0,0,1,0,1.12,3.6,3.6,0,0,1-.43.88,8.27,8.27,0,0,1-1.2,1.42,17.29,17.29,0,0,1-1.36,1.21,36.34,36.34,0,0,1-3,2.13c-1,.66-2.06,1.29-3.12,1.88s-2.14,1.18-3.26,1.68a.05.05,0,0,1-.08,0,0,0,0,0,1,0-.07Z"/><path class="p" d="M242.69,175.36c2.07-1.23,4.07-2.58,6-4,1-.71,1.9-1.43,2.78-2.21a12.24,12.24,0,0,0,2.3-2.5,2.72,2.72,0,0,0,.31-.68,1,1,0,0,0,0-.6.85.85,0,0,0-.36-.43.88.88,0,0,0-.55-.15,2.58,2.58,0,0,0-1.36.58,8.17,8.17,0,0,0-1.22,1.14,16,16,0,0,0-2,2.76,12.23,12.23,0,0,0-1.31,3.06,3.63,3.63,0,0,0-.1.78,1.29,1.29,0,0,0,.14.64c0,.06,0,.06.09.08a.6.6,0,0,0,.26,0,3.55,3.55,0,0,0,.72-.41c.95-.67,1.8-1.52,2.89-2.16a2.58,2.58,0,0,1,1-.36,1.3,1.3,0,0,1,.58.06,1,1,0,0,1,.27.15.55.55,0,0,1,.2.29.71.71,0,0,1-.12.54,3.77,3.77,0,0,1-.26.39,7,7,0,0,0-.5.69c-.07.11-.09.22-.07.23a.56.56,0,0,0,.29.1,5.34,5.34,0,0,0,.89,0l.46-.06.44-.08c.29-.07.58-.16.87-.25a24.3,24.3,0,0,0,3.36-1.41,20.92,20.92,0,0,0,3.05-1.87,9.54,9.54,0,0,0,1.3-1.15,5,5,0,0,0,1-1.33,2.15,2.15,0,0,0,.18-1.44,2.61,2.61,0,0,0-.81-1.28l.39.15c.06,0-.05,0-.13.08a2.07,2.07,0,0,0-.27.2c-.18.16-.36.34-.54.52-.35.37-.69.77-1,1.18-.66.81-1.28,1.65-1.89,2.51a52.18,52.18,0,0,0-3.29,5.29c-.23.46-.45.92-.62,1.36,0,.11-.07.22-.1.32s0,.19,0,.18a.2.2,0,0,0,0-.08.46.46,0,0,0-.17-.19h0a.8.8,0,0,0-.39-.1l-.24.06h0l0,0,.09,0,.36-.19c1-.5,1.94-1,2.92-1.51l2.94-1.5,1.48-.74.75-.37.38-.18.2-.09.1,0,.17-.07h0a.61.61,0,0,1,.74.34l0,.09a1.45,1.45,0,0,1-.13.89,3.21,3.21,0,0,1-.37.6,9.78,9.78,0,0,1-.84,1c-.28.29-.57.58-.83.86l-.36.43a1.66,1.66,0,0,0-.23.38l-.55-.58a17.9,17.9,0,0,0,3.34-.7c1.1-.33,2.19-.73,3.26-1.16s2.13-.88,3.18-1.35l3.16-1.44a.07.07,0,0,1,.08,0,.07.07,0,0,1,0,.07c-1,.57-2,1.13-3,1.67s-2,1.08-3.1,1.56-2.13.94-3.24,1.34a16.19,16.19,0,0,1-3.5.89.51.51,0,0,1-.57-.38.4.4,0,0,1,0-.19h0a2.26,2.26,0,0,1,.34-.66,5.42,5.42,0,0,1,.39-.52c.27-.32.55-.62.81-.92a9.44,9.44,0,0,0,.73-.88A2.38,2.38,0,0,0,264,172a.44.44,0,0,0,.05-.26l.78.42s0,0,0,0l-.08,0-.17.09-.37.18-.72.38-1.46.75-2.91,1.54c-1,.52-2,1-2.92,1.52l-.37.19-.1.05-.05,0,0,0h0s0,0-.25.06a.7.7,0,0,1-.41-.1h0a.94.94,0,0,1-.3-.35,1.13,1.13,0,0,1-.07-.26,1.65,1.65,0,0,1,0-.59,3.62,3.62,0,0,1,.14-.43,10.76,10.76,0,0,1,.7-1.49,48.67,48.67,0,0,1,3.48-5.36c.63-.86,1.28-1.71,2-2.53.36-.41.72-.81,1.12-1.2a7.1,7.1,0,0,1,.63-.58,4.39,4.39,0,0,1,.39-.27,1.39,1.39,0,0,1,.64-.21.48.48,0,0,1,.38.13v0a3.52,3.52,0,0,1,1,1.75,2.91,2.91,0,0,1-.33,1.91,5.94,5.94,0,0,1-1.15,1.47,13.29,13.29,0,0,1-1.44,1.16,21.5,21.5,0,0,1-3.22,1.79,25.85,25.85,0,0,1-3.46,1.35c-.3.09-.6.18-.91.25a3.55,3.55,0,0,1-.47.09l-.48,0a5.31,5.31,0,0,1-1,0,1.31,1.31,0,0,1-.27-.06.53.53,0,0,1-.29-.19.4.4,0,0,1-.06-.34.81.81,0,0,1,.09-.25,7.21,7.21,0,0,1,.52-.73,1.69,1.69,0,0,0,.22-.35.44.44,0,0,0,.07-.28.1.1,0,0,0-.06-.07.47.47,0,0,0-.14-.08.81.81,0,0,0-.35,0,2.13,2.13,0,0,0-.75.32c-1,.63-1.77,1.52-2.73,2.28a4,4,0,0,1-.84.53,1.33,1.33,0,0,1-.64.12.93.93,0,0,1-.68-.38,1.86,1.86,0,0,1-.33-1,4.78,4.78,0,0,1,.07-.94,11.6,11.6,0,0,1,1.24-3.36,15.19,15.19,0,0,1,2.06-3,8.46,8.46,0,0,1,1.39-1.27,5.06,5.06,0,0,1,.88-.51,2.84,2.84,0,0,1,1.12-.26,2,2,0,0,1,1.22.37,1.87,1.87,0,0,1,.75.95,1.92,1.92,0,0,1,0,1.12,3.43,3.43,0,0,1-.43.88,8.27,8.27,0,0,1-1.2,1.42,14.28,14.28,0,0,1-1.37,1.21,34.53,34.53,0,0,1-3,2.13c-1,.66-2.06,1.29-3.12,1.88s-2.14,1.18-3.26,1.69a.06.06,0,0,1-.08,0,0,0,0,0,1,0-.07Z"/><path class="q" d="M285.41,159.16v13.37H281V159.16h4.46m4.45,13.37a2.23,2.23,0,0,1-2.23-2.23V159.16a2.19,2.19,0,0,1,.66-1.57l7.33-7.34,1.18,1.18a1.65,1.65,0,0,1,.49,1.17l0,.36-1.06,5.09h7a2.23,2.23,0,0,1,2.23,2.23v2.22a2.26,2.26,0,0,1-.16.82l-3.36,7.85a2.23,2.23,0,0,1-2.05,1.36h-10m0-2.23h10.06l3.31-7.8v-2.22h-9.79l1.26-5.93-4.84,4.85Z"/><path class="r" d="M114.18,188.44a86.73,86.73,0,0,1-32-48.1,3,3,0,1,1,5.8-1.49,80.81,80.81,0,0,0,29.82,44.82,81.79,81.79,0,0,0,114.45-15.84,3,3,0,0,1,4.77,3.61A87.78,87.78,0,0,1,114.18,188.44Z"/><path class="s" d="M177.18,18.68a3,3,0,0,1,2.66-5.07c1.62.31,3.23.67,4.84,1.08a3,3,0,1,1-1.47,5.8c-1.49-.38-3-.72-4.5-1A2.91,2.91,0,0,1,177.18,18.68Z"/><path class="s" d="M77.25,89.08a3,3,0,0,1-.86-2.58,91,91,0,0,1,1.9-9.23,3,3,0,0,1,5.79,1.53,83.54,83.54,0,0,0-1.78,8.6,3,3,0,0,1-5,1.68Zm8.33-25.89A3,3,0,0,1,85,59.7a88.3,88.3,0,0,1,4.75-8.15,3,3,0,0,1,5,3.29,82.09,82.09,0,0,0-4.43,7.59,3,3,0,0,1-4,1.29A2.85,2.85,0,0,1,85.58,63.19ZM101.73,41.3a3,3,0,0,1,0-4.27,86.64,86.64,0,0,1,7.07-6.22,3,3,0,0,1,3.71,4.69,82.21,82.21,0,0,0-6.59,5.81A3,3,0,0,1,101.73,41.3Zm22.21-15.67a2.91,2.91,0,0,1-.59-.83,3,3,0,0,1,1.38-4,86.61,86.61,0,0,1,8.68-3.65,3,3,0,1,1,2,5.63,80.56,80.56,0,0,0-8.09,3.41A3,3,0,0,1,123.94,25.63ZM150,17.83a3,3,0,0,1-.87-1.74,3,3,0,0,1,2.58-3.36,90.08,90.08,0,0,1,9.4-.71,3,3,0,0,1,.13,6,83.3,83.3,0,0,0-8.76.67A3,3,0,0,1,150,17.83Z"/><path class="r" d="M83.26,142a3,3,0,0,1-1.09-1.64c-.41-1.6-.78-3.22-1.09-4.84A3,3,0,1,1,87,134.35q.43,2.27,1,4.5A3,3,0,0,1,83.26,142Z"/><path class="s" d="M181.85,19.72a3,3,0,0,1,2.83-5,87.82,87.82,0,0,1,61.15,56,3,3,0,1,1-5.65,2,81.82,81.82,0,0,0-57-52.13A3.06,3.06,0,0,1,181.85,19.72Z"/><path class="s" d="M239.29,79.28l-7.63-8.54a3,3,0,1,1,4.46-4l5.23,5.85,5.14-5.93A3,3,0,1,1,251,70.6l-7.36,8.5a3,3,0,0,1-4.36.18Z"/><path class="r" d="M84.78,125.27l9.9,7.46a3.31,3.31,0,0,1,.59,4.63,3.27,3.27,0,0,1-4.59.73L83.89,133l-4.34,7.64a3.32,3.32,0,0,1-4.48,1.32,3.26,3.26,0,0,1-1.17-4.5l6.23-11a3.4,3.4,0,0,1,2.2-1.64A3.19,3.19,0,0,1,84.78,125.27Z"/><g class="t"><path class="a" d="M89.36,105.1l.61-.46h-.72C89.29,104.79,89.32,104.94,89.36,105.1Z"/><path class="a" d="M63.57,104.64l.35.26a2,2,0,0,1,.07-.26Z"/><path class="a" d="M67.12,93.06l0,0C67.15,93.09,67.17,93.11,67.12,93.06Z"/><path class="u" d="M72,97.41c.32-.2.84-1.6,1.11-1.91-.73.08-1.22.16-1.44.2h.08C71.89,95.85,71.82,97.2,72,97.41Z"/><path class="u" d="M81.16,97.38c.19-.19.51-.65.7-.86,0,0-.37-.72-.32-.72l0,0L80,95.59A15.12,15.12,0,0,0,81.16,97.38Z"/><path class="v" d="M64,104.64a2,2,0,0,0-.07.26c.51.37,1,.72,1.57,1,0-.41,0-.85,0-1.31Z"/><path class="v" d="M74.71,96.69a3.73,3.73,0,0,1-1.8-1.26c0-.08,0-.15,0-.24a4.69,4.69,0,0,1-.92,1.7,3.71,3.71,0,0,1-.89.76c1,1.16,2.85,8.79,5.37,8.78l.07-9.35A6.35,6.35,0,0,1,74.71,96.69Z"/><path class="w" d="M87.91,104.64c0,.5,0,1,0,1.4.5-.29,1-.61,1.46-.94,0-.16-.07-.31-.11-.46Z"/><path class="w" d="M81.28,96.91a5.05,5.05,0,0,1-.91-1.58l0,.17a3.51,3.51,0,0,1-1.53,1.22,5,5,0,0,1-2.3.36l-.07,8.57c1.63,0,3.59-5.88,5.65-8A4.34,4.34,0,0,1,81.28,96.91Z"/><path class="x" d="M80.37,95.33l0-.15h0C80.33,95.24,80.35,95.28,80.37,95.33Z"/><path class="x" d="M73,95.12v.07a.25.25,0,0,1,0-.07Z"/><path class="v" d="M74.71,96.69c.58,0,1.2,0,1.88,0V96A14.27,14.27,0,0,1,73,95.12a.25.25,0,0,0,0,.07c0,.09,0,.16,0,.24A3.73,3.73,0,0,0,74.71,96.69Z"/><path class="v" d="M74.71,96.69a6.35,6.35,0,0,0,1.88.39v-.42C75.91,96.66,75.29,96.67,74.71,96.69Z"/><path class="x" d="M73,95.12a.25.25,0,0,0,0,.07c0,.09,0,.16,0,.24a3.73,3.73,0,0,0,1.8,1.26,6.35,6.35,0,0,0,1.88.39V96A14.27,14.27,0,0,1,73,95.12Z"/><path class="w" d="M77.06,96h-.47v.63c.71,0,1.48,0,2.3.06a3.51,3.51,0,0,0,1.53-1.22l0-.17s0-.09-.06-.15A16.6,16.6,0,0,1,77.06,96Z"/><path class="w" d="M78.89,96.72c-.82,0-1.59-.06-2.3-.06v.42A5,5,0,0,0,78.89,96.72Z"/><path class="x" d="M80.42,95.5a3.51,3.51,0,0,1-1.53,1.22,5.42,5.42,0,0,1-2.36.37V96l.27,0a1,1,0,0,0,.27,0,16.7,16.7,0,0,0,3.25-.85l.06.15Z"/><path class="w" d="M89,87.42Z"/><path class="w" d="M82.75,78a3.81,3.81,0,0,1-2,3.57A3,3,0,0,0,82.75,78Z"/><path class="w" d="M75,93.81l.2,0,0,0Z"/><path class="w" d="M80,93.51l-.09,0a9.16,9.16,0,0,0,.38,1.65h0v0C80.11,93.88,80.08,94,80,93.51Z"/><path class="w" d="M73.31,93.56l-.11,0c-.1.89-.17,1.3-.23,1.58h0A9.21,9.21,0,0,0,73.31,93.56Z"/><path class="w" d="M85.5,89.52a1.22,1.22,0,0,1,.06-.7c0-.1.1-.13.14-.19a8.76,8.76,0,0,1-2.69.91c5.2-2.55,1-5,1.62-9.71-.29,2.12-2.89-1-4.62-1.68-1.28.53-2.78,4.37-4.49,4.27-2.41-.14-3.46,2.82-2.8,3-1.52-.51-2.12-1-2.24-1.48a5.72,5.72,0,0,0,.23,7c-.15.16-3.19-1.81-2.93-4.41a2.64,2.64,0,0,0-.37,2.21s0,0,0,.08a1.37,1.37,0,0,1,.07.66,10.71,10.71,0,0,0,1.19,3.16A12.91,12.91,0,0,0,73,95.13a14.32,14.32,0,0,0,3.62.89l.2,0a1,1,0,0,0,.27,0,16.7,16.7,0,0,0,3.25-.85h0c2.33-.88,4.67-2.38,5.21-4.66a2.46,2.46,0,0,0,.29-.09c.06-.24.12-.51.18-.76C85.78,89.76,85.56,89.76,85.5,89.52Z"/><path class="v" d="M85.7,88.62a.78.78,0,0,0-.14.2,1.32,1.32,0,0,0-.06.7c0,.24.27.23.52.15.1-.45.22-.92.34-1.44A5.69,5.69,0,0,1,85.7,88.62Z"/><path class="y" d="M76.67,91.62h0c-.24,0-1.8-.55-1.81-1.09,0-.89,1.37-.32,1.83-.29h0c.38,0,1.45-.28,1.55-.21C78.86,90.56,77.57,91.59,76.67,91.62Z"/><path class="v" d="M67.45,88.82s0,0,0-.08a6.69,6.69,0,0,0,.12.74A1.26,1.26,0,0,0,67.45,88.82Z"/><path class="z" d="M67.1,93l0,0S67.15,93.09,67.1,93Z"/><path class="z" d="M72.28,82c-.34.26-2.08,1.05-1.81,2A9,9,0,0,1,72.28,82Z"/><path class="z" d="M64.6,77a.55.55,0,0,0-.06.28C64.55,77.19,64.59,77.1,64.6,77Z"/><path class="aa" d="M64.6,77a.55.55,0,0,0-.06.28C64.55,77.19,64.59,77.1,64.6,77Z"/><path class="ab" d="M73.24,76.36a6.54,6.54,0,0,1,5-1.5,2.82,2.82,0,0,0-2-.71,7.62,7.62,0,0,0-2.11.38l2-1a27.94,27.94,0,0,0-4.37.56A3.12,3.12,0,0,0,73,73.19a2.67,2.67,0,0,0-1.48.16l1.14-.83a2.29,2.29,0,0,0-.69,0,21,21,0,0,1,6.16-.68c-2.39-.77-4.9-.37-7.3.13a9.65,9.65,0,0,0-3.28,1.35,9.75,9.75,0,0,0-1.42,1.09A5.06,5.06,0,0,0,64.6,77a1.64,1.64,0,0,1,.44-.47c.42-.31.85-.6,1.29-.88a21.41,21.41,0,0,1,2.91-1.56c.12.21-.11.45-.31.6a9.74,9.74,0,0,0-3.29,4.38A9.18,9.18,0,0,0,65,82a2.44,2.44,0,0,0,.65-.74c.13-.2.25-.42.37-.62a9,9,0,0,1,3.34-3.33,6.31,6.31,0,0,1-1.08,2.11,4.3,4.3,0,0,0-.63,3.85c1.42-1.17,1.81-3.42,3.47-4.2a2,2,0,0,0-.3,1.29c1.73-.85,3-2.37,4.74-3.3a8,8,0,0,1,4.46-1A13.82,13.82,0,0,0,73.24,76.36Zm-.45,1.3h0c-.21-.09-.29-.34-.46-.49a14.39,14.39,0,0,1-2.44-4.23,8.6,8.6,0,0,1,1.74,2.34c.09.26,1.12,1.34,1.22,1.59A.85.85,0,0,1,72.79,77.66Z"/><path class="g" d="M70.47,84c.13.46.74,1,2.24,1.47-.65-.22.4-3.18,2.82-3a11.16,11.16,0,0,0,4.65-.53c-.11,0,0,.06,0,0,1.73.65,4.16,0,4.45-2.08C84,84.59,88.25,87,83,89.57a8.57,8.57,0,0,0,2.74-.95,5.69,5.69,0,0,0,.66-.39c-.12.52-.24,1-.34,1.44-.06.27-.13.52-.19.76-.51,2-1,3.17-2.43,3.69,4.61-.88,6.2-4.74,5.56-6.7h0c.58,1.74.62,4.38,0,3.67,1.3,1.49,2.05-7.19,2-7.66a15.25,15.25,0,0,0-.12-2.09c-4.58-22.21-35.18-12-27.5,6.57a10,10,0,0,0,3.77,5.42A3.48,3.48,0,0,1,66.81,92a9.76,9.76,0,0,0,2.92,1.91,4.2,4.2,0,0,1-1-1.23,10.77,10.77,0,0,1-1.19-3.17,6.69,6.69,0,0,1-.12-.74,2.8,2.8,0,0,1,.37-2.22c-.25,2.61,2.8,4.57,2.94,4.42a5.75,5.75,0,0,1-.24-7m5.1-7c-1.69.93-3,2.45-4.74,3.3a2,2,0,0,1,.3-1.29c-1.66.78-2,3-3.47,4.2a4.3,4.3,0,0,1,.63-3.85,6.31,6.31,0,0,0,1.08-2.11A9,9,0,0,0,66,80.6c-.12.2-.24.42-.37.62A2.44,2.44,0,0,1,65,82a9.18,9.18,0,0,1,.63-2.88,9.74,9.74,0,0,1,3.29-4.38c.2-.15.43-.39.31-.6a21.41,21.41,0,0,0-2.91,1.56c-.44.28-.87.57-1.29.88a1.64,1.64,0,0,0-.44.47,5.06,5.06,0,0,1,1.56-2.64,9.75,9.75,0,0,1,1.42-1.09,9.65,9.65,0,0,1,3.28-1.35c2.4-.5,4.91-.9,7.3-.13a21,21,0,0,0-6.16.68,2.29,2.29,0,0,1,.69,0l-1.14.83A2.67,2.67,0,0,1,73,73.19a3.12,3.12,0,0,1-1.26.86,27.94,27.94,0,0,1,4.37-.56l-2,1a7.62,7.62,0,0,1,2.11-.38,2.82,2.82,0,0,1,2,.71,6.54,6.54,0,0,0-5,1.5A13.82,13.82,0,0,1,80,76.07,8,8,0,0,0,75.57,77Z"/><path class="g" d="M71.63,75.28a8.6,8.6,0,0,0-1.74-2.34,14.39,14.39,0,0,0,2.44,4.23c.17.15.25.4.46.49h0a.85.85,0,0,0,.06-.79C72.75,76.62,71.72,75.54,71.63,75.28Z"/><path class="y" d="M79.43,93.25l-2.84-.1L73.79,93l1.47.82L78,94c.08,0,.27-.19.35-.2Z"/><path class="y" d="M78.32,93.81l0,0-.23,0Z"/><path class="ac" d="M81.49,96.71v21.47H71.71V96.71a2.76,2.76,0,0,0,2.42,2.61c.41.08,2.06,6,2.47,6s2.1-5.92,2.46-6C80.2,99,81.48,98.1,81.49,96.71Z"/><path class="s" d="M95.69,119.23H57.39s.93-13.25,2.13-14.92c2.08-2.88,8.8-5.11,12.17-5.88,0,2.92,2.42,19.3,4.85,19.3h0c2.43,0,4.92-16.38,5-19.3,0,0,9.57,2.74,12.13,6.31C94.83,106.41,95.69,119.23,95.69,119.23Z"/><path class="s" d="M95.69,119.23H76.6l-.06-1.5h0c2.43,0,4.92-16.38,5-19.3,0,0,9.57,2.74,12.13,6.31C94.83,106.41,95.69,119.23,95.69,119.23Z"/><path class="ad" d="M71.77,96.27c-3,2.58-4,3.62-3.12,8.38h2.74l-2.58,2.1c1.26,4.87,3.94,8.21,7.77,11.88v-1.09C73.68,111.86,72.79,103.11,71.77,96.27Z"/><path class="ad" d="M81.41,96.27c3.27,3,4.2,3.47,3.12,8.38H81.79l2.58,2.1a23.81,23.81,0,0,1-7.79,11.88v-1.09C79.48,111.86,80.39,103.11,81.41,96.27Z"/><path class="r" d="M81.22,100.65a.38.38,0,1,1-.38-.38A.38.38,0,0,1,81.22,100.65Z"/><circle class="r" cx="80.4" cy="101.75" r="0.33"/><path class="r" d="M80.19,102.83a.49.49,0,1,1-.48-.49A.49.49,0,0,1,80.19,102.83Z"/><circle class="r" cx="78.51" cy="103.86" r="0.62"/><path class="r" d="M72.28,100.53a.38.38,0,1,0,.38-.38A.38.38,0,0,0,72.28,100.53Z"/><circle class="r" cx="73.1" cy="101.63" r="0.33"/><path class="r" d="M73.31,102.71a.47.47,0,0,0,.48.48.48.48,0,0,0,.49-.48.49.49,0,0,0-.49-.49A.48.48,0,0,0,73.31,102.71Z"/><circle class="r" cx="74.99" cy="103.74" r="0.62"/><circle class="r" cx="76.69" cy="104.53" r="0.83"/><path class="ae" d="M71.71,95.69c.63,2.23,1,2.74,2.42,3.63-1.8.72-1.86,2.17-3.84,3.62A11.06,11.06,0,0,1,71.71,95.69Z"/><path class="ae" d="M81.48,95.69c-.63,2.23-1,2.74-2.42,3.63,1.8.72,1.86,2.17,3.84,3.62A11.06,11.06,0,0,0,81.48,95.69Z"/></g></g></g></svg>