<svg xmlns="http://www.w3.org/2000/svg" viewBox="0 0 24 24"><defs><style>.cls-1{fill:#fff;}</style></defs><g id="Layer_2" data-name="Layer 2"><g id="Logos_Material" data-name="Logos &amp; Material"><path class="cls-1" d="M22.25,9.09c0,.13-1.16,6-1.16,6a2,2,0,0,1-1.17,1.14h-15l-.06-5.15h0c0-.67,0-1.34,0-2,0-1.84,0-3.54.06-4.78,0-.62,0-1.13,0-1.48s0-.51,0-.66h0A2,2,0,0,0,4,.81,3.16,3.16,0,0,0,2,.29,1.19,1.19,0,0,0,1.21,0,1.22,1.22,0,0,0,0,1.22,1.21,1.21,0,0,0,1.21,2.44a1.19,1.19,0,0,0,1-.48A1.55,1.55,0,0,1,3,2.18a.5.5,0,0,1,.2.22c0,1-.14,13-.2,17v.82a2,2,0,1,0,2.83,2.15l11.48,0a2,2,0,1,0,.11-1.06l-12-3.32h15a2.55,2.55,0,0,0,2.28-2.23L24,9.09ZM17.07,21.94,5.81,21.47A2,2,0,0,0,4.7,20.16V18.64c2.64.73,12.37,3.12,12.37,3.12A.09.09,0,0,1,17.07,21.94Z"/><path class="cls-1" d="M17.78,10.67a2.34,2.34,0,0,0,1.35-3L16.37.43,7,4l3.61,9.4ZM15.4,2.6l2.17,5.64a.67.67,0,0,1-.39.86l-5.64,2.17L9.13,5Z"/></g></g></svg>