<svg xmlns="http://www.w3.org/2000/svg" viewBox="0 0 215 215"><defs><style>.cls-1,.cls-4{fill:#fff;}.cls-2{fill:#1c77c3;}.cls-3{fill:#cce4f2;}.cls-4{opacity:0.19;}.cls-5{fill:#254e6d;opacity:0.11;}</style></defs><g id="tpex"><rect class="cls-1" x="-586.86" y="-43.65" width="1331.61" height="264.77"/></g><g id="Layer_1" data-name="Layer 1"><polygon class="cls-2" points="155.82 53.43 160.52 53.43 165.21 53.43 166.29 52.09 156.48 46.42 158.96 49.52 155.82 53.43"/><polygon class="cls-2" points="162.08 84.73 165.21 80.82 162.08 76.9 152.69 76.9 155.82 80.82 152.69 84.73 155.82 84.73 162.08 84.73"/><polygon class="cls-2" points="138.61 65.17 135.48 69.08 149.56 69.08 151.13 69.08 154.26 65.17 151.13 61.26 135.48 61.26 138.61 65.17"/><polygon class="cls-2" points="141.74 96.46 138.61 100.38 146.44 100.38 149.56 96.46 146.44 92.55 138.61 92.55 141.74 96.46"/><polygon class="cls-2" points="155.82 108.2 158.96 112.11 155.82 116.03 163.65 116.03 166.78 112.11 163.65 108.2 155.82 108.2"/><polygon class="cls-2" points="154.26 127.76 151.13 123.85 143.31 123.85 146.44 127.76 143.31 131.67 151.13 131.67 154.26 127.76"/><polygon class="cls-2" points="154.26 159.06 151.13 162.97 158.96 162.97 162.08 159.06 158.96 155.15 151.13 155.15 154.26 159.06"/><path class="cls-2" d="M141.74,147.32h29.73l3.13-3.91-3.13-3.91H123l-3.13-3.91,3.13-3.92h15.65l3.13-3.91-3.13-3.91H110.44l-3.13-3.91,3.13-3.91H148l3.13-3.92L148,108.2H121.4l-3.13-3.91,3.13-3.91h9.39l3.13-3.92-3.13-3.91H118.27l-3.13-3.91,3.13-3.91h26.6L148,80.82l-3.13-3.92H115.14L112,73l3.13-3.91h12.52l3.13-3.91-3.13-3.92H123l-3.13-3.91L123,53.43h25l3.13-3.91L148,45.61H119.83l-3.13-3.92,3.13-3.91h17.22L138.46,36,128,30H104.18l-2-2.47L77.59,41.7l3.12,3.91H72.89l-.65-.82-33,19.05V149l54.24,31.31,1.31-1.64h18.78l-3.13,3.91,3.13,3.91h-9.39l8.77,5.07,8.77-5.07h-.32l-3.13-3.91,3.13-3.91h13.87l13.55-7.82H126.09L123,166.88l3.13-3.91h18.78l3.13-3.91-3.13-3.91h-9.39l-3.13-3.92,3.13-3.91Zm-26.6-46.94L112,104.29l3.13,3.91H102.62l-3.13-3.91,3.13-3.91Zm-4.7-7.83H93.23L90.1,88.64l3.13-3.91h17.21l-3.13,3.91ZM115,61.25l.13.16H102.62L99.49,57.5l3.13-3.91h12.52L112,57.5ZM88.54,37.78H112l-3.13,3.91L112,45.61H88.54l-3.13-3.92ZM80.71,53.43H94.79l-3.12,3.91,3.12,3.91H80.71l-3.13-3.91ZM71.32,73l3.13-3.91h32.86L104.18,73l3.13,3.91H74.45ZM94.79,139.5H87l-3.13-3.91L87,131.67h7.82l-3.12,3.92Zm-1.56-19.56L96.36,116h7.82l-3.13,3.91,3.13,3.91H96.36Zm4.69,15.65,3.13-3.92H116.7l-3.13,3.92,3.13,3.91H101.05Zm20.35,35.21H105.75l-3.13-3.92,3.13-3.91h12.52l-3.13,3.91Zm9.39-15.65h-9.39l-3.13-3.92,3.13-3.91h9.39l-3.13,3.91Z"/><path class="cls-3" d="M166.29,52.09l-1.08,1.34h-9.39L159,49.52l-2.47-3.1-1.41-.81-13.56-7.83-3-1.76-1.41,1.76H119.83l-3.13,3.91,3.13,3.92H148l3.13,3.91L148,53.43H123l-3.13,3.91L123,61.25h4.7l3.13,3.92-3.13,3.91H115.14L112,73l3.13,3.91h29.73L148,80.82l-3.13,3.91h-26.6l-3.13,3.91,3.13,3.91h12.52l3.13,3.91-3.13,3.92H121.4l-3.13,3.91,3.13,3.91H148l3.13,3.91L148,116H110.44l-3.13,3.91,3.13,3.91h28.17l3.13,3.91-3.13,3.91H123l-3.13,3.92L123,139.5h48.51l3.13,3.91-3.13,3.91h-36l-3.13,3.91,3.13,3.92h9.39l3.13,3.91L144.87,163H126.09L123,166.88l3.13,3.92h22.73L162.37,163l12.8-7.39a23,23,0,0,0,11.49-19.89V63.84ZM162.08,76.9l3.13,3.92-3.13,3.91H152.7l3.12-3.91L152.7,76.9Zm-15.64,23.48h-7.83l3.13-3.92-3.13-3.91h7.83l3.13,3.91Zm3.13-31.3H135.48l3.13-3.91-3.13-3.92h15.65l3.13,3.92-3.13,3.91Zm1.56,62.59h-7.82l3.13-3.91-3.13-3.91h7.82l3.13,3.91ZM163.65,116h-7.83l3.13-3.92-3.13-3.91h7.83l3.13,3.91ZM159,163h-7.82l3.13-3.91-3.13-3.91H159l3.13,3.91Z"/><polygon class="cls-3" points="112.01 45.61 108.88 41.69 112.01 37.78 88.54 37.78 85.41 41.69 88.54 45.61 112.01 45.61"/><polygon class="cls-3" points="80.71 45.61 77.59 41.7 72.24 44.8 72.89 45.61 80.71 45.61"/><polygon class="cls-3" points="102.62 53.59 99.49 57.5 102.62 61.41 107.31 61.41 115.14 61.41 115.01 61.26 112.01 57.5 115.14 53.59 102.62 53.59"/><polygon class="cls-3" points="93.23 84.73 90.1 88.64 93.23 92.55 97.92 92.55 110.44 92.55 107.31 88.64 110.44 84.73 93.23 84.73"/><polygon class="cls-3" points="104.18 72.99 107.31 69.08 74.45 69.08 71.32 72.99 74.45 76.9 107.31 76.9 104.18 72.99"/><polygon class="cls-3" points="80.71 53.43 77.58 57.34 80.71 61.26 94.8 61.26 91.67 57.34 94.8 53.43 80.71 53.43"/><polygon class="cls-3" points="101.06 131.67 97.92 135.59 101.06 139.5 116.7 139.5 113.57 135.59 116.7 131.67 101.06 131.67"/><polygon class="cls-3" points="122.96 147.32 118.27 147.32 115.14 151.24 118.27 155.15 127.66 155.15 124.53 151.24 127.66 147.32 122.96 147.32"/><polygon class="cls-3" points="91.67 135.59 94.8 131.67 86.97 131.67 83.84 135.59 86.97 139.5 94.8 139.5 91.67 135.59"/><polygon class="cls-3" points="102.62 100.38 99.49 104.29 102.62 108.2 115.14 108.2 112.01 104.29 115.14 100.38 102.62 100.38"/><polygon class="cls-3" points="94.8 178.62 93.48 180.26 104.18 186.44 113.57 186.44 110.44 182.53 113.57 178.62 94.8 178.62"/><polygon class="cls-3" points="105.75 162.97 102.62 166.88 105.75 170.8 118.27 170.8 115.14 166.88 118.27 162.97 105.75 162.97"/><polygon class="cls-3" points="116.7 29.96 127.96 29.96 114.41 22.13 111.49 22.13 102.21 27.49 104.18 29.96 116.7 29.96"/><polygon class="cls-3" points="118.27 182.53 121.4 186.44 121.72 186.44 135.27 178.62 121.4 178.62 118.27 182.53"/><polygon class="cls-3" points="96.36 116.03 93.23 119.94 96.36 123.85 104.18 123.85 101.06 119.94 104.18 116.03 96.36 116.03"/><polygon class="cls-4" points="116.06 106.02 40.4 63.56 113.67 21.45 186.59 63.56 116.06 106.02"/><polygon class="cls-5" points="112.98 191.62 39.37 149.16 40.05 63.22 115.38 107.39 112.98 191.62"/></g></svg>