<svg xmlns="http://www.w3.org/2000/svg" viewBox="0 0 425.94 480.15"><defs><style>.cls-1{isolation:isolate;}.cls-2{mix-blend-mode:overlay;}.cls-10,.cls-100,.cls-101,.cls-102,.cls-103,.cls-104,.cls-105,.cls-106,.cls-107,.cls-108,.cls-109,.cls-11,.cls-110,.cls-111,.cls-112,.cls-113,.cls-114,.cls-115,.cls-116,.cls-117,.cls-118,.cls-119,.cls-12,.cls-120,.cls-121,.cls-122,.cls-123,.cls-124,.cls-125,.cls-126,.cls-127,.cls-128,.cls-129,.cls-13,.cls-130,.cls-131,.cls-132,.cls-133,.cls-134,.cls-135,.cls-136,.cls-137,.cls-138,.cls-139,.cls-14,.cls-140,.cls-141,.cls-142,.cls-143,.cls-144,.cls-145,.cls-146,.cls-147,.cls-148,.cls-149,.cls-15,.cls-150,.cls-151,.cls-152,.cls-153,.cls-154,.cls-155,.cls-156,.cls-157,.cls-158,.cls-159,.cls-16,.cls-160,.cls-161,.cls-162,.cls-163,.cls-164,.cls-165,.cls-166,.cls-167,.cls-168,.cls-169,.cls-17,.cls-170,.cls-171,.cls-172,.cls-173,.cls-174,.cls-175,.cls-176,.cls-177,.cls-178,.cls-179,.cls-18,.cls-180,.cls-181,.cls-182,.cls-183,.cls-184,.cls-185,.cls-186,.cls-187,.cls-188,.cls-189,.cls-19,.cls-190,.cls-191,.cls-192,.cls-193,.cls-194,.cls-195,.cls-196,.cls-197,.cls-198,.cls-199,.cls-200,.cls-201,.cls-202,.cls-203,.cls-204,.cls-205,.cls-206,.cls-207,.cls-208,.cls-209,.cls-210,.cls-211,.cls-212,.cls-213,.cls-214,.cls-215,.cls-216,.cls-217,.cls-218,.cls-219,.cls-22,.cls-220,.cls-221,.cls-222,.cls-223,.cls-224,.cls-225,.cls-226,.cls-227,.cls-228,.cls-229,.cls-23,.cls-230,.cls-231,.cls-232,.cls-233,.cls-234,.cls-235,.cls-236,.cls-237,.cls-238,.cls-239,.cls-24,.cls-240,.cls-241,.cls-242,.cls-243,.cls-244,.cls-245,.cls-246,.cls-247,.cls-248,.cls-249,.cls-25,.cls-250,.cls-251,.cls-252,.cls-253,.cls-254,.cls-255,.cls-256,.cls-257,.cls-258,.cls-259,.cls-260,.cls-261,.cls-262,.cls-263,.cls-264,.cls-265,.cls-266,.cls-267,.cls-268,.cls-269,.cls-27,.cls-270,.cls-271,.cls-272,.cls-273,.cls-274,.cls-275,.cls-276,.cls-277,.cls-278,.cls-279,.cls-28,.cls-280,.cls-281,.cls-282,.cls-283,.cls-284,.cls-285,.cls-29,.cls-3,.cls-30,.cls-31,.cls-32,.cls-33,.cls-34,.cls-35,.cls-36,.cls-37,.cls-39,.cls-4,.cls-40,.cls-41,.cls-43,.cls-44,.cls-45,.cls-46,.cls-47,.cls-48,.cls-49,.cls-5,.cls-50,.cls-51,.cls-52,.cls-53,.cls-54,.cls-55,.cls-56,.cls-57,.cls-58,.cls-59,.cls-6,.cls-60,.cls-61,.cls-62,.cls-63,.cls-64,.cls-65,.cls-66,.cls-67,.cls-68,.cls-69,.cls-70,.cls-71,.cls-72,.cls-73,.cls-74,.cls-75,.cls-76,.cls-77,.cls-78,.cls-79,.cls-80,.cls-81,.cls-82,.cls-83,.cls-84,.cls-85,.cls-86,.cls-87,.cls-88,.cls-89,.cls-9,.cls-90,.cls-91,.cls-92,.cls-93,.cls-94,.cls-95,.cls-96,.cls-97,.cls-98,.cls-99{fill:#fff;}.cls-3{opacity:0.16;}.cls-4{opacity:0.38;}.cls-5{opacity:0.13;}.cls-6{opacity:0.5;}.cls-7{fill:#bec8d2;}.cls-8{fill:#e11e19;}.cls-10{opacity:0.48;}.cls-11{opacity:0.26;}.cls-12{opacity:0.21;}.cls-13{opacity:0.38;}.cls-14{opacity:0.37;}.cls-15{opacity:0.12;}.cls-16{opacity:0.23;}.cls-17{opacity:0.32;}.cls-18{opacity:0.22;}.cls-19{opacity:0.42;}.cls-20{fill:#37a9ad;}.cls-21{fill:none;stroke:#37a9ad;stroke-miterlimit:10;stroke-width:0.13px;}.cls-22{opacity:0.47;}.cls-23{opacity:0.32;}.cls-24{opacity:0.31;}.cls-25{opacity:0.46;}.cls-26{fill:#eb6964;}.cls-27{opacity:0.35;}.cls-28{opacity:0.14;}.cls-29{opacity:0.27;}.cls-30{opacity:0.27;}.cls-31{opacity:0.34;}.cls-32{opacity:0.18;}.cls-33{opacity:0.26;}.cls-34{opacity:0.03;}.cls-35{opacity:0.2;}.cls-36{opacity:0.14;}.cls-37{opacity:0.1;}.cls-38{fill:#f7a91c;}.cls-39{opacity:0.12;}.cls-40{opacity:0.25;}.cls-41{opacity:0.21;}.cls-42{fill:#9a6fad;}.cls-43{opacity:0.26;}.cls-44{opacity:0.2;}.cls-45{opacity:0.22;}.cls-46{opacity:0.45;}.cls-47{opacity:0.27;}.cls-48{opacity:0.21;}.cls-49{opacity:0.29;}.cls-50{opacity:0.23;}.cls-51{opacity:0.3;}.cls-52{opacity:0.31;}.cls-53{opacity:0.17;}.cls-54{opacity:0.13;}.cls-55{opacity:0.2;}.cls-56{opacity:0.07;}.cls-57{opacity:0.06;}.cls-58{opacity:0.15;}.cls-59{opacity:0.05;}.cls-60{opacity:0.04;}.cls-61{opacity:0.46;}.cls-62{opacity:0.16;}.cls-63{opacity:0.08;}.cls-64{opacity:0.16;}.cls-65{opacity:0.25;}.cls-66{opacity:0.27;}.cls-67{opacity:0.06;}.cls-68{opacity:0.08;}.cls-69{opacity:0.08;}.cls-70{opacity:0.07;}.cls-71{opacity:0.06;}.cls-72{opacity:0.21;}.cls-73{opacity:0.18;}.cls-74{opacity:0.32;}.cls-75{opacity:0.07;}.cls-76{opacity:0.17;}.cls-77{opacity:0.05;}.cls-78{opacity:0.14;}.cls-79{opacity:0.2;}.cls-80{opacity:0.08;}.cls-81{opacity:0.05;}.cls-82{opacity:0.13;}.cls-83{opacity:0.46;}.cls-84{opacity:0.31;}.cls-85{opacity:0.14;}.cls-86{opacity:0.06;}.cls-87{opacity:0.02;}.cls-88{opacity:0.01;}.cls-89{opacity:0.3;}.cls-90{opacity:0.3;}.cls-91{opacity:0.18;}.cls-92{opacity:0.49;}.cls-93{opacity:0.07;}.cls-94{opacity:0.25;}.cls-95{opacity:0.24;}.cls-96{opacity:0.03;}.cls-97{opacity:0.08;}.cls-98{opacity:0.17;}.cls-99{opacity:0.24;}.cls-100{opacity:0.2;}.cls-101{opacity:0.03;}.cls-102{opacity:0.41;}.cls-103{opacity:0.01;}.cls-104{opacity:0.07;}.cls-105{opacity:0.44;}.cls-106{opacity:0.18;}.cls-107{opacity:0.06;}.cls-108{opacity:0.41;}.cls-109{opacity:0.04;}.cls-110{opacity:0.3;}.cls-111{opacity:0.36;}.cls-112{opacity:0.38;}.cls-113{opacity:0.5;}.cls-114{opacity:0.31;}.cls-115{opacity:0.44;}.cls-116{opacity:0.15;}.cls-117{opacity:0.46;}.cls-118{opacity:0.11;}.cls-119{opacity:0.15;}.cls-120{opacity:0.05;}.cls-121{opacity:0.48;}.cls-122{opacity:0.04;}.cls-123{opacity:0.19;}.cls-124{opacity:0.12;}.cls-125{opacity:0.09;}.cls-126{opacity:0.46;}.cls-127{opacity:0.09;}.cls-128{opacity:0.31;}.cls-129{opacity:0.06;}.cls-130{opacity:0.17;}.cls-131{opacity:0.14;}.cls-132{opacity:0.01;}.cls-133{opacity:0.42;}.cls-134{opacity:0.46;}.cls-135{opacity:0.1;}.cls-136{opacity:0.16;}.cls-137{opacity:0.16;}.cls-138{opacity:0.04;}.cls-139{opacity:0.06;}.cls-140{opacity:0.1;}.cls-141{opacity:0.33;}.cls-142{opacity:0.1;}.cls-143{opacity:0.12;}.cls-144{opacity:0.2;}.cls-145{opacity:0.14;}.cls-146{opacity:0.23;}.cls-147{opacity:0.16;}.cls-148{opacity:0.47;}.cls-149{opacity:0.14;}.cls-150{opacity:0.02;}.cls-151{opacity:0.12;}.cls-152{opacity:0.11;}.cls-153{opacity:0.1;}.cls-154{opacity:0.34;}.cls-155{opacity:0.14;}.cls-156{opacity:0.28;}.cls-157{opacity:0.24;}.cls-158{opacity:0.06;}.cls-159{opacity:0.4;}.cls-160{opacity:0.48;}.cls-161{opacity:0.47;}.cls-162{opacity:0.02;}.cls-163{opacity:0.37;}.cls-164{opacity:0.02;}.cls-165{opacity:0.14;}.cls-166{opacity:0.14;}.cls-167{opacity:0.13;}.cls-168{opacity:0.35;}.cls-169{opacity:0.18;}.cls-170{opacity:0.24;}.cls-171{opacity:0.48;}.cls-172{opacity:0.26;}.cls-173{opacity:0.42;}.cls-174{opacity:0.2;}.cls-175{opacity:0.03;}.cls-176{opacity:0.11;}.cls-177{opacity:0.39;}.cls-178{opacity:0.04;}.cls-179{opacity:0.2;}.cls-180{opacity:0.13;}.cls-181{opacity:0.22;}.cls-182{opacity:0.29;}.cls-183{opacity:0.03;}.cls-184{opacity:0.09;}.cls-185{opacity:0.04;}.cls-186{opacity:0.11;}.cls-187{opacity:0.49;}.cls-188{opacity:0.23;}.cls-189{opacity:0.14;}.cls-190{opacity:0.09;}.cls-191{opacity:0.34;}.cls-192{opacity:0.46;}.cls-193{opacity:0.3;}.cls-194{opacity:0.32;}.cls-195{opacity:0.35;}.cls-196{opacity:0.29;}.cls-197{opacity:0.27;}.cls-198{opacity:0.18;}.cls-199{opacity:0.27;}.cls-200{opacity:0.16;}.cls-201{opacity:0.02;}.cls-202{opacity:0.23;}.cls-203{opacity:0.09;}.cls-204{opacity:0.06;}.cls-205{opacity:0.01;}.cls-206{opacity:0.35;}.cls-207{opacity:0.24;}.cls-208{opacity:0.47;}.cls-209{opacity:0.04;}.cls-210{opacity:0.43;}.cls-211{opacity:0.24;}.cls-212{opacity:0.18;}.cls-213{opacity:0.27;}.cls-214{opacity:0.17;}.cls-215{opacity:0.25;}.cls-216{opacity:0.36;}.cls-217{opacity:0.26;}.cls-218{opacity:0.05;}.cls-219{opacity:0.17;}.cls-220{opacity:0.12;}.cls-221{opacity:0.17;}.cls-222{opacity:0.06;}.cls-223{opacity:0.21;}.cls-224{opacity:0.48;}.cls-225{opacity:0.23;}.cls-226{opacity:0.22;}.cls-227{opacity:0.36;}.cls-228{opacity:0.27;}.cls-229{opacity:0.38;}.cls-230{opacity:0.24;}.cls-231{opacity:0.23;}.cls-232{opacity:0.01;}.cls-233{opacity:0.46;}.cls-234{opacity:0.07;}.cls-235{opacity:0.37;}.cls-236{opacity:0.21;}.cls-237{opacity:0.22;}.cls-238{opacity:0.44;}.cls-239{opacity:0.03;}.cls-240{opacity:0.28;}.cls-241{opacity:0.19;}.cls-242{opacity:0.04;}.cls-243{opacity:0.36;}.cls-244{opacity:0.03;}.cls-245{opacity:0.01;}.cls-246{opacity:0.24;}.cls-247{opacity:0.16;}.cls-248{opacity:0.25;}.cls-249{opacity:0.42;}.cls-250{opacity:0.14;}.cls-251{opacity:0.1;}.cls-252{opacity:0.16;}.cls-253{opacity:0.22;}.cls-254{opacity:0.49;}.cls-255{opacity:0.3;}.cls-256{opacity:0.3;}.cls-257{opacity:0.05;}.cls-258{opacity:0.2;}.cls-259{opacity:0.24;}.cls-260{opacity:0.37;}.cls-261{opacity:0.15;}.cls-262{opacity:0.02;}.cls-263{opacity:0.13;}.cls-264{opacity:0.21;}.cls-265{opacity:0.2;}.cls-266{opacity:0.4;}.cls-267{opacity:0.01;}.cls-268{opacity:0.23;}.cls-269{opacity:0.5;}.cls-270{opacity:0.16;}.cls-271{opacity:0.23;}.cls-272{opacity:0.49;}.cls-273{opacity:0.14;}.cls-274{opacity:0.88;}.cls-275{opacity:0.94;}.cls-276{opacity:0.78;}.cls-277{opacity:0.86;}.cls-278{opacity:0.97;}.cls-279{opacity:0.91;}.cls-280{opacity:0.75;}.cls-281{opacity:0.69;}.cls-282{opacity:0.45;}.cls-283{opacity:0.61;}.cls-284{opacity:0.87;}.cls-285{opacity:0.57;}</style></defs><g class="cls-1"><g id="Layer_2" data-name="Layer 2"><g id="Layer_1-2" data-name="Layer 1"><g class="cls-2"><path class="cls-3" d="M262.55,103.92l10.09,23.79a.34.34,0,0,0,.47.15.35.35,0,0,0,.18-.42L263.2,103.65a.35.35,0,0,0-.46-.19A.36.36,0,0,0,262.55,103.92Z"/><path class="cls-4" d="M313.55,168.21l-40.34-40.88a.35.35,0,0,0-.5.49l40.34,40.88a.35.35,0,0,0,.5-.49Z"/><path class="cls-5" d="M222.16,195.12l51.08-67.33a.35.35,0,0,0-.56-.43L221.6,194.7a.35.35,0,1,0,.56.42Z"/><path class="cls-6" d="M273.31,127.59l1.53-35.22a.35.35,0,0,0-.34-.37.36.36,0,0,0-.37.34h0l-1.52,35.22a.36.36,0,0,0,.34.37A.36.36,0,0,0,273.31,127.59Z"/><path class="cls-7" d="M275.45,108.16a14.31,14.31,0,1,0,14.31,14.31A14.31,14.31,0,0,0,275.45,108.16Z"/><path class="cls-8" d="M273.66,109.82a13.65,13.65,0,1,0,13.65,13.64A13.64,13.64,0,0,0,273.66,109.82Z"/><rect class="cls-9" x="265.34" y="117.96" width="15.73" height="13.2" rx="1.39"/><ellipse class="cls-9" cx="268.6" cy="117.84" rx="0.49" ry="1.07"/><ellipse class="cls-9" cx="278.17" cy="117.84" rx="0.49" ry="1.07"/><rect class="cls-8" x="267.04" y="122.22" width="2.06" height="1.49" rx="0.51"/><rect class="cls-8" x="269.72" y="122.22" width="2.06" height="1.49" rx="0.51"/><rect class="cls-8" x="272.4" y="122.22" width="2.06" height="1.49" rx="0.51"/><rect class="cls-8" x="275.08" y="122.22" width="2.06" height="1.49" rx="0.51"/><rect class="cls-8" x="277.76" y="122.22" width="2.06" height="1.49" rx="0.51"/><rect class="cls-8" x="266.95" y="124.73" width="2.06" height="1.49" rx="0.51"/><rect class="cls-8" x="269.63" y="124.73" width="2.06" height="1.49" rx="0.51"/><rect class="cls-8" x="272.31" y="124.73" width="2.06" height="1.49" rx="0.51"/><rect class="cls-8" x="274.99" y="124.73" width="2.06" height="1.49" rx="0.51"/><rect class="cls-8" x="277.67" y="124.73" width="2.06" height="1.49" rx="0.51"/><rect class="cls-8" x="267.13" y="127.41" width="2.06" height="1.49" rx="0.51"/><rect class="cls-8" x="269.81" y="127.41" width="2.06" height="1.49" rx="0.51"/><rect class="cls-8" x="272.49" y="127.41" width="2.06" height="1.49" rx="0.51"/><rect class="cls-8" x="275.17" y="127.41" width="2.06" height="1.49" rx="0.51"/><rect class="cls-8" x="277.85" y="127.41" width="2.06" height="1.49" rx="0.51"/><path class="cls-10" d="M246.66,282.83l12.48,47.07a.35.35,0,0,0,.44.23.33.33,0,0,0,.24-.41l-12.48-47.08a.35.35,0,0,0-.44-.23A.35.35,0,0,0,246.66,282.83Z"/><path class="cls-11" d="M246.49,275.17l12.65,54.72a.35.35,0,0,0,.44.24.36.36,0,0,0,.25-.4L247.18,275a.34.34,0,0,0-.42-.26.35.35,0,0,0-.27.42Z"/><path class="cls-12" d="M259.71,330.08l59.46-49.78a.36.36,0,0,0,0-.5.35.35,0,0,0-.45,0l-59.46,49.78a.36.36,0,0,0-.05.5A.35.35,0,0,0,259.71,330.08Z"/><path class="cls-13" d="M259.35,330.13l17.63,7.4a.35.35,0,1,0,.28-.65l-17.64-7.4a.35.35,0,0,0-.46.19A.35.35,0,0,0,259.35,330.13Z"/><path class="cls-14" d="M245.46,368.91l14.36-39a.36.36,0,0,0-.67-.24l-14.35,39a.35.35,0,0,0,.2.46.37.37,0,0,0,.46-.21Z"/><path class="cls-15" d="M246.3,413l13.53-83.14a.35.35,0,0,0-.32-.39.36.36,0,0,0-.37.27L245.6,412.89a.37.37,0,0,0,.32.39A.36.36,0,0,0,246.3,413Z"/><path class="cls-16" d="M259.45,329.46l-29.37,2.83a.36.36,0,0,0-.3.4.35.35,0,0,0,.37.3l29.37-2.83a.36.36,0,0,0,.32-.38A.36.36,0,0,0,259.45,329.46Z"/><path class="cls-17" d="M289.79,337.58l-59.65-5.29a.35.35,0,0,0-.38.32.36.36,0,0,0,.32.38l59.64,5.3a.35.35,0,0,0,.37-.34A.36.36,0,0,0,289.79,337.58Z"/><path class="cls-18" d="M310.43,346.28l-80.26-14a.36.36,0,0,0-.12.7l80.26,14a.35.35,0,0,0,.41-.29.35.35,0,0,0-.29-.41Z"/><path class="cls-19" d="M312.73,351.47l-53.11-22a.36.36,0,0,0-.46.2.35.35,0,0,0,.19.46l53.11,22a.36.36,0,0,0,.27-.66Z"/><path class="cls-6" d="M289.84,337.59l-30.26-8.12a.35.35,0,0,0-.19.68l30.27,8.13a.36.36,0,0,0,.18-.69Z"/><path class="cls-7" d="M260.45,321.26a13.15,13.15,0,1,0,13.15,13.15A13.16,13.16,0,0,0,260.45,321.26Z"/><path class="cls-20" d="M260.24,320.14a12.53,12.53,0,1,0,12.53,12.53A12.54,12.54,0,0,0,260.24,320.14Z"/><rect class="cls-9" x="254.91" y="326.81" width="11.02" height="13.82" rx="0.72"/><rect class="cls-21" x="256.1" y="329.93" width="3.51" height="3.33" rx="0.33" transform="translate(-7.61 6.06) rotate(-1.33)"/><path class="cls-20" d="M258,332.7c-.49,0-1-.54-1.62-1.32a3.94,3.94,0,0,0-.41-.47l.44-.53a4,4,0,0,1,.51.57,5.12,5.12,0,0,0,1,1.05,7.86,7.86,0,0,0,.61-1.51,5.47,5.47,0,0,1,1.22-2.42l.39.57a6.26,6.26,0,0,0-1,2.08c-.46,1.32-.7,1.95-1.18,2Z"/><rect class="cls-21" x="256.42" y="336.13" width="3.51" height="3.33" rx="0.33" transform="translate(-7.75 6.07) rotate(-1.33)"/><path class="cls-20" d="M258.32,338.9c-.49,0-1-.54-1.62-1.32a4.26,4.26,0,0,0-.41-.48l.44-.53a4.82,4.82,0,0,1,.5.57,5.15,5.15,0,0,0,1,1.05,8,8,0,0,0,.61-1.5,5.35,5.35,0,0,1,1.22-2.42l.39.56a6.36,6.36,0,0,0-1,2.08c-.46,1.32-.7,1.95-1.19,2Z"/><path class="cls-9" d="M256.63,326.5s0-1.21,2.1-1.25c1.36,0,.57-1.68.57-1.68l2.12,0s-.88,1.68,1.09,1.64,2,1.18,2,1.18Z"/><path class="cls-22" d="M150.09,404l24.18-34.67a.35.35,0,1,0-.58-.4l-24.18,34.67a.35.35,0,0,0,.58.4Z"/><polygon class="cls-6" points="175.66 427.19 149.8 403.84 173.98 369.17 175.66 427.19"/><path class="cls-23" d="M135.83,426.37l38.44-57a.35.35,0,0,0-.1-.49.36.36,0,0,0-.48.09l-38.45,57a.34.34,0,0,0,.1.49A.35.35,0,0,0,135.83,426.37Z"/><path class="cls-24" d="M159.36,318.74l14.28,50.52a.35.35,0,0,0,.68-.19L160,318.55a.35.35,0,0,0-.43-.25.36.36,0,0,0-.25.44Z"/><path class="cls-6" d="M192.92,377l-18.8-8.13a.36.36,0,0,0-.46.2.35.35,0,0,0,.18.45l18.8,8.13a.37.37,0,0,0,.47-.19A.36.36,0,0,0,192.92,377Z"/><path class="cls-25" d="M173.63,369.18l1.68,58a.36.36,0,0,0,.37.34.35.35,0,0,0,.33-.36l-1.68-58a.34.34,0,0,0-.36-.34A.35.35,0,0,0,173.63,369.18Z"/><path class="cls-7" d="M175.66,353.1a17.59,17.59,0,1,0,17.6,17.59A17.6,17.6,0,0,0,175.66,353.1Z"/><path class="cls-26" d="M176.76,352.36a16.34,16.34,0,1,0,16.33,16.34A16.33,16.33,0,0,0,176.76,352.36Z"/><path class="cls-9" d="M176.2,370.56l-9.41-8.2v12.85a1.42,1.42,0,0,0,1.43,1.42h17.84a1.41,1.41,0,0,0,1.42-1.42V362.36l-9.41,8.2A1.42,1.42,0,0,1,176.2,370.56Z"/><path class="cls-9" d="M176.23,368.85a1.41,1.41,0,0,0,1.81,0l9-7.37h-19.7Z"/><polygon class="cls-27" points="363.43 274.1 384.3 334.13 318.94 280.03 363.43 274.1"/><path class="cls-6" d="M316.72,278.94a2.48,2.48,0,1,1,1.14,3.31A2.47,2.47,0,0,1,316.72,278.94Z"/><path class="cls-6" d="M319,280.38l44.49-5.93a.35.35,0,0,0,.28-.41.34.34,0,0,0-.37-.28l-44.5,5.92a.35.35,0,0,0-.3.4A.35.35,0,0,0,319,280.38Z"/><path class="cls-28" d="M246.81,275.45l72.11,4.93a.35.35,0,0,0,.35-.35.35.35,0,0,0-.31-.35l-72.1-4.94a.37.37,0,0,0-.38.33A.36.36,0,0,0,246.81,275.45Z"/><path class="cls-29" d="M313,351.83l6.34-71.77a.35.35,0,1,0-.7-.06l-6.35,71.77a.36.36,0,0,0,.71.06Z"/><path class="cls-30" d="M290.07,338.09l29.19-57.9a.35.35,0,1,0-.63-.32l-29.19,57.91a.35.35,0,0,0,.15.47A.35.35,0,0,0,290.07,338.09Z"/><path class="cls-31" d="M344.27,332.14l-25-52.26a.35.35,0,0,0-.64.3l25,52.26a.35.35,0,0,0,.48.13A.35.35,0,0,0,344.27,332.14Z"/><path class="cls-32" d="M300.2,257.28l18.47,23a.34.34,0,0,0,.49,0,.35.35,0,0,0,.06-.48l-18.47-23a.35.35,0,0,0-.5,0A.35.35,0,0,0,300.2,257.28Z"/><path class="cls-33" d="M247,283.09,319,280.38a.35.35,0,0,0,.31-.39.35.35,0,0,0-.34-.31l-72,2.7a.35.35,0,0,0-.33.37A.35.35,0,0,0,247,283.09Z"/><path class="cls-34" d="M258.77,212.13l59.91,68.13a.34.34,0,0,0,.49,0,.35.35,0,0,0,0-.49L259.3,211.67a.35.35,0,1,0-.53.46Z"/><path class="cls-35" d="M297.18,235.25l21.44,44.93a.35.35,0,1,0,.64-.3h0L297.82,235a.35.35,0,0,0-.47-.17.36.36,0,0,0-.17.47Z"/><path class="cls-36" d="M389.08,249.74l-70.28,30a.37.37,0,0,0-.17.47.35.35,0,0,0,.45.18l70.28-30a.36.36,0,0,0-.28-.65Z"/><path class="cls-37" d="M378.62,231.74l-59.9,48a.36.36,0,0,0-.05.5.35.35,0,0,0,.49.05l59.9-48a.35.35,0,0,0,.05-.49A.36.36,0,0,0,378.62,231.74Z"/><path class="cls-6" d="M313.41,239.86l5.18,40.21a.35.35,0,0,0,.4.3.36.36,0,0,0,.3-.39l-5.18-40.21a.37.37,0,0,0-.4-.3A.36.36,0,0,0,313.41,239.86Z"/><path class="cls-7" d="M321.33,264.85a13.51,13.51,0,1,0,13.51,13.51A13.51,13.51,0,0,0,321.33,264.85Z"/><path class="cls-38" d="M320.23,264.86a12.46,12.46,0,1,0,12.46,12.46A12.46,12.46,0,0,0,320.23,264.86Z"/><path class="cls-9" d="M327,273.41a1.45,1.45,0,0,0-1.45,1.45,1.41,1.41,0,0,0,.29.85l-2.7,4.15a1.62,1.62,0,0,0-.62,0l-2.66-4.14a1.44,1.44,0,0,0,.29-.86,1.45,1.45,0,1,0-2.89,0,1.4,1.4,0,0,0,.28.85l-2.7,4.15a1.55,1.55,0,0,0-.31,0,1.45,1.45,0,1,0,1.45,1.44,1.41,1.41,0,0,0-.29-.85l2.7-4.15a1.62,1.62,0,0,0,.62,0l2.66,4.14a1.44,1.44,0,0,0-.29.86,1.45,1.45,0,1,0,2.89,0,1.4,1.4,0,0,0-.28-.85l2.7-4.15a1.55,1.55,0,0,0,.31,0,1.45,1.45,0,0,0,0-2.89Z"/><path class="cls-39" d="M154.63,247.56l74.83-52.22a.35.35,0,0,0,.08-.49.36.36,0,0,0-.48-.09L154.22,247a.35.35,0,0,0-.07.49A.36.36,0,0,0,154.63,247.56Z"/><path class="cls-6" d="M189.71,219.21l-19.45,38.91a.36.36,0,0,0,.15.48.37.37,0,0,0,.48-.16l19.45-38.91a.36.36,0,0,0-.15-.48A.37.37,0,0,0,189.71,219.21Z"/><path class="cls-40" d="M189.7,219.25,169.77,275a.36.36,0,1,0,.67.24h0l19.92-55.76a.35.35,0,0,0-.66-.24Z"/><path class="cls-41" d="M241.72,269.72l-52.95-54.66a.36.36,0,0,0-.5,0,.35.35,0,0,0,0,.5h0l52.95,54.66a.35.35,0,0,0,.49,0A.34.34,0,0,0,241.72,269.72Z"/><path class="cls-7" d="M192.64,205.13a14.9,14.9,0,1,0,14.9,14.9A14.9,14.9,0,0,0,192.64,205.13Z"/><path class="cls-42" d="M207,222.26a14.15,14.15,0,1,0-20.89,12.44V221.94a.67.67,0,0,1,.66-.66h3.67a.66.66,0,0,1,.66.66v14.12a.59.59,0,0,1,0,.23c.37.05.74.08,1.11.1V216.11a.74.74,0,0,1,.74-.74h2.91a.74.74,0,0,1,.73.74v19.81c.37-.1.72-.21,1.07-.34V221.93a.66.66,0,0,1,.66-.65h3.53a.65.65,0,0,1,.65.65v10.71A14.11,14.11,0,0,0,207,222.26Z"/><path class="cls-9" d="M191.07,221.94a.66.66,0,0,0-.66-.66h-3.67a.67.67,0,0,0-.66.66V234.7a13.9,13.9,0,0,0,4.95,1.59.59.59,0,0,0,0-.23Z"/><path class="cls-9" d="M195.79,215.37h-2.91a.74.74,0,0,0-.74.74v20.28l.68,0a14.12,14.12,0,0,0,3.7-.49V216.11A.74.74,0,0,0,195.79,215.37Z"/><path class="cls-9" d="M201.78,221.28h-3.53a.66.66,0,0,0-.66.65v13.65a14.12,14.12,0,0,0,4.84-2.94V221.93A.65.65,0,0,0,201.78,221.28Z"/><path class="cls-6" d="M105.23,236l5.16,25.82a.35.35,0,0,0,.42.27.34.34,0,0,0,.27-.41l-5.16-25.82a.35.35,0,1,0-.69.14Z"/><path class="cls-43" d="M105.36,236.16l53.6,41a.35.35,0,0,0,.5-.07.34.34,0,0,0-.07-.49l-53.6-41a.34.34,0,0,0-.49.08A.35.35,0,0,0,105.36,236.16Z"/><path class="cls-44" d="M116.64,197.72l-6.26,63.94a.35.35,0,0,0,.33.38.35.35,0,0,0,.38-.31l6.25-63.94a.36.36,0,0,0-.32-.39A.36.36,0,0,0,116.64,197.72Z"/><path class="cls-45" d="M105.23,235.94l11.69,65.41a.36.36,0,0,0,.41.29.35.35,0,0,0,.28-.41h0l-11.69-65.42a.35.35,0,0,0-.42-.27A.35.35,0,0,0,105.23,235.94Z"/><path class="cls-46" d="M116.65,197.65l-11.41,38.12a.35.35,0,0,0,.24.44.35.35,0,0,0,.43-.23l11.42-38.12a.36.36,0,0,0-.25-.44A.35.35,0,0,0,116.65,197.65Z"/><path class="cls-47" d="M105.83,236.11l24.71-27a.36.36,0,0,0,0-.5.37.37,0,0,0-.49,0l-24.7,27a.36.36,0,0,0,0,.5A.35.35,0,0,0,105.83,236.11Z"/><path class="cls-6" d="M58.24,228.49a2.24,2.24,0,1,1,1,3A2.25,2.25,0,0,1,58.24,228.49Z"/><path class="cls-20" d="M46.51,261.77a2.39,2.39,0,1,1,1.1,3.19A2.38,2.38,0,0,1,46.51,261.77Z"/><path class="cls-48" d="M60.07,229.77,110.55,262a.34.34,0,0,0,.48-.11.35.35,0,0,0-.1-.48L60.45,229.18a.35.35,0,0,0-.49.11A.34.34,0,0,0,60.07,229.77Z"/><path class="cls-49" d="M60.21,229.83l45.31,6.4a.37.37,0,0,0,.39-.32.35.35,0,0,0-.29-.38l-45.31-6.4a.34.34,0,0,0-.4.3A.35.35,0,0,0,60.21,229.83Z"/><path class="cls-50" d="M59.92,229.36,48.32,262.7a.35.35,0,1,0,.67.23l11.6-33.34a.36.36,0,0,0-.22-.45A.37.37,0,0,0,59.92,229.36Z"/><path class="cls-51" d="M48.66,263.17l62.08-1.12a.35.35,0,0,0,.35-.36.37.37,0,0,0-.36-.35l-62.08,1.12a.36.36,0,1,0,0,.71Z"/><path class="cls-52" d="M48.81,263.14l56.91-26.95a.34.34,0,0,0,.17-.47.35.35,0,0,0-.47-.16L48.5,262.5a.35.35,0,0,0-.15.47A.36.36,0,0,0,48.81,263.14Z"/><path class="cls-53" d="M48.48,263.13l68.61,38.47a.36.36,0,0,0,.48-.14.35.35,0,0,0-.13-.48L48.83,262.51a.36.36,0,0,0-.48.15A.36.36,0,0,0,48.48,263.13Z"/><path class="cls-7" d="M106.4,217.84a15.23,15.23,0,1,0,15.22,15.23A15.22,15.22,0,0,0,106.4,217.84Z"/><path class="cls-38" d="M107.15,220.35a14,14,0,1,0,14,14A14,14,0,0,0,107.15,220.35Z"/><path class="cls-9" d="M114,231.87a7.33,7.33,0,0,0-5.64-5.79,3.77,3.77,0,0,0-.8-.13,6.82,6.82,0,0,0-1.1,0,4.56,4.56,0,0,0-.62.08,7,7,0,0,0-5.33,4,6.09,6.09,0,0,0-.32,5,20.06,20.06,0,0,0,1.87,3.59,51.92,51.92,0,0,0,4.08,5.48l.8.93a2.09,2.09,0,0,1,.19-.21,57.48,57.48,0,0,0,3.56-4.52,27,27,0,0,0,2.72-4.57A6.45,6.45,0,0,0,114,231.87Zm-3.07.77s0,.08,0,.12,0,.1,0,.15l0,.24,0,.15-.06.24a.65.65,0,0,0,0,.13,1.86,1.86,0,0,1-.1.25.19.19,0,0,1,0,.07s0,0,0,0-.07.15-.11.22l-.06.12-.13.21-.08.12-.14.19-.08.1-.18.2-.06.06,0,0-.2.18-.09.08-.21.16-.09.06-.24.15-.08.05-.29.14,0,0h0a3,3,0,0,1-.36.13h0a4.21,4.21,0,0,1-1.18.17,4.16,4.16,0,0,1-1.18-.17h0l-.36-.13h0l0,0L105,236l-.09-.05-.24-.15-.09-.06-.21-.16-.09-.08-.2-.18,0,0-.06-.06c-.06-.07-.12-.13-.17-.2l-.09-.1-.14-.19-.08-.12-.12-.21a.75.75,0,0,0-.07-.12l-.1-.22,0,0s0-.05,0-.07l-.09-.25a.65.65,0,0,1,0-.13,2.1,2.1,0,0,1-.06-.24l0-.15a2,2,0,0,1,0-.24s0-.1,0-.15,0-.08,0-.12v-.41s0-.08,0-.12,0-.1,0-.15a2,2,0,0,1,0-.24l0-.15a2.1,2.1,0,0,1,.06-.24.65.65,0,0,1,0-.13l.09-.25s0,0,0-.07l0,0,.1-.22a.75.75,0,0,0,.07-.12l.12-.21a1,1,0,0,1,.08-.11,1.43,1.43,0,0,1,.14-.2l.09-.1c0-.07.11-.13.17-.2l.06-.06,0,0,.2-.18.09-.08.21-.15.09-.07.24-.15.09-.05.28-.13,0,0h0a3,3,0,0,1,.36-.13h0a3.83,3.83,0,0,1,1.18-.18,3.88,3.88,0,0,1,1.18.18h0l.35.13h0l0,0,.29.13.08.05.24.15.09.07.21.15.09.08.2.18,0,0,.06.06.18.2.08.1a1.43,1.43,0,0,1,.14.2.44.44,0,0,1,.08.11l.13.21.06.12c0,.07.07.15.11.22s0,0,0,0a.19.19,0,0,1,0,.07,2.6,2.6,0,0,1,.1.25.65.65,0,0,0,0,.13l.06.24,0,.15,0,.24s0,.1,0,.15,0,.08,0,.12v.41Z"/><path class="cls-20" d="M178.65,187.41a2.16,2.16,0,1,1,1,2.89A2.15,2.15,0,0,1,178.65,187.41Z"/><path class="cls-6" d="M271.58,244.47a2.27,2.27,0,1,1,1,3A2.27,2.27,0,0,1,271.58,244.47Z"/><path class="cls-6" d="M188.38,338a2.28,2.28,0,1,1,1,3.05A2.28,2.28,0,0,1,188.38,338Z"/><path class="cls-6" d="M.23,176a2.29,2.29,0,1,1,1.05,3.06A2.3,2.3,0,0,1,.23,176Z"/><path class="cls-6" d="M260.82,102.78a2.29,2.29,0,1,1,1.06,3.06A2.29,2.29,0,0,1,260.82,102.78Z"/><circle class="cls-6" cx="300.47" cy="257.06" r="2.3"/><path class="cls-6" d="M228.51,393.58a2.31,2.31,0,1,1,1.06,3.09A2.32,2.32,0,0,1,228.51,393.58Z"/><path class="cls-6" d="M108.65,260.68a2.32,2.32,0,1,1,1.07,3.1A2.32,2.32,0,0,1,108.65,260.68Z"/><circle class="cls-6" cx="340.79" cy="248.12" r="2.32"/><path class="cls-20" d="M134.11,60.39a2.33,2.33,0,1,1,1.07,3.11A2.34,2.34,0,0,1,134.11,60.39Z"/><path class="cls-6" d="M144.17,155a2.33,2.33,0,1,1,1.07,3.12A2.33,2.33,0,0,1,144.17,155Z"/><path class="cls-6" d="M275,336.19a2.33,2.33,0,1,1,1.08,3.11A2.34,2.34,0,0,1,275,336.19Z"/><path class="cls-6" d="M168.46,257.25a2.35,2.35,0,1,1,1.08,3.14A2.34,2.34,0,0,1,168.46,257.25Z"/><path class="cls-6" d="M157.06,275.82a2.35,2.35,0,1,1,1.08,3.15A2.36,2.36,0,0,1,157.06,275.82Z"/><path class="cls-6" d="M366.41,420a2.36,2.36,0,1,1,1.08,3.15A2.36,2.36,0,0,1,366.41,420Z"/><path class="cls-6" d="M243,367.75a2.36,2.36,0,1,1,1.08,3.16A2.36,2.36,0,0,1,243,367.75Z"/><path class="cls-42" d="M317.66,169.38a2.36,2.36,0,1,0,1.17-3.13A2.36,2.36,0,0,0,317.66,169.38Z"/><path class="cls-6" d="M263.45,411.08a2.38,2.38,0,1,1,1.09,3.18A2.37,2.37,0,0,1,263.45,411.08Z"/><path class="cls-20" d="M168,274.08a2.39,2.39,0,1,1,1.1,3.21A2.39,2.39,0,0,1,168,274.08Z"/><path class="cls-6" d="M113.82,342.31a2.4,2.4,0,1,1,1.11,3.21A2.4,2.4,0,0,1,113.82,342.31Z"/><path class="cls-42" d="M115.11,300.24a2.4,2.4,0,1,1,1.1,3.21A2.4,2.4,0,0,1,115.11,300.24Z"/><path class="cls-6" d="M311.14,167.4a2.41,2.41,0,1,1,1.11,3.22A2.41,2.41,0,0,1,311.14,167.4Z"/><path class="cls-6" d="M219.71,193.85a2.41,2.41,0,1,1,1.11,3.23A2.4,2.4,0,0,1,219.71,193.85Z"/><path class="cls-6" d="M366,438.76A2.41,2.41,0,1,1,367.1,442,2.42,2.42,0,0,1,366,438.76Z"/><path class="cls-6" d="M364.08,433.65a2.42,2.42,0,1,1,1.11,3.23A2.41,2.41,0,0,1,364.08,433.65Z"/><path class="cls-6" d="M114.82,196.69a2.42,2.42,0,1,1,1.11,3.24A2.42,2.42,0,0,1,114.82,196.69Z"/><path class="cls-6" d="M297.48,100.27a2.43,2.43,0,1,0,1.21-3.22A2.43,2.43,0,0,0,297.48,100.27Z"/><path class="cls-6" d="M149.3,318.5a2.44,2.44,0,1,1,1.12,3.25A2.44,2.44,0,0,1,149.3,318.5Z"/><path class="cls-6" d="M243.76,411.88a2.44,2.44,0,1,1,1.12,3.26A2.44,2.44,0,0,1,243.76,411.88Z"/><path class="cls-6" d="M131.35,148.8a2.44,2.44,0,1,1,1.12,3.27A2.45,2.45,0,0,1,131.35,148.8Z"/><path class="cls-6" d="M272.29,91.28a2.44,2.44,0,1,1,1.12,3.27A2.44,2.44,0,0,1,272.29,91.28Z"/><path class="cls-6" d="M376.76,167.37a2.45,2.45,0,1,1,1.13,3.28A2.44,2.44,0,0,1,376.76,167.37Z"/><circle class="cls-38" cx="402.64" cy="124.92" r="2.46" transform="translate(204.06 496.79) rotate(-79.13)"/><path class="cls-6" d="M257.27,328.73a2.46,2.46,0,1,1,1.13,3.3A2.47,2.47,0,0,1,257.27,328.73Z"/><circle class="cls-6" cx="317.64" cy="432.04" r="2.47" transform="translate(-217.94 405.58) rotate(-50.85)"/><path class="cls-6" d="M310.37,350.72a2.48,2.48,0,1,1,1.14,3.3A2.47,2.47,0,0,1,310.37,350.72Z"/><path class="cls-6" d="M128.05,207.75a2.48,2.48,0,1,1,1.14,3.32A2.47,2.47,0,0,1,128.05,207.75Z"/><path class="cls-42" d="M359.1,369.9a2.49,2.49,0,1,1,1.14,3.33A2.49,2.49,0,0,1,359.1,369.9Z"/><path class="cls-6" d="M361.19,273a2.49,2.49,0,1,1,1.15,3.34A2.5,2.5,0,0,1,361.19,273Z"/><path class="cls-6" d="M311.51,238.72a2.5,2.5,0,1,1,1.15,3.34A2.51,2.51,0,0,1,311.51,238.72Z"/><path class="cls-6" d="M154.85,476.26a2.5,2.5,0,1,1,1.15,3.35A2.5,2.5,0,0,1,154.85,476.26Z"/><path class="cls-6" d="M244.75,281.64A2.5,2.5,0,1,1,245.9,285,2.5,2.5,0,0,1,244.75,281.64Z"/><path class="cls-6" d="M148.67,318a2.5,2.5,0,1,1,1.15,3.35A2.51,2.51,0,0,1,148.67,318Z"/><path class="cls-6" d="M234.05,424.39a2.54,2.54,0,1,1,1.17,3.39A2.53,2.53,0,0,1,234.05,424.39Z"/><path class="cls-6" d="M349.77,144.52a2.54,2.54,0,1,0,1.26-3.37A2.54,2.54,0,0,0,349.77,144.52Z"/><path class="cls-6" d="M287.45,336.81a2.56,2.56,0,1,1,1.18,3.43A2.57,2.57,0,0,1,287.45,336.81Z"/><path class="cls-6" d="M256.74,210.77a2.56,2.56,0,1,1,1.17,3.43A2.55,2.55,0,0,1,256.74,210.77Z"/><path class="cls-6" d="M341.65,331.16a2.57,2.57,0,1,1,1.18,3.44A2.57,2.57,0,0,1,341.65,331.16Z"/><path class="cls-6" d="M120.24,433.82a2.58,2.58,0,1,1,1.18,3.45A2.57,2.57,0,0,1,120.24,433.82Z"/><path class="cls-6" d="M210.46,445.37a2.58,2.58,0,1,1,1.19,3.46A2.57,2.57,0,0,1,210.46,445.37Z"/><path class="cls-6" d="M152.1,246.13a2.59,2.59,0,1,1,1.19,3.46A2.58,2.58,0,0,1,152.1,246.13Z"/><path class="cls-6" d="M244.51,274a2.59,2.59,0,1,1,1.19,3.46A2.58,2.58,0,0,1,244.51,274Z"/><path class="cls-6" d="M122.14,345.55a2.6,2.6,0,1,1,1.2,3.47A2.59,2.59,0,0,1,122.14,345.55Z"/><path class="cls-6" d="M226.92,193.9a2.61,2.61,0,1,1,1.2,3.49A2.61,2.61,0,0,1,226.92,193.9Z"/><path class="cls-6" d="M147.45,402.69a2.62,2.62,0,1,1,1.2,3.5A2.63,2.63,0,0,1,147.45,402.69Z"/><path class="cls-6" d="M140.2,128.51a2.62,2.62,0,1,1,1.2,3.51A2.62,2.62,0,0,1,140.2,128.51Z"/><path class="cls-8" d="M376.47,230.86a2.64,2.64,0,1,1,1.21,3.53A2.66,2.66,0,0,1,376.47,230.86Z"/><path class="cls-6" d="M295.13,233.94a2.64,2.64,0,1,1,1.21,3.54A2.64,2.64,0,0,1,295.13,233.94Z"/><path class="cls-6" d="M198.09,22.31a2.64,2.64,0,1,1,1.22,3.54A2.65,2.65,0,0,1,198.09,22.31Z"/><path class="cls-6" d="M227.73,331.48A2.65,2.65,0,1,1,229,335,2.64,2.64,0,0,1,227.73,331.48Z"/><path class="cls-6" d="M381.91,333a2.65,2.65,0,1,1,1.22,3.55A2.66,2.66,0,0,1,381.91,333Z"/><path class="cls-6" d="M180.28,107.74a2.66,2.66,0,1,1,1.23,3.55A2.67,2.67,0,0,1,180.28,107.74Z"/><path class="cls-6" d="M190.38,376.12a2.67,2.67,0,1,1,4.8,2.35,2.67,2.67,0,0,1-4.8-2.35Z"/><path class="cls-6" d="M197,184.36a2.69,2.69,0,1,1,1.24,3.6A2.69,2.69,0,0,1,197,184.36Z"/><path class="cls-6" d="M43.29,202a2.69,2.69,0,1,1,1.23,3.6A2.69,2.69,0,0,1,43.29,202Z"/><circle class="cls-6" cx="310.37" cy="346.63" r="2.71" transform="matrix(0.65, -0.76, 0.76, 0.65, -154.74, 358.79)"/><path class="cls-6" d="M181.6,76a2.72,2.72,0,1,1,3.81.51A2.71,2.71,0,0,1,181.6,76Z"/><path class="cls-6" d="M143.63,303.07a2.72,2.72,0,1,1,1.25,3.64A2.72,2.72,0,0,1,143.63,303.07Z"/><path class="cls-6" d="M297.52,476.2a2.74,2.74,0,1,1,1.26,3.67A2.74,2.74,0,0,1,297.52,476.2Z"/><path class="cls-6" d="M173.19,426a2.75,2.75,0,1,1,1.26,3.68A2.75,2.75,0,0,1,173.19,426Z"/><path class="cls-6" d="M306.45,451.72a2.75,2.75,0,1,1,1.27,3.69A2.77,2.77,0,0,1,306.45,451.72Z"/><path class="cls-38" d="M265.33,474.39a2.8,2.8,0,1,1,1.29,3.74A2.81,2.81,0,0,1,265.33,474.39Z"/><circle class="cls-6" cx="277.11" cy="187.85" r="2.8" transform="translate(-55.2 147.28) rotate(-27.17)"/><path class="cls-6" d="M133,424.93a2.82,2.82,0,1,1,1.29,3.78A2.82,2.82,0,0,1,133,424.93Z"/><path class="cls-6" d="M218.31,439.17a2.83,2.83,0,1,1,1.3,3.78A2.84,2.84,0,0,1,218.31,439.17Z"/><path class="cls-38" d="M203.07,99.56a2.84,2.84,0,1,1,1.3,3.8A2.84,2.84,0,0,1,203.07,99.56Z"/><path class="cls-6" d="M55.51,281.79a2.88,2.88,0,1,1,.08,4.08A2.88,2.88,0,0,1,55.51,281.79Z"/><path class="cls-6" d="M150.15,195.77a2.9,2.9,0,1,1,1.33,3.88A2.9,2.9,0,0,1,150.15,195.77Z"/><path class="cls-6" d="M69,316.51a3,3,0,1,1,.09,4.3A3,3,0,0,1,69,316.51Z"/><circle class="cls-6" cx="189.72" cy="337.91" r="3.08" transform="translate(-197.42 320.52) rotate(-58.12)"/><polygon class="cls-54" points="221.88 194.91 313.3 168.45 273.62 245.46 221.88 194.91"/><polygon class="cls-55" points="217.87 371.78 170.1 275.13 170.57 258.28 217.87 371.78"/><polygon class="cls-56" points="247.14 330.09 231.15 382.86 170.1 275.13 247.14 330.09"/><polygon class="cls-57" points="231.15 382.86 170.57 258.28 170.1 275.13 231.15 382.86"/><polygon class="cls-58" points="245.95 412.95 230.59 394.59 157.1 477.36 245.95 412.95"/><polygon class="cls-59" points="273.62 245.46 229.26 195.05 221.88 194.91 273.62 245.46"/><polygon class="cls-60" points="170.57 258.28 231.15 382.86 234.42 323.9 170.57 258.28"/><polygon class="cls-61" points="230.59 394.59 245.95 412.95 236.33 425.51 230.59 394.59"/><polygon class="cls-62" points="313.76 239.82 277.12 337.21 259.49 329.81 313.76 239.82"/><polygon class="cls-63" points="117.27 301.29 124.47 346.69 105.57 235.88 117.27 301.29"/><polygon class="cls-64" points="259.49 329.81 265.59 412.12 247 282.74 259.49 329.81"/><polygon class="cls-65" points="343.95 332.29 259.49 329.81 277.12 337.21 343.95 332.29"/><polygon class="cls-66" points="265.59 412.12 259.49 329.81 289.75 337.94 265.59 412.12"/><polygon class="cls-67" points="236.33 425.51 289.75 337.94 230.59 394.59 236.33 425.51"/><polygon class="cls-68" points="229.26 195.05 273.62 245.46 259.04 211.9 229.26 195.05"/><polygon class="cls-69" points="378.96 168.45 354.6 264.63 361.8 166.87 378.96 168.45"/><polygon class="cls-70" points="384.3 334.13 363.43 274.1 340.79 248.12 384.3 334.13"/><polygon class="cls-71" points="229.26 195.05 274.49 92.35 221.88 194.91 229.26 195.05"/><polygon class="cls-72" points="366.25 434.71 368.16 439.81 274.53 419.75 366.25 434.71"/><polygon class="cls-73" points="289.75 337.94 236.33 425.51 265.59 412.12 289.75 337.94"/><polygon class="cls-74" points="247 282.74 313.76 239.82 259.49 329.81 247 282.74"/><polygon class="cls-75" points="193.99 79.35 317.01 35.05 275.24 90.66 193.99 79.35"/><polygon class="cls-76" points="313.76 239.82 247 282.74 312.6 351.8 313.76 239.82"/><polygon class="cls-77" points="275.24 90.66 141.08 24.31 193.99 79.35 275.24 90.66"/><polygon class="cls-78" points="295.97 464.67 274.53 419.75 368.16 439.81 295.97 464.67"/><polygon class="cls-79" points="361.01 116.03 352.58 161.22 308.77 64.75 361.01 116.03"/><polygon class="cls-80" points="267.8 165.61 289.24 210.53 378.96 168.45 267.8 165.61"/><polygon class="cls-81" points="354.6 264.63 378.96 168.45 289.24 210.53 354.6 264.63"/><polygon class="cls-82" points="141.08 24.31 275.24 90.66 165.16 62.18 141.08 24.31"/><polygon class="cls-83" points="259.49 329.81 343.95 332.29 289.75 337.94 259.49 329.81"/><polygon class="cls-84" points="259.04 211.9 272.96 127.58 229.26 195.05 259.04 211.9"/><polygon class="cls-85" points="378.84 232.02 389.22 250.06 297.5 235.1 378.84 232.02"/><polygon class="cls-86" points="159.7 318.64 239.75 241.21 192.78 377.29 159.7 318.64"/><polygon class="cls-87" points="308.77 64.75 388.28 216.22 361.01 116.03 308.77 64.75"/><polygon class="cls-6" points="310.37 346.63 289.75 337.94 343.95 332.29 310.37 346.63"/><polygon class="cls-88" points="146.08 304.27 150.92 319.12 199.43 185.54 146.08 304.27"/><polygon class="cls-89" points="329.49 411.94 299.98 477.41 308.93 452.93 329.49 411.94"/><polygon class="cls-90" points="111 215.09 108.01 97.18 142.31 129.2 111 215.09"/><polygon class="cls-91" points="265.9 397.68 175.66 427.19 309.68 362.51 265.9 397.68"/><polygon class="cls-92" points="71.18 318.62 57.59 283.79 110.04 263.75 71.18 318.62"/><path class="cls-93" d="M180.83,188.1,146.5,155.81a.35.35,0,1,0-.48.51l34.32,32.3a.36.36,0,0,0,.49-.52Z"/><path class="cls-6" d="M300.61,256.74l-26.85-11.6a.35.35,0,1,0-.28.65l26.86,11.59a.35.35,0,1,0,.27-.64Z"/><path class="cls-94" d="M273.6,245.82l67.17,2.65a.36.36,0,0,0,0-.71l-67.17-2.65a.34.34,0,0,0-.36.34.35.35,0,0,0,.33.37Z"/><path class="cls-95" d="M190.14,339.21,230.3,394.8a.36.36,0,0,0,.5.06.34.34,0,0,0,.07-.47l-40.16-55.6a.36.36,0,0,0-.49-.08.36.36,0,0,0-.08.5Z"/><path class="cls-96" d="M190.43,339.35l86.7-1.79a.35.35,0,0,0,0-.7h0l-86.69,1.79a.35.35,0,0,0-.35.36A.35.35,0,0,0,190.43,339.35Z"/><path class="cls-6" d="M300.55,257.4l40.31-8.94a.36.36,0,0,0,.26-.43.36.36,0,0,0-.41-.26l-40.31,9a.35.35,0,0,0,.15.68Z"/><path class="cls-97" d="M300.13,257l-23.35,80.15a.36.36,0,0,0,.24.44.35.35,0,0,0,.44-.24l23.35-80.15a.35.35,0,0,0-.25-.43A.35.35,0,0,0,300.13,257Z"/><path class="cls-98" d="M158.86,277l31.25,62.14a.35.35,0,0,0,.48.14.35.35,0,0,0,.15-.46L159.49,276.7a.36.36,0,0,0-.48-.15A.37.37,0,0,0,158.86,277Z"/><path class="cls-99" d="M245.3,368.48l-54.71-29.79a.35.35,0,0,0-.33.62L245,369.1a.35.35,0,0,0,.48-.15A.35.35,0,0,0,245.3,368.48Z"/><path class="cls-100" d="M230.86,394.82l46.53-57.39a.35.35,0,0,0-.09-.49.36.36,0,0,0-.45.05l-46.53,57.38a.35.35,0,0,0,.54.45Z"/><path class="cls-101" d="M105.89,236l40.69-79.82a.36.36,0,0,0-.16-.47.35.35,0,0,0-.47.15l-40.69,79.82a.35.35,0,0,0,.15.47A.36.36,0,0,0,105.89,236Z"/><path class="cls-102" d="M110.63,262l48.44,15.16a.35.35,0,0,0,.44-.23.36.36,0,0,0-.23-.44l-48.44-15.16a.36.36,0,0,0-.44.24A.35.35,0,0,0,110.63,262Z"/><path class="cls-103" d="M273.86,245.21l-51.74-50.55a.35.35,0,0,0-.49.5l51.74,50.56a.36.36,0,0,0,.5,0A.35.35,0,0,0,273.86,245.21Z"/><path class="cls-104" d="M116,343.72l74.45-4.37a.35.35,0,0,0,.33-.37.35.35,0,0,0-.38-.33L116,343a.34.34,0,0,0-.33.37A.35.35,0,0,0,116,343.72Z"/><path class="cls-105" d="M368.45,420.67l-50.71,11.75a.36.36,0,0,0-.25.44.37.37,0,0,0,.41.25l50.71-11.75a.34.34,0,0,0,.26-.42A.35.35,0,0,0,368.45,420.67Z"/><path class="cls-6" d="M244.82,368.61l-14.54,25.81a.36.36,0,0,0,.14.48.35.35,0,0,0,.48-.13L245.44,369a.36.36,0,0,0-.14-.48A.35.35,0,0,0,244.82,368.61Z"/><path class="cls-6" d="M265.74,411.81l-35-17.53a.35.35,0,0,0-.48.16.36.36,0,0,0,.16.47h0l35,17.53a.35.35,0,1,0,.31-.63Z"/><path class="cls-6" d="M245.37,369l32-31.58a.35.35,0,0,0-.5-.5l-32,31.58a.35.35,0,0,0,.49.5Z"/><path class="cls-106" d="M265.93,412.18l11.54-74.92a.36.36,0,0,0-.3-.4.35.35,0,0,0-.4.29l-11.53,74.92a.35.35,0,1,0,.69.11Z"/><path class="cls-107" d="M116.33,343.34l-5.24-81.67a.36.36,0,0,0-.71.05l5.25,81.67a.35.35,0,0,0,.7-.05Z"/><path class="cls-108" d="M117.61,301.23l-6.53-39.59a.35.35,0,0,0-.69.11l6.53,39.6a.35.35,0,0,0,.69-.12Z"/><path class="cls-103" d="M169.9,275.42l77,54.95a.35.35,0,0,0,.41-.57l-77-54.95a.35.35,0,0,0-.41.57Z"/><path class="cls-109" d="M313,168.57l27.48,79.66a.37.37,0,0,0,.45.22.36.36,0,0,0,.22-.45l-27.48-79.66a.35.35,0,0,0-.45-.22A.35.35,0,0,0,313,168.57Z"/><path class="cls-110" d="M263.13,104l11.6-11.43a.33.33,0,0,0,0-.49.34.34,0,0,0-.47,0l-11.61,11.43a.35.35,0,0,0,.5.5Z"/><path class="cls-111" d="M368.2,439.47l-50.33-7.06a.35.35,0,0,0-.1.7l50.34,7.05a.35.35,0,0,0,.38-.31A.34.34,0,0,0,368.2,439.47Z"/><path class="cls-112" d="M389.23,249.71l-48.43-2a.37.37,0,0,0-.37.34.36.36,0,0,0,.34.37l48.43,1.95a.36.36,0,0,0,.37-.34A.35.35,0,0,0,389.23,249.71Z"/><path class="cls-113" d="M244.81,368.94l20.46,43.33a.35.35,0,0,0,.47.17.36.36,0,0,0,.16-.47l-20.45-43.34a.37.37,0,0,0-.48-.16A.36.36,0,0,0,244.81,368.94Z"/><path class="cls-114" d="M117.28,198l29.27-41.69a.35.35,0,0,0-.1-.49.35.35,0,0,0-.48.08L116.7,197.55a.35.35,0,0,0,.09.49A.34.34,0,0,0,117.28,198Z"/><path class="cls-6" d="M170.22,258.27l-.47,16.85a.36.36,0,1,0,.71,0l.46-16.85a.34.34,0,0,0-.34-.36A.34.34,0,0,0,170.22,258.27Z"/><path class="cls-115" d="M246.22,412.72l-15.36-18.35a.36.36,0,0,0-.5-.05.35.35,0,0,0,0,.5h0l15.36,18.36a.36.36,0,0,0,.5,0A.37.37,0,0,0,246.22,412.72Z"/><path class="cls-116" d="M116.27,343.56l43.2-66.51a.35.35,0,0,0-.11-.49.36.36,0,0,0-.48.11l-43.2,66.5a.37.37,0,0,0,.11.49A.36.36,0,0,0,116.27,343.56Z"/><path class="cls-117" d="M117.44,301.6l41.91-24.44a.35.35,0,0,0,.13-.48.36.36,0,0,0-.48-.13L117.09,301a.35.35,0,0,0,.35.61Z"/><path class="cls-118" d="M352.3,119.46,276.37,90a.35.35,0,0,1,.26-.66l75.93,29.44a.35.35,0,0,1,.19.46A.36.36,0,0,1,352.3,119.46Z"/><path class="cls-119" d="M378.91,168.1,311,178.27a.36.36,0,0,0-.3.41.36.36,0,0,0,.4.29L379,168.8a.37.37,0,0,0,.3-.41A.35.35,0,0,0,378.91,168.1Z"/><path class="cls-120" d="M246.28,413.09l31.17-75.75a.35.35,0,0,0-.2-.46.36.36,0,0,0-.46.19l-31.16,75.75a.35.35,0,0,0,.19.46A.35.35,0,0,0,246.28,413.09Z"/><path class="cls-121" d="M133.39,150.19l12.72,6.19a.34.34,0,0,0,.47-.16.36.36,0,0,0-.16-.47l-12.72-6.19a.35.35,0,1,0-.31.63Z"/><path class="cls-122" d="M116.68,197.92,158.87,277a.34.34,0,0,0,.47.15.35.35,0,0,0,.15-.48h0l-42.19-79.1a.35.35,0,1,0-.62.33Z"/><path class="cls-6" d="M368.17,421l-.37,18.8a.36.36,0,0,0,.71,0l.37-18.8a.36.36,0,0,0-.35-.36.36.36,0,0,0-.36.35Z"/><path class="cls-6" d="M368.18,421l-2.28,13.7a.35.35,0,0,0,.29.41.37.37,0,0,0,.41-.29l2.28-13.7a.37.37,0,0,0-.29-.41A.35.35,0,0,0,368.18,421Z"/><path class="cls-123" d="M170.23,258.18l-19.08,61.28a.36.36,0,0,0,.68.21l19.08-61.29a.36.36,0,0,0-.23-.44.36.36,0,0,0-.45.24Z"/><path class="cls-124" d="M300.75,257.28,314,240a.35.35,0,0,0-.06-.49.36.36,0,0,0-.5.06L300.2,256.85a.35.35,0,0,0,.55.43Z"/><path class="cls-125" d="M129.94,208.72,110.4,261.57a.37.37,0,0,0,.21.46.36.36,0,0,0,.46-.21L130.61,209a.36.36,0,0,0-.67-.24Z"/><path class="cls-6" d="M299.56,99.59,276.36,90a.35.35,0,0,1,.27-.65l23.2,9.57a.36.36,0,0,1,.18.47A.37.37,0,0,1,299.56,99.59Z"/><path class="cls-126" d="M244.78,368.79,245.6,413a.36.36,0,0,0,.71,0l-.83-44.16a.35.35,0,0,0-.7,0Z"/><path class="cls-127" d="M130.61,208.94l16-52.77a.36.36,0,0,0-.68-.21l-16,52.78a.35.35,0,0,0,.23.44A.35.35,0,0,0,130.61,208.94Z"/><path class="cls-128" d="M312.73,351.47l-35.47-14.59a.35.35,0,0,0-.46.2.35.35,0,0,0,.18.45l35.48,14.6a.36.36,0,0,0,.27-.66Z"/><path class="cls-6" d="M116.33,343.37l1.29-42.07a.36.36,0,0,0-.71,0l-1.28,42.07a.34.34,0,0,0,.34.36A.35.35,0,0,0,116.33,343.37Z"/><path class="cls-129" d="M277.4,337.42l41.83-57.18a.36.36,0,0,0-.08-.5.35.35,0,0,0-.49.08L276.84,337a.36.36,0,0,0,.12.49A.37.37,0,0,0,277.4,337.42Z"/><path class="cls-6" d="M322.86,169.58l55.08.53c.62,0,1.22-.24,1.34-.56s-.29-.57-.91-.57h0l-55.07-.54c-.62,0-1.23.25-1.35.56S322.24,169.57,322.86,169.58Z"/><path class="cls-130" d="M340.52,248.35l22.65,26a.34.34,0,0,0,.49,0,.36.36,0,0,0,0-.48l-22.64-26a.36.36,0,0,0-.5,0A.35.35,0,0,0,340.52,248.35Z"/><path class="cls-131" d="M313.66,240.15l27,8.3a.35.35,0,1,0,.21-.67l-27-8.3a.36.36,0,0,0-.45.23A.35.35,0,0,0,313.66,240.15Z"/><path class="cls-6" d="M246,413.3l19.63-.82a.37.37,0,0,0,.33-.38.36.36,0,0,0-.36-.33l-19.63.83a.34.34,0,0,0-.32.38A.34.34,0,0,0,246,413.3Z"/><path class="cls-132" d="M313.21,168.12l-91.43,26.45a.35.35,0,0,0,.19.68l91.43-26.46a.35.35,0,0,0-.19-.67Z"/><path class="cls-133" d="M352.3,119.46,299.57,99.59a.36.36,0,0,1-.21-.46.35.35,0,0,1,.46-.2l52.73,19.87a.35.35,0,0,1,.2.46A.36.36,0,0,1,352.3,119.46Z"/><path class="cls-134" d="M151.81,319.7l18.62-44.43a.35.35,0,0,0-.19-.46.35.35,0,0,0-.46.19h0l-18.62,44.43a.36.36,0,0,0,.2.46A.34.34,0,0,0,151.81,319.7Z"/><path class="cls-135" d="M130,209l28.9,68a.36.36,0,0,0,.47.18.35.35,0,0,0,.18-.46l-28.9-68a.36.36,0,0,0-.47-.17A.35.35,0,0,0,130,209Z"/><path class="cls-6" d="M365.92,434.83l1.91,5.11a.35.35,0,0,0,.65-.25l-1.9-5.1a.35.35,0,0,0-.46-.21A.35.35,0,0,0,365.92,434.83Z"/><path class="cls-136" d="M245.21,369.13l67.47-17a.36.36,0,0,0,.26-.43.35.35,0,0,0-.43-.25l-67.47,17a.36.36,0,0,0,.17.69Z"/><path class="cls-137" d="M300,99l52.89,62a.35.35,0,0,1-.05.5.35.35,0,0,1-.48,0l-52.9-62a.35.35,0,0,1,.06-.5A.35.35,0,0,1,300,99Z"/><path class="cls-138" d="M265.94,412.1l-6.1-82.32a.36.36,0,0,0-.38-.32.35.35,0,0,0-.33.38l6.1,82.31a.37.37,0,0,0,.38.33A.36.36,0,0,0,265.94,412.1Z"/><path class="cls-139" d="M236.67,425.44l-5.74-30.91a.35.35,0,0,0-.69.13L236,425.57a.35.35,0,0,0,.69-.13Z"/><path class="cls-140" d="M234.64,323.62l-64.32-48.77a.35.35,0,0,0-.5.07.34.34,0,0,0,.07.49l64.32,48.77a.35.35,0,0,0,.43-.56Z"/><path class="cls-141" d="M265.46,412.45l52.06,19.92a.34.34,0,0,0,.45-.21.35.35,0,0,0-.2-.45l-52.06-19.92a.36.36,0,0,0-.45.21A.35.35,0,0,0,265.46,412.45Z"/><path class="cls-142" d="M265.87,412.34l47-60.32a.35.35,0,0,0-.55-.44l-47,60.33a.35.35,0,0,0,.56.43Z"/><path class="cls-143" d="M313.62,168.29,274.8,92.19a.36.36,0,0,0-.48-.15.35.35,0,0,0-.15.47h0L313,168.61a.35.35,0,0,0,.63-.32Z"/><path class="cls-144" d="M368.24,420.81l-28.06,37.73a.35.35,0,0,0,.07.49.35.35,0,0,0,.5-.07l28.06-37.74a.35.35,0,0,0-.12-.48A.35.35,0,0,0,368.24,420.81Z"/><path class="cls-145" d="M218.08,371.5l-66.37-52.21a.35.35,0,0,0-.5.06.36.36,0,0,0,.06.5h0l66.38,52.21a.35.35,0,0,0,.43-.56Z"/><path class="cls-146" d="M151.27,319.19l8.25-42.26a.35.35,0,1,0-.69-.14l-8.26,42.26a.35.35,0,0,0,.28.41A.36.36,0,0,0,151.27,319.19Z"/><path class="cls-147" d="M359.72,181.09l19.73,51.41a.43.43,0,0,0,.43.19c.18,0,.3-.14.25-.26h0L360.4,181a.44.44,0,0,0-.44-.17C359.79,180.87,359.68,181,359.72,181.09Z"/><path class="cls-6" d="M378.72,168.19l-17.54,17.23a.36.36,0,0,0,0,.5.35.35,0,0,0,.5,0h0l17.54-17.22a.35.35,0,1,0-.49-.51Z"/><path class="cls-6" d="M378.78,168.15l-19.45,12.12a.36.36,0,0,0,.38.6l19.44-12.12a.36.36,0,0,0,.08-.5A.36.36,0,0,0,378.78,168.15Z"/><path class="cls-148" d="M133.21,149.76l-16.55,47.88a.35.35,0,0,0,.66.23L133.88,150a.35.35,0,0,0-.67-.23Z"/><path class="cls-149" d="M234.44,323.55l-82.93-4.34a.35.35,0,0,0-.36.35.34.34,0,0,0,.32.36l82.93,4.33a.36.36,0,0,0,.37-.34A.35.35,0,0,0,234.44,323.55Z"/><path class="cls-150" d="M130.33,209.19l91.6-13.93a.35.35,0,1,0-.11-.7h0l-91.6,13.93a.35.35,0,0,0-.27.42A.36.36,0,0,0,130.33,209.19Z"/><path class="cls-151" d="M244.78,368.73,236,425.45a.35.35,0,0,0,.69.11l8.8-56.72a.35.35,0,0,0-.69-.11Z"/><path class="cls-152" d="M355.65,353.16l16.91,85.08a.36.36,0,0,0,.43.26.37.37,0,0,0,.27-.4L356.34,353a.35.35,0,0,0-.43-.25A.34.34,0,0,0,355.65,353.16Z"/><path class="cls-6" d="M116.76,198l13.29,11.08a.35.35,0,0,0,.45-.54l-13.28-11.09a.37.37,0,0,0-.5.07A.37.37,0,0,0,116.76,198Z"/><path class="cls-153" d="M352.3,143.75,320,168.68a.34.34,0,0,1-.49-.07.35.35,0,0,1,.06-.49l32.27-24.93a.36.36,0,0,1,.5.06A.37.37,0,0,1,352.3,143.75Z"/><path class="cls-154" d="M116.18,343.65l34.94-24.24a.34.34,0,0,0,.08-.49.34.34,0,0,0-.48-.09l-34.94,24.24a.37.37,0,0,0-.09.5A.34.34,0,0,0,116.18,343.65Z"/><path class="cls-155" d="M313,168.45l.46,71.37a.36.36,0,0,0,.71,0l-.46-71.36a.36.36,0,0,0-.71,0Z"/><path class="cls-156" d="M236.47,425.83l29.26-13.39a.35.35,0,0,0,.18-.46.36.36,0,0,0-.47-.18l-29.26,13.38a.36.36,0,0,0,.29.65Z"/><path class="cls-157" d="M245.86,413.29l71.69,19.09a.37.37,0,0,0,.43-.27.35.35,0,0,0-.24-.41L246,412.61a.35.35,0,0,0-.18.68Z"/><path class="cls-158" d="M246.19,413.21l66.64-61.15a.34.34,0,0,0,0-.5.36.36,0,0,0-.5,0l-66.63,61.15a.36.36,0,0,0,0,.5A.35.35,0,0,0,246.19,413.21Z"/><path class="cls-159" d="M117.1,301.6l33.65,17.83a.36.36,0,0,0,.48-.15.34.34,0,0,0-.15-.47L117.43,301a.35.35,0,0,0-.48.15.35.35,0,0,0,.15.47Z"/><path class="cls-160" d="M368,439.52l-27.7,18.94a.35.35,0,0,0,.4.58l27.7-18.94a.35.35,0,1,0-.4-.58Z"/><path class="cls-161" d="M389,249.8l-25.79,24.05a.36.36,0,0,0,0,.5.35.35,0,0,0,.5,0l25.79-24a.35.35,0,0,0-.48-.52Z"/><path class="cls-162" d="M245.33,369.08,290,338.23a.36.36,0,0,0-.41-.59L244.93,368.5a.35.35,0,0,0-.07.49A.37.37,0,0,0,245.33,369.08Z"/><path class="cls-163" d="M133.19,149.86l-3.27,59a.35.35,0,0,0,.34.37.35.35,0,0,0,.37-.33h0l3.27-59a.35.35,0,0,0-.33-.37A.36.36,0,0,0,133.19,149.86Z"/><path class="cls-164" d="M154.08,247.32l4.75,29.59a.35.35,0,0,0,.41.29.36.36,0,0,0,.29-.4l-4.76-29.59a.35.35,0,0,0-.41-.28A.35.35,0,0,0,154.08,247.32Z"/><path class="cls-165" d="M425.37,322.74l-64.24,48a.35.35,0,0,0-.07.5.36.36,0,0,0,.49.07l64.24-48a.34.34,0,0,0,.06-.49A.35.35,0,0,0,425.37,322.74Z"/><path class="cls-166" d="M425.8,322.74l-62.15-48.91a.35.35,0,0,0-.44.55h0l62.15,48.92a.36.36,0,0,0,.49-.1A.35.35,0,0,0,425.8,322.74Z"/><path class="cls-167" d="M352.15,119.35,308.5,65a.35.35,0,0,1,.55-.44l43.65,54.38a.34.34,0,0,1-.06.49A.36.36,0,0,1,352.15,119.35Z"/><path class="cls-168" d="M378.74,168.17l-45.23,36.16a.36.36,0,0,0-.05.5.35.35,0,0,0,.49.06l45.23-36.17a.34.34,0,0,0,.06-.49A.35.35,0,0,0,378.74,168.17Z"/><path class="cls-169" d="M312.24,351.82l5.05,80.24a.36.36,0,0,0,.71,0l-5.06-80.24a.34.34,0,0,0-.4-.3A.36.36,0,0,0,312.24,351.82Z"/><path class="cls-103" d="M313.09,168.18l-54.27,43.44a.36.36,0,0,0-.05.5.35.35,0,0,0,.49,0l54.26-43.44a.34.34,0,0,0,0-.5A.34.34,0,0,0,313.09,168.18Z"/><path class="cls-170" d="M317.93,432.24l43.69-61a.36.36,0,0,0-.1-.49.35.35,0,0,0-.47.08l-43.69,61a.35.35,0,1,0,.57.41Z"/><path class="cls-171" d="M312.46,352.13l48.75,19.19a.35.35,0,0,0,.26-.65l-48.75-19.2a.36.36,0,0,0-.26.66Z"/><path class="cls-6" d="M245.67,412.74l-9.62,12.55a.35.35,0,0,0,.07.5.36.36,0,0,0,.49-.07l9.62-12.55a.35.35,0,0,0-.07-.5A.36.36,0,0,0,245.67,412.74Z"/><path class="cls-172" d="M259.18,211.58l-37.16-17a.35.35,0,0,0-.29.64l37.16,17a.36.36,0,0,0,.47-.18A.35.35,0,0,0,259.18,211.58Z"/><path class="cls-173" d="M299.35,99.17l9.08-34.51a.35.35,0,0,1,.43-.25.35.35,0,0,1,.25.43L300,99.35a.35.35,0,0,1-.68-.18Z"/><path class="cls-174" d="M115.85,343.69l8.5,3.33a.35.35,0,0,0,.45-.2.34.34,0,0,0-.2-.46L116.11,343a.35.35,0,0,0-.46.21A.36.36,0,0,0,115.85,343.69Z"/><path class="cls-175" d="M361.69,371l2.1-96.89a.35.35,0,0,0-.37-.33.35.35,0,0,0-.34.32L361,371a.37.37,0,0,0,.35.36A.35.35,0,0,0,361.69,371Z"/><path class="cls-176" d="M124.82,346.63l-7.21-45.39a.35.35,0,0,0-.4-.3.37.37,0,0,0-.29.41l7.21,45.39a.35.35,0,0,0,.41.29A.36.36,0,0,0,124.82,346.63Z"/><path class="cls-177" d="M313.56,240.11l49.67,34.28a.34.34,0,0,0,.49-.09.35.35,0,0,0-.09-.49L314,239.53a.34.34,0,0,0-.49.08.36.36,0,0,0,.09.5Z"/><path class="cls-178" d="M116.71,198l37.43,49.51a.35.35,0,0,0,.5.07.36.36,0,0,0,.07-.5l-37.44-49.51a.36.36,0,0,0-.5,0A.37.37,0,0,0,116.71,198Z"/><path class="cls-179" d="M247.19,283,314,240.11a.35.35,0,1,0-.38-.59l-66.76,42.92a.35.35,0,1,0,.38.59Z"/><path class="cls-180" d="M236.3,425.86l81.31,6.53a.35.35,0,0,0,.38-.32.34.34,0,0,0-.32-.38l-81.32-6.54a.36.36,0,0,0,0,.71Z"/><path class="cls-181" d="M221.87,195.26l7.38.14a.35.35,0,0,0,0-.7l-7.39-.14a.36.36,0,0,0-.34.36A.36.36,0,0,0,221.87,195.26Z"/><path class="cls-182" d="M245.7,412.7l-33.17,33.56a.35.35,0,0,0,.5.5L246.2,413.2a.35.35,0,0,0-.5-.5Z"/><path class="cls-183" d="M299.79,98.92l61.31,16.77a.35.35,0,0,1,.25.43.35.35,0,0,1-.43.25L299.6,99.6a.35.35,0,0,1-.25-.43A.36.36,0,0,1,299.79,98.92Z"/><path class="cls-6" d="M312.78,351.5l-22.84-13.87a.36.36,0,0,0-.37.61l22.84,13.86a.35.35,0,0,0,.37-.6Z"/><path class="cls-184" d="M355.56,416.83,367.84,440a.35.35,0,0,0,.62-.33L356.18,416.5a.35.35,0,0,0-.62.33Z"/><path class="cls-185" d="M236.13,425.21,156.9,477.07a.35.35,0,0,0-.1.49.36.36,0,0,0,.49.1l79.23-51.86a.36.36,0,0,0,.06-.5A.37.37,0,0,0,236.13,425.21Z"/><path class="cls-186" d="M378.54,232.19l10.37,18.05a.36.36,0,0,0,.49.13.35.35,0,0,0,.12-.48h0l-10.37-18a.35.35,0,0,0-.49-.09A.34.34,0,0,0,378.54,232.19Z"/><path class="cls-187" d="M312.78,352.1l31.36-19.51a.35.35,0,0,0,.08-.49.36.36,0,0,0-.45-.11L312.41,351.5a.35.35,0,0,0-.09.49A.36.36,0,0,0,312.78,352.1Z"/><path class="cls-188" d="M217,88.37,275.22,91a.36.36,0,0,0,.37-.34.37.37,0,0,0-.34-.37L217,87.67a.34.34,0,0,0-.36.33A.35.35,0,0,0,217,88.37Z"/><path class="cls-189" d="M289.61,338.26l71.58,33.05a.34.34,0,0,0,.46-.18.35.35,0,0,0-.16-.46L289.9,337.61a.36.36,0,0,0-.29.65Z"/><path class="cls-190" d="M275.52,90.87l41.77-55.61a.36.36,0,0,0-.07-.5.37.37,0,0,0-.5.07h0L275,90.44a.35.35,0,0,0,.09.49A.36.36,0,0,0,275.52,90.87Z"/><path class="cls-191" d="M258.88,212.21l54.72,27.92a.36.36,0,0,0,.48-.15.36.36,0,0,0-.16-.48L259.2,211.58a.36.36,0,0,0-.48.16A.34.34,0,0,0,258.88,212.21Z"/><path class="cls-192" d="M343.63,332.44,361,371.14a.35.35,0,0,0,.46.18.36.36,0,0,0,.18-.47h0l-17.38-38.7a.36.36,0,1,0-.65.29Z"/><path class="cls-193" d="M133.87,150l9-20.22a.36.36,0,0,0-.18-.47.37.37,0,0,0-.47.18l-9,20.22a.37.37,0,0,0,.18.47A.36.36,0,0,0,133.87,150Z"/><path class="cls-194" d="M344.29,332.4l19.48-58.18a.35.35,0,1,0-.67-.23h0l-19.48,58.19a.35.35,0,0,0,.67.22Z"/><path class="cls-195" d="M154.72,247.08l-24.15-38.43a.35.35,0,0,0-.48-.11.35.35,0,0,0-.11.49l24.15,38.42a.35.35,0,0,0,.59-.37Z"/><path class="cls-196" d="M246.72,283l42.75,55.2a.35.35,0,1,0,.56-.43h0l-42.75-55.2a.35.35,0,0,0-.56.43Z"/><path class="cls-197" d="M258.69,211.84l-12,70.84a.35.35,0,0,0,.69.12l12-70.84a.34.34,0,0,0-.32-.38A.34.34,0,0,0,258.69,211.84Z"/><path class="cls-198" d="M319.66,167.4l58.78,1.46a1,1,0,0,0,.84-.37c.07-.18-.13-.34-.46-.36L320,166.68c-.38,0-.76.16-.84.37S319.32,167.38,319.66,167.4Z"/><path class="cls-199" d="M157.27,477.67,213,446.82a.36.36,0,0,0,.14-.48.35.35,0,0,0-.48-.14h0l-55.68,30.85a.34.34,0,0,0-.14.48A.35.35,0,0,0,157.27,477.67Z"/><path class="cls-200" d="M247,275.41l66.93-35.28a.36.36,0,0,0-.33-.63l-66.93,35.28a.36.36,0,0,0,.33.63Z"/><path class="cls-201" d="M425.49,322.68,384.2,333.79a.35.35,0,0,0-.22.44.35.35,0,0,0,.41.24l41.28-11.11a.35.35,0,0,0-.18-.68Z"/><path class="cls-6" d="M247.35,282.73l-.16-7.64a.35.35,0,0,0-.37-.34.36.36,0,0,0-.34.35l.16,7.64a.36.36,0,0,0,.71,0Z"/><path class="cls-103" d="M182.44,108.64l-49.12,41a.36.36,0,0,0,.45.55l49.13-41a.34.34,0,0,0,0-.49A.35.35,0,0,0,182.44,108.64Z"/><path class="cls-202" d="M154.07,247.25l-3.5,71.85a.35.35,0,0,0,.33.37.35.35,0,0,0,.37-.34h0l3.51-71.85a.36.36,0,0,0-.71,0Z"/><path class="cls-203" d="M130.62,208.9l12.28-79.19a.35.35,0,0,0-.29-.4.35.35,0,0,0-.41.3l-12.27,79.18a.35.35,0,1,0,.69.11Z"/><path class="cls-6" d="M124.73,346.93l26.44-27.57a.35.35,0,0,0,0-.5.36.36,0,0,0-.5,0l-26.44,27.57a.36.36,0,0,0,0,.5.35.35,0,0,0,.5,0Z"/><path class="cls-204" d="M228.92,195.12l17.73,87.69a.35.35,0,0,0,.42.27.34.34,0,0,0,.27-.41h0L229.61,195a.36.36,0,0,0-.44-.25A.34.34,0,0,0,228.92,195.12Z"/><path class="cls-6" d="M236.09,425.24l-23.55,21a.36.36,0,0,0,0,.5.35.35,0,0,0,.5,0l23.55-21a.35.35,0,0,0,0-.5A.36.36,0,0,0,236.09,425.24Z"/><path class="cls-205" d="M149.82,404.2l96.12-4.39a.36.36,0,0,0,.34-.37.37.37,0,0,0-.37-.34l-96.12,4.39a.36.36,0,0,0-.34.37A.37.37,0,0,0,149.82,404.2Z"/><path class="cls-206" d="M378.51,231.9,363.1,274a.36.36,0,0,0,.21.46.36.36,0,0,0,.45-.21l15.41-42.09a.34.34,0,0,0-.21-.45.35.35,0,0,0-.45.21Z"/><path class="cls-207" d="M378.8,231.67l-65.08,7.8a.35.35,0,1,0,.08.7l65.08-7.8a.34.34,0,0,0,.31-.39.35.35,0,0,0-.39-.31Z"/><path class="cls-208" d="M289.79,338.29l54.2-5.65a.35.35,0,0,0,.32-.38.36.36,0,0,0-.39-.32l-54.2,5.64a.36.36,0,0,0,.07.71Z"/><path class="cls-209" d="M297.32,235.4l65.93,39a.36.36,0,0,0,.49-.13.35.35,0,0,0-.13-.48l-65.93-39a.35.35,0,0,0-.47.15A.34.34,0,0,0,297.32,235.4Z"/><path class="cls-210" d="M313.86,239.48l-16.26-4.72a.37.37,0,0,0-.44.24.36.36,0,0,0,.25.44l16.25,4.71a.35.35,0,0,0,.43-.25A.34.34,0,0,0,313.86,239.48Z"/><path class="cls-211" d="M360.76,116.28,308.52,65a.36.36,0,0,1,0-.5.35.35,0,0,1,.5,0h0l52.24,51.28a.35.35,0,0,1-.5.5Z"/><path class="cls-212" d="M247.24,283l50.5-47.63a.35.35,0,0,0,0-.5.36.36,0,0,0-.5,0l-50.5,47.64a.35.35,0,0,0,.48.51Z"/><path class="cls-213" d="M384,333.94l-23,36.87a.34.34,0,0,0,.11.48.35.35,0,0,0,.49-.11l23-36.87a.35.35,0,0,0-.6-.37Z"/><path class="cls-214" d="M384.63,334l-20.86-60a.35.35,0,1,0-.67.23l20.87,60a.34.34,0,0,0,.46.18A.35.35,0,0,0,384.63,334Z"/><path class="cls-215" d="M246.54,275.29l42.92,62.84a.35.35,0,0,0,.49.1.36.36,0,0,0,.1-.49h0l-42.92-62.85a.36.36,0,0,0-.59.4Z"/><path class="cls-216" d="M258.69,211.83,246.49,275a.35.35,0,0,0,.29.41.35.35,0,0,0,.4-.27l12.2-63.2a.35.35,0,0,0-.29-.4A.35.35,0,0,0,258.69,211.83Z"/><path class="cls-217" d="M246.66,282.62l-16.88,49.91a.35.35,0,0,0,.25.43.35.35,0,0,0,.42-.21l16.88-49.9a.34.34,0,0,0-.22-.45A.36.36,0,0,0,246.66,282.62Z"/><path class="cls-218" d="M150.86,319.47,230.05,333a.36.36,0,0,0,.12-.7L151,318.77a.35.35,0,0,0-.4.29A.36.36,0,0,0,150.86,319.47Z"/><path class="cls-219" d="M159.35,318.6l-9.9,85.2a.35.35,0,0,0,.31.39.34.34,0,0,0,.39-.31h0l9.9-85.2a.35.35,0,0,0-.31-.39.36.36,0,0,0-.39.31Z"/><path class="cls-220" d="M312.92,351.66l-2.22-5.17a.37.37,0,0,0-.48-.16.36.36,0,0,0-.17.44l2.22,5.17a.34.34,0,0,0,.46.18A.35.35,0,0,0,312.92,351.66Z"/><path class="cls-221" d="M192.65,377.62l53.14,22.16a.35.35,0,0,0,.46-.19.36.36,0,0,0-.19-.46L192.92,377a.35.35,0,0,0-.27.65Z"/><path class="cls-6" d="M259.21,211.59l-29.78-16.85a.35.35,0,0,0-.46.18.34.34,0,0,0,.12.44l29.77,16.84a.35.35,0,0,0,.35-.61Z"/><path class="cls-222" d="M154.32,247.6l92.42,27.83a.34.34,0,0,0,.42-.26.35.35,0,0,0-.22-.41l-92.41-27.83a.35.35,0,0,0-.21.67Z"/><path class="cls-223" d="M228.92,195.12l17.57,80.05a.36.36,0,0,0,.45.23.35.35,0,0,0,.24-.38l-17.57-80a.35.35,0,0,0-.69.15Z"/><path class="cls-224" d="M258.86,212.2l38.46,23.2a.36.36,0,0,0,.48-.14.36.36,0,0,0-.12-.46l-38.46-23.2a.36.36,0,0,0-.48.14A.36.36,0,0,0,258.86,212.2Z"/><path class="cls-225" d="M193.09,377.12,160,318.47a.35.35,0,1,0-.61.35l33.08,58.65a.35.35,0,0,0,.61-.35Z"/><path class="cls-226" d="M151.25,319l-4.84-14.85a.35.35,0,0,0-.44-.23.35.35,0,0,0-.23.45h0l4.84,14.85a.37.37,0,0,0,.45.22A.35.35,0,0,0,151.25,319Z"/><path class="cls-6" d="M343.94,332.65l40.34,1.83a.35.35,0,0,0,.37-.34.36.36,0,0,0-.34-.37L344,331.94a.36.36,0,1,0,0,.71Z"/><path class="cls-227" d="M247.05,275.37l50.67-40a.35.35,0,0,0,.06-.5.36.36,0,0,0-.5-.06h0l-50.66,40a.35.35,0,0,0,.43.55Z"/><path class="cls-228" d="M209.67,58.79,275.08,91a.36.36,0,0,0,.47-.17.35.35,0,0,0-.16-.46L210,58.16a.35.35,0,0,0-.31.63Z"/><path class="cls-229" d="M246.5,275l-16.73,57.55a.36.36,0,0,0,.25.43.35.35,0,0,0,.43-.23l16.72-57.55a.35.35,0,0,0-.67-.2Z"/><path class="cls-230" d="M199.29,185.86l59.6,26.36a.36.36,0,0,0,.45-.22.35.35,0,0,0-.16-.42l-59.61-26.36a.37.37,0,0,0-.45.22A.36.36,0,0,0,199.29,185.86Z"/><path class="cls-231" d="M229.08,195.35l68.24,40.06a.37.37,0,0,0,.48-.16.35.35,0,0,0-.12-.45l-68.24-40.05a.35.35,0,0,0-.47.15A.36.36,0,0,0,229.08,195.35Z"/><path class="cls-232" d="M266.48,135.36l42-70.79a.34.34,0,0,1,.48-.12.36.36,0,0,1,.13.48h0l-42,70.79a.35.35,0,0,1-.49.11A.35.35,0,0,1,266.48,135.36Z"/><path class="cls-233" d="M289.62,338.26,310.24,347a.34.34,0,0,0,.46-.18.36.36,0,0,0-.19-.47h0l-20.62-8.69a.35.35,0,0,0-.27.65Z"/><path class="cls-234" d="M182.36,109.07,229,195.22a.35.35,0,0,0,.62-.34L183,108.74a.35.35,0,1,0-.62.33Z"/><path class="cls-235" d="M310.51,347l33.59-14.33a.36.36,0,0,0-.28-.65l-33.58,14.34a.35.35,0,0,0-.17.47A.35.35,0,0,0,310.51,347Z"/><path class="cls-236" d="M154.71,247.47l45-61.72a.35.35,0,0,0-.07-.49.36.36,0,0,0-.5.07l-45,61.73a.35.35,0,1,0,.57.41Z"/><path class="cls-237" d="M378.83,231.67l-81.34,3.08a.34.34,0,0,0-.34.36.37.37,0,0,0,.37.35l81.34-3.09a.35.35,0,0,0,0-.7Z"/><path class="cls-6" d="M182.51,108.59l-40.12,20.75a.36.36,0,0,0-.15.48.35.35,0,0,0,.47.15l40.12-20.75a.35.35,0,0,0,.13-.48A.36.36,0,0,0,182.51,108.59Z"/><path class="cls-238" d="M192.6,377l-43,26.55a.36.36,0,0,0-.11.49.35.35,0,0,0,.48.11l43-26.55a.35.35,0,0,0-.37-.6Z"/><path class="cls-239" d="M378.49,232,384,334.15a.35.35,0,0,0,.39.31.36.36,0,0,0,.31-.35L379.2,232a.36.36,0,0,0-.38-.33A.35.35,0,0,0,378.49,232Z"/><path class="cls-6" d="M199.32,185.88l29.83,9.5a.36.36,0,0,0,.45-.22.36.36,0,0,0-.23-.45l-29.83-9.5a.35.35,0,0,0-.42.27A.36.36,0,0,0,199.32,185.88Z"/><path class="cls-240" d="M154.08,247.22l-8.35,57a.35.35,0,0,0,.7.1l8.34-57a.34.34,0,0,0-.29-.4.34.34,0,0,0-.4.3Z"/><path class="cls-241" d="M142.31,129.91l56.87,55.88a.35.35,0,0,0,.5,0,.36.36,0,0,0,0-.46L142.8,129.41a.35.35,0,1,0-.49.5Z"/><path class="cls-242" d="M184,74.53l61.56-74a.35.35,0,0,0-.06-.49.36.36,0,0,0-.49,0l-61.55,74a.35.35,0,0,0,0,.5A.36.36,0,0,0,184,74.53Z"/><path class="cls-243" d="M124.79,346.85l21.6-42.42a.35.35,0,0,0-.16-.47.36.36,0,0,0-.47.15l-21.6,42.42a.34.34,0,0,0,.16.47A.35.35,0,0,0,124.79,346.85Z"/><path class="cls-244" d="M300.18,477.11l-75.36-51a.35.35,0,1,0-.39.58l75.35,51a.35.35,0,0,0,.49-.1A.35.35,0,0,0,300.18,477.11Z"/><path class="cls-245" d="M309,452.59l-84.3-26.52a.36.36,0,0,0-.21.68l84.3,26.52a.35.35,0,0,0,.44-.24A.35.35,0,0,0,309,452.59Z"/><path class="cls-246" d="M182.33,109l16.75,76.64a.36.36,0,0,0,.43.27.34.34,0,0,0,.26-.42L183,108.83a.35.35,0,0,0-.69.15Z"/><path class="cls-247" d="M259.32,212.11l18.07-24a.35.35,0,0,0-.09-.49.37.37,0,0,0-.47.06l-18.08,24.05a.35.35,0,0,0,.08.49.34.34,0,0,0,.49-.07Z"/><path class="cls-248" d="M310.43,347l73.93-12.51a.35.35,0,0,0-.12-.69l-73.92,12.5a.35.35,0,0,0-.27.42A.35.35,0,0,0,310.43,347Z"/><path class="cls-249" d="M149.56,404.11l25.87,23.34a.34.34,0,0,0,.49,0,.35.35,0,0,0,0-.49L150,403.58a.35.35,0,0,0-.5,0A.36.36,0,0,0,149.56,404.11Z"/><path class="cls-250" d="M146,304.6,230,333a.35.35,0,0,0,.45-.22.36.36,0,0,0-.23-.45h0l-84-28.37a.36.36,0,0,0-.45.23A.35.35,0,0,0,146,304.6Z"/><path class="cls-251" d="M268.12,475.38l-43.23-49.2a.36.36,0,0,0-.5,0,.35.35,0,0,0,0,.5l43.23,49.21a.35.35,0,1,0,.53-.47Z"/><path class="cls-252" d="M220.64,440.13l-8.07,6.1a.35.35,0,0,0,0,.49.36.36,0,0,0,.47.07l8.08-6.09a.36.36,0,0,0,.06-.5A.34.34,0,0,0,220.64,440.13Z"/><path class="cls-253" d="M277.06,187.51l-47.85,7.19a.36.36,0,0,0-.3.4.35.35,0,0,0,.4.3l47.86-7.2a.34.34,0,0,0,.29-.4A.35.35,0,0,0,277.06,187.51Z"/><path class="cls-254" d="M192.45,377.18l-17.12,49.89a.35.35,0,0,0,.67.23h0l17.12-49.89a.35.35,0,0,0-.67-.23Z"/><path class="cls-255" d="M135.83,426.36,150.1,404a.34.34,0,0,0-.11-.48.36.36,0,0,0-.49.1L135.24,426a.35.35,0,1,0,.59.38Z"/><path class="cls-256" d="M276.79,188l20.39,47.25a.35.35,0,0,0,.47.17.36.36,0,0,0,.18-.45l-20.39-47.25a.36.36,0,0,0-.47-.18A.35.35,0,0,0,276.79,188Z"/><path class="cls-257" d="M142.7,130l63.07-28.85a.35.35,0,0,0-.3-.64h0l-63.06,28.85a.35.35,0,0,0-.18.46A.36.36,0,0,0,142.7,130Z"/><path class="cls-258" d="M199.42,185.9l77.68,2.31a.36.36,0,0,0,0-.71l-77.68-2.31a.36.36,0,0,0-.37.34.37.37,0,0,0,.35.37Z"/><path class="cls-259" d="M135.76,426.44,193,377.56a.35.35,0,0,0,0-.5.36.36,0,0,0-.49,0L135.3,425.9a.35.35,0,0,0,.46.54Z"/><path class="cls-260" d="M182.79,109.24l23-8.1a.35.35,0,0,0,.19-.46.34.34,0,0,0-.43-.2l-22.95,8.09a.36.36,0,0,0,.24.67Z"/><path class="cls-6" d="M308.59,452.81l-8.94,24.47a.35.35,0,1,0,.66.25l8.95-24.48a.36.36,0,0,0-.21-.45.35.35,0,0,0-.46.21Z"/><path class="cls-261" d="M205.27,100.78l-6.19,84.74a.34.34,0,0,0,.32.37.34.34,0,0,0,.38-.32L206,100.84a.35.35,0,0,0-.7-.06Z"/><path class="cls-6" d="M267.83,476,300,477.76a.35.35,0,0,0,.37-.33.36.36,0,0,0-.33-.38l-32.13-1.79a.36.36,0,0,0,0,.71Z"/><path class="cls-262" d="M192.69,377.63,265.81,398a.35.35,0,0,0,.43-.25.35.35,0,0,0-.25-.43L192.88,377a.36.36,0,0,0-.44.25A.35.35,0,0,0,192.69,377.63Z"/><path class="cls-6" d="M268,475.92l41.08-22.68a.35.35,0,1,0-.34-.62l-41.08,22.69a.35.35,0,0,0-.14.48.35.35,0,0,0,.48.13Z"/><path class="cls-263" d="M232.47,420.59l67.28,57.09a.36.36,0,0,0,.5-.05.36.36,0,0,0,0-.49l-67.28-57.09a.35.35,0,1,0-.46.54Z"/><path class="cls-6" d="M135.52,426.52l40.13,1a.34.34,0,0,0,.36-.34.34.34,0,0,0-.34-.36l-40.13-1a.35.35,0,0,0-.36.34A.35.35,0,0,0,135.52,426.52Z"/><path class="cls-264" d="M152.84,197.39l46.67-11.51a.34.34,0,0,0,.23-.44.35.35,0,0,0-.4-.24l-46.67,11.5a.35.35,0,0,0-.23.45A.35.35,0,0,0,152.84,197.39Z"/><path class="cls-265" d="M232.56,420.64l76.23,32.61a.34.34,0,0,0,.46-.18.36.36,0,0,0-.18-.47L232.83,420a.35.35,0,0,0-.45.2A.35.35,0,0,0,232.56,420.64Z"/><path class="cls-266" d="M232.4,420.5l35.15,55.3a.36.36,0,0,0,.5.08.37.37,0,0,0,.1-.46L233,420.13a.35.35,0,0,0-.49-.11A.34.34,0,0,0,232.4,420.5Z"/><path class="cls-267" d="M175.77,427.52,266,398a.35.35,0,0,0-.22-.67l-90.24,29.51a.37.37,0,0,0-.22.45A.35.35,0,0,0,175.77,427.52Z"/><path class="cls-103" d="M205.35,101l71.49,87.05a.36.36,0,1,0,.55-.45l-71.5-87a.35.35,0,1,0-.54.44Z"/><path class="cls-268" d="M188.83,455.83,267.76,476a.36.36,0,0,0,.18-.69L189,455.14a.34.34,0,0,0-.42.26A.35.35,0,0,0,188.83,455.83Z"/><path class="cls-269" d="M57.71,284.12l52.46-20a.35.35,0,0,0,.2-.46.35.35,0,0,0-.45-.2h0l-52.46,20a.36.36,0,0,0-.2.46.35.35,0,0,0,.45.2Z"/><path class="cls-103" d="M153.06,197.21,205.93,101a.35.35,0,0,0-.62-.34l-52.87,96.24a.35.35,0,0,0,.14.47A.34.34,0,0,0,153.06,197.21Z"/><path class="cls-270" d="M88.57,303.47,143.93,312a.36.36,0,0,0,.4-.3.37.37,0,0,0-.3-.4l-55.35-8.55a.35.35,0,0,0-.41.3.37.37,0,0,0,.3.4Z"/><path class="cls-271" d="M109.76,263.55,70.9,318.41a.35.35,0,0,0,.57.41L110.33,264a.35.35,0,0,0-.57-.4Z"/><path class="cls-272" d="M57.26,283.92l13.6,34.82a.33.33,0,0,0,.45.2.35.35,0,0,0,.2-.45h0l-13.6-34.83a.35.35,0,0,0-.46-.17A.37.37,0,0,0,57.26,283.92Z"/><polygon class="cls-273" points="190.03 219.37 170.57 258.28 234.42 323.9 190.03 219.37"/><path class="cls-9" d="M150.71,97.82a7.69,7.69,0,0,1-.2,1.8,4.15,4.15,0,0,1-.6,1.4,2.87,2.87,0,0,1-1,.9,2.92,2.92,0,0,1-1.4.32,3,3,0,0,1-1.25-.26,2.56,2.56,0,0,1-1-.8,3.83,3.83,0,0,1-.62-1.38,8.61,8.61,0,0,1,0-3.78,4.48,4.48,0,0,1,.6-1.4,2.77,2.77,0,0,1,1-.9,3.18,3.18,0,0,1,2.65-.06,2.47,2.47,0,0,1,1,.8,4,4,0,0,1,.62,1.38A8.2,8.2,0,0,1,150.71,97.82Zm-5.1,0v.41c0,.14,0,.27,0,.39l3.64-2.69a3.38,3.38,0,0,0-.25-.61,2,2,0,0,0-.36-.48,1.64,1.64,0,0,0-.48-.31,1.51,1.51,0,0,0-.61-.11,1.58,1.58,0,0,0-.81.21,2,2,0,0,0-.63.65,3.62,3.62,0,0,0-.39,1.07A7.05,7.05,0,0,0,145.61,97.78Zm3.94.08c0-.15,0-.3,0-.44l0-.44-3.65,2.71a3.6,3.6,0,0,0,.25.63,2.16,2.16,0,0,0,.37.5,1.34,1.34,0,0,0,.49.32,1.52,1.52,0,0,0,.62.12,1.58,1.58,0,0,0,.81-.22,1.77,1.77,0,0,0,.62-.65,3.13,3.13,0,0,0,.4-1.06A7.05,7.05,0,0,0,149.55,97.86Z"/><path class="cls-274" d="M244.73,147.93a7.19,7.19,0,0,1-.2,1.8,4.35,4.35,0,0,1-.59,1.4,2.86,2.86,0,0,1-1,.9,3,3,0,0,1-1.4.32,3.05,3.05,0,0,1-1.26-.26,2.47,2.47,0,0,1-1-.8,4.2,4.2,0,0,1-.62-1.38,8.18,8.18,0,0,1-.21-2,7.69,7.69,0,0,1,.2-1.8,4.06,4.06,0,0,1,.6-1.4,2.67,2.67,0,0,1,1-.9,2.87,2.87,0,0,1,1.4-.32,2.9,2.9,0,0,1,1.26.26,2.54,2.54,0,0,1,1,.8,4,4,0,0,1,.61,1.38A7.72,7.72,0,0,1,244.73,147.93Zm-5.09,0v.41c0,.14,0,.27,0,.39L243.3,146a2.78,2.78,0,0,0-.25-.61,2.15,2.15,0,0,0-.36-.48,1.72,1.72,0,0,0-.48-.31,1.66,1.66,0,0,0-.61-.11,1.54,1.54,0,0,0-.81.22,1.82,1.82,0,0,0-.62.64,3.92,3.92,0,0,0-.4,1.07A7.17,7.17,0,0,0,239.64,147.89Zm3.93.08c0-.15,0-.3,0-.44s0-.29,0-.44l-3.64,2.71a3.6,3.6,0,0,0,.25.63,1.71,1.71,0,0,0,.37.5,1.39,1.39,0,0,0,.48.32,1.65,1.65,0,0,0,1.44-.1,1.82,1.82,0,0,0,.62-.64,3.52,3.52,0,0,0,.39-1.07A6.44,6.44,0,0,0,243.57,148Z"/><path class="cls-275" d="M288.32,171.45h-5.4v-1.06h2.21v-6.28l-2.06,1.12-.42-1,2.74-1.44h1v7.58h1.92Z"/><path class="cls-276" d="M164,179.47h-5.4v-1.06h2.21v-6.28l-2.06,1.11-.42-1,2.74-1.44h1v7.58H164Z"/><path class="cls-277" d="M136.18,251h-5.4v-1.07H133v-6.28l-2.06,1.12-.42-1,2.73-1.44h1v7.58h1.92Z"/><path class="cls-278" d="M220.77,279.36a7.69,7.69,0,0,1-.2,1.8,4.15,4.15,0,0,1-.6,1.4,2.87,2.87,0,0,1-1,.9,2.92,2.92,0,0,1-1.4.32,3,3,0,0,1-1.25-.26,2.56,2.56,0,0,1-1-.8,3.83,3.83,0,0,1-.62-1.38,8.61,8.61,0,0,1,0-3.78,4.48,4.48,0,0,1,.6-1.4,2.77,2.77,0,0,1,1-.9,3.18,3.18,0,0,1,2.65-.06,2.47,2.47,0,0,1,1,.8,4,4,0,0,1,.62,1.38A8.2,8.2,0,0,1,220.77,279.36Zm-5.1,0v.41c0,.14,0,.27,0,.39l3.64-2.69a3.38,3.38,0,0,0-.25-.61,2,2,0,0,0-.36-.48,1.64,1.64,0,0,0-.48-.31,1.51,1.51,0,0,0-.61-.11,1.58,1.58,0,0,0-.81.21,2,2,0,0,0-.63.65,3.62,3.62,0,0,0-.39,1.07A7.05,7.05,0,0,0,215.67,279.32Zm3.94.08c0-.15,0-.3,0-.44l0-.44-3.65,2.71a3.6,3.6,0,0,0,.25.63,2.16,2.16,0,0,0,.37.5,1.34,1.34,0,0,0,.49.32,1.52,1.52,0,0,0,.62.12,1.58,1.58,0,0,0,.81-.22,1.77,1.77,0,0,0,.62-.65,3.13,3.13,0,0,0,.4-1.06A7.05,7.05,0,0,0,219.61,279.4Z"/><path class="cls-279" d="M328.59,261.63h-5.4v-1.07h2.21v-6.28l-2.06,1.12-.42-1,2.74-1.44h1v7.58h1.92Z"/><path class="cls-275" d="M151.53,338.76a7.69,7.69,0,0,1-.2,1.8,4,4,0,0,1-.6,1.39,2.9,2.9,0,0,1-1,.91,3.18,3.18,0,0,1-2.65.06,2.49,2.49,0,0,1-1-.8,3.83,3.83,0,0,1-.62-1.38,7.72,7.72,0,0,1-.22-2,7.84,7.84,0,0,1,.2-1.81,4.15,4.15,0,0,1,.6-1.4,2.88,2.88,0,0,1,1-.9,2.94,2.94,0,0,1,1.39-.32,3,3,0,0,1,1.26.26,2.5,2.5,0,0,1,1,.81,4,4,0,0,1,.62,1.38A8.08,8.08,0,0,1,151.53,338.76Zm-5.1,0v.41a2.56,2.56,0,0,0,0,.39l3.64-2.69a3.1,3.1,0,0,0-.25-.61,2,2,0,0,0-.36-.48,1.69,1.69,0,0,0-.49-.31,1.46,1.46,0,0,0-.6-.12,1.58,1.58,0,0,0-.81.22,1.79,1.79,0,0,0-.63.65,3.52,3.52,0,0,0-.39,1.07A7.05,7.05,0,0,0,146.43,338.72Zm3.94.08c0-.15,0-.3,0-.45s0-.29,0-.43l-3.64,2.71a3.6,3.6,0,0,0,.25.63,1.86,1.86,0,0,0,.37.5,1.66,1.66,0,0,0,.49.32,1.52,1.52,0,0,0,.62.11,1.58,1.58,0,0,0,.81-.21,1.77,1.77,0,0,0,.62-.65,3.21,3.21,0,0,0,.4-1.06A7.05,7.05,0,0,0,150.37,338.8Z"/><path class="cls-280" d="M102.26,322.5H96.85v-1.07h2.22v-6.28L97,316.27l-.43-1,2.74-1.45h1v7.58h1.92Z"/><path class="cls-281" d="M251.91,250.12H246.5v-1.06h2.22v-6.28l-2.07,1.12-.42-1,2.74-1.44h1v7.58h1.92Z"/><path class="cls-282" d="M304.75,213.35h-5.4v-1.07h2.21V206l-2.06,1.12-.42-1,2.74-1.44h1v7.58h1.92Z"/><path class="cls-283" d="M362.72,309h-5.41v-1.07h2.21V301.6l-2.06,1.12-.42-1,2.74-1.45h1v7.58h1.93Z"/><path class="cls-284" d="M211.75,399a7.69,7.69,0,0,1-.2,1.8,4.15,4.15,0,0,1-.6,1.4,3,3,0,0,1-1,.9,2.92,2.92,0,0,1-1.4.32,3,3,0,0,1-1.25-.26,2.56,2.56,0,0,1-1-.8,4,4,0,0,1-.62-1.38,8.2,8.2,0,0,1-.22-2,7.69,7.69,0,0,1,.2-1.8,4.38,4.38,0,0,1,.6-1.4,2.9,2.9,0,0,1,1-.91,3,3,0,0,1,1.4-.32,2.83,2.83,0,0,1,1.25.27,2.47,2.47,0,0,1,1,.8,3.83,3.83,0,0,1,.62,1.38A7.72,7.72,0,0,1,211.75,399Zm-5.1,0c0,.14,0,.27,0,.41s0,.27,0,.39l3.64-2.69a3.38,3.38,0,0,0-.25-.61,2,2,0,0,0-.36-.48,1.52,1.52,0,0,0-.48-.31,1.51,1.51,0,0,0-.61-.11,1.58,1.58,0,0,0-.81.21,1.85,1.85,0,0,0-.62.65,3.36,3.36,0,0,0-.4,1.07A7.05,7.05,0,0,0,206.65,398.94Zm3.94.08c0-.15,0-.3,0-.45l0-.43-3.64,2.71a3,3,0,0,0,.25.63,2.06,2.06,0,0,0,.36.5,1.6,1.6,0,0,0,.49.32,1.52,1.52,0,0,0,.62.12,1.58,1.58,0,0,0,.81-.22,1.87,1.87,0,0,0,.63-.65,3.45,3.45,0,0,0,.39-1.06A7.05,7.05,0,0,0,210.59,399Z"/><path class="cls-285" d="M294.27,355a7.69,7.69,0,0,1-.2,1.8,4.15,4.15,0,0,1-.6,1.4,2.77,2.77,0,0,1-1,.9,3.18,3.18,0,0,1-2.65.06,2.49,2.49,0,0,1-1-.8,3.83,3.83,0,0,1-.62-1.38,8.61,8.61,0,0,1,0-3.78,4.06,4.06,0,0,1,.6-1.4,2.7,2.7,0,0,1,1-.9,2.83,2.83,0,0,1,1.39-.32,2.87,2.87,0,0,1,1.26.26,2.47,2.47,0,0,1,1,.8,4,4,0,0,1,.62,1.38A8.2,8.2,0,0,1,294.27,355Zm-5.1,0v.41a2.38,2.38,0,0,0,0,.39l3.64-2.69a3.38,3.38,0,0,0-.25-.61,2.26,2.26,0,0,0-.37-.48,1.52,1.52,0,0,0-.48-.31,1.64,1.64,0,0,0-.6-.11,1.58,1.58,0,0,0-.81.21,1.87,1.87,0,0,0-.63.65,3.62,3.62,0,0,0-.39,1.07A7.05,7.05,0,0,0,289.17,355Zm3.94.08c0-.15,0-.3,0-.44s0-.29,0-.44l-3.64,2.71a3.6,3.6,0,0,0,.25.63,1.71,1.71,0,0,0,.37.5,1.34,1.34,0,0,0,.49.32,1.49,1.49,0,0,0,.62.12,1.61,1.61,0,0,0,.81-.22,1.77,1.77,0,0,0,.62-.65,3.35,3.35,0,0,0,.4-1.06A7.05,7.05,0,0,0,293.11,355Z"/></g></g></g></g></svg>