<svg xmlns="http://www.w3.org/2000/svg" viewBox="0 0 215 215"><defs><style>.cls-1,.cls-4,.cls-5{fill:#fff;}.cls-2{fill:#c8dff1;}.cls-3{fill:#d3e5f4;}.cls-4{opacity:0.4;}.cls-4,.cls-5{isolation:isolate;}.cls-5{opacity:0.7;}.cls-6{fill:#77addb;}.cls-7{fill:#1c77c3;}.cls-8{fill:#1a72ad;}.cls-9{fill:#0e3c62;}</style></defs><g id="tpex"><rect class="cls-1" x="-96.2" y="-43.65" width="1331.61" height="264.77"/></g><g id="Layer_1" data-name="Layer 1"><path class="cls-2" d="M55.92,56.46A18.81,18.81,0,0,0,19.19,48.3a19.22,19.22,0,0,0-.44,4.07v.18A11.46,11.46,0,0,0,20.06,75.4H61.37A14.73,14.73,0,0,0,55.92,56.46Z"/><path class="cls-3" d="M32.23,64.63a18.85,18.85,0,0,0,16.91-27.1A18.82,18.82,0,0,0,18.75,52.37v.13a11.45,11.45,0,0,0-9,16.38,8.72,8.72,0,0,0,3.56.76,8.82,8.82,0,0,0,8.78-8A18.72,18.72,0,0,0,32.23,64.63Z"/><path class="cls-2" d="M67.85,59.39a12.83,12.83,0,0,0-25.36,2.74,14.45,14.45,0,0,0,.16,1.52,5.88,5.88,0,0,0,.12,11.75c.17,0,.32,0,.49-.05l0,.05H70.4A8,8,0,0,0,76,69C76.76,63,72.68,58.58,67.85,59.39Z"/><path class="cls-3" d="M55.55,49.31A12.85,12.85,0,0,1,67.34,67.22,12.82,12.82,0,0,1,47.06,52.55,12.84,12.84,0,0,1,55.55,49.31Z"/><path class="cls-4" d="M19.64,72.59a.54.54,0,1,0,.54.53.53.53,0,0,0-.54-.53Z"/><circle class="cls-5" cx="21.48" cy="73.12" r="0.54"/><circle class="cls-1" cx="23.32" cy="73.12" r="0.54"/><path class="cls-2" d="M175.44,175.44a26,26,0,1,0-51.29-5.64V170A15.81,15.81,0,0,0,126,201.57h57A20.32,20.32,0,0,0,175.44,175.44Z"/><path class="cls-3" d="M142.75,186.71a26,26,0,0,0,23.33-37.38,26,26,0,0,0-41.93,20.47V170a15.86,15.86,0,0,0-14,15.75,15.69,15.69,0,0,0,1.59,6.86,12,12,0,0,0,4.9,1,12.14,12.14,0,0,0,12.11-11A25.82,25.82,0,0,0,142.75,186.71Z"/><path class="cls-2" d="M191.89,179.48a17.7,17.7,0,0,0-35,3.79,20.45,20.45,0,0,0,.21,2.1,8.11,8.11,0,0,0,.18,16.2c.23,0,.44,0,.67-.07l0,.07h37.42a11,11,0,0,0,7.71-8.88C204.18,184.49,198.56,178.37,191.89,179.48Z"/><path class="cls-3" d="M174.93,165.58a17.71,17.71,0,0,1,16.26,24.71,17.69,17.69,0,0,1-28-20.25A17.7,17.7,0,0,1,174.93,165.58Z"/><path class="cls-4" d="M125.38,197.69a.74.74,0,1,0,.74.74.74.74,0,0,0-.74-.74Z"/><circle class="cls-5" cx="127.92" cy="198.43" r="0.74"/><circle class="cls-1" cx="130.46" cy="198.43" r="0.74"/><path class="cls-6" d="M134.89,84c.56,0,1.12,0,1.68.07a16.11,16.11,0,0,0,1.81-.2,13.24,13.24,0,0,0,3.36-.71,8.34,8.34,0,0,0,1.66-.59,1.9,1.9,0,0,0,.43.41l.08.2.26.21a1.18,1.18,0,0,0,.34.32l.34.41c.08.1.26.21.35.31l.44.24L146,85l-.35-.31-.34-.32A1.32,1.32,0,0,0,145,84c-.08-.1-.26-.21-.34-.31a.73.73,0,0,0-.34-.41l-.08-.2-.16-.2a2.42,2.42,0,0,1-.58-.81c-.16-.3-.33-.51-.49-.8a4,4,0,0,0-.39-.89,8.58,8.58,0,0,0-.19-1c-.06-.29-.13-.57-.19-1a13.65,13.65,0,0,1,.09-1.87,14.2,14.2,0,0,1,.56-1.83,14.78,14.78,0,0,1,.82-1.71,3.89,3.89,0,0,0,.55-.79h.09a.52.52,0,0,0,.06.38c.06.29,0,.48.11.76a2,2,0,0,0,.32.6,5.45,5.45,0,0,0,.63,1.28,9.11,9.11,0,0,0,.84,1c.17.2.35.31.52.52l.53.33a5.07,5.07,0,0,0,.61.44c.1,0,.18.11.27.12s.28.12.36.22a.35.35,0,0,1,.27.12c.09,0,.18.11.36.13a6.66,6.66,0,0,0,.64.25l.28,0c.08.1.18.11.36.13l.27.12.38,0-.37-.13-.27-.12-.36-.13a.37.37,0,0,0-.27-.12,1.72,1.72,0,0,0-.45-.23,5.64,5.64,0,0,1,.83-.76,6.57,6.57,0,0,1,1.4-.9,2.94,2.94,0,0,1,1.55-.42,2.77,2.77,0,0,1,1.46.43,3.55,3.55,0,0,1,1.32,1,14.33,14.33,0,0,1,1.19,1.25,2.63,2.63,0,0,1,.42.6c-.19,0-.29.07-.48,0a3.21,3.21,0,0,0-1.45.42,2.81,2.81,0,0,0-1.13.93,4.63,4.63,0,0,0-.69,1.34l0,.19a.09.09,0,0,1-.1.08.6.6,0,0,1-.13.37,1.43,1.43,0,0,1-.24.54,7.12,7.12,0,0,1-.76,1.05,9.15,9.15,0,0,1-1,.85,1.88,1.88,0,0,1-.5.32,1.81,1.81,0,0,1-.59.32c-.2.08-.4.25-.6.32a1.22,1.22,0,0,1-.58.13,6.68,6.68,0,0,1-1.35.34,5.12,5.12,0,0,1-1.32.06,6.35,6.35,0,0,1-1.31,0,20.72,20.72,0,0,1-2.58-.63,4.81,4.81,0,0,1-1.27-.5,5,5,0,0,1-1.27-.5L134.89,84Z"/><path class="cls-7" d="M149,73l-.08.75c0,.47.11.85.16,1.33s.29.87.43,1.36a2.05,2.05,0,0,1,.23.49c-.3.25-.52.52-.82.77h0c-.09-.1-.18-.11-.27-.22l-.53-.33a2,2,0,0,1-.52-.43,4.06,4.06,0,0,1-1-.84l-.42-.51a1.87,1.87,0,0,1-.33-.51c.32-.43.64-.78,1-1.22a18.17,18.17,0,0,1,1.43-1.18c.31-.25.61-.41.81-.58h.1c-.11.08-.12.27-.14.46L149,73Z"/><path class="cls-8" d="M154,77.3a.43.43,0,0,0,0,.57.36.36,0,0,0,.57,0,.36.36,0,0,0,0-.57.45.45,0,0,0-.57,0Z"/><path class="cls-6" d="M60.8,158.63a14.08,14.08,0,0,0,2.23-.24l2.22-.5a30.44,30.44,0,0,0,4.4-1.74A16,16,0,0,0,71.71,155c.14.24.39.36.53.6l.26.11.26.23a1,1,0,0,1,.53.47c.25.12.38.23.64.34s.39.23.52.35l.51.35.64.21-.52-.34-.52-.35a1,1,0,0,1-.52-.47,1.61,1.61,0,0,1-.52-.35l-.52-.47-.27-.23-.26-.24a6.74,6.74,0,0,1-.8-.95,7.52,7.52,0,0,1-.8-1c-.27-.36-.42-.73-.69-1.09a13,13,0,0,1-.56-1.21c-.15-.37-.17-.74-.32-1.23a8.29,8.29,0,0,1-.26-2.49,8.76,8.76,0,0,1,.36-2.51,17.67,17.67,0,0,1,.75-2.42c.22-.38.33-.76.56-1.15h0c.13.24.14.37.28.61a3,3,0,0,0,.3.86,7.49,7.49,0,0,1,.42.85,11.67,11.67,0,0,0,1.2,1.43,5.89,5.89,0,0,0,1.31,1.18c.26.23.52.34.78.58s.52.34.78.45a4.67,4.67,0,0,0,.89.33c.13.12.25.11.39.23a.45.45,0,0,1,.38.1c.24,0,.38.11.5.1s.26.11.38.1a7.42,7.42,0,0,1,.89.21.7.7,0,0,1,.5.09l.37,0,.51.1.37,0-.38-.1-.38-.11-.5-.1c-.13,0-.26-.11-.38-.1s-.51-.1-.76-.21l1-1.18a9.31,9.31,0,0,1,1.67-1.46,5.81,5.81,0,0,1,1.83-.85,5.89,5.89,0,0,1,2.13.25,7.68,7.68,0,0,1,1.93,1,19.59,19.59,0,0,1,1.7,1.41,4.91,4.91,0,0,1,.8.83l-.75,0a6,6,0,0,0-1.83.85,5.33,5.33,0,0,0-1.28,1.57,7.18,7.18,0,0,0-.53,1.77v.25c-.11.13-.11.13-.11.26a.44.44,0,0,1-.1.38c-.11.25-.1.5-.21.76a11,11,0,0,1-.91,1.55,3.61,3.61,0,0,1-1.06,1.3l-.58.66-.73.41a2.6,2.6,0,0,1-.72.54,5.17,5.17,0,0,1-.85.42c-.49.16-1.1.44-1.59.59a8.15,8.15,0,0,1-1.73.34,8.27,8.27,0,0,1-1.74.22,17.85,17.85,0,0,1-3.63-.3l-1.77-.28c-.51-.22-1.14-.31-1.65-.53l-7.24,0Z"/><path class="cls-9" d="M77,141.27a2.66,2.66,0,0,1,.18,1A7.08,7.08,0,0,0,77.6,144c.28.61.56,1.22.84,1.71.14.24.27.36.41.6-.36.39-.58.78-.94,1.17h0c-.12,0-.25-.11-.38-.1a2.18,2.18,0,0,1-.9-.45l-.76-.34c-.4-.35-.92-.69-1.31-1a1.5,1.5,0,0,1-.66-.59,1.87,1.87,0,0,1-.52-.47c.34-.64.68-1.28,1-1.8a8.4,8.4,0,0,1,1.65-2c.35-.27.58-.66.94-.93h0l0,.62c0,.25-.09.63-.08.88Z"/><path class="cls-9" d="M84.32,146c-.23.26-.09.5.17.74a.58.58,0,0,0,.74-.17c.11-.25.09-.63-.17-.74a.47.47,0,0,0-.74.17Z"/><path class="cls-7" d="M191.61,74a6.79,6.79,0,0,0-.6,1.6L190.83,77c-.44,0-.75.19-1.18.23a15.11,15.11,0,0,0-1.87,1A14.17,14.17,0,0,0,186,79.22a3.79,3.79,0,0,0-.81.63,8.44,8.44,0,0,0-.82.53c-.2.13-.31.14-.52.28,0-.11.09-.23.08-.34a5.62,5.62,0,0,1,.34-.92c.07-.33.26-.57.34-.91s.26-.58.46-.82.26-.57.46-.81l.58-.72c.19-.24.5-.39.7-.63s.5-.38.7-.62c.52-.27,1-.66,1.54-.93a11,11,0,0,1,1.81-.53,2.69,2.69,0,0,1,.85-.2l.22,0h-.11a5.85,5.85,0,0,0-.24.79Z"/><path class="cls-6" d="M171,83.14a11.46,11.46,0,0,0,1.91.45l2.1.11a13.78,13.78,0,0,0,2.07-.12,11.8,11.8,0,0,0,1.92-.43,11.55,11.55,0,0,0,2-.54,14.84,14.84,0,0,0,1.89-.75c.61-.4,1.24-.69,1.85-1.08a6.9,6.9,0,0,1,.82-.53,4.86,4.86,0,0,0,.82-.53c.62-.39,1.25-.68,1.76-1a7,7,0,0,1,1.88-.86,10.65,10.65,0,0,1,1.82-.42,3.45,3.45,0,0,1,1,.11c.23.09.57.16.79.25a4.13,4.13,0,0,1,.82.46c.24.19.49.49.73.68l1.15,1.52c.29.63.58,1.26.85,1.78.15.31.29.62.43.94a5.73,5.73,0,0,1-.79-.25,4.06,4.06,0,0,0-2,.11,3.47,3.47,0,0,0-1.67.83,5.18,5.18,0,0,0-1.16,1.44l-.19.24a.11.11,0,0,1-.1.12l-.09.12c0,.11-.1.12-.09.23-.19.24-.4.37-.59.61a6,6,0,0,1-1.31,1l-.62.4a.11.11,0,0,0,.1-.12c.08-.23.28-.47.36-.7a4.41,4.41,0,0,1,.35-.8,2.72,2.72,0,0,0,.47-.71c.2-.24.28-.47.48-.71s.39-.37.48-.6l.29-.36.29-.36.29-.36.19-.24-.3.25-.3.25a2.87,2.87,0,0,1-.59.61,3.14,3.14,0,0,1-.59.61l-.58.72c-.1.13-.09.23-.19.35l-.29.36c-.19.24-.27.47-.47.71s-.28.47-.47.71a4.89,4.89,0,0,0-.35.81,3.81,3.81,0,0,0-.35.8c-.09.23-.16.57-.25.79a10.41,10.41,0,0,0-.36,1.69c-.08.33,0,.66-.12.89s0,.66,0,.88l.09.86,0,.33-.22,0a2,2,0,0,0-.78-.13,6.54,6.54,0,0,1-.8-.35,2.27,2.27,0,0,1-.7-.37,4.62,4.62,0,0,1-1.09-1,6.08,6.08,0,0,1-.82-1.44c0-.22-.16-.53-.19-.75l-.09-.87-.08-.75a2.37,2.37,0,0,1,0-.88l0-.22,0-.22c.09-.12.08-.23.06-.44s.08-.23.07-.34,0-.32.06-.44a.72.72,0,0,1,.06-.45.79.79,0,0,1,.07-.44.72.72,0,0,1,.06-.45.4.4,0,0,1,.07-.34,4.89,4.89,0,0,0-.35.81c0,.11-.09.23-.07.34s-.08.33-.17.45-.08.34-.07.45-.08.23-.06.44a.44.44,0,0,0-.07.34.78.78,0,0,0-.06.44c-.09.23,0,.56-.14.79a.39.39,0,0,0-.33-.08,9.86,9.86,0,0,1-1.71-.58,11.5,11.5,0,0,1-3-1.54c-.47-.28-1-.66-1.41-.94a12.68,12.68,0,0,0-1.43-1l-3.14-1.64Z"/><path class="cls-9" d="M194.16,80.42a.48.48,0,0,0,.48.39.5.5,0,0,0,.5-.49.51.51,0,0,0-.6-.48.49.49,0,0,0-.38.58Z"/><path class="cls-6" d="M103.71,137h.12c.26.23.63.33.89.56a10.19,10.19,0,0,1,1,.3c.24,0,.36,0,.49.1s.37.1.49.09a1.1,1.1,0,0,1,.61.09l.49,0c.12,0,.25.11.49.09l.49,0,1-.06,1.09-.06a.92.92,0,0,0,.48-.15l.48,0-.48,0-.49,0a3.4,3.4,0,0,0-1.1-.06l-.48,0c-.13-.12-.25-.11-.49-.1l-.5-.09a1,1,0,0,1-.49-.09l-.48,0a.12.12,0,0,0-.13-.11l-.25-.11c-.24,0-.36,0-.49-.09s-.37-.1-.49-.1a2.75,2.75,0,0,1-.88-.43,3.15,3.15,0,0,1-.88-.44c-.25-.11-.5-.34-.75-.44a3,3,0,0,1-.65-.7,7,7,0,0,1-1.06-1.52c-.14-.23-.28-.59-.41-.83s-.16-.6-.3-1-.16-.6-.18-1v-.24c.13.12.13.12.25.11s.62.21.87.31.61.09,1,.07.61.09.86.19l1.94-.11a1.94,1.94,0,0,0,.84-.17c.36,0,.6-.15,1-.17a6.83,6.83,0,0,0,1.67-.71c.24,0,.35-.14.47-.14s.24-.14.35-.27a4.93,4.93,0,0,0,.83-.41c.24-.13.59-.4.82-.53s.47-.39.7-.53.47-.39.7-.65l.35-.26c0-.12.1-.25.22-.38l-.35.27-.35.26a2.94,2.94,0,0,1-.7.53c-.12.12-.24.13-.35.26s-.36.14-.47.27l-.71.4c3.23-5.17,6.38-7.66,13.2-1a4.27,4.27,0,0,0-4.87,4.17c-.67,5.27-7.06,10.5-17.46,7.32l-3.66-.16a14.08,14.08,0,0,0,5.82-2.4Z"/><path class="cls-9" d="M109.88,128.83a2.85,2.85,0,0,1-.45.63.87.87,0,0,1-.48.27,8.47,8.47,0,0,0-.83.29c-.24,0-.48.15-.72.17h0a3.09,3.09,0,0,0-.53-.82,2.37,2.37,0,0,1-.3-.84,2.87,2.87,0,0,1-.29-1,9.25,9.25,0,0,1-.23-1.81c.1-.37.09-.61.19-1a2.48,2.48,0,0,1,.19-.87,5.09,5.09,0,0,1,.32-.86c0-.13,0-.25.11-.25a.11.11,0,0,0,.12.11,3.45,3.45,0,0,0,.65.69c.26.23.39.47.65.7s.51.33.76.44a11,11,0,0,0,1.75.87,1.89,1.89,0,0,0,.87.44h.13a3.32,3.32,0,0,0-.8,1c-.33.51-.78,1.14-1.11,1.77Z"/><path class="cls-9" d="M118,126.42c.14.23.38.22.62.09a.44.44,0,0,0,.2-.62.49.49,0,0,0-.74-.21c-.23.14-.34.39-.08.74Z"/><path class="cls-6" d="M70.22,75l.09,0a2.73,2.73,0,0,0,.66.51,2.16,2.16,0,0,0,.58.49c.18,0,.25.15.35.17s.26.14.44.18.17.13.35.16a.83.83,0,0,1,.35.16l.37.08.36.07a3.55,3.55,0,0,0,1.57.3l.37.07.36.07-.36-.07L75.36,77l-.83-.16-.35-.17a.6.6,0,0,1-.35-.16l-.37-.07a.36.36,0,0,0-.26-.15.78.78,0,0,0-.35-.16.32.32,0,0,1-.16-.13l-.19,0c-.16-.13-.26-.15-.33-.26s-.26-.14-.35-.16a2.33,2.33,0,0,1-.57-.49,1.82,1.82,0,0,1-.48-.48A1,1,0,0,1,70.3,74c-.15-.22-.31-.35-.46-.57-.21-.42-.3-.92-.49-1.43,0-.2,0-.38-.06-.68s0-.48,0-.77a1.46,1.46,0,0,0,0-.66l0-.19.18,0c.17.13.43.27.59.4s.45.18.7.33a1.68,1.68,0,0,0,.63.21,8.15,8.15,0,0,0,1.45.38,1.63,1.63,0,0,0,.66,0,2.14,2.14,0,0,0,.76,0,8,8,0,0,0,1.45-.1c.09,0,.2-.06.29,0s.3,0,.41-.11l.6-.17a4.28,4.28,0,0,0,.72-.25c.2,0,.42-.2.62-.26s.42-.2.64-.35l.31-.13.33-.22-.31.13L79,69.8a4.6,4.6,0,0,1-.72.24c-.11.08-.2.06-.31.13s-.2.06-.31.13a1.23,1.23,0,0,1-.59.08c3.36-3.07,6.29-4.41,9.92,2a3.33,3.33,0,0,0-4.51,2.09c-1.5,3.81-7.25,6.42-14.39,1.89l-2.7-.8A11.42,11.42,0,0,0,70.22,75Z"/><path class="cls-7" d="M76.69,70.11a2.18,2.18,0,0,1-.48.48c-.11.07-.29,0-.4.11s-.48,0-.66,0a1.1,1.1,0,0,1-.57,0h0a4.27,4.27,0,0,1-.15-.69,3.53,3.53,0,0,1-.15-.7c-.06-.2,0-.48-.06-.68l.28-1.47a1.85,1.85,0,0,1,.31-.61,2.31,2.31,0,0,1,.32-.7c.13-.16.28-.42.4-.59s.11-.07.13-.17c0,.1.08.11.06.21.15.22.2.42.35.64s.32.34.37.55.32.34.47.56c.4.37.72.71,1,1a3.26,3.26,0,0,1,.57.49l.09,0c-.22.15-.45.39-.67.54-.46.38-.82.79-1.26,1.09Z"/><path class="cls-9" d="M83.21,69.94a.38.38,0,0,0,.51.29A.35.35,0,0,0,84,69.8a.46.46,0,0,0-.52-.29.34.34,0,0,0-.27.43Z"/><path class="cls-6" d="M107.67,77.64c.12.06.12.06.15.15a1.33,1.33,0,0,1,.37.28c.12.06.14.15.26.22l.35.19a1.64,1.64,0,0,0,.63.49l.7.39.35.19.35.19a1.58,1.58,0,0,1-.38-.28l-.26-.22c-.23-.13-.37-.28-.6-.41l-.29-.3-.35-.2-.28-.3c-.12-.07-.14-.16-.26-.22s-.17-.24-.29-.31,0-.09-.14-.15l-.14-.15c0-.09-.14-.16-.17-.25s-.17-.24-.28-.3A2.39,2.39,0,0,0,107,76c-.08-.27-.23-.42-.31-.69a2.12,2.12,0,0,1-.21-.72l-.21-.72a5.69,5.69,0,0,1,.08-1.39,1.62,1.62,0,0,1,.18-.74,3.89,3.89,0,0,1,.18-.73,2.89,2.89,0,0,0,.29-.67c.09,0,.06-.12.15-.14l0,.18a3.49,3.49,0,0,1,.46.55,2.24,2.24,0,0,1,.54.52c.14.15.38.28.52.43a13,13,0,0,0,1.24.91,2.39,2.39,0,0,1,.67.29c.23.13.44.17.67.29a7.73,7.73,0,0,0,1.38.38,1.32,1.32,0,0,0,.41.07c.09,0,.21,0,.3,0a4.37,4.37,0,0,1,.71.08c.29,0,.5,0,.79.06s.48,0,.66-.09.48-.05.77,0l.27-.07a.74.74,0,0,0,.39,0l-.39,0-.29,0a2.54,2.54,0,0,0-.69,0c-.2,0-.29,0-.41-.08s-.2,0-.29,0a4.12,4.12,0,0,1-.71-.08c-.09,0-.12-.07-.21,0,3.51-2.69,6.41-3.44,9.58,3a3.3,3.3,0,0,0-4.66,1.76c-1.8,3.84-7.9,6-14.83,1l-2.63-1a13.38,13.38,0,0,0,6.22-.74Z"/><path class="cls-7" d="M120,73.82c0,.21.19.34.49.35a.4.4,0,0,0,.25-.47c-.08-.27-.22-.42-.49-.34a.39.39,0,0,0-.25.46Z"/><path class="cls-6" d="M33.7,176A.42.42,0,0,1,34,176a1.84,1.84,0,0,1,.54.19,1.84,1.84,0,0,1,.54.19l.52.06c.4.08.67.17,1.06.25a3,3,0,0,1,1,.12.74.74,0,0,1,.52.06l.51-.07c-.13,0-.4-.07-.52-.06l-.53-.06c-.27-.09-.66-.17-.93-.26l-.54-.19c-.15-.11-.4-.08-.54-.19l-.42-.2a.65.65,0,0,1-.53-.19c-.13,0-.27-.09-.42-.21s-.25,0-.27-.09l-.27-.09a.73.73,0,0,1-.41-.21l-.43-.33a3.32,3.32,0,0,1-.84-.53,3.22,3.22,0,0,1-.73-.68c-.29-.22-.45-.46-.73-.68s-.34-.6-.5-.84a11,11,0,0,1-.75-1.83l-.13-1-.13-1a2.16,2.16,0,0,1,.14-.92l0-.25.15.11a3,3,0,0,0,.95.39,2.52,2.52,0,0,0,.82.41,7.75,7.75,0,0,0,1,.39,11.74,11.74,0,0,0,2,.39,2.28,2.28,0,0,0,.9,0,3.2,3.2,0,0,0,1,0,10.27,10.27,0,0,0,1.92-.12.87.87,0,0,1,.49-.19l.5-.07c.24-.16.62-.21.86-.37s.61-.21,1-.26.6-.33.84-.49a2.39,2.39,0,0,0,.86-.37l.34-.3c.26,0,.37-.18.49-.19l-.49.19-.36.18c-.38,0-.62.2-1,.25a.45.45,0,0,1-.36.18.82.82,0,0,1-.49.19c-.26,0-.62.21-.87.24l-.26,0c2.94-5.15,6.23-7.64,13.5-1.23A4.64,4.64,0,0,0,48,171.13c-.3,5.58-6.63,11.42-17.92,8.76l-3.71.22A16.76,16.76,0,0,0,33.7,176Z"/><path class="cls-9" d="M46.76,164.82a.47.47,0,0,0,.67.17c.36-.18.33-.43.15-.8s-.41-.2-.65,0a.4.4,0,0,0-.17.67Z"/><path class="cls-6" d="M34.51,60.14l.4.61a2.52,2.52,0,0,0,.32.6c.15.12.2.31.33.51l.4.61.42.53a1.81,1.81,0,0,0,.34.51l.22.23.2.3a2.65,2.65,0,0,1,.42.53l.52.46c.13.21.28.33.42.53s.28.33.43.45l.52.46c.07.1.14.2.22.22l.3.24.52.46,1.59,1.3-1.23-1.31.29-.12a.41.41,0,0,1,.29-.11c.2-.14.39-.19.59-.32l.56-.15a3.9,3.9,0,0,0,.65-.13,1.55,1.55,0,0,1,.61,0l.34.07.08,0,.17,0,.08,0,.09,0,.15.12.09,0c.08,0,.08,0,.15.12a.28.28,0,0,1,.23.13l.15.12.17,0a.09.09,0,0,0,.07.1l.15.12c.07.1.14.21.22.22l.2.31a.09.09,0,0,1,.07.1l.15.12c0,.09.05.19.11.29s.16.12.22.22l.2.31.12.29a.48.48,0,0,1,.12.29l.2.31.11.28c.07.11.05.19.12.29a.29.29,0,0,0-.15-.12,3.76,3.76,0,0,0-.92-.28l-.81.1a6,6,0,0,0-.87.35,4.53,4.53,0,0,0-.64.57,7.07,7.07,0,0,0-1,1.29l-.16.32-.12.15c0,.09,0,.09-.12.16l-.15.32-.24.3c-.34.37-.67.65-1,1a9.85,9.85,0,0,1-1.21.72,8.61,8.61,0,0,1-1.41.41l-.19,0a.24.24,0,0,0-.18,0l-.36,0a1.9,1.9,0,0,0-.71,0l-.17,0-.17,0a.82.82,0,0,0-.44,0l-.67-.14c-.51-.11-1-.3-1.42-.39s-1-.46-1.37-.64l-.32-.15-.41-.17c-.06-.11-.15-.12-.3-.24L31.78,74c-.07-.1-.23-.14-.3-.24l-.32-.15c-.07-.11-.24-.14-.3-.24l-.31-.24L30.23,73l-.3-.24a2.68,2.68,0,0,0-.61-.48l-.06-.1.08,0a.3.3,0,0,0,.24.13l.25.06.25,0,.26,0,.51.11.25,0,.25.06a.33.33,0,0,0,.27,0l.26.06c.17,0,.35,0,.52,0l.27,0a.32.32,0,0,1,.28,0l.1-.07.08,0c.1-.07.19-.05.29-.12l.27,0c.09,0,.1-.07.21-.14l.17,0,.1-.07.2-.13a1.67,1.67,0,0,0,.5-.25l.2-.13.2-.14c.11-.06.21-.13.23-.22l1,1.27-1.24-2.12c-.13-.2-.25-.49-.38-.69s-.25-.5-.37-.79a4.4,4.4,0,0,1-.36-.78c0-.18-.17-.47-.28-.76l-.1-.38c-.09,0-.07-.1-.14-.2l0-.19-.1-.37-.1-.37,0-.28,0-.18a.62.62,0,0,1-.1-.38l-.08-.45a.26.26,0,0,0-.05-.19l0-.17,0-.27L33,64c0-.08,0-.27,0-.35a2.11,2.11,0,0,0,0-.44c0-.17,0-.28,0-.44l.07-.34a3.15,3.15,0,0,0,0-.44l.18-.85.12-.15,0-.17.06-.25a.26.26,0,0,1,.12-.15,2.39,2.39,0,0,1,.33-.73c0-.08,0-.08.12-.15s0-.09.12-.15.06.1,0,.18a2.21,2.21,0,0,1,.32.6Z"/><path class="cls-7" d="M30.19,61.8a1.86,1.86,0,0,0,.61.48,2.21,2.21,0,0,0,.52.46,5.62,5.62,0,0,0,.61.48c.15.12.32.15.38.25s.07.11,0,.19a3.17,3.17,0,0,1,0,.44l0,.19.05.19,0,.18-.06.26.1.37c.05.19.12.29.08.46l0,.18.14.21.09.37.1.38.14.2c0,.08,0,.17.05.19l.18.39a1.87,1.87,0,0,0,.28.76c.12.29.25.5.37.79s.25.49.38.69a4.39,4.39,0,0,1,.47.72l.47.71-.21.14a.08.08,0,0,0-.1.06c-.15-.12-.22-.22-.3-.24l-.66-.66a2.86,2.86,0,0,1-.59-.57c-.22-.22-.35-.42-.57-.64l-.28-.33L32.49,69l-.14-.2-.2-.31a1.1,1.1,0,0,1-.28-.32,3.82,3.82,0,0,1-.47-.72L31.22,67l-.2-.31c-.07-.1-.21-.3-.19-.39s-.11-.29-.18-.39l-.18-.39-.1-.37-.18-.4-.09-.45A.7.7,0,0,0,30,64l0-.17-.07-.1,0-.17-.09-.81c0-.26,0-.53.07-.78l.05-.25h0c.07.1.07.1.15.12Z"/><path class="cls-9" d="M44.47,68.22a.46.46,0,0,0,.23.58.42.42,0,0,0,.56-.15.38.38,0,0,0-.23-.58.39.39,0,0,0-.56.15Z"/><path class="cls-9" d="M146.39,105.17a10.05,10.05,0,0,1-.48,1,6.85,6.85,0,0,0-.61,1,6.6,6.6,0,0,1-1.08,1.83,20,20,0,0,1-1.31,1.55,2.71,2.71,0,0,1-.44-.81,7.4,7.4,0,0,1-.41-1.07,4.57,4.57,0,0,1-.4-1.2,5.45,5.45,0,0,0-.13-1.31c0-.38-.06-.77,0-1.16a7.26,7.26,0,0,1,.48-2.27,6,6,0,0,1,1-2.22,7.1,7.1,0,0,1,1.36-2.06c.28-.23.57-.59.85-.82v-.13l-.06.64a8.64,8.64,0,0,1,.17.92,2,2,0,0,0,.18.79,4,4,0,0,0,.61,1.73A9.5,9.5,0,0,0,147,103c.12.14.36.29.47.43-.44.6-.76,1.21-1.06,1.7Z"/><path class="cls-6" d="M146.15,107.31c3.15-5.88,6-9.6,13.29-2.83A4.12,4.12,0,0,0,155,108.3c-.13,0-.24-.16-.37-.17a1.75,1.75,0,0,1-.74-.33,7.58,7.58,0,0,1-.87-.34c-.12-.14-.25-.15-.36-.29s-.24-.15-.37-.17l-.73-.45c-.12-.14-.24-.16-.36-.3l-.36-.29-.24-.15-.36-.29.23.28.36.29c.12.14.23.28.36.29a.27.27,0,0,0,.23.28,2.75,2.75,0,0,0,.72.59c.11.14.24.15.35.29s.25.15.36.29.25.15.37.17.25.15.36.29a1.94,1.94,0,0,0,.74.33,5.11,5.11,0,0,1,.86.47c.25,0,.63.19.88.21a8.39,8.39,0,0,0,1.78.3,9,9,0,0,0,1.8.05c.26-.1.65-.07.91-.17a6.83,6.83,0,0,1,.93-.3,1,1,0,0,0,.54-.2v.13l-.5,1.11a4.87,4.87,0,0,0-.62,1.1,2.87,2.87,0,0,0-.74,1,22.2,22.2,0,0,1-1.84,1.75,7.57,7.57,0,0,1-2,1.22,7.32,7.32,0,0,0-1.07.41c-.4.09-.92.17-1.32.26-.13,0-.39.09-.52.08s-.4.09-.65.06a4.65,4.65,0,0,0-1.29,0l-1.28-.13c-.38,0-.75-.2-1.13-.23a1,1,0,0,1-.63-.19l-.64-.07-.62-.19-.63-.19.63.19.61.32.5.18a4.81,4.81,0,0,1,.62.19l.26,0c-2.69,1.16-6.2,1.46-10.47.28l-6.77.76s10.1-1.86,14.34-9.7Z"/><path class="cls-9" d="M153.85,102.67a.71.71,0,0,0,.32.68.49.49,0,0,0,.47-.86.62.62,0,0,0-.79.18Z"/></g></svg>