<svg xmlns="http://www.w3.org/2000/svg" xmlns:xlink="http://www.w3.org/1999/xlink" viewBox="0 0 320 220"><defs><style>.a,.q,.r{fill:none;}.b{isolation:isolate;}.c{clip-path:url(#a);}.d{fill:#b6d4ec;}.e{fill:#124e77;opacity:0.21;}.ag,.f,.m{fill:#fff;}.f{stroke:#dce2f2;}.f,.q,.r{stroke-miterlimit:10;}.g{fill:#dce2f2;}.h{fill:#155992;}.i{fill:#146aae;}.j{fill:#6588ab;}.k{fill:#2295bc;}.l{fill:#fc0;}.n{fill:#d8d7d6;}.o{fill:#f5f3f2;}.p{fill:#f6a71c;}.q,.r{stroke:#bec8d2;stroke-width:0.25px;}.r{stroke-dasharray:4.76 2.86;}.s{fill:#a4c9e7;}.t{clip-path:url(#b);}.u{fill:#0e3c62;}.v{fill:#176695;}.w{fill:#071e2d;opacity:0.29;}.x{fill:#f0c8b2;}.y{fill:#e5b7a3;}.z{clip-path:url(#c);}.aa{clip-path:url(#d);}.ab{fill:#341f1e;}.ac{fill:#e9bbb1;}.ad{fill:#f0c6bd;}.ae{fill:#c49c80;opacity:0.7;}.af{fill:#d09289;}.ag{opacity:0.49;mix-blend-mode:screen;}.ah{fill:#254e6d;}.ai{fill:#e5ebec;}.aj{fill:#77addb;}.ak{fill:#1c77c3;}.al{fill:#cce4f2;}.am{fill:#f9f9f9;}.an{clip-path:url(#e);}</style><clipPath id="a"><rect class="a" width="320" height="220"/></clipPath><clipPath id="b"><circle class="a" cx="38.31" cy="37.38" r="29.36"/></clipPath><clipPath id="c"><circle class="a" cx="242.94" cy="176.4" r="7.96"/></clipPath><clipPath id="d"><circle class="a" cx="38.61" cy="111.27" r="25.5"/></clipPath><clipPath id="e"><circle class="a" cx="241.54" cy="144.15" r="6.31"/></clipPath></defs><g class="b"><g class="c"><polygon class="d" points="105.75 214.48 314.88 176.77 217.18 3.63 18.33 82.49 105.75 214.48"/><path class="e" d="M206.24,26.86l-3.85-4.8L75,22.26l.24,176.27,3.85,4.8,114.64-.18c6.93,0,12.54-6.4,12.53-14.27Z"/><path class="f" d="M75.33,201.27H185.4A15.63,15.63,0,0,0,201,185.64V22.89H75.33Z"/><rect class="g" x="159" y="61" width="27.96" height="2.57" rx="1.28"/><path class="g" d="M104.77,180.82H82.26a.43.43,0,0,1-.45-.41h0a.43.43,0,0,1,.45-.4h22.51a.44.44,0,0,1,.46.4h0A.44.44,0,0,1,104.77,180.82Z"/><path class="g" d="M104.77,183H82.26a.43.43,0,0,1-.45-.4h0a.43.43,0,0,1,.45-.41h22.51a.44.44,0,0,1,.46.41h0A.44.44,0,0,1,104.77,183Z"/><path class="g" d="M128.73,85.08H106.22a.44.44,0,0,1-.46-.4h0a.44.44,0,0,1,.46-.41h22.51a.43.43,0,0,1,.45.41h0A.43.43,0,0,1,128.73,85.08Z"/><path class="g" d="M103.05,85.25H80.54a.43.43,0,0,1-.45-.4h0a.43.43,0,0,1,.45-.41h22.51a.43.43,0,0,1,.45.41h0A.43.43,0,0,1,103.05,85.25Z"/><path class="g" d="M128.73,87.3H106.22a.44.44,0,0,1-.46-.41h0a.44.44,0,0,1,.46-.4h22.51a.43.43,0,0,1,.45.4h0A.43.43,0,0,1,128.73,87.3Z"/><path class="g" d="M103.22,87.13H80.71a.43.43,0,0,1-.45-.41h0a.43.43,0,0,1,.45-.4h22.51a.43.43,0,0,1,.45.4h0A.43.43,0,0,1,103.22,87.13Z"/><path class="g" d="M154.06,85.08H131.55a.43.43,0,0,1-.45-.4h0a.43.43,0,0,1,.45-.41h22.51a.44.44,0,0,1,.46.41h0A.44.44,0,0,1,154.06,85.08Z"/><path class="g" d="M154.06,87.3H131.55a.43.43,0,0,1-.45-.41h0a.43.43,0,0,1,.45-.4h22.51a.44.44,0,0,1,.46.4h0A.44.44,0,0,1,154.06,87.3Z"/><path class="g" d="M189.79,84.39H159.26c-.34,0-.61-.2-.61-.46h0a.55.55,0,0,1,.61-.46h30.53a.55.55,0,0,1,.61.46h0C190.4,84.19,190.13,84.39,189.79,84.39Z"/><path class="g" d="M189.79,86.86H159.26a.55.55,0,0,1-.61-.47h0a.55.55,0,0,1,.61-.46h30.53a.55.55,0,0,1,.61.46h0A.55.55,0,0,1,189.79,86.86Z"/><path class="g" d="M189.79,89.32H159.26a.55.55,0,0,1-.61-.46h0a.55.55,0,0,1,.61-.47h30.53a.55.55,0,0,1,.61.47h0A.55.55,0,0,1,189.79,89.32Z"/><path class="g" d="M132.22,180.62H109.71a.43.43,0,0,1-.45-.41h0a.43.43,0,0,1,.45-.4h22.51a.43.43,0,0,1,.45.4h0A.43.43,0,0,1,132.22,180.62Z"/><path class="g" d="M132.22,182.63H109.71a.43.43,0,0,1-.45-.4h0a.43.43,0,0,1,.45-.41h22.51a.43.43,0,0,1,.45.41h0A.43.43,0,0,1,132.22,182.63Z"/><path class="g" d="M157.4,180.21H134.89a.44.44,0,0,1-.46-.4h0a.44.44,0,0,1,.46-.41H157.4a.43.43,0,0,1,.45.41h0A.43.43,0,0,1,157.4,180.21Z"/><path class="g" d="M192.48,179.15H162.29c-.34,0-.61-.18-.61-.4h0c0-.22.27-.4.61-.4h30.19c.34,0,.61.18.61.4h0C193.09,179,192.82,179.15,192.48,179.15Z"/><path class="g" d="M192.48,181.1H162.29c-.34,0-.61-.18-.61-.4h0c0-.23.27-.41.61-.41h30.19c.34,0,.61.18.61.41h0C193.09,180.92,192.82,181.1,192.48,181.1Z"/><path class="g" d="M192.48,183.05H162.29c-.34,0-.61-.18-.61-.41h0c0-.22.27-.4.61-.4h30.19c.34,0,.61.18.61.4h0C193.09,182.87,192.82,183.05,192.48,183.05Z"/><path class="g" d="M192.48,185H162.29c-.34,0-.61-.18-.61-.4h0c0-.22.27-.4.61-.4h30.19c.34,0,.61.18.61.4h0C193.09,184.81,192.82,185,192.48,185Z"/><path class="g" d="M157.19,182.23h-22.5a.44.44,0,0,1-.46-.41h0a.44.44,0,0,1,.46-.4h22.5a.44.44,0,0,1,.46.4h0A.44.44,0,0,1,157.19,182.23Z"/><path class="g" d="M157.19,184.24h-22.5a.44.44,0,0,1-.46-.4h0a.44.44,0,0,1,.46-.41h22.5a.44.44,0,0,1,.46.41h0A.44.44,0,0,1,157.19,184.24Z"/><rect class="g" x="159" y="56.38" width="23.56" height="2.57" rx="1.28"/><path class="g" d="M179.38,36.93h-9a.56.56,0,0,1-.55-.56h0a.56.56,0,0,1,.55-.57h9a.56.56,0,0,1,.55.57h0A.56.56,0,0,1,179.38,36.93Z"/><path class="g" d="M191.45,36.93h-9a.55.55,0,0,1-.55-.56h0a.55.55,0,0,1,.55-.57h9a.55.55,0,0,1,.54.57h0A.55.55,0,0,1,191.45,36.93Z"/><rect class="g" x="159" y="51.76" width="20.48" height="2.57" rx="1.28"/><rect class="g" x="82.2" y="123.52" width="107.84" height="2.57" rx="1.28"/><rect class="g" x="82.2" y="128.14" width="108.21" height="2.57" rx="1.28"/><rect class="g" x="82.2" y="105.03" width="107.84" height="2.57" rx="1.28"/><rect class="g" x="82.2" y="100.41" width="107.84" height="2.57" rx="1.28"/><rect class="g" x="82.2" y="109.65" width="107.84" height="2.57" rx="1.28"/><rect class="g" x="82.2" y="114.28" width="107.84" height="2.57" rx="1.28"/><rect class="g" x="82.2" y="118.9" width="31.55" height="2.57" rx="1.28"/><rect class="g" x="82.2" y="142.01" width="107.84" height="2.57" rx="1.28"/><rect class="g" x="82.2" y="146.63" width="71.24" height="2.57" rx="1.28"/><rect class="g" x="82.2" y="132.76" width="107.84" height="2.57" rx="1.28"/><rect class="g" x="82.2" y="137.39" width="99.34" height="2.57" rx="1.28"/><rect class="g" x="160.14" y="165.66" width="29.07" height="2.57" rx="1.28"/><rect class="g" x="160.14" y="161.04" width="21.77" height="2.57"/><rect class="g" x="84.02" y="58.95" width="27.96" height="2.57" rx="1.28"/><rect class="g" x="84.02" y="54.32" width="23.56" height="2.57" rx="1.28"/><rect class="g" x="84.02" y="49.7" width="20.48" height="2.57" rx="1.28"/><path class="g" d="M286.52,156.55l2.65-.13-.28-5.81-.29-5.82-.28-5.82-.28-5.82-.29-5.81-2.65.13,0-1a3.14,3.14,0,0,0-3.28-3L231.9,126l-6.19.3a3.08,3.08,0,0,0-2,.8v-.48l-49.92,1.67a3.09,3.09,0,0,0-2.18,1,3.14,3.14,0,0,0-.84,2.24l2.68,80.28a3.11,3.11,0,0,0,3.22,3l49.92-1.66-.29-8.56h0l.26,5.21a3.13,3.13,0,0,0,3.28,3l6.19-.3L286,210a3.14,3.14,0,0,0,3-3.28Zm-60.25,45.93,0-1,0,1Z"/><path class="h" d="M224.45,211.53l-49.92,1.67a3.14,3.14,0,0,1-3.23-3l-2.67-80.28a3.14,3.14,0,0,1,.84-2.24,3.09,3.09,0,0,1,2.18-1L221.57,125Z"/><rect class="i" x="282.58" y="125.81" width="3.13" height="5.83" transform="translate(-5.94 14) rotate(-2.79)"/><rect class="j" x="283.15" y="137.45" width="3.13" height="5.83" transform="translate(-6.5 14.04) rotate(-2.79)"/><rect class="k" x="282.87" y="131.63" width="3.13" height="5.83" transform="translate(-6.22 14.02) rotate(-2.79)"/><rect class="l" x="283.72" y="149.08" width="3.13" height="5.83" transform="matrix(1, -0.05, 0.05, 1, -7.07, 14.09)"/><rect x="283.44" y="143.27" width="3.13" height="5.82" transform="translate(-6.79 14.06) rotate(-2.79)"/><path class="m" d="M233.94,210.85l49.88-2.43a3.12,3.12,0,0,0,2.16-1,3.08,3.08,0,0,0,.81-2.25l-3.92-80.23a3.13,3.13,0,0,0-3.27-3l-49.88,2.44Z"/><path class="g" d="M233.94,210.85l-6.19.3a3.15,3.15,0,0,1-3.29-3L220.55,128a3.14,3.14,0,0,1,3-3.28l6.19-.3Z"/><path class="i" d="M223.43,134.08a1,1,0,0,1-1,1.09l-3.07.15a1,1,0,0,1-1.09-1h0a1.06,1.06,0,0,1,1-1.1l3.07-.15a1.05,1.05,0,0,1,1.09,1Z"/><path class="i" d="M223.68,139.29a1,1,0,0,1-1,1.09l-3.06.15a1,1,0,0,1-1.09-1h0a1,1,0,0,1,1-1.1l3.07-.15a1,1,0,0,1,1.09,1Z"/><path class="i" d="M223.94,144.49a1,1,0,0,1-1,1.1l-3.07.15a1.05,1.05,0,0,1-1.09-1h0a1,1,0,0,1,1-1.09l3.07-.15a1.05,1.05,0,0,1,1.09,1Z"/><path class="i" d="M224.19,149.7a1,1,0,0,1-1,1.1l-3.07.15a1,1,0,0,1-1.09-1h0a1.05,1.05,0,0,1,1-1.09l3.07-.15a1,1,0,0,1,1.09,1Z"/><path class="i" d="M224.45,154.91a1,1,0,0,1-1,1.09l-3.07.15a1,1,0,0,1-1.09-1h0a1.06,1.06,0,0,1,1-1.1l3.07-.14a1,1,0,0,1,1.09,1Z"/><path class="i" d="M224.7,160.12a1,1,0,0,1-1,1.1l-3.07.15a1.05,1.05,0,0,1-1.09-1h0a1,1,0,0,1,1-1.1l3.07-.15a1,1,0,0,1,1.09,1Z"/><path class="i" d="M225,165.34a1,1,0,0,1-1,1.09l-3.07.15a1,1,0,0,1-1.09-1h0a1,1,0,0,1,1-1.1l3.06-.15a1,1,0,0,1,1.09,1Z"/><path class="i" d="M225.21,170.54a1,1,0,0,1-1,1.1l-3.07.15a1.05,1.05,0,0,1-1.09-1h0a1,1,0,0,1,1-1.09l3.07-.15a1.05,1.05,0,0,1,1.09,1Z"/><path class="i" d="M225.46,175.75a1,1,0,0,1-1,1.1l-3.06.15a1.06,1.06,0,0,1-1.1-1h0a1.05,1.05,0,0,1,1-1.09l3.07-.15a1,1,0,0,1,1.09,1Z"/><path class="i" d="M225.72,181a1,1,0,0,1-1,1.09l-3.07.15a1,1,0,0,1-1.09-1h0a1,1,0,0,1,1-1.1l3.07-.15a1,1,0,0,1,1.09,1Z"/><path class="i" d="M226,186.17a1,1,0,0,1-1,1.09l-3.07.15a1,1,0,0,1-1.09-1h0a1.05,1.05,0,0,1,1-1.09l3.07-.15a1,1,0,0,1,1.09,1Z"/><path class="i" d="M226.23,191.38a1.06,1.06,0,0,1-1,1.1l-3.07.15a1.05,1.05,0,0,1-1.09-1h0a1,1,0,0,1,1-1.09l3.07-.15a1,1,0,0,1,1.09,1Z"/><path class="i" d="M226.48,196.59a1,1,0,0,1-1,1.09l-3.07.15a1,1,0,0,1-1.09-1h0a1,1,0,0,1,1-1.09l3.07-.15a1,1,0,0,1,1.09,1Z"/><path class="i" d="M226.73,201.8a1,1,0,0,1-1,1.09l-3.07.15a1,1,0,0,1-1.09-1h0a1,1,0,0,1,1-1.09l3.07-.15a1,1,0,0,1,1.09,1Z"/><path class="h" d="M270.3,142.38l-19.42,1.28c-.54,0-1-.21-1-.56h0c0-.35.4-.66.94-.7l19.42-1.28c.54,0,1,.22,1,.57h0C271.27,142,270.85,142.35,270.3,142.38Z"/><path class="h" d="M270.3,145.11l-19.42,1.28c-.54,0-1-.22-1-.56h0c0-.35.4-.66.94-.7l19.42-1.28c.54,0,1,.22,1,.56h0C271.27,144.76,270.85,145.07,270.3,145.11Z"/><path class="h" d="M270.3,147.84l-19.42,1.28c-.54,0-1-.22-1-.56h0c0-.35.4-.66.94-.7l19.42-1.28c.54,0,1,.21,1,.56h0C271.27,147.49,270.85,147.8,270.3,147.84Z"/><path class="h" d="M272.54,175.55l-19.42,1.28c-.54,0-1-.22-1-.56h0c0-.35.39-.66.94-.7l19.42-1.28c.54,0,1,.21,1,.56h0C273.5,175.2,273.08,175.51,272.54,175.55Z"/><path class="h" d="M272.54,178.28l-19.42,1.28c-.54,0-1-.22-1-.57h0c0-.34.39-.66.94-.69L272.46,177c.54,0,1,.21,1,.56h0C273.5,177.93,273.08,178.24,272.54,178.28Z"/><path class="h" d="M272.54,181l-19.42,1.28c-.54,0-1-.22-1-.57h0c0-.35.39-.66.94-.69l19.42-1.29c.54,0,1,.22,1,.57h0C273.5,180.66,273.08,181,272.54,181Z"/><polygon class="m" points="189.04 164.51 182.25 168.6 183.63 186.28 190.42 182.19 189.04 164.51"/><polygon class="n" points="189.04 164.51 196.38 167.5 197.77 185.17 190.42 182.19 189.04 164.51"/><polygon class="m" points="203.18 163.41 196.38 167.5 197.77 185.17 204.56 181.08 203.18 163.41"/><polygon class="n" points="203.18 163.41 210.53 166.39 211.91 184.07 204.56 181.08 203.18 163.41"/><path class="l" d="M205.63,154.11a11,11,0,0,0-9.11-8,6,6,0,0,0-1.22-.11,9.45,9.45,0,0,0-1.64.11,5.53,5.53,0,0,0-.92.2,10.52,10.52,0,0,0-7.51,6.56,9.08,9.08,0,0,0,.12,7.56,29.77,29.77,0,0,0,3.21,5.15,77.39,77.39,0,0,0,6.75,7.72l1.3,1.3.26-.33a86.26,86.26,0,0,0,4.8-7.18,40.6,40.6,0,0,0,3.53-7.15A9.61,9.61,0,0,0,205.63,154.11Zm-10,7.65a6,6,0,0,1-6.42-5.21l0-.3c0-.11,0-.21,0-.31a6,6,0,0,1,11.94-.93,1.53,1.53,0,0,1,0,.3,3,3,0,0,1,0,.31A6,6,0,0,1,195.6,161.76Z"/><circle class="o" cx="195.13" cy="155.78" r="4.93"/><path class="p" d="M194.75,150.86a4.93,4.93,0,1,1-4.53,5.3,4.94,4.94,0,0,1,4.53-5.3m-.08-1.06a6,6,0,0,0-2.3.65,6,6,0,0,0-2.93,3.43,6,6,0,0,0,.37,4.66,5.78,5.78,0,0,0,1.43,1.8,6,6,0,0,0,6.65.76,5.78,5.78,0,0,0,1.8-1.42,5.94,5.94,0,0,0,1.13-2,5.78,5.78,0,0,0,.29-2.37,5.86,5.86,0,0,0-.65-2.29,6.09,6.09,0,0,0-1.43-1.8,5.75,5.75,0,0,0-2-1.13,5.9,5.9,0,0,0-2.36-.29Z"/><polyline class="q" points="141.53 96.64 141.53 99.14 139.03 99.14"/><line class="r" x1="136.17" y1="99.14" x2="84.27" y2="99.14"/><polyline class="q" points="82.84 99.14 80.34 99.14 80.34 96.64"/><polyline class="q" points="80.34 91.48 80.34 88.98 82.84 88.98"/><line class="r" x1="85.7" y1="88.98" x2="137.6" y2="88.98"/><polyline class="q" points="139.03 88.98 141.53 88.98 141.53 91.48"/><path class="s" d="M82.73,94.84h0c0,.71,1.07,1.29,2.38,1.29h49.1c1.31,0,2.37-.58,2.37-1.29h0c0-.71-1.06-1.28-2.37-1.28H85.11C83.8,93.56,82.73,94.13,82.73,94.84Z"/><rect class="h" x="62.68" y="54.77" width="0.55" height="2.77" transform="matrix(0.77, -0.63, 0.63, 0.77, -21.33, 52.56)"/><path class="h" d="M90.77,90.58l-3.4-4.15.43-.35,3.4,4.15Zm-5.43-6.64-3.4-4.15.43-.35,3.4,4.15Zm-5.43-6.63-3.4-4.15.43-.35L80.34,77Zm-5.43-6.64-3.4-4.15.43-.35,3.4,4.15ZM69.05,64l-3.4-4.15.43-.35,3.4,4.15Z"/><rect class="h" x="93.62" y="92.58" width="0.55" height="2.77" transform="translate(-38.28 80.71) rotate(-39.3)"/><rect class="h" x="53.77" y="114" width="2.77" height="0.55" transform="translate(-44.71 35.99) rotate(-26.14)"/><path class="h" d="M59.56,112.43l-.25-.5,5.06-2.49.25.5Zm8.1-4-.25-.5,5.06-2.49.25.5Zm8.1-4-.25-.5,5.06-2.49.25.5Zm8.1-4-.25-.49,5.06-2.49.25.5Z"/><rect class="h" x="91.69" y="95.37" width="2.77" height="0.55" transform="translate(-32.64 50.84) rotate(-26.17)"/><circle class="h" cx="94.63" cy="95.21" r="2.19"/><g class="t"><path class="u" d="M43.37,41.28V65.81H33V41.28c0,1.83,2.64,3.61,5.24,3.57S43.36,43,43.37,41.28Z"/><path class="v" d="M58.2,67.11H18s1-13.9,2.23-15.66c2.18-3,9.24-5.36,12.78-6.16.05,3.06,2.62,19.16,5.17,19.17l.26-.27c2.55,0,4.83-15.84,4.87-18.9,0,0,10,2.87,12.73,6.62C57.3,53.66,58.2,67.11,58.2,67.11Z"/><path class="j" d="M33.1,42.24l-1.62,2.5a17.76,17.76,0,0,0-1.66,7.54L32.7,51l-1.42,1.15a1.86,1.86,0,0,0-.38,2.46L38.14,65.7V64.56C35.09,58.6,33.1,48,33.1,42.24Z"/><path class="j" d="M43.21,42.24l1.62,2.5c1.43,1.91,1.65,5,1.61,7.65L43.61,51,45,52.14a1.92,1.92,0,0,1,.4,2.55l-7.23,11V64.56C41.18,58.6,43,49.22,43.21,42.24Z"/><path class="w" d="M43.63,39.9a10.35,10.35,0,0,1-.13,1.59c-.92,1.88-2.18,6.39-5.22,6.3-3.36-.11-6.29-6-6-6.8.22-.54.13,1.53-.62-1.4.46,1.8,12.37-3.71,12.14-1.48C43.69,39.09,44,38.44,43.63,39.9Z"/><path class="x" d="M45.59,32.75a13.15,13.15,0,0,0-.05-3c.06-11.12-16.31-10.42-15.27.93a11.14,11.14,0,0,0,0,2.31c-.72-.36-2-.27-.22,3.92.13.7-.68,1.53,1.18,1.91,0,1.73,1.15,3.56,2.6,5.12s3.22,2.86,5,2.5c2.17-.25,5.52-4,5.91-7.95.31-.22,1.19.34,1.26-1.65C46.51,34.06,46.84,31.23,45.59,32.75Z"/><path class="u" d="M30.51,33.89c-.5-3.11-2.26-5-.74-8.31,2.4-5.21,12.49-7,14-1.2,4,1.15,1.58,8.55,1.16,10.77-.18-1.28-1.23-5.75-2.44-5.77.24-.8,1.45-2.57.16-2.17C37.1,29.1,36.87,26,33.37,28.35c-.93.24-1.85,0-1.75.69.3,2.12-1,3.4-.62,4.28C30.76,35.26,30.82,36.09,30.51,33.89Z"/><path class="m" d="M35.22,40.47c-.17,0-.14.19,0,.28a3.94,3.94,0,0,0,1.32.46,4.25,4.25,0,0,0,2.06.1,6.69,6.69,0,0,0,1.93-.87c.13-.21.25-.37.13-.33S36.51,40.4,35.22,40.47Z"/><path class="y" d="M36,38c0-.61,1.22-.22,1.63-.2s1.31-.19,1.39-.14c.58.36-.62,1.09-1.41,1.09C37.36,38.79,36,38.41,36,38Z"/><path class="y" d="M36.58,42.7c0-.15,1.2-.15,1.61-.18s1.3-.15,1.39-.15c.59.05-.59.32-1.39.39A8.08,8.08,0,0,1,36.58,42.7Z"/></g><g class="z"><path class="u" d="M244.32,177.45v6.66h-2.81v-6.66c0,.5.72,1,1.42,1S244.31,177.92,244.32,177.45Z"/><path class="v" d="M248.34,184.46h-10.9s.26-3.77.6-4.25c.59-.82,2.51-1.45,3.47-1.67,0,.83.71,5.2,1.4,5.2l.07-.07c.69,0,1.31-4.3,1.32-5.13,0,0,2.72.78,3.45,1.79C248.09,180.81,248.34,184.46,248.34,184.46Z"/><path class="j" d="M241.53,177.71l-.44.68a4.83,4.83,0,0,0-.45,2.05l.78-.34-.38.31a.5.5,0,0,0-.11.66l2,3v-.3A16.29,16.29,0,0,1,241.53,177.71Z"/><path class="j" d="M244.27,177.71l.44.68a3.54,3.54,0,0,1,.44,2.07l-.77-.36.37.3a.51.51,0,0,1,.11.69l-2,3v-.3A16,16,0,0,0,244.27,177.71Z"/><path class="w" d="M244.39,177.08a2.69,2.69,0,0,1,0,.43c-.25.51-.59,1.73-1.41,1.71s-1.71-1.64-1.63-1.84,0,.41-.17-.38c.12.48,3.35-1,3.29-.41C244.4,176.86,244.5,176.68,244.39,177.08Z"/><path class="x" d="M244.92,175.14a3.51,3.51,0,0,0,0-.8,2.08,2.08,0,1,0-4.13.25,2.63,2.63,0,0,0,0,.63c-.19-.1-.53-.08,0,1.06,0,.19-.19.41.32.52a2.26,2.26,0,0,0,.7,1.39,1.58,1.58,0,0,0,1.35.67,2.58,2.58,0,0,0,1.6-2.15c.08-.06.32.09.34-.45C245.17,175.49,245.26,174.73,244.92,175.14Z"/><path class="u" d="M240.83,175.45c-.14-.84-.61-1.36-.2-2.25.65-1.42,3.38-1.9,3.79-.33,1.08.31.43,2.32.32,2.92-.05-.34-.33-1.56-.66-1.56.06-.22.39-.7,0-.59-1.5.51-1.57-.33-2.52.31-.25.06-.5,0-.47.19.08.57-.26.92-.17,1.16C240.9,175.82,240.91,176.05,240.83,175.45Z"/><path class="m" d="M242.11,177.23c-.05,0,0,.06,0,.08a1,1,0,0,0,.35.12,1,1,0,0,0,.56,0,2.11,2.11,0,0,0,.53-.23c0-.06.06-.11,0-.09Z"/><path class="y" d="M242.31,176.58c0-.17.33-.06.44-.06s.36-.05.38,0-.17.3-.38.3C242.69,176.78,242.32,176.68,242.31,176.58Z"/><path class="y" d="M242.48,177.84s.32,0,.43-.05l.38,0c.16,0-.16.09-.38.1A2,2,0,0,1,242.48,177.84Z"/></g><g class="aa"><path class="a" d="M49.49,124.41,50,124h-.63C49.43,124.14,49.46,124.27,49.49,124.41Z"/><path class="a" d="M27.19,124l.3.23.06-.23Z"/><path class="a" d="M30.26,114a0,0,0,0,1,0,0C30.29,114,30.3,114,30.26,114Z"/><path class="ab" d="M34.49,117.76c.27-.18.72-1.38,1-1.65-.64.07-1.06.14-1.25.17h.07C34.38,116.41,34.33,117.58,34.49,117.76Z"/><path class="ab" d="M42.4,117.74c.17-.17.44-.56.61-.75,0,0-.32-.63-.28-.62l0,0c-.48-.06-1-.12-1.4-.16A16.77,16.77,0,0,0,42.4,117.74Z"/><path class="ac" d="M27.55,124l-.06.23c.44.32.89.62,1.36.91,0-.36,0-.74,0-1.14Z"/><path class="ac" d="M36.83,117.14a3.19,3.19,0,0,1-1.56-1.09,1.91,1.91,0,0,1,0-.21,4.22,4.22,0,0,1-.79,1.47,3.7,3.7,0,0,1-.78.66c.87,1,2.47,7.6,4.65,7.59l0-8.08A6,6,0,0,1,36.83,117.14Z"/><path class="ad" d="M48.24,124c0,.43,0,.83,0,1.22.43-.26.85-.53,1.26-.82,0-.14-.06-.27-.1-.4Z"/><path class="ad" d="M42.5,117.33a4.42,4.42,0,0,1-.78-1.36l0,.14a3.1,3.1,0,0,1-1.33,1.06,4.46,4.46,0,0,1-2,.31l0,7.41c1.41,0,3.1-5.09,4.88-6.88A4.42,4.42,0,0,1,42.5,117.33Z"/><path class="ae" d="M41.72,116l0-.14h0A1.12,1.12,0,0,0,41.72,116Z"/><path class="ae" d="M35.32,115.78v.06s0,0,0-.06Z"/><path class="ac" d="M36.83,117.14c.49,0,1,0,1.61,0v-.55a11.75,11.75,0,0,1-3.12-.78s0,0,0,.06a1.91,1.91,0,0,0,0,.21A3.19,3.19,0,0,0,36.83,117.14Z"/><path class="ac" d="M36.83,117.14a6,6,0,0,0,1.61.34v-.37C37.86,117.11,37.32,117.12,36.83,117.14Z"/><path class="ae" d="M35.32,115.78s0,0,0,.06a1.91,1.91,0,0,0,0,.21,3.19,3.19,0,0,0,1.56,1.09,6,6,0,0,0,1.61.34v-.92A11.75,11.75,0,0,1,35.32,115.78Z"/><path class="ad" d="M38.86,116.57c-.19,0-.2,0-.24,0h-.18v.55c.62,0,1.29,0,2,.06a3.1,3.1,0,0,0,1.33-1.06l0-.14a1.12,1.12,0,0,1,0-.13A14.45,14.45,0,0,1,38.86,116.57Z"/><path class="ad" d="M40.43,117.17c-.7,0-1.37-.06-2-.06v.37A4.46,4.46,0,0,0,40.43,117.17Z"/><path class="ae" d="M41.76,116.11a3.08,3.08,0,0,1-1.33,1.06,4.69,4.69,0,0,1-2,.32v-.93l.23,0a1.45,1.45,0,0,0,.23,0,14.35,14.35,0,0,0,2.81-.74.69.69,0,0,1,.05.13Z"/><path class="ad" d="M49.14,109.12Z"/><path class="ad" d="M43.77,101a3.28,3.28,0,0,1-1.71,3.09A2.57,2.57,0,0,0,43.77,101Z"/><path class="ad" d="M37,114.65h0Z"/><path class="ad" d="M41.42,114.39h-.09a8,8,0,0,0,.34,1.44h0v0C41.49,114.71,41.47,114.8,41.42,114.39Z"/><path class="ad" d="M35.61,114.43l-.1,0a13.59,13.59,0,0,1-.19,1.37h0A8.09,8.09,0,0,0,35.61,114.43Z"/><path class="ad" d="M46.16,110.94a1,1,0,0,1,.05-.61.74.74,0,0,1,.11-.16A7.61,7.61,0,0,1,44,111c4.49-2.21.83-4.29,1.4-8.4-.25,1.83-2.5-.88-4-1.45-1.11.45-2.41,3.77-3.89,3.69-2.08-.12-3,2.44-2.42,2.62-1.31-.43-1.83-.87-1.94-1.28a5,5,0,0,0,.21,6c-.14.13-2.76-1.57-2.54-3.82a2.29,2.29,0,0,0-.32,1.92s0,0,0,.06a1.29,1.29,0,0,1,.07.58,9.06,9.06,0,0,0,1,2.72,11.23,11.23,0,0,0,3.69,2.16,12.12,12.12,0,0,0,3.13.77l.17,0a1.45,1.45,0,0,0,.23,0,14.35,14.35,0,0,0,2.81-.74h0c2-.76,4-2.06,4.51-4l.25-.09c.05-.2.1-.44.15-.66C46.39,111.14,46.21,111.14,46.16,110.94Z"/><path class="ac" d="M46.33,110.16a.52.52,0,0,0-.12.17,1.09,1.09,0,0,0-.06.61c.05.2.24.2.45.13.09-.39.19-.8.29-1.25A5.58,5.58,0,0,1,46.33,110.16Z"/><path class="af" d="M38.51,112.75h0c-.21,0-1.55-.48-1.57-.94,0-.77,1.19-.28,1.59-.25h0c.34,0,1.26-.24,1.34-.18C40.41,111.84,39.29,112.73,38.51,112.75Z"/><path class="ac" d="M30.54,110.33s0,0,0-.06c0,.2.06.41.1.63A1,1,0,0,0,30.54,110.33Z"/><path class="p" d="M30.25,114a0,0,0,0,0,0,0S30.29,114,30.25,114Z"/><path class="p" d="M34.72,104.43c-.3.22-1.79.9-1.56,1.72A7.51,7.51,0,0,1,34.72,104.43Z"/><path class="p" d="M28.08,100.12a.49.49,0,0,0,0,.24C28,100.28,28.07,100.2,28.08,100.12Z"/><path class="ag" d="M28.08,100.12a.49.49,0,0,0,0,.24C28,100.28,28.07,100.2,28.08,100.12Z"/><path class="ah" d="M35.55,99.56a5.68,5.68,0,0,1,4.3-1.3,2.46,2.46,0,0,0-1.71-.62,7.11,7.11,0,0,0-1.82.33l1.73-.89a24,24,0,0,0-3.77.48,2.65,2.65,0,0,0,1.09-.74,2.24,2.24,0,0,0-1.28.14l1-.72a1.67,1.67,0,0,0-.59,0,17.67,17.67,0,0,1,5.32-.58,12.17,12.17,0,0,0-6.31.11,8.28,8.28,0,0,0-2.83,1.17,8.43,8.43,0,0,0-1.24.94,4.34,4.34,0,0,0-1.34,2.28,1.24,1.24,0,0,1,.38-.41c.36-.26.73-.52,1.11-.76a19,19,0,0,1,2.52-1.34c.1.18-.09.38-.26.51A8.44,8.44,0,0,0,29,101.91a8.24,8.24,0,0,0-.55,2.49,2.07,2.07,0,0,0,.57-.64c.11-.17.21-.36.32-.54a7.73,7.73,0,0,1,2.89-2.87,5.36,5.36,0,0,1-.94,1.82,3.75,3.75,0,0,0-.55,3.33c1.23-1,1.57-3,3-3.63a1.82,1.82,0,0,0-.27,1.11c1.5-.73,2.64-2,4.1-2.85a6.91,6.91,0,0,1,3.86-.82A11.91,11.91,0,0,0,35.55,99.56Zm-.39,1.12h0c-.18-.07-.25-.29-.4-.42a12.52,12.52,0,0,1-2.1-3.66,7.49,7.49,0,0,1,1.5,2c.08.22,1,1.16,1.05,1.38A.71.71,0,0,1,35.16,100.68Z"/><path class="u" d="M33.16,106.15c.11.41.63.84,1.93,1.28-.56-.19.35-2.75,2.44-2.63a9.55,9.55,0,0,0,4-.46c-.09,0,0,.06,0,0,1.5.57,3.6,0,3.85-1.79-.57,4.13,3.13,6.23-1.44,8.43a7.53,7.53,0,0,0,2.37-.82,5.58,5.58,0,0,0,.56-.34c-.1.45-.2.86-.29,1.25-.05.23-.11.45-.16.66-.44,1.72-.89,2.74-2.11,3.19,4-.76,5.37-4.11,4.81-5.8h0c.5,1.51.54,3.79,0,3.18,1.13,1.28,1.78-6.22,1.75-6.63a14.41,14.41,0,0,0-.1-1.81c-4-19.2-30.43-10.33-23.78,5.69a8.64,8.64,0,0,0,3.26,4.68,3,3,0,0,1-.28-1.17,8.49,8.49,0,0,0,2.53,1.65,3.66,3.66,0,0,1-.89-1.07,9.47,9.47,0,0,1-1-2.74c0-.22-.08-.43-.1-.63a2.41,2.41,0,0,1,.32-1.92c-.22,2.25,2.42,4,2.55,3.81a5,5,0,0,1-.21-6m4.4-6c-1.46.8-2.6,2.12-4.1,2.85a1.82,1.82,0,0,1,.27-1.11c-1.44.67-1.78,2.61-3,3.63a3.75,3.75,0,0,1,.55-3.33,5.36,5.36,0,0,0,.94-1.82,7.73,7.73,0,0,0-2.89,2.87c-.11.18-.21.37-.32.54a2.07,2.07,0,0,1-.57.64,8.24,8.24,0,0,1,.55-2.49,8.44,8.44,0,0,1,2.85-3.79c.17-.13.36-.33.26-.51A19,19,0,0,0,29.57,99c-.38.24-.75.5-1.11.76a1.24,1.24,0,0,0-.38.41,4.34,4.34,0,0,1,1.34-2.28,8.43,8.43,0,0,1,1.24-.94,8.28,8.28,0,0,1,2.83-1.17,12.17,12.17,0,0,1,6.31-.11,17.67,17.67,0,0,0-5.32.58,1.67,1.67,0,0,1,.59,0l-1,.72a2.24,2.24,0,0,1,1.28-.14,2.65,2.65,0,0,1-1.09.74,24,24,0,0,1,3.77-.48L36.32,98a7.11,7.11,0,0,1,1.82-.33,2.46,2.46,0,0,1,1.71.62,5.68,5.68,0,0,0-4.3,1.3,11.91,11.91,0,0,1,5.87-.25A6.91,6.91,0,0,0,37.56,100.13Z"/><path class="u" d="M34.16,98.62a7.49,7.49,0,0,0-1.5-2,12.52,12.52,0,0,0,2.1,3.66c.15.13.22.35.4.42h0a.71.71,0,0,0,.05-.68C35.13,99.78,34.24,98.84,34.16,98.62Z"/><path class="af" d="M40.9,114.17l-2.46-.09L36,114l1.27.71,2.38.12c.06,0,.23-.17.3-.18Z"/><path class="af" d="M39.94,114.65l0,0-.2,0Z"/><path class="ai" d="M42.68,117.16v18.57H34.23V117.16a2.38,2.38,0,0,0,2.09,2.25c.35.07,1.78,5.19,2.14,5.19s1.81-5.12,2.12-5.19C41.57,119.1,42.68,118.36,42.68,117.16Z"/><path class="aj" d="M55,136.63H21.84s.81-11.46,1.84-12.91c1.8-2.49,7.62-4.42,10.53-5.08,0,2.53,2.09,16.69,4.19,16.69h0c2.1,0,4.25-14.16,4.29-16.69,0,0,8.27,2.37,10.48,5.46C54.22,125.54,55,136.63,55,136.63Z"/><path class="aj" d="M55,136.63H38.45l-.05-1.3h0c2.1,0,4.25-14.16,4.29-16.69,0,0,8.27,2.37,10.48,5.46C54.22,125.54,55,136.63,55,136.63Z"/><path class="ak" d="M34.28,116.78c-2.64,2.23-3.43,3.13-2.7,7.24H34l-2.23,1.82c1.09,4.21,3.41,7.1,6.72,10.27v-.94C35.93,130.25,35.17,122.69,34.28,116.78Z"/><path class="ak" d="M42.62,116.78c2.82,2.57,3.62,3,2.69,7.24H42.94l2.24,1.82a20.72,20.72,0,0,1-6.74,10.27v-.94C40.94,130.25,41.74,122.69,42.62,116.78Z"/><path class="al" d="M42.45,120.56a.33.33,0,1,1-.33-.33A.33.33,0,0,1,42.45,120.56Z"/><circle class="al" cx="41.74" cy="121.51" r="0.29"/><path class="al" d="M41.56,122.44a.42.42,0,1,1-.42-.41A.42.42,0,0,1,41.56,122.44Z"/><circle class="al" cx="40.11" cy="123.34" r="0.54"/><path class="al" d="M34.72,120.46a.33.33,0,1,0,.33-.33A.33.33,0,0,0,34.72,120.46Z"/><circle class="al" cx="35.43" cy="121.41" r="0.29"/><path class="al" d="M35.61,122.34a.42.42,0,1,0,.42-.42A.42.42,0,0,0,35.61,122.34Z"/><circle class="al" cx="37.07" cy="123.23" r="0.54"/><circle class="al" cx="38.53" cy="123.92" r="0.72"/><path class="am" d="M34.23,116.28c.55,1.92.82,2.36,2.09,3.13-1.56.63-1.61,1.88-3.32,3.13A9.52,9.52,0,0,1,34.23,116.28Z"/><path class="am" d="M42.68,116.28c-.55,1.92-.82,2.36-2.1,3.13,1.56.63,1.61,1.88,3.32,3.13A9.58,9.58,0,0,0,42.68,116.28Z"/></g><g class="an"><path class="a" d="M244.23,147.4l.13-.1h-.15A.3.3,0,0,1,244.23,147.4Z"/><path class="a" d="M238.72,147.3l.07,0,0,0Z"/><path class="a" d="M239.48,144.82h0Z"/><path class="ab" d="M240.52,145.75c.07,0,.18-.34.24-.41l-.31,0h0S240.48,145.71,240.52,145.75Z"/><path class="ab" d="M242.48,145.75l.15-.19s-.08-.15-.07-.15h0l-.35,0A3.77,3.77,0,0,0,242.48,145.75Z"/><path class="ac" d="M238.81,147.3l0,0a4,4,0,0,0,.34.23v-.28Z"/><path class="ac" d="M241.1,145.6a.89.89,0,0,1-.38-.27v-.05a1,1,0,0,1-.2.36.7.7,0,0,1-.19.16c.22.25.61,1.88,1.15,1.88v-2A1.67,1.67,0,0,1,241.1,145.6Z"/><path class="ad" d="M243.92,147.3v.3l.31-.2a.3.3,0,0,0,0-.1Z"/><path class="ad" d="M242.51,145.64a.88.88,0,0,1-.2-.33v0a.64.64,0,0,1-.33.26,1,1,0,0,1-.49.08v1.83c.35,0,.77-1.26,1.21-1.7A.61.61,0,0,1,242.51,145.64Z"/><path class="ae" d="M242.31,145.31v0h0S242.31,145.3,242.31,145.31Z"/><path class="ae" d="M240.73,145.26v0Z"/><path class="ac" d="M241.1,145.6h.4v-.14a2.81,2.81,0,0,1-.77-.19v.07A.89.89,0,0,0,241.1,145.6Z"/><path class="ac" d="M241.1,145.6a1.67,1.67,0,0,0,.4.08v-.09Z"/><path class="ae" d="M240.73,145.26v.07a.89.89,0,0,0,.38.27,1.67,1.67,0,0,0,.4.08v-.23A2.81,2.81,0,0,1,240.73,145.26Z"/><path class="ad" d="M241.6,145.46h-.1v.14H242a.64.64,0,0,0,.33-.26v0s0,0,0,0A3.22,3.22,0,0,1,241.6,145.46Z"/><path class="ad" d="M242,145.6h-.49v.09A1,1,0,0,0,242,145.6Z"/><path class="ae" d="M242.32,145.34a.64.64,0,0,1-.33.26,1.06,1.06,0,0,1-.5.08v-.23h.11a3.81,3.81,0,0,0,.7-.18v.06Z"/><polygon class="ad" points="244.15 143.62 244.15 143.62 244.15 143.61 244.15 143.62"/><path class="ad" d="M242.82,141.61a.81.81,0,0,1-.42.76A.63.63,0,0,0,242.82,141.61Z"/><path class="ad" d="M241.16,145h0Z"/><path class="ad" d="M242.24,144.92h0a1.51,1.51,0,0,0,.08.35h0C242.26,145,242.25,145,242.24,144.92Z"/><path class="ad" d="M240.8,144.93h0c0,.19,0,.28-.05.34h0A2.09,2.09,0,0,0,240.8,144.93Z"/><path class="ad" d="M243.41,144.06a.26.26,0,0,1,0-.15l0,0a1.86,1.86,0,0,1-.57.2c1.11-.55.2-1.06.34-2.08-.06.46-.61-.22-1-.36-.27.12-.59.94-1,.92s-.74.6-.59.64c-.33-.1-.46-.21-.48-.31a1.22,1.22,0,0,0,.05,1.49,1.06,1.06,0,0,1-.63-1,.58.58,0,0,0-.08.48h0a.26.26,0,0,1,0,.15,2.46,2.46,0,0,0,.26.67,2.73,2.73,0,0,0,.91.53,2.48,2.48,0,0,0,.77.19h.1a3.81,3.81,0,0,0,.7-.18h0a1.66,1.66,0,0,0,1.12-1l.06,0,0-.16C243.47,144.11,243.42,144.11,243.41,144.06Z"/><path class="ac" d="M243.45,143.87l0,0a.26.26,0,0,0,0,.15c0,.05.06.05.11,0s0-.2.07-.31Z"/><path class="af" d="M241.52,144.51h0s-.38-.11-.39-.23.3-.07.39-.06h0a2.86,2.86,0,0,1,.33,0C242,144.29,241.71,144.51,241.52,144.51Z"/><path class="ac" d="M239.55,143.91h0a.77.77,0,0,0,0,.15A.23.23,0,0,0,239.55,143.91Z"/><path class="p" d="M239.47,144.81h0Z"/><path class="p" d="M240.58,142.45c-.07.06-.44.23-.39.43A2.2,2.2,0,0,1,240.58,142.45Z"/><path class="p" d="M238.94,141.39a.13.13,0,0,0,0,.06S238.94,141.41,238.94,141.39Z"/><path class="ag" d="M238.94,141.39a.13.13,0,0,0,0,.06S238.94,141.41,238.94,141.39Z"/><path class="ah" d="M240.79,141.25a1.36,1.36,0,0,1,1.06-.32.59.59,0,0,0-.42-.15,1.63,1.63,0,0,0-.45.08l.43-.22a4.94,4.94,0,0,0-.94.12.58.58,0,0,0,.27-.19.55.55,0,0,0-.31,0l.24-.18a.38.38,0,0,0-.15,0,4.53,4.53,0,0,1,1.32-.14,3.06,3.06,0,0,0-1.56,0,2,2,0,0,0-.7.29,3.55,3.55,0,0,0-.31.23,1.1,1.1,0,0,0-.33.57.43.43,0,0,1,.09-.1l.28-.19a4.12,4.12,0,0,1,.62-.33s0,.09-.06.12a2.13,2.13,0,0,0-.71.94,2.21,2.21,0,0,0-.13.62.54.54,0,0,0,.14-.16l.08-.13a1.89,1.89,0,0,1,.71-.72,1.42,1.42,0,0,1-.23.46.93.93,0,0,0-.14.82c.31-.25.39-.73.75-.9a.45.45,0,0,0-.07.28c.37-.18.65-.51,1-.71a1.69,1.69,0,0,1,1-.2A3,3,0,0,0,240.79,141.25Zm-.1.28h0s-.06-.07-.1-.11a3.15,3.15,0,0,1-.52-.9,1.76,1.76,0,0,1,.37.5s.24.28.26.34A.17.17,0,0,1,240.69,141.53Z"/><path class="u" d="M240.19,142.88c0,.1.16.21.48.32-.14,0,.09-.68.61-.65a2.41,2.41,0,0,0,1-.12s0,0,0,0a.67.67,0,0,0,.95-.44c-.14,1,.78,1.54-.35,2.08a1.74,1.74,0,0,0,.58-.2l.14-.08c0,.11-.05.21-.07.31l0,.16c-.11.43-.22.68-.52.79a1.3,1.3,0,0,0,1.19-1.43h0c.12.37.13.93,0,.78.28.32.44-1.54.43-1.64a2.37,2.37,0,0,0,0-.45c-1-4.74-7.52-2.55-5.88,1.41a2.31,2.31,0,0,0,.81,1.16.85.85,0,0,1-.07-.29,2.21,2.21,0,0,0,.63.41.89.89,0,0,1-.22-.27,2.14,2.14,0,0,1-.26-.68.77.77,0,0,1,0-.15.58.58,0,0,1,.08-.48,1.06,1.06,0,0,0,.63,1,1.23,1.23,0,0,1-.06-1.49m1.09-1.49c-.36.2-.64.53-1,.71a.45.45,0,0,1,.07-.28c-.36.17-.44.65-.75.9a.93.93,0,0,1,.14-.82,1.42,1.42,0,0,0,.23-.46,1.89,1.89,0,0,0-.71.72l-.08.13a.54.54,0,0,1-.14.16,2.21,2.21,0,0,1,.13-.62,2.13,2.13,0,0,1,.71-.94s.09-.08.06-.12a4.12,4.12,0,0,0-.62.33l-.28.19a.43.43,0,0,0-.09.1,1.1,1.1,0,0,1,.33-.57,3.55,3.55,0,0,1,.31-.23,2,2,0,0,1,.7-.29,3.06,3.06,0,0,1,1.56,0,4.53,4.53,0,0,0-1.32.14.38.38,0,0,1,.15,0l-.24.18a.55.55,0,0,1,.31,0,.58.58,0,0,1-.27.19,4.94,4.94,0,0,1,.94-.12l-.43.22a1.63,1.63,0,0,1,.45-.08.59.59,0,0,1,.42.15,1.36,1.36,0,0,0-1.06.32,3,3,0,0,1,1.45-.06A1.69,1.69,0,0,0,241.28,141.39Z"/><path class="u" d="M240.44,141a1.76,1.76,0,0,0-.37-.5,3.15,3.15,0,0,0,.52.9s.06.09.1.11h0a.17.17,0,0,0,0-.17C240.68,141.3,240.46,141.07,240.44,141Z"/><path class="af" d="M242.11,144.86l-.61,0-.59,0,.31.17.59,0,.07,0Z"/><path class="af" d="M241.87,145h0Z"/><path class="ai" d="M242.55,145.6v4.59h-2.09V145.6a.59.59,0,0,0,.52.56c.08,0,.44,1.28.53,1.28s.45-1.26.52-1.28C242.28,146.08,242.55,145.9,242.55,145.6Z"/><path class="aj" d="M245.59,150.42H237.4a17.31,17.31,0,0,1,.45-3.19,5.32,5.32,0,0,1,2.61-1.26c0,.62.51,4.13,1,4.13h0c.52,0,1.06-3.51,1.06-4.13a6.57,6.57,0,0,1,2.6,1.35A16.49,16.49,0,0,1,245.59,150.42Z"/><path class="aj" d="M245.59,150.42H241.5v-.32h0c.52,0,1.06-3.51,1.06-4.13a6.57,6.57,0,0,1,2.6,1.35A16.49,16.49,0,0,1,245.59,150.42Z"/><path class="ak" d="M240.47,145.51a1.45,1.45,0,0,0-.66,1.79h.58l-.55.45a5.25,5.25,0,0,0,1.66,2.54v-.23A16.45,16.45,0,0,1,240.47,145.51Z"/><path class="ak" d="M242.53,145.51c.7.63.9.74.67,1.79h-.59l.56.45a5.14,5.14,0,0,1-1.67,2.54v-.23A16.1,16.1,0,0,0,242.53,145.51Z"/><path class="al" d="M242.49,146.44a.08.08,0,0,1-.08.09.09.09,0,0,1-.08-.09.09.09,0,0,1,.08-.08A.08.08,0,0,1,242.49,146.44Z"/><circle class="al" cx="242.32" cy="146.68" r="0.07"/><path class="al" d="M242.27,146.91a.1.1,0,1,1-.1-.1A.09.09,0,0,1,242.27,146.91Z"/><circle class="al" cx="241.91" cy="147.13" r="0.13"/><path class="al" d="M240.58,146.42a.09.09,0,0,0,.08.08.08.08,0,0,0,.08-.08.07.07,0,0,0-.08-.08A.08.08,0,0,0,240.58,146.42Z"/><circle class="al" cx="240.76" cy="146.65" r="0.07"/><path class="al" d="M240.8,146.88a.11.11,0,0,0,.11.11.11.11,0,0,0,.1-.11.11.11,0,0,0-.1-.1A.11.11,0,0,0,240.8,146.88Z"/><circle class="al" cx="241.16" cy="147.1" r="0.13"/><circle class="al" cx="241.52" cy="147.27" r="0.18"/><path class="am" d="M240.46,145.38c.14.48.2.59.52.78-.39.15-.4.46-.82.77A2.38,2.38,0,0,1,240.46,145.38Z"/><path class="am" d="M242.55,145.38c-.14.48-.2.59-.52.78.39.15.4.46.82.77A2.38,2.38,0,0,0,242.55,145.38Z"/></g></g></g></svg>