<svg xmlns="http://www.w3.org/2000/svg" xmlns:xlink="http://www.w3.org/1999/xlink" viewBox="0 0 80 80"><defs><style>.a{fill:none;}.b{clip-path:url(#a);}.c{fill:#6588ab;}</style><clipPath id="a"><rect class="a" width="80" height="80"/></clipPath></defs><g class="b"><path class="c" d="M64.9,69.15a2,2,0,0,1,0-4l0-2.1a2,2,0,0,1,0-4l0-2.1a2,2,0,1,1,.05-4l0-2.1a2,2,0,1,1,0-4l0-2.11a2,2,0,0,1,0-4l0-2.11a2,2,0,1,1,0-4l0-2.1a2,2,0,1,1,.06-4l0-2.11a2,2,0,1,1,.05-4l0-2.11a2,2,0,0,1,0-4l0-2.11a2,2,0,1,1,0-4l0-1.82-1.88,0a2,2,0,0,1-4-.05l-2.1,0a2,2,0,0,1-4-.05l-2.1,0a2,2,0,1,1-4-.05l-2.11,0a2,2,0,1,1-4-.06l-2.11,0a2,2,0,0,1-4-.06l-2.11,0a2,2,0,0,1-2,2,2,2,0,0,1-2-2l-2.1,0a2,2,0,1,1-4,0L21.21,8a2,2,0,1,1-4,0l-2,0,0,1.82a2,2,0,0,1-.05,4l0,2.11a2,2,0,1,1-.06,4l0,2.11a2,2,0,0,1-.05,4L15,28a2,2,0,1,1-.05,4l0,2.1a2,2,0,1,1-.06,4l0,2.1a2,2,0,1,1,0,4l0,2.1a2,2,0,0,1,2,2,2,2,0,0,1-2,2l0,2.1a2,2,0,1,1-.06,4l0,2.11a2,2,0,0,1-.05,4l0,2.11a2,2,0,1,1-.06,4l0,2.41,2,0a2,2,0,1,1,4,0l2.11,0a2,2,0,1,1,4,0l2.1,0a2,2,0,1,1,4,.06l2.11,0a2,2,0,0,1,2-2,2,2,0,0,1,2,2l2.1,0a2,2,0,0,1,4,0l2.11,0a2,2,0,0,1,4,0l2.1,0a2,2,0,1,1,4,0l2.11,0a2,2,0,1,1,4,0l1.89,0ZM19.05,65.79l.69-53.08,41.33.55-.68,53.06Z"/><path class="c" d="M51.08,27.85c-1.38,1.13.94,2.8,3.39,7.31-.8.65-1.61.73-2.74,1.46a16,16,0,0,1,1.08,7.51s-2.41.57-5.28,1.09c-.82.16-2,4.51-3.9,7.58,3.7,3.47,4.19,7.22,3,7.61-9,2.65-12-11.44-19.06-9.52,2.55-2.79,6.23-5.8,5.42-9.07-.58-2.4-4.65-5-6.55-10.11-3.24-8.64,7.48-13.43,13.7-13.36C45,18.42,49.58,22.53,51.08,27.85Z"/></g></svg>