<svg xmlns="http://www.w3.org/2000/svg" xmlns:xlink="http://www.w3.org/1999/xlink" viewBox="0 0 320 220"><defs><style>.a{fill:none;}.b{isolation:isolate;}.c{clip-path:url(#a);}.d{fill:#b6d4ec;}.e,.g{fill:#d6e6f2;}.e{opacity:0.3;mix-blend-mode:multiply;}.f{fill:#c8dff1;}.h{fill:#176695;}.i{fill:#fff;}.j{fill:#cce4f2;}.k{fill:#1a72ad;}.l{fill:#77addb;}.m{fill:#a4c9e7;}.n{fill:#0e3c62;}.o{opacity:0.1;}.p{fill:#231f20;}.q{fill:#e9bbb1;}.r{fill:#f0c6bd;}.s{fill:#b8d1ce;}.t{fill:#d5eff7;}.u{fill:#e11e19;}.v{fill:#f8a17a;}.w{fill:#155992;}.x{fill:#124e77;}.y{fill:#1c77c3;}.z{fill:#254e6d;}</style><clipPath id="a"><rect class="a" width="320" height="220"/></clipPath></defs><g class="b"><g class="c"><polygon class="d" points="232.07 210.72 177.61 199.63 0.95 163.7 85.97 61.45 262.6 97.4 317.08 108.47 232.07 210.72"/><path class="e" d="M282.81,32.66h0l-6.28-6.3h0a5.54,5.54,0,0,0-3.93-1.62H40.79a5.57,5.57,0,0,0-5.57,5.57V184.84a5.52,5.52,0,0,0,1.56,3.86h0l0,0a.57.57,0,0,1,.11.11l6.09,6,0,0a.86.86,0,0,0,.07.1h0a5.54,5.54,0,0,0,4.27,2H279.21a5.57,5.57,0,0,0,5.57-5.57V36.91A5.53,5.53,0,0,0,282.81,32.66Z"/><path class="d" d="M278.17,184.84a5.26,5.26,0,0,1-5.57,5.2H40.79a5.26,5.26,0,0,1-5.57-5.2V30.3a5.57,5.57,0,0,1,5.57-5.57H272.6a5.57,5.57,0,0,1,5.57,5.57Z"/><path class="f" d="M116.77,35.94l-3.63-6A2.81,2.81,0,0,0,111,28.57H62.3a2.68,2.68,0,0,0-2,1.32l-3.37,6H35.22V46.46h243V35.94Z"/><path class="g" d="M115,29.89l3.63,6h51.1l-3.64-6a2.8,2.8,0,0,0-2.1-1.32H115.21A2.24,2.24,0,0,0,114,29,2.73,2.73,0,0,1,115,29.89Z"/><path class="h" d="M274.86,27.75V30h-.71s0-1,0-1.06l-1.22,1.21-.51-.51c.35-.35.88-.87,1.22-1.22,0,0-1,0-1.07,0v-.71Z"/><path class="h" d="M270.17,32.48v-2.3h.72s0,1,0,1.07L272.11,30l.52.51c-.35.35-.88.87-1.22,1.22,0,0,1,0,1.06,0v.71Z"/><path class="h" d="M112.06,32.26a2,2,0,1,0-2,2A2.05,2.05,0,0,0,112.06,32.26Z"/><rect class="i" x="62.38" y="37.43" width="204.47" height="7.24" rx="1.32"/><path class="j" d="M263.94,43.64a.22.22,0,0,1-.13,0l-1.41-1-1.4,1a.22.22,0,0,1-.27,0,.23.23,0,0,1-.09-.25l.5-1.64-1.37-1a.25.25,0,0,1-.08-.26.24.24,0,0,1,.22-.16l1.71,0,.57-1.62a.23.23,0,0,1,.43,0l.57,1.62,1.71,0a.24.24,0,0,1,.22.16.25.25,0,0,1-.08.26l-1.37,1,.5,1.64a.25.25,0,0,1-.09.25A.23.23,0,0,1,263.94,43.64Zm-1.54-1.53a.23.23,0,0,1,.14,0l1,.69-.35-1.16a.22.22,0,0,1,.08-.25l1-.73-1.2,0a.24.24,0,0,1-.22-.16l-.4-1.14L262,40.52a.24.24,0,0,1-.22.16l-1.2,0,1,.73a.22.22,0,0,1,.08.25l-.35,1.16,1-.69A.22.22,0,0,1,262.4,42.11Z"/><path class="h" d="M275.12,39.54a.4.4,0,0,1-.4.4h-4.29a.4.4,0,0,1-.4-.4h0a.4.4,0,0,1,.4-.4h4.29a.4.4,0,0,1,.4.4Z"/><path class="h" d="M275.12,41.2a.4.4,0,0,1-.4.4h-4.29a.4.4,0,0,1-.4-.4h0a.4.4,0,0,1,.4-.4h4.29a.4.4,0,0,1,.4.4Z"/><path class="h" d="M275.12,42.86a.4.4,0,0,1-.4.4h-4.29a.4.4,0,0,1-.4-.4h0a.4.4,0,0,1,.4-.4h4.29a.4.4,0,0,1,.4.4Z"/><path class="i" d="M110.57,32.26l.63-.63a5.8,5.8,0,0,1-.55-.56c-.12.12-.36.37-.64.64-.27-.27-.51-.52-.63-.63l-.55.55.63.63-.63.63.56.55.62-.63.63.63a5.8,5.8,0,0,1,.56-.55Z"/><path class="h" d="M164.62,32.26a2,2,0,1,0-2.05,2A2.05,2.05,0,0,0,164.62,32.26Z"/><path class="i" d="M163.12,32.26l.63-.63s-.58-.57-.55-.56l-.63.64c-.27-.27-.51-.52-.63-.63l-.55.55.63.63-.63.63c.08.08.5.51.55.55l.63-.63.63.63a4.76,4.76,0,0,1,.55-.55Z"/><path class="h" d="M57.15,42.8a1.55,1.55,0,1,1,1.28-2.42l-1,0v.5l1.93,0,0-1.93h-.5s0,.67,0,.95a2.23,2.23,0,0,0-1.72-.84,2.2,2.2,0,1,0,1.91,3.27L58.5,42A1.55,1.55,0,0,1,57.15,42.8Z"/><path class="i" d="M35.22,46.46v138A5.56,5.56,0,0,0,40.79,190H272.6a5.56,5.56,0,0,0,5.57-5.56v-138Z"/><path class="i" d="M168.13,29.89,171,34.58h10.2l-2.82-4.69a2.81,2.81,0,0,0-2.1-1.32H166A2.8,2.8,0,0,1,168.13,29.89Z"/><path class="k" d="M196.33,118.19l-.18,1.91a4.1,4.1,0,0,1,4,3.68l1.88-.4a6,6,0,0,0-5.66-5.19Z"/><path class="l" d="M202.25,117.25a7.84,7.84,0,0,0-5.64-1.94l-.19,1.94a6,6,0,0,1,6.61,5.9l1.9-.42A7.86,7.86,0,0,0,202.25,117.25Z"/><path class="m" d="M204.41,114.78a9.59,9.59,0,0,0-7.52-2.4l-.19,2a7.93,7.93,0,0,1,9.14,8.19l1.95-.43A9.57,9.57,0,0,0,204.41,114.78Z"/><path class="n" d="M169.6,110c-3.36,8.72,9.23,11.8-10.35,12.34-22-.16-11-14.1-13-19.06-1-2.18.83-8.69,1-11.07s-1.16-4.64-.54-7.12a6.59,6.59,0,0,1,5.09-5c2-.21,3.65,1.13,5.6,1.22,3.66.12,7.21-2.32,10.86-1.07,3.19,1.32,4.07,4,6.91,7.28C180.36,93.65,173.76,105.16,169.6,110Z"/><g class="o"><path class="p" d="M227,194.31c0,2.75-30,5-67,5s-67-2.22-67-5,30-5,67-5S227,191.56,227,194.31Z"/></g><path class="k" d="M208.52,174.16a18.88,18.88,0,0,1-4,3.62c-7.84,5.48-17.22,9.22-26.52,11.63-8.31,2.16-17,2.06-25.51,1.22-5.8-.57-11.58-2.37-17.18-4a100.23,100.23,0,0,1-16.82-6.48c-4.23-2.14-8-4.8-8.66-9.87a6.26,6.26,0,0,1,1.71-5.54c1.83-1.63,4.61-1.58,7.09-1.39,14,1.09,27.62,5.82,41.75,5.91,7.89,0,15.24-2,22.82-3.86,5.85-1.43,12.34-3,18.42-2.71C207.13,162.93,212.59,169,208.52,174.16Z"/><path class="q" d="M142,162.31l-.47-1.07a52.44,52.44,0,0,1-3.73-12c-.27-1.48-.55-3.11-1.69-4.11-1.57-1.38-4.63-1.2-6.58-.94a3.52,3.52,0,0,0-2.41,1.17c-.91,1.22-.82,4-.85,5.44-.22,8.92,6.83,16.3,12.58,22.32a9.41,9.41,0,0,0,3.83,2.8c1.54.47,3.48,0,4.15-1.48a4.66,4.66,0,0,0-.2-3.43,22.37,22.37,0,0,0-2.82-5.31A19.24,19.24,0,0,1,142,162.31Z"/><path class="q" d="M176.72,162.31l.47-1.07a52.94,52.94,0,0,0,3.73-12c.27-1.48.55-3.11,1.68-4.11,1.58-1.38,4.64-1.2,6.59-.94a3.52,3.52,0,0,1,2.41,1.17c.91,1.22.81,4,.85,5.44.22,8.92-6.84,16.3-12.58,22.32a9.5,9.5,0,0,1-3.84,2.8c-1.53.47-3.48,0-4.15-1.48a4.66,4.66,0,0,1,.2-3.43,22.4,22.4,0,0,1,2.83-5.31A20.64,20.64,0,0,0,176.72,162.31Z"/><path class="q" d="M131.41,133.55c-.55,1.38-1.08,2.77-1.59,4.16-1.77,4.75-6,12.82-1.23,17.21a3.42,3.42,0,0,0,2.5.33c1.91-.37,2.87-2.15,3.8-3.67,2.81-4.54,4.85-9.52,7.55-14.13,2-3.33,2.95-7.29,3.88-11,.62-2.45,1.42-6-.64-8a4,4,0,0,0-3.24-1.11,6,6,0,0,0-2,.67,7,7,0,0,0-1.54,1,11.48,11.48,0,0,0-2.39,3.7c-.8,1.54-1.63,3.06-2.38,4.62C133.13,129.35,132.25,131.44,131.41,133.55Z"/><path class="m" d="M133.54,126.05c2.63-4.82,6-9.15,11.3-10.91,1.51-.51,3.37-.63,4.5.49a3.55,3.55,0,0,1,.9,2.75,24.64,24.64,0,0,1-1.07,4.2,46.76,46.76,0,0,1-4,10.74c-.39.73-3.19,8.66-3,8.85a33.8,33.8,0,0,0-6.69-4.65c-.59-.28-5.94-3-6.1-2.69C130.66,132,132,129,133.54,126.05Z"/><path class="q" d="M188,133.55c.54,1.38,1.07,2.77,1.59,4.16,1.77,4.75,6,12.82,1.23,17.21a3.42,3.42,0,0,1-2.5.33c-1.91-.37-2.87-2.15-3.81-3.67-2.81-4.54-4.84-9.52-7.55-14.13-1.95-3.33-2.94-7.29-3.88-11-.62-2.45-1.42-6,.65-8a4,4,0,0,1,3.23-1.11,6.09,6.09,0,0,1,2,.67,7.48,7.48,0,0,1,1.54,1,11.63,11.63,0,0,1,2.38,3.7c.81,1.54,1.63,3.06,2.38,4.62C186.23,129.35,187.12,131.44,188,133.55Z"/><path class="m" d="M185.8,126.05c-2.63-4.82-6-9.15-11.3-10.91-1.51-.51-3.37-.63-4.5.49a3.55,3.55,0,0,0-.9,2.75,24.64,24.64,0,0,0,1.07,4.2,46.76,46.76,0,0,0,4,10.74c.38.73,3.19,8.66,3,8.85a33.8,33.8,0,0,1,6.69-4.65c.59-.28,5.94-3,6.1-2.69C188.68,132,187.38,129,185.8,126.05Z"/><path class="l" d="M178.33,163c0-.14-.07-.28-.1-.43a64.91,64.91,0,0,1-1.27-16.4c.16-5.39,1.35-10.68,1.51-16.07.18-6.21-.9-15-8.68-15.75-3.21-.3-6.44-.65-9.68-.69h-.69c-3.24,0-6.47.39-9.69.69-7.77.71-8.85,9.54-8.68,15.75.16,5.39,1.36,10.68,1.51,16.07a64,64,0,0,1-1.27,16.4c0,.15-.06.29-.1.43a7.55,7.55,0,0,0-.45,3.06c.4,2.21,5.72,3.28,7.51,3.75a55.2,55.2,0,0,0,10.23,1.54l.93.07v0l.35,0,.36,0v0l.92-.07a55.43,55.43,0,0,0,10.24-1.54c1.79-.47,7.11-1.54,7.5-3.75A7.38,7.38,0,0,0,178.33,163Z"/><path class="r" d="M154.76,119.53c4.8,3.17,14.14.71,11.5-5.57a16.27,16.27,0,0,1-.93-2.3,13.59,13.59,0,0,1-.28-4c0-1.57,0-3.14.14-4.7a21,21,0,0,0-5-.43c-1.55.06-3.09-.08-4.63,0a.49.49,0,0,0-.34.09.38.38,0,0,0-.12.29c-.21,2.12,0,4.26-.16,6.38a10.28,10.28,0,0,1-.8,3.65c-.83,1.69-2.07,3.26-.88,5.1A5.28,5.28,0,0,0,154.76,119.53Z"/><path class="q" d="M165.26,111.38a14.79,14.79,0,0,1-.17-3.76c0-1.56,0-3.14.14-4.7a21.5,21.5,0,0,0-5-.43c-1.54.06-3.08-.08-4.63,0a.56.56,0,0,0-.34.09.4.4,0,0,0-.12.29c-.2,2.12,0,4.26-.16,6.38a14,14,0,0,1-.26,1.82l.74.53a8.78,8.78,0,0,0,6.75,1.09A10.43,10.43,0,0,0,165.26,111.38Z"/><polygon class="s" points="133.94 142.9 133.5 143.94 185.71 143.94 185.18 142.77 133.94 142.9"/><path class="t" d="M159.23,194.15c2,.46,4,.63,5.84.95.83.14,1.65.29,2.48.37a34.86,34.86,0,0,0,4,.15h2.89a3.33,3.33,0,0,0,1.54-.24,3.38,3.38,0,0,0,1.2-1.41,37.31,37.31,0,0,0,1.84-3.26,2.38,2.38,0,0,0,.23-2.26,3.9,3.9,0,0,0-.88-1,7,7,0,0,0-1.38-1c-1.65-.83-3.33-.34-5,.09a40.14,40.14,0,0,1-5.41,1.18,36.82,36.82,0,0,1-5.94,0"/><path class="l" d="M166.08,196.26h-.91a3.57,3.57,0,0,1-2.2-.52.93.93,0,0,1-.22-.27.7.7,0,0,1,.23-.78,1.93,1.93,0,0,1,.8-.32c-.33.07-.89-1.14-1-1.37a6.34,6.34,0,0,1-.28-2,3,3,0,0,1,.53-1.68c.19-.25.87-1,1.25-.93a.66.66,0,0,1-.43-.8,1.07,1.07,0,0,1,.67-.69,3.05,3.05,0,0,1,1-.15,25.87,25.87,0,0,0,5.28-.47,16.62,16.62,0,0,1,4.56-.5,10.72,10.72,0,0,1,3.45.71,5.08,5.08,0,0,1,.87.44c3.66,2.34,1.24,6.92-1.77,8.53-2.23,1.2-4.58,1-7,.93C169.31,196.33,167.7,196.29,166.08,196.26Z"/><path class="g" d="M182.1,176.93h-45l-3.23-33.52a1,1,0,0,1,1-1.12h49.47a1,1,0,0,1,1,1.12Z"/><path class="i" d="M182.46,177.87H136.73l-3.27-33.51a1,1,0,0,1,1-1.12h50.25a1,1,0,0,1,1,1.12Z"/><rect class="g" x="136.73" y="177.87" width="45.7" height="2.03"/><path class="u" d="M162.77,160.56a3.18,3.18,0,1,1-3.18-3.17A3.17,3.17,0,0,1,162.77,160.56Z"/><path class="v" d="M148.94,181.91c2.71,1.57,5.44,3.16,8.2,4.61l.17.08c1.18.57,2.4,1,3.58,1.61a22.09,22.09,0,0,1,2.18,1.22,11,11,0,0,1,1,.69,1.63,1.63,0,0,1,.42.36.86.86,0,0,1,0,.65,1.67,1.67,0,0,1-.33.5,6.27,6.27,0,0,1-2,1.36c-.46.22-.92.42-1.39.61a8.13,8.13,0,0,1-1.36.48,2.37,2.37,0,0,1-.7-.06l-.73-.11c-.48-.08-1-.16-1.45-.26a66.8,66.8,0,0,1-6.51-1.67c-2.14-.64-4.25-1.32-6.39-1.94-10.1-2.91-20.6-6.17-29.39-12.07a12.87,12.87,0,0,1-4.93-5.71c-2.27-6.1,4.22-10.83,9.75-8.53,9.24,3.84,16.86,10.73,25.57,15.65C146,180.2,147.47,181.05,148.94,181.91Z"/><path class="r" d="M166.46,184.11c-1.45.83-2.92,1.64-4.39,2.41s-10.42,3.86-8,7.07a2.63,2.63,0,0,0,2.17.72c4.55,0,9-1.11,13.34-2.42"/><path class="q" d="M157.14,186.52c-.82-.43-1.64-.88-2.46-1.33a27.39,27.39,0,0,1-4.31.76c-3.1.23-6.22-.42-9.32-.22a16.73,16.73,0,0,0-2.33.32c-.91.18-2,.6-2.16,1.51a1.7,1.7,0,0,0,0,.39c2.33.74,4.67,1.43,7,2.09,3.17.91,6.35,2,9.58,2.84h0c1.73-.65,3.74-1.2,5.57-2a11.86,11.86,0,0,0,3.29-2.05C160,187.71,157.82,186.88,157.14,186.52Z"/><path class="k" d="M152.88,193.48c-2-.61-8.1-2.65-10.11-3.23-10.1-2.91-20-6.38-28.78-12.28a13,13,0,0,1-4.93-5.71c-2.26-6.1,4.22-10.83,9.76-8.53,9.24,3.84,16.41,9.22,25.12,14.14,1.46.83,4,2.49,5.51,3.35,1.26.73,5.56,2.88,6.83,3.6"/><path class="t" d="M159.6,194.15c-1.95.46-4,.63-5.85.95-.82.14-1.65.29-2.47.37a35.13,35.13,0,0,1-4,.15h-2.89a2.45,2.45,0,0,1-2.74-1.65,37.31,37.31,0,0,1-1.84-3.26,2.38,2.38,0,0,1-.23-2.26,3.9,3.9,0,0,1,.88-1,7.26,7.26,0,0,1,1.38-1c1.65-.83,3.34-.34,5,.09a40.14,40.14,0,0,0,5.41,1.18,37,37,0,0,0,5.95,0"/><path class="r" d="M158.25,187.75c1.58-.08,4-.49,5.41.42a3.56,3.56,0,0,1,1.55,2c.08.89-.91,1.82-1.55,2.29a10.9,10.9,0,0,1-4.06,1.71"/><path class="l" d="M152.74,196.26h.91a3.57,3.57,0,0,0,2.2-.52.93.93,0,0,0,.22-.27.7.7,0,0,0-.23-.78,1.88,1.88,0,0,0-.8-.32c.33.07.9-1.14,1-1.37a6.34,6.34,0,0,0,.28-2,2.89,2.89,0,0,0-.53-1.68c-.19-.25-.87-1-1.24-.93a.67.67,0,0,0,.43-.8,1.09,1.09,0,0,0-.68-.69,3,3,0,0,0-1-.15,25.93,25.93,0,0,1-5.28-.47,16.59,16.59,0,0,0-4.55-.5,10.73,10.73,0,0,0-3.46.71,5.08,5.08,0,0,0-.87.44c-3.66,2.34-1.24,6.92,1.77,8.53,2.23,1.2,4.58,1,7,.93C149.51,196.33,151.12,196.29,152.74,196.26Z"/><path class="r" d="M170.06,96.15a18.43,18.43,0,0,0-.86-5.49c-2.3-6.81-10.84-8.41-15.92-3.46-5.67,5.53-3.35,18.58,2.72,23.11a6.72,6.72,0,0,0,5.77,1.08C167.68,109.74,170.16,102.43,170.06,96.15Z"/><path class="q" d="M171.46,90.64c-2.59-6.81-12.23-8.4-18-3.44a12.85,12.85,0,0,0-3.4,4.66,12.88,12.88,0,0,0-.31,5.67,7.38,7.38,0,0,1,1.91-4.15,14,14,0,0,1,1.68-1.59c.22-.17,1.84-1.65,1.69-1.86a5.31,5.31,0,0,0,2.05,1.89,18.68,18.68,0,0,0,3.45,1,9.38,9.38,0,0,1,5.23,2.6,14.15,14.15,0,0,1,3.09,5.12c.21.6.57,1.52,1.35,1.25a14.42,14.42,0,0,0,1.81-1.34,21.22,21.22,0,0,0,.38-4.32A16.38,16.38,0,0,0,171.46,90.64Z"/><path class="n" d="M166.84,94.79A13.58,13.58,0,0,1,168,97.54a47.21,47.21,0,0,0,1.52,4.53c2.17-1.3,3.59-4.39,4.58-6.62a6.84,6.84,0,0,0,.38-5.63A9.3,9.3,0,0,0,172,86.27a16.88,16.88,0,0,0-12.43-4.16,20,20,0,0,0-4.4,1.11,6.26,6.26,0,0,0-3.45,1.8,10.63,10.63,0,0,0-1.94,3.54,15.69,15.69,0,0,0-1,6.43c.1,1.42.11,2.82,1.51,3.58,0-.84,0-1.68-.07-2.52a6.85,6.85,0,0,1,0-1.2,6.22,6.22,0,0,1,.31-1,8.32,8.32,0,0,1,1.42-2.7c.93-1.11,2.15-2.12,2.41-3.54A19.88,19.88,0,0,0,162.06,92c1.82.63,3.68,1,4.76,2.74Z"/><path class="r" d="M170.1,96.33c2.61-1.46,3.45,2.16,3,4a5.94,5.94,0,0,1-.92,2.09c-.62.84-2.39,2.22-3.43,1.33a2.29,2.29,0,0,1-.54-1.72C168.17,100.34,168.33,97.32,170.1,96.33Z"/><path class="r" d="M151.26,96.33c-2.61-1.46-3.45,2.16-3,4a5.94,5.94,0,0,0,.92,2.09c.62.84,2.39,2.22,3.43,1.33a2.29,2.29,0,0,0,.54-1.72C153.19,100.34,153,97.32,151.26,96.33Z"/><path class="j" d="M154.42,83.18a24.27,24.27,0,0,0,6.4-.76,20.81,20.81,0,0,1,3.24-.33c.55,0,1.09,0,1.64,0a10,10,0,0,1,1.63.17,4.55,4.55,0,0,1,2.8,1.73,3.07,3.07,0,0,1,.47,1.62,11.75,11.75,0,0,0,.14,1.59,3.35,3.35,0,0,0,.68,1.39,8,8,0,0,1,.93,1.34,4,4,0,0,1,.38,1.59,12.62,12.62,0,0,1-.06,1.63,14.6,14.6,0,0,0,0-1.62A4,4,0,0,0,172.2,90a8.91,8.91,0,0,0-1-1.28,3.77,3.77,0,0,1-.77-1.47,9.24,9.24,0,0,1-.18-1.63,2.77,2.77,0,0,0-.43-1.45c-.14-.21,0,0-.52-.56a4.36,4.36,0,0,0-2.08-1,10.19,10.19,0,0,0-1.58-.17c-.54,0-1.07,0-1.61,0a26.41,26.41,0,0,0-3.2.28c-1.06.17-2.13.39-3.2.5A14.72,14.72,0,0,1,154.42,83.18Z"/><path class="k" d="M166.17,193.48c2-.61,8.09-2.65,10.11-3.23,10.09-2.91,20-6.38,28.78-12.28a12.91,12.91,0,0,0,4.92-5.71c2.27-6.1-4.21-10.83-9.75-8.53-9.24,3.84-16.41,9.22-25.13,14.14-1.45.83-4,2.49-5.5,3.35-1.27.73-5.56,2.88-6.83,3.6"/><path class="w" d="M78.29,149.2a2,2,0,0,1-1.06-.3h0a2,2,0,0,1-.65-2.77L96,113.89A2,2,0,0,1,99.4,116L80,148.25a2,2,0,0,1-1.25.9A2.4,2.4,0,0,1,78.29,149.2Zm19.4-35.76a1.52,1.52,0,0,0-1.29.72L77,146.39a1.51,1.51,0,0,0,.49,2.08h0a1.51,1.51,0,0,0,2.07-.49L99,115.74a1.51,1.51,0,0,0-.48-2.07A1.54,1.54,0,0,0,97.69,113.44Z"/><path class="w" d="M88.77,193a2,2,0,0,1-1.93-1.42v0L76.36,148.13A2,2,0,0,1,80.22,147h0l10.47,43.45a2,2,0,0,1-1.34,2.51h0A2.32,2.32,0,0,1,88.77,193Zm-1.44-1.57a1.5,1.5,0,1,0,2.87-.88h0L79.73,147.11a1.51,1.51,0,0,0-2.88.88v0Z"/><ellipse class="w" cx="89.34" cy="192.26" rx="12.37" ry="1.71"/><path class="w" d="M104.73,115.9H99.44a.25.25,0,0,1-.25-.25.26.26,0,0,1,.25-.26h5.29a.26.26,0,0,1,.26.26A.26.26,0,0,1,104.73,115.9Z"/><path class="x" d="M108.27,119.79l2.38-3.49-2.76-1.88A2.11,2.11,0,0,0,105,115h0a2.12,2.12,0,0,0,.56,2.93Z"/><path class="y" d="M107.58,116.76a8.85,8.85,0,0,1,12.12-2.45L114.44,122l-6.92-5.17Z"/><path class="z" d="M107.52,116.85l6.92,5.17-4.72,6.92A8.88,8.88,0,0,1,107.52,116.85Z"/><path class="w" d="M107.45,117c2.24-3.28,7.23-3.78,11.24-1.16l-8.21,12C106.58,125.05,105.22,120.22,107.45,117Z"/><path class="w" d="M97.82,117A1.92,1.92,0,1,1,99.73,115,1.92,1.92,0,0,1,97.82,117Zm0-3.33a1.41,1.41,0,1,0,1.4,1.41A1.41,1.41,0,0,0,97.82,113.63Z"/><rect class="w" x="69.69" y="130.28" width="36.79" height="0.51" transform="translate(-67.91 152.07) rotate(-63.85)"/></g></g></svg>