<svg xmlns="http://www.w3.org/2000/svg" xmlns:xlink="http://www.w3.org/1999/xlink" viewBox="0 0 320 220"><defs><style>.a{fill:none;}.b{clip-path:url(#a);}.c{fill:#b6d4ec;}.d,.k{fill:#254e6d;}.d,.e,.f,.g{fill-rule:evenodd;}.e{fill:#155992;}.f{fill:url(#b);}.g{fill:#0e3c62;}.h{fill:#1c77c3;}.i{fill:#cce4f2;}.j{fill:#fff;opacity:0.19;}.k{opacity:0.11;}</style><clipPath id="a"><rect class="a" width="320" height="220"/></clipPath><radialGradient id="b" cx="166.26" cy="108.59" fx="310.11330045370204" r="144.68" gradientUnits="userSpaceOnUse"><stop offset="0" stop-color="#fff"/><stop offset="0.15" stop-color="#fbfdfe"/><stop offset="0.28" stop-color="#f0f6fb"/><stop offset="0.41" stop-color="#deebf6"/><stop offset="0.54" stop-color="#c4dcef"/><stop offset="0.66" stop-color="#a2c8e7"/><stop offset="0.78" stop-color="#79afdc"/><stop offset="0.9" stop-color="#4a92cf"/><stop offset="1" stop-color="#1c77c3"/></radialGradient></defs><g class="b"><polygon class="c" points="257.14 213.15 10.7 155.95 129.91 10.54 301.51 41.55 257.14 213.15"/><path class="d" d="M270.19,49a6.57,6.57,0,0,0-6.57-6.57H67.77A6.57,6.57,0,0,0,61.2,49V173.85h209V49Z"/><path class="e" d="M268.81,50.17a6.5,6.5,0,0,0-6.49-6.49H69a6.5,6.5,0,0,0-6.49,6.49V173.38H268.81V50.17Z"/><polygon class="f" points="263.53 50.22 68.98 50.22 68.98 166.95 263.53 166.95 263.53 50.22 263.53 50.22"/><path class="g" d="M292.71,173.35H39.8v3.89a9.09,9.09,0,0,0,9.08,9.08H283.63a9.09,9.09,0,0,0,9.08-9.08v-3.89Z"/><path class="d" d="M198.68,173.35H133.83v2.34a5.45,5.45,0,0,0,5.45,5.44h53.95a5.45,5.45,0,0,0,5.45-5.44v-2.34Z"/><polygon class="h" points="194.86 76.52 197.87 76.6 200.88 76.67 201.59 75.83 195.39 72.04 196.93 74.06 194.86 76.52"/><polygon class="h" points="198.38 96.68 200.44 94.23 198.5 91.67 192.48 91.52 194.43 94.08 192.36 96.53 194.37 96.58 198.38 96.68"/><polygon class="h" points="183.64 83.78 181.57 86.23 190.6 86.45 191.6 86.48 193.67 84.02 191.73 81.47 181.7 81.22 183.64 83.78"/><polygon class="h" points="185.15 103.89 183.08 106.34 188.1 106.47 190.17 104.01 188.22 101.45 183.21 101.33 185.15 103.89"/><polygon class="h" points="193.99 111.63 195.94 114.19 193.87 116.65 198.88 116.77 200.95 114.31 199.01 111.75 193.99 111.63"/><polygon class="h" points="192.68 124.14 190.74 121.59 185.72 121.46 187.67 124.02 185.6 126.48 190.61 126.6 192.68 124.14"/><polygon class="h" points="192.19 144.21 190.12 146.66 195.13 146.79 197.2 144.33 195.26 141.77 190.24 141.65 192.19 144.21"/><path class="h" d="M184.35,136.48l19.06.47,2.06-2.45-1.94-2.56-7-.17-24.08-.6-1.94-2.55,2.07-2.46,10,.24,2.07-2.45-1.95-2.56-5-.12-6-.15-7-.18-1.95-2.55,2.07-2.46,3,.07,10,.25,11,.27,2.07-2.46L189,111.51l-6-.15-11-.27-2-2.56,2.07-2.46,6,.15,2.07-2.46-1.95-2.56-8-.19-1.95-2.56L170.29,96l17.05.42L189.41,94l-1.94-2.55-19.06-.47-1.95-2.56,2.07-2.46,8,.2,2.06-2.46-1.94-2.56-3-.07-1.94-2.56L173.79,76l16.05.4,2.07-2.46L190,71.38l-18.06-.44L170,68.38,172,65.92l11,.28.93-1.11L177.37,61l-7.22-.18-8-.2-1.23-1.61-16,8.72,1.94,2.55-5-.12-.4-.53L120,81.36l-1.35,54.55,34.27,20.93.87-1,12,.3-2.07,2.46,1.94,2.56-6-.15,5.54,3.38,5.69-3.11h-.2l-1.94-2.56,2.06-2.46,8.89.22,8.81-4.8L174,151.28,172,148.73l2.07-2.46,12,.29,2.06-2.45-1.94-2.56-2-.05-4-.1-1.94-2.56,2.07-2.45ZM168,106,166,108.43l1.94,2.56-8-.2L158,108.23l2.06-2.46Zm-2.89-5.09-8-.19-3-.08-2-2.56,2.07-2.45,11,.27-2.07,2.46Zm3.43-20,.07.11-5-.13-3-.07-1.95-2.56,2.07-2.46,8,.2-2.07,2.46ZM152,65.43,167,65.8,165,68.26l2,2.56-15.05-.37-1.94-2.56Zm-5.26,9.91,9,.22L153.67,78l2,2.55-9-.22-2-2.55Zm-6.33,12.39,2.07-2.46,21.07.52-2.07,2.46,1.94,2.55-21.06-.52Zm14,43-5-.13-1.94-2.55,2.07-2.46,5,.12-2.06,2.46Zm-.69-12.57,2.06-2.45,5,.12-2.07,2.46,2,2.56-5-.13Zm2.76,10.11,2.07-2.46,10,.25-2.07,2.46,1.94,2.55-10-.24Zm12.48,22.89-8-.2L159,148.41,161,146l8,.19L167,148.6Zm6.27-9.88-6-.15-2-2.56,2.07-2.46,3,.08,3,.07-2.07,2.46Z"/><path class="i" d="M201.59,75.83l-.71.84-3-.07-3-.08,2.07-2.45-1.54-2-.89-.54-8.57-5.23L184,65.09l-.93,1.11-11-.28L170,68.38l1.94,2.56,18.06.44,1.94,2.56-2.07,2.46L173.79,76l-2.06,2.46L173.67,81l3,.07,1.94,2.56-2.06,2.46-8-.2-2.07,2.46,1.95,2.56,19.06.47L189.41,94l-2.07,2.46L170.29,96l-2.07,2.46,1.95,2.56,8,.19,1.95,2.56-2.07,2.46-6-.15L170,108.53l2,2.56,11,.27,6,.15,1.94,2.55-2.07,2.46-11-.27-10-.25-3-.07-2.07,2.46,1.95,2.55,7,.18,6,.15,5,.12,1.95,2.56-2.07,2.45-10-.24-2.07,2.46,1.94,2.55,24.08.6,7,.17,1.94,2.56L203.41,137l-19.06-.47-4-.09-2.07,2.45,1.94,2.56,4,.1,2,.05,1.94,2.56-2.06,2.45-12-.29L172,148.73l1.95,2.55,14.56.36,8.81-4.8,8.33-4.53a14.73,14.73,0,0,0,7.67-12.57l1.14-46.05ZM198.5,91.67l1.94,2.56-2.06,2.45-4-.1-2,0,2.07-2.46-2-2.56Zm-10.4,14.8-5-.13,2.07-2.45-1.94-2.56,5,.12,1.95,2.56Zm2.5-20-9-.23,2.07-2.46-1.94-2.55,10,.24L193.67,84l-2.07,2.46Zm0,40.14-5-.12,2.07-2.46-1.95-2.56,5,.13,1.94,2.55Zm8.28-9.83-5-.12,2.07-2.47L194,111.63l5,.12,1.94,2.56Zm-3.76,30-5-.13,2.07-2.45-1.95-2.56,5,.12,1.94,2.56Z"/><polygon class="i" points="166.9 70.82 164.95 68.26 167.02 65.8 151.97 65.43 149.91 67.89 151.85 70.44 166.9 70.82"/><polygon class="i" points="146.84 70.32 144.9 67.77 141.42 69.67 141.82 70.2 146.84 70.32"/><polygon class="i" points="160.75 75.78 158.69 78.24 160.63 80.8 163.64 80.87 168.65 81 168.58 80.89 166.71 78.44 168.78 75.98 160.75 75.78"/><polygon class="i" points="154.24 95.6 152.17 98.05 154.12 100.61 157.13 100.69 165.15 100.88 163.21 98.33 165.28 95.87 154.24 95.6"/><polygon class="i" points="161.45 88.25 163.52 85.79 142.45 85.27 140.38 87.73 142.33 90.28 163.39 90.8 161.45 88.25"/><polygon class="i" points="146.71 75.34 144.64 77.8 146.59 80.35 155.62 80.58 153.67 78.02 155.74 75.56 146.71 75.34"/><polygon class="i" points="158.52 125.81 156.45 128.27 158.39 130.83 168.42 131.07 166.48 128.52 168.55 126.06 158.52 125.81"/><polygon class="i" points="172.31 136.19 169.3 136.11 167.23 138.57 169.18 141.13 175.2 141.28 173.25 138.72 175.32 136.26 172.31 136.19"/><polygon class="i" points="152.44 128.17 154.5 125.71 149.49 125.59 147.42 128.05 149.37 130.6 154.38 130.73 152.44 128.17"/><polygon class="i" points="160.01 105.78 157.94 108.23 159.89 110.79 167.91 110.99 165.97 108.43 168.04 105.97 160.01 105.78"/><polygon class="i" points="153.76 155.8 152.89 156.84 159.66 160.97 165.68 161.12 163.73 158.56 165.8 156.1 153.76 155.8"/><polygon class="i" points="161.03 145.95 158.96 148.41 160.91 150.96 168.93 151.16 166.99 148.6 169.06 146.15 161.03 145.95"/><polygon class="i" points="170.15 60.86 177.37 61.04 168.81 55.81 166.94 55.76 160.9 59.05 162.13 60.66 170.15 60.86"/><polygon class="i" points="168.75 158.68 170.69 161.24 170.89 161.25 179.7 156.44 170.81 156.22 168.75 158.68"/><polygon class="i" points="155.75 115.71 153.69 118.17 155.63 120.72 160.65 120.85 158.7 118.29 160.77 115.83 155.75 115.71"/><polygon class="j" points="168.54 109.61 120.71 81.2 168.34 55.36 214.42 83.51 168.54 109.61"/><polygon class="k" points="165.21 164.42 118.7 136.05 120.5 80.97 168.08 110.47 165.21 164.42"/></g></svg>