<svg xmlns="http://www.w3.org/2000/svg" viewBox="0 0 215 215"><defs><style>.cls-1{isolation:isolate;}.cls-2{fill:#fff;}.cls-3{fill:#edf3f7;mix-blend-mode:multiply;}.cls-4{fill:#f8f9fa;}.cls-5{fill:#77addb;}.cls-6{fill:#bec8d2;}.cls-7,.cls-9{fill:none;stroke:#bec8d2;stroke-miterlimit:10;}.cls-7{stroke-width:0.6px;stroke-dasharray:2.41 2.41;}.cls-8{fill:#155992;}.cls-9{stroke-width:0.75px;stroke-dasharray:3 2;}</style></defs><g class="cls-1"><g id="tpex"><rect class="cls-2" x="-1072.88" y="-43.65" width="1331.61" height="264.77"/></g><g id="Layer_1" data-name="Layer 1"><path class="cls-3" d="M42.38,29.31H184.13a0,0,0,0,1,0,0V182.54a16.36,16.36,0,0,1-16.36,16.36H42.38a0,0,0,0,1,0,0V29.31A0,0,0,0,1,42.38,29.31Z"/><path class="cls-4" d="M38.87,20.32H174.63a0,0,0,0,1,0,0V174.48a14,14,0,0,1-14,14H38.87a0,0,0,0,1,0,0V20.32A0,0,0,0,1,38.87,20.32Z"/><path class="cls-5" d="M79.27,120.47h0l-15.74-.09a2.62,2.62,0,0,1-2.61-2.64L61,103.05a2.62,2.62,0,0,1,.78-1.85,2.43,2.43,0,0,1,1.86-.76l15.74.09A2.63,2.63,0,0,1,82,103.17l-.08,14.69A2.64,2.64,0,0,1,79.27,120.47Zm0-1h0a1.58,1.58,0,0,0,1.58-1.56l.08-14.7a1.58,1.58,0,0,0-.45-1.11,1.56,1.56,0,0,0-1.11-.47l-15.75-.09h0A1.59,1.59,0,0,0,62,103.06L62,117.75a1.57,1.57,0,0,0,1.56,1.58Z"/><path class="cls-6" d="M88,115.78a.57.57,0,0,1-.57-.56.58.58,0,0,1,.57-.57l60-.15h0a.56.56,0,0,1,0,1.12l-60,.16Z"/><path class="cls-6" d="M88,105.08A.57.57,0,1,1,88,104l60-.16a.55.55,0,0,1,.57.57.56.56,0,0,1-.56.56l-60,.16Z"/><path class="cls-6" d="M88,110.59a.57.57,0,1,1,0-1.13l60-.16h0a.57.57,0,0,1,0,1.13l-60,.16Z"/><path class="cls-6" d="M88.7,142.63a.56.56,0,1,1,0-1.12l60-.16h0a.56.56,0,0,1,.56.56.57.57,0,0,1-.56.57l-60,.15Z"/><path class="cls-6" d="M88.7,131.93a.57.57,0,0,1-.57-.56.58.58,0,0,1,.57-.57l60-.16a.57.57,0,0,1,0,1.13l-60,.16Z"/><path class="cls-6" d="M88.7,137.44a.57.57,0,0,1-.57-.56.58.58,0,0,1,.57-.57l60-.16h0a.57.57,0,0,1,0,1.13l-60,.16Z"/><rect class="cls-5" x="109.93" y="154.03" width="49.35" height="23.24"/><rect class="cls-7" x="59.19" y="98.15" width="24.37" height="24.37"/><rect class="cls-7" x="59.01" y="127.28" width="24.5" height="21.82"/><rect class="cls-7" x="105.87" y="151.78" width="58.09" height="27.97"/><rect class="cls-5" x="64.16" y="103.1" width="14" height="14"/><path class="cls-8" d="M69.5,115.81a6.29,6.29,0,0,1-2.32-1.57c-.91-.85-1.52-1.55-1.73-1.74l1.29-.71A14.18,14.18,0,0,0,68,113.32a5.51,5.51,0,0,0,1.14.91.68.68,0,0,0,.94-.29c.52-1,1.22-3,1.66-4.12,1.31-3.46,2.27-5.8,3.58-6.66l.53,1.46c-.89.58-2,3.56-2.84,5.73-1.4,3.71-2.13,5.46-3.53,5.46Z"/><path class="cls-8" d="M131.63,170.14c.66,1.58,2-.36,2.93-.56.68,1.42,3.16,1.23,4.71.87.19,0,.32-.13.15-.23-.81-.29-1.76.19-2.62.06s-.94-.68-1.56-1.07a2.37,2.37,0,0,0-2.65.64,1.85,1.85,0,0,0-.39-.53c-.2-.2-1.1-.16-.88.08A1.64,1.64,0,0,1,131.63,170.14Z"/><path class="cls-8" d="M139.67,173.29H126.8V172h12.87v1.28m-10.17-3-.9-.9.9-.9-.45-.45-.9.9-.9-.9-.45.45.9.9-.9.9.45.45.9-.9.9.9.45-.45"/><path class="cls-8" d="M139.26,162.15c-.14.15-.28.29-.29.43s.13.28.27.41.41.41.4.62-.23.43-.44.65L137.42,166l-.61-.61,1.83-1.83-.42-.41-.61.61L136,162.18l1.65-1.65a.45.45,0,0,1,.61,0l1,1a.43.43,0,0,1,0,.61m-7.62,4.4L135.2,163l1.62,1.61-3.57,3.57h-1.61Z"/><rect class="cls-5" x="62.15" y="58.42" width="89.6" height="30.73"/><rect class="cls-9" x="59.66" y="56.1" width="94.47" height="36.09"/><path class="cls-8" d="M114.94,64.38l1.64,6-1.37.41a14.19,14.19,0,0,0-1.91-3,3.39,3.39,0,0,0-2.46-.69h-3.42V81.46c0,.68,0,1.37.41,1.64a5.45,5.45,0,0,0,2.33.27v1.37H102V83.37a5.76,5.76,0,0,0,2.32-.27c.41-.27.41-1,.41-1.64V67.11h-3.42a4,4,0,0,0-2.46.55,8.93,8.93,0,0,0-1.91,3l-1.36-.41,1.64-5.88Z"/><rect class="cls-5" x="60.02" y="37.61" width="25.06" height="8.6"/><rect class="cls-9" x="59.32" y="36.97" width="26.42" height="10.09"/><path class="cls-8" d="M74.78,39.28,75.24,41l-.38.12a3.83,3.83,0,0,0-.53-.84,1,1,0,0,0-.69-.19h-1v4c0,.19,0,.38.12.46a1.61,1.61,0,0,0,.65.07V45h-2.3v-.39a1.72,1.72,0,0,0,.65-.07c.12-.08.12-.27.12-.46v-4H71a1.11,1.11,0,0,0-.68.15,2.3,2.3,0,0,0-.54.84l-.38-.11.46-1.65Z"/><circle class="cls-5" cx="70.76" cy="138.02" r="8.06"/><circle class="cls-8" cx="70.76" cy="138.34" r="3.54"/></g></g></svg>