<svg xmlns="http://www.w3.org/2000/svg" xmlns:xlink="http://www.w3.org/1999/xlink" viewBox="0 0 80 80"><defs><style>.a{fill:none;}.b{clip-path:url(#a);}.c{fill:#6588ab;}</style><clipPath id="a"><rect class="a" width="80" height="80"/></clipPath></defs><g class="b"><path class="c" d="M67.84,40A27.78,27.78,0,0,0,40,12.16a28.89,28.89,0,0,0-9.41,1.56l1.95,5.4A20,20,0,0,1,40,17.65,22.35,22.35,0,1,1,17.65,40a20.49,20.49,0,0,1,1.47-7.57l-5.4-1.84A28.89,28.89,0,0,0,12.16,40a27.84,27.84,0,0,0,55.68,0m-46-13.92a4.22,4.22,0,1,1,4.26-4.26,4.27,4.27,0,0,1-4.26,4.26m9.83,5.57h5.57v16.7H31.65m11.13-16.7h5.57v16.7H42.78"/></g></svg>